<svg width="17" height="19" viewBox="0 0 17 19" fill="none" xmlns="http://www.w3.org/2000/svg">
    <path fill-rule="evenodd" clip-rule="evenodd"
        d="M12.388 8.41501C12.4945 8.44007 12.601 8.46513 12.7063 8.49314H13.4139C13.4776 8.47931 13.5415 8.46645 13.6054 8.45358C13.7381 8.42686 13.8708 8.40013 14.0013 8.36479C15.433 7.9757 16.4652 6.78645 16.654 5.31586C16.6568 5.29399 16.6649 5.2729 16.673 5.25184C16.6767 5.24201 16.6805 5.23219 16.6837 5.2223V4.51437C16.6805 4.50448 16.6767 4.49466 16.673 4.48483C16.6649 4.46377 16.6568 4.44268 16.654 4.42081C16.3882 2.34293 14.4694 0.938535 12.3986 1.30669C10.8098 1.58905 9.61414 2.91272 9.4483 4.57314C9.29496 6.10824 10.2461 7.65888 11.7062 8.22158C11.9257 8.30622 12.1568 8.36061 12.388 8.41501ZM14.0957 7.24342L14.1658 6.95697C14.1295 6.974 14.071 6.99347 13.9908 7.01563C13.9104 7.03779 13.8381 7.04907 13.7744 7.04907C13.639 7.04907 13.5436 7.02686 13.4882 6.98223C13.4332 6.9376 13.4058 6.85363 13.4058 6.73066C13.4058 6.68193 13.4141 6.6093 13.4314 6.51423C13.4482 6.41854 13.4675 6.3335 13.4889 6.25911L13.7505 5.33295C13.7761 5.24796 13.7937 5.15451 13.8031 5.05252C13.8128 4.95076 13.8173 4.87956 13.8173 4.83915C13.8173 4.64386 13.7488 4.48537 13.6119 4.36311C13.4749 4.24094 13.2799 4.17986 13.0271 4.17986C12.8865 4.17986 12.7378 4.20485 12.5805 4.25479C12.4231 4.30459 12.2586 4.36459 12.0865 4.43467L12.0162 4.72135C12.0675 4.70238 12.1286 4.68197 12.2001 4.66085C12.2712 4.63981 12.341 4.62893 12.4089 4.62893C12.5476 4.62893 12.641 4.65258 12.6899 4.69914C12.7389 4.74584 12.7635 4.82891 12.7635 4.94766C12.7635 5.01333 12.7557 5.08628 12.7396 5.16557C12.7237 5.24535 12.7038 5.32972 12.6804 5.41876L12.4177 6.34864C12.3943 6.44636 12.3772 6.53378 12.3665 6.61141C12.3558 6.68894 12.3507 6.76504 12.3507 6.83903C12.3507 7.03014 12.4213 7.18769 12.5625 7.31201C12.7037 7.43584 12.9016 7.49819 13.1561 7.49819C13.3219 7.49819 13.4673 7.47652 13.5925 7.43297C13.7175 7.38955 13.8855 7.3264 14.0957 7.24342ZM14.0491 3.48119C14.1713 3.36787 14.2321 3.23006 14.2321 3.0687C14.2321 2.9077 14.1714 2.76961 14.0491 2.65486C13.9272 2.54043 13.7802 2.48303 13.6085 2.48303C13.4361 2.48303 13.2886 2.54029 13.1655 2.65486C13.0425 2.76961 12.9808 2.90765 12.9808 3.0687C12.9808 3.23006 13.0425 3.36783 13.1655 3.48119C13.2888 3.5949 13.4361 3.65181 13.6085 3.65181C13.7803 3.65181 13.9272 3.5949 14.0491 3.48119Z"
        fill="url(#paint0_linear_0_1)" />
    <path
        d="M7.19818 9.33629C5.96135 9.3342 4.96701 8.33707 4.96875 7.10024C4.97015 5.86691 5.97217 4.86872 7.2069 4.87012C8.44233 4.87151 9.43563 5.87039 9.43318 7.10896C9.43074 8.34928 8.43849 9.33839 7.19818 9.33629Z"
        fill="url(#paint1_linear_0_1)" />
    <path fill-rule="evenodd" clip-rule="evenodd"
        d="M12.182 9.49608C12.3211 9.5288 12.4601 9.56152 12.5977 9.59811H13.3678C13.0539 10.5809 12.6078 11.5082 12.0801 12.4021C11.2321 13.8388 10.2225 15.1518 9.10625 16.3813C9.09805 16.4001 9.08495 16.4192 9.06537 16.4392L8.87981 16.628C8.75038 16.7675 8.6196 16.906 8.48755 17.0434C8.29228 17.2467 8.09209 17.4451 7.88657 17.6459L7.72841 17.8085C7.58667 17.9543 7.39779 18.0267 7.20906 18.0254C7.02033 18.0267 6.83145 17.9543 6.68971 17.8085L6.53156 17.6459C6.32603 17.4451 6.12584 17.2467 5.93057 17.0434C5.79852 16.906 5.66774 16.7675 5.53831 16.628L5.35274 16.4392C5.33316 16.4192 5.32006 16.4001 5.31186 16.3813C4.19557 15.1518 3.18597 13.8388 2.33802 12.4021C1.80745 11.5033 1.35934 10.5707 1.0452 9.58192C1.00847 9.51431 0.978784 9.43396 0.952161 9.33884C0.834011 8.9167 0.745633 8.49699 0.690834 8.07961C0.638248 7.70141 0.617592 7.32531 0.627336 6.95439C0.646776 6.05811 0.840371 5.17248 1.24698 4.29664C1.95 2.78215 3.18546 1.65734 4.63369 1.04334C5.46759 0.68134 6.34336 0.511355 7.20904 0.513696C8.07473 0.511349 8.95052 0.681336 9.78444 1.04335C9.88691 1.08679 9.98831 1.13279 10.0885 1.18131C9.22873 1.88293 8.62113 2.89048 8.40472 4.05015C8.03432 3.90444 7.63101 3.82406 7.20906 3.8232C5.40179 3.82688 3.93664 5.28942 3.93386 7.09476C3.93107 8.91103 5.39529 10.3785 7.20906 10.3792C8.48826 10.3787 9.59359 9.64861 10.133 8.58115C10.4812 8.85555 10.8702 9.08106 11.2918 9.24351C11.5783 9.35402 11.8802 9.42505 12.182 9.49608Z"
        fill="url(#paint2_linear_0_1)" />
    <defs>
        <linearGradient id="paint0_linear_0_1" x1="8.94582" y1="2.2754" x2="14.6832" y2="9.45351"
            gradientUnits="userSpaceOnUse">
            <stop stop-color="#00C0FF" />
            <stop offset="1" stop-color="#C28123" />
        </linearGradient>
        <linearGradient id="paint1_linear_0_1" x1="4.66935" y1="5.50342" x2="8.20709" y2="9.92387"
            gradientUnits="userSpaceOnUse">
            <stop stop-color="#00C0FF" />
            <stop offset="1" stop-color="#C28123" />
        </linearGradient>
        <linearGradient id="paint2_linear_0_1" x1="-0.253296" y1="2.99683" x2="13.9314" y2="16.2574"
            gradientUnits="userSpaceOnUse">
            <stop stop-color="#00C0FF" />
            <stop offset="1" stop-color="#C28123" />
        </linearGradient>
    </defs>
</svg>
    