<svg width="24" height="22" viewBox="0 0 24 22" fill="none" xmlns="http://www.w3.org/2000/svg">
<path d="M0.0234375 2.69204C0.291924 2.10424 0.758803 1.83206 1.41465 1.91486C1.32775 1.26066 1.63476 0.676958 2.29758 0.527344L12.6767 0.532263C12.7944 0.558906 12.9637 0.757299 13.0542 0.850347C14.0929 1.92019 15.0214 3.11588 16.0359 4.20991C16.0974 4.30419 16.0949 4.40379 16.1031 4.51078C16.1441 5.03627 16.1629 6.17539 16.1031 6.68285C16.0961 6.74229 16.0982 6.7882 16.0396 6.82386H15.4259L15.3645 6.76237V4.69646H13.012C12.7726 4.69646 12.2553 4.13736 12.2553 3.89879V1.21926H2.37587C2.25741 1.21926 2.07295 1.51644 2.1082 1.6472L2.1369 19.1312L2.33201 19.3452L15.0894 19.3739C15.2603 19.3148 15.3431 19.2665 15.3657 19.0771C15.5022 17.9191 15.264 16.4967 15.3628 15.3105L15.4263 15.1695H16.04L16.1035 15.3105C16.0314 16.4967 16.192 17.7806 16.1031 18.9553C16.0543 19.5993 15.7092 20.0346 15.0398 20.0805C15.1177 20.7384 14.8398 21.2426 14.2196 21.4697H0.923584C0.453425 21.3635 0.130012 21.0413 0.0234375 20.5695V2.69204ZM14.9148 4.00127L12.9509 1.83288V3.77623C12.9509 3.82419 13.128 4.00127 13.176 4.00127H14.9148ZM1.41424 2.61047C1.11665 2.59448 0.761262 2.58792 0.717813 2.95725L0.716993 20.388C0.707155 20.5474 0.804712 20.6679 0.934241 20.7437L13.9954 20.7757C14.3647 20.7323 14.3581 20.3769 14.3422 20.0793H2.29389C1.97048 20.0793 1.41424 19.5231 1.41424 19.1996V2.61047Z" fill="white"/>
<path d="M10.4958 8.91016H3.5V9.60576H10.4958V8.91016Z" fill="white"/>
<path d="M10.4958 10.9961H3.5V11.6917H10.4958V10.9961Z" fill="white"/>
<path d="M10.4958 13.084H3.5V13.7796H10.4958V13.084Z" fill="white"/>
<path d="M7.7138 4.00195V4.67706L7.65272 4.73855H3.56149L3.5 4.67706V4.00195H7.7138Z" fill="white"/>
<path d="M7.71558 2.61035H4.89258V3.30596H7.71558V2.61035Z" fill="white"/>
<path d="M4.2366 3.30596H3.5V2.61035H4.17511L4.2366 2.67184V3.30596Z" fill="white"/>
<path fill-rule="evenodd" clip-rule="evenodd" d="M16.4932 16.95C16.6719 16.992 16.8507 17.0341 17.0275 17.0811H18.2154C18.3222 17.0579 18.4295 17.0363 18.5368 17.0147C18.7596 16.9698 18.9824 16.925 19.2013 16.8656C21.6048 16.2125 23.3375 14.2161 23.6544 11.7475C23.6591 11.7108 23.6727 11.6754 23.6862 11.64C23.6926 11.6235 23.6989 11.607 23.7043 11.5904V10.402C23.6989 10.3854 23.6926 10.3689 23.6862 10.3524C23.6727 10.3171 23.6591 10.2817 23.6544 10.245C23.2082 6.75689 19.9872 4.39938 16.511 5.01739C13.8439 5.49139 11.8368 7.7134 11.5584 10.5007C11.301 13.0776 12.8976 15.6806 15.3487 16.6252C15.7171 16.7673 16.1051 16.8586 16.4932 16.95ZM19.3588 14.9854L19.4765 14.5045C19.4156 14.5331 19.3174 14.5658 19.1828 14.603C19.0478 14.6402 18.9264 14.6591 18.8196 14.6591C18.5922 14.6591 18.4321 14.6218 18.3391 14.5469C18.2468 14.472 18.2008 14.331 18.2008 14.1246C18.2008 14.0428 18.2147 13.9209 18.2437 13.7613C18.2719 13.6006 18.3042 13.4579 18.3402 13.333L18.7794 11.7783C18.8224 11.6356 18.8519 11.4787 18.8677 11.3075C18.8839 11.1367 18.8915 11.0172 18.8915 10.9494C18.8915 10.6215 18.7766 10.3555 18.5467 10.1502C18.3168 9.94517 17.9894 9.84263 17.5651 9.84263C17.329 9.84263 17.0794 9.88458 16.8152 9.96841C16.5511 10.052 16.2749 10.1527 15.986 10.2704L15.8681 10.7516C15.9542 10.7198 16.0567 10.6855 16.1767 10.65C16.2961 10.6147 16.4133 10.5965 16.5273 10.5965C16.7601 10.5965 16.9169 10.6362 16.9991 10.7143C17.0812 10.7927 17.1225 10.9322 17.1225 11.1315C17.1225 11.2418 17.1094 11.3642 17.0824 11.4973C17.0556 11.6312 17.0223 11.7729 16.9831 11.9223L16.542 13.4833C16.5028 13.6473 16.4741 13.7941 16.4561 13.9244C16.4382 14.0546 16.4296 14.1823 16.4296 14.3065C16.4296 14.6273 16.5481 14.8918 16.7851 15.1005C17.0221 15.3084 17.3544 15.413 17.7817 15.413C18.0598 15.413 18.304 15.3767 18.5142 15.3035C18.7241 15.2307 19.006 15.1246 19.3588 14.9854ZM19.2806 8.66978C19.4858 8.47957 19.5878 8.24823 19.5878 7.97735C19.5878 7.70708 19.4859 7.47529 19.2806 7.28265C19.076 7.09055 18.8293 6.9942 18.5409 6.9942C18.2517 6.9942 18.004 7.09032 17.7974 7.28265C17.5908 7.47529 17.4873 7.707 17.4873 7.97735C17.4873 8.24823 17.5908 8.47949 17.7974 8.66978C18.0044 8.86068 18.2516 8.9562 18.5409 8.9562C18.8294 8.9562 19.076 8.86068 19.2806 8.66978Z" fill="white"/>
</svg>
