<svg width="54" height="13" viewBox="0 0 54 13" fill="none" xmlns="http://www.w3.org/2000/svg">
    <g filter="url(#filter0_b_1_13523)">
        <path
            d="M12.9492 2.07812C12.5476 2.07812 12.2209 2.32858 12.2209 2.63644V9.48976C12.2577 10.2307 13.6437 10.228 13.6802 9.48976V2.63644C13.6802 2.3286 13.3523 2.07812 12.9492 2.07812Z"
            fill="#D3D3D3" />
        <path
            d="M8.18437 2.07812C7.78128 2.07812 7.45337 2.32858 7.45337 2.63644V9.48976C7.49021 10.2296 8.8789 10.229 8.9154 9.48976V2.63644C8.9154 2.3286 8.58746 2.07812 8.18437 2.07812Z"
            fill="#D3D3D3" />
        <path
            d="M10.567 4.12109C10.1655 4.12109 9.83887 4.37154 9.83887 4.67941V7.44985C9.87561 8.19079 11.2616 8.18804 11.2981 7.44985V4.67941C11.2981 4.37154 10.9701 4.12109 10.567 4.12109Z"
            fill="#D3D3D3" />
        <path
            d="M15.3318 5.14014C14.9303 5.14014 14.6036 5.39059 14.6036 5.69845V6.42742C14.6404 7.16834 16.0263 7.16563 16.0628 6.42742V5.69845C16.0628 5.39059 15.7349 5.14014 15.3318 5.14014Z"
            fill="#D3D3D3" />
        <path
            d="M1.03706 5.14014C0.63397 5.14014 0.30603 5.39059 0.30603 5.69843V6.42739C0.342899 7.16615 1.72886 7.16777 1.76523 6.42739V5.69843C1.76523 5.39059 1.43859 5.14014 1.03706 5.14014Z"
            fill="#D3D3D3" />
        <path
            d="M3.41951 3.09863C3.01642 3.09863 2.68848 3.34908 2.68848 3.65695V8.46882C2.72535 9.20762 4.11133 9.20918 4.14774 8.46882V3.65695C4.14774 3.34908 3.82106 3.09863 3.41951 3.09863Z"
            fill="#D3D3D3" />
        <path
            d="M5.80205 0.0371094C5.39895 0.0371094 5.07104 0.287559 5.07104 0.595425V11.5317C5.10788 12.2704 6.49384 12.272 6.53025 11.5317V0.595425C6.53025 0.287559 6.20357 0.0371094 5.80205 0.0371094Z"
            fill="#D3D3D3" />
    </g>
    <g filter="url(#filter1_b_1_13523)">
        <path
            d="M31.6397 2.07812C31.2382 2.07812 30.9115 2.32858 30.9115 2.63644V9.48976C30.9482 10.2307 32.3342 10.228 32.3707 9.48976V2.63644C32.3707 2.3286 32.0428 2.07812 31.6397 2.07812Z"
            fill="#D3D3D3" />
        <path
            d="M26.8749 2.07812C26.4718 2.07812 26.1439 2.32858 26.1439 2.63644V9.48976C26.1808 10.2296 27.5695 10.229 27.606 9.48976V2.63644C27.606 2.3286 27.278 2.07812 26.8749 2.07812Z"
            fill="#D3D3D3" />
        <path
            d="M29.2576 4.12109C28.8561 4.12109 28.5294 4.37154 28.5294 4.67941V7.44985C28.5662 8.19079 29.9521 8.18804 29.9886 7.44985V4.67941C29.9886 4.37154 29.6607 4.12109 29.2576 4.12109Z"
            fill="#D3D3D3" />
        <path
            d="M34.0224 5.14014C33.6209 5.14014 33.2942 5.39059 33.2942 5.69845V6.42742C33.3309 7.16834 34.7169 7.16563 34.7534 6.42742V5.69845C34.7534 5.39059 34.4255 5.14014 34.0224 5.14014Z"
            fill="#D3D3D3" />
        <path
            d="M19.7276 5.14014C19.3245 5.14014 18.9966 5.39059 18.9966 5.69843V6.42739C19.0335 7.16615 20.4194 7.16777 20.4558 6.42739V5.69843C20.4558 5.39059 20.1291 5.14014 19.7276 5.14014Z"
            fill="#D3D3D3" />
        <path
            d="M22.1101 3.09863C21.707 3.09863 21.379 3.34908 21.379 3.65695V8.46882C21.4159 9.20762 22.8019 9.20918 22.8383 8.46882V3.65695C22.8383 3.34908 22.5116 3.09863 22.1101 3.09863Z"
            fill="#D3D3D3" />
        <path
            d="M24.4926 0.0371094C24.0895 0.0371094 23.7616 0.287559 23.7616 0.595425V11.5317C23.7984 12.2704 25.1844 12.272 25.2208 11.5317V0.595425C25.2208 0.287559 24.8941 0.0371094 24.4926 0.0371094Z"
            fill="#D3D3D3" />
    </g>
    <g filter="url(#filter2_b_1_13523)">
        <path
            d="M50.3305 2.07812C49.929 2.07812 49.6023 2.32858 49.6023 2.63644V9.48976C49.639 10.2307 51.025 10.228 51.0615 9.48976V2.63644C51.0615 2.3286 50.7336 2.07812 50.3305 2.07812Z"
            fill="#D3D3D3" />
        <path
            d="M45.5657 2.07812C45.1626 2.07812 44.8347 2.32858 44.8347 2.63644V9.48976C44.8716 10.2296 46.2603 10.229 46.2968 9.48976V2.63644C46.2968 2.3286 45.9688 2.07812 45.5657 2.07812Z"
            fill="#D3D3D3" />
        <path
            d="M47.9484 4.12109C47.5469 4.12109 47.2202 4.37154 47.2202 4.67941V7.44985C47.257 8.19079 48.6429 8.18804 48.6794 7.44985V4.67941C48.6794 4.37154 48.3515 4.12109 47.9484 4.12109Z"
            fill="#D3D3D3" />
        <path
            d="M52.7132 5.14014C52.3117 5.14014 51.985 5.39059 51.985 5.69845V6.42742C52.0217 7.16834 53.4077 7.16563 53.4442 6.42742V5.69845C53.4442 5.39059 53.1163 5.14014 52.7132 5.14014Z"
            fill="#D3D3D3" />
        <path
            d="M38.4184 5.14014C38.0153 5.14014 37.6874 5.39059 37.6874 5.69843V6.42739C37.7242 7.16615 39.1102 7.16777 39.1466 6.42739V5.69843C39.1466 5.39059 38.8199 5.14014 38.4184 5.14014Z"
            fill="#D3D3D3" />
        <path
            d="M40.8009 3.09863C40.3978 3.09863 40.0698 3.34908 40.0698 3.65695V8.46882C40.1067 9.20762 41.4927 9.20918 41.5291 8.46882V3.65695C41.5291 3.34908 41.2024 3.09863 40.8009 3.09863Z"
            fill="#D3D3D3" />
        <path
            d="M43.1834 0.0371094C42.7803 0.0371094 42.4524 0.287559 42.4524 0.595425V11.5317C42.4892 12.2704 43.8752 12.272 43.9116 11.5317V0.595425C43.9116 0.287559 43.5849 0.0371094 43.1834 0.0371094Z"
            fill="#D3D3D3" />
    </g>
    <defs>
        <filter id="filter0_b_1_13523" x="-20.0119" y="-20.2808" width="56.3927" height="52.6851"
            filterUnits="userSpaceOnUse" color-interpolation-filters="sRGB">
            <feFlood flood-opacity="0" result="BackgroundImageFix" />
            <feGaussianBlur in="BackgroundImageFix" stdDeviation="10.159" />
            <feComposite in2="SourceAlpha" operator="in" result="effect1_backgroundBlur_1_13523" />
            <feBlend mode="normal" in="SourceGraphic" in2="effect1_backgroundBlur_1_13523"
                result="shape" />
        </filter>
        <filter id="filter1_b_1_13523" x="-1.32133" y="-20.2808" width="56.3927" height="52.6851"
            filterUnits="userSpaceOnUse" color-interpolation-filters="sRGB">
            <feFlood flood-opacity="0" result="BackgroundImageFix" />
            <feGaussianBlur in="BackgroundImageFix" stdDeviation="10.159" />
            <feComposite in2="SourceAlpha" operator="in" result="effect1_backgroundBlur_1_13523" />
            <feBlend mode="normal" in="SourceGraphic" in2="effect1_backgroundBlur_1_13523"
                result="shape" />
        </filter>
        <filter id="filter2_b_1_13523" x="17.3695" y="-20.2808" width="56.3927" height="52.6851"
            filterUnits="userSpaceOnUse" color-interpolation-filters="sRGB">
            <feFlood flood-opacity="0" result="BackgroundImageFix" />
            <feGaussianBlur in="BackgroundImageFix" stdDeviation="10.159" />
            <feComposite in2="SourceAlpha" operator="in" result="effect1_backgroundBlur_1_13523" />
            <feBlend mode="normal" in="SourceGraphic" in2="effect1_backgroundBlur_1_13523"
                result="shape" />
        </filter>
    </defs>
</svg>
    