<svg width="8" height="9" viewBox="0 0 8 9" fill="none" xmlns="http://www.w3.org/2000/svg">
    <path
        d="M7.97393 1.40277V6.41222C7.97393 7.28998 7.26019 8.00372 6.38243 8.00372C5.5091 8.00372 4.79093 7.28998 4.79093 6.41222C4.79093 5.53889 5.5091 4.82516 6.38243 4.82516C6.75481 4.82516 7.0873 4.95372 7.35772 5.16651V2.52879L3.2748 3.69027V7.26781C3.2748 8.14558 2.55662 8.85931 1.68329 8.85931C0.805528 8.85931 0.0917969 8.14558 0.0917969 7.26781C0.0917969 6.39449 0.805528 5.68075 1.68329 5.68075C2.05124 5.68075 2.38373 5.80931 2.65415 6.01767V2.09877C2.65415 1.4471 3.0487 0.941725 3.67378 0.773266L6.23614 0.0728303C6.75481 -0.0690302 7.19369 -0.0202657 7.50401 0.219124C7.81877 0.45408 7.97393 0.853063 7.97393 1.40277Z"
        fill="url(#paint0_linear_1_13522)" />
    <defs>
        <linearGradient id="paint0_linear_1_13522" x1="19.2536" y1="19.1409" x2="-8.04879"
            y2="26.0876" gradientUnits="userSpaceOnUse">
            <stop stop-color="#036068" />
            <stop offset="0.135781" stop-color="#596451" />
            <stop offset="0.561006" stop-color="#1199A8" />
            <stop offset="0.75484" stop-color="#74C27C" />
            <stop offset="1" stop-color="#1199A8" />
        </linearGradient>
    </defs>
</svg>
    