<svg width="19" height="20" viewBox="0 0 19 20" fill="none" xmlns="http://www.w3.org/2000/svg">
    <path
        d="M6.56231 13.156C5.7846 13.156 5.09282 12.658 4.84161 11.9167L4.82462 11.8608C4.76538 11.6645 4.74056 11.4994 4.74056 11.3342V8.02197L3.56203 11.956C3.41046 12.5346 3.75586 13.1345 4.33539 13.2944L11.8473 15.3061C11.9411 15.3304 12.0348 15.342 12.1272 15.342C12.611 15.342 13.0531 15.0209 13.177 14.5477L13.6146 13.156H6.56231Z"
        fill="url(#paint0_linear_1_1653)" />
    <path
        d="M7.89839 8.05409C8.43423 8.05409 8.86992 7.61832 8.86992 7.08247C8.86992 6.54662 8.43423 6.11084 7.89839 6.11084C7.36254 6.11084 6.92676 6.54662 6.92676 7.08247C6.92676 7.61832 7.36254 8.05409 7.89839 8.05409Z"
        fill="url(#paint1_linear_1_1653)" />
    <path
        d="M13.9702 4.65479H6.68322C6.01385 4.65479 5.46875 5.19989 5.46875 5.86934V11.2131C5.46875 11.8825 6.01385 12.4276 6.68322 12.4276H13.9702C14.6397 12.4276 15.1848 11.8825 15.1848 11.2131V5.86934C15.1848 5.19989 14.6397 4.65479 13.9702 4.65479ZM6.68322 5.62641H13.9702C14.1043 5.62641 14.2131 5.7352 14.2131 5.86934V9.31803L12.6785 7.52733C12.5157 7.33643 12.2801 7.23441 12.027 7.22862C11.7754 7.23005 11.5393 7.34177 11.378 7.53515L9.57373 9.70079L8.98593 9.11441C8.65369 8.78218 8.11295 8.78218 7.78116 9.11441L6.44038 10.4548V5.86934C6.44038 5.7352 6.54917 5.62641 6.68322 5.62641Z"
        fill="url(#paint2_linear_1_1653)" />
    <defs>
        <linearGradient id="paint0_linear_1_1653" x1="28.0514" y1="23.8312" x2="-4.14631"
            y2="36.5302" gradientUnits="userSpaceOnUse">
            <stop stop-color="#036068" />
            <stop offset="0.135781" stop-color="#596451" />
            <stop offset="0.561006" stop-color="#1199A8" />
            <stop offset="0.75484" stop-color="#74C27C" />
            <stop offset="1" stop-color="#1199A8" />
        </linearGradient>
        <linearGradient id="paint1_linear_1_1653" x1="11.6507" y1="10.3077" x2="5.02661"
            y2="12.2033" gradientUnits="userSpaceOnUse">
            <stop stop-color="#036068" />
            <stop offset="0.135781" stop-color="#596451" />
            <stop offset="0.561006" stop-color="#1199A8" />
            <stop offset="0.75484" stop-color="#74C27C" />
            <stop offset="1" stop-color="#1199A8" />
        </linearGradient>
        <linearGradient id="paint2_linear_1_1653" x1="29.0888" y1="21.4419" x2="-2.67925"
            y2="32.8062" gradientUnits="userSpaceOnUse">
            <stop stop-color="#036068" />
            <stop offset="0.135781" stop-color="#596451" />
            <stop offset="0.561006" stop-color="#1199A8" />
            <stop offset="0.75484" stop-color="#74C27C" />
            <stop offset="1" stop-color="#1199A8" />
        </linearGradient>
    </defs>
</svg>
    