<svg width="22" height="18" viewBox="0 0 22 18" fill="none" xmlns="http://www.w3.org/2000/svg">
    <path fill-rule="evenodd" clip-rule="evenodd"
        d="M15.6068 14.5039L19.885 17.0222C20.4561 17.3584 21.1917 17.1679 21.5279 16.5968C21.8641 16.0256 21.6736 15.2901 21.1024 14.9539L16.8837 12.4707C18.5941 8.61972 17.1558 4.01978 13.4249 1.86576C9.4337 -0.438579 4.33013 0.928919 2.02579 4.92015C-0.278551 8.91139 1.08895 14.015 5.08018 16.3193C8.6251 18.366 13.0475 17.5161 15.6068 14.5039ZM12.2249 3.94422C15.0683 5.58582 16.0425 9.22157 14.4009 12.0649C12.7593 14.9082 9.12351 15.8824 6.28018 14.2408C3.43685 12.5992 2.46265 8.96348 4.10425 6.12015C5.74585 3.27682 9.3816 2.30262 12.2249 3.94422Z"
        fill="white" />
</svg>
    