<svg width="21" height="18" viewBox="0 0 21 18" fill="none" xmlns="http://www.w3.org/2000/svg">
    <path opacity="0.6" fill-rule="evenodd" clip-rule="evenodd"
        d="M14.6947 14.386L18.9728 16.9041C19.544 17.2403 20.2795 17.0498 20.6157 16.4787C20.9519 15.9076 20.7614 15.172 20.1903 14.8358L15.9717 12.3527C17.6822 8.50175 16.2439 3.90174 12.513 1.7477C8.52177 -0.556637 3.4182 0.810861 1.11386 4.80209C-1.19048 8.79333 0.177021 13.8969 4.16825 16.2012C7.71314 18.2479 12.1355 17.398 14.6947 14.386ZM11.313 3.82616C14.1563 5.46776 15.1305 9.10351 13.4889 11.9468C11.8473 14.7902 8.21159 15.7644 5.36825 14.1228C2.52492 12.4812 1.55073 8.84542 3.19232 6.00209C4.83392 3.15876 8.46967 2.18457 11.313 3.82616Z"
        fill="black" />
</svg>
    