<svg width="25" height="25" viewBox="0 0 25 25" fill="none" xmlns="http://www.w3.org/2000/svg">
<g clip-path="url(#clip0_615_23783)">
<path d="M5.05783 19.7129H2.91803C2.21148 19.7129 1.63867 19.1402 1.63867 18.4338V10.0165C1.63867 9.30998 2.21144 8.7373 2.91803 8.7373H21.6092C22.3157 8.7373 22.8886 9.31002 22.8886 10.0165V18.4338C22.8886 19.1403 22.3158 19.7129 21.6092 19.7129H19.3956" fill="#80B6FF"/>
<path d="M19.2569 16.2578V24.316H5.26953V16.2578" fill="#FAF7F5"/>
<path d="M16.7011 13.1878C17.2269 12.9395 17.4519 12.3119 17.2035 11.7861C16.9551 11.2602 16.3275 11.0353 15.8017 11.2837C15.2759 11.5321 15.051 12.1597 15.2993 12.6855C15.5477 13.2113 16.1753 13.4362 16.7011 13.1878Z" fill="#FF9EB1"/>
<path d="M20.894 12.9839C21.3052 12.5726 21.3052 11.9059 20.894 11.4947C20.4827 11.0834 19.816 11.0834 19.4048 11.4947C18.9935 11.9059 18.9935 12.5726 19.4048 12.9839C19.816 13.3951 20.4827 13.3951 20.894 12.9839Z" fill="#BFDBFF"/>
<path d="M19.2565 8.73756H5.26908V3.8477H4.60172C3.94041 3.8477 3.4043 4.38381 3.4043 5.04512V8.73761H21.1212V5.04508C21.1212 4.38377 20.5851 3.84766 19.9238 3.84766H19.2482" fill="#BFDBFF"/>
<path d="M16.6082 1.25391H5.26953V8.73741H19.2569V3.90267L16.6082 1.25391Z" fill="#FAF7F5"/>
<path d="M16.6074 3.90267H19.2562L16.6074 1.25391V3.90267Z" fill="#BFDBFF"/>
<path d="M21.6093 8.26866H21.5908V5.04492C21.5908 4.12472 20.8448 3.3788 19.9247 3.3788H19.3963L16.94 0.922453C16.94 0.922406 16.94 0.922406 16.9399 0.922313C16.8588 0.836203 16.747 0.785109 16.6287 0.785156C16.6152 0.785156 16.6065 0.785156 16.6055 0.785156H5.26989C5.011 0.785156 4.80114 0.995016 4.80114 1.25391V3.3788H4.60253C3.68233 3.3788 2.93641 4.12477 2.93641 5.04492V8.26866H2.91798C1.95255 8.26866 1.16992 9.05128 1.16992 10.0167V18.4338C1.16992 19.3992 1.9525 20.1818 2.91789 20.1818H4.80119V24.3164C4.80119 24.5753 5.01105 24.7852 5.26994 24.7852H19.2573C19.5162 24.7852 19.726 24.5753 19.726 24.3164V20.1818H21.6092C22.5746 20.1818 23.3573 19.3992 23.3573 18.4337V10.0166C23.3573 9.05123 22.5747 8.26866 21.6093 8.26866ZM20.6533 5.04492V8.26866H19.726V4.3163H19.9247C20.3264 4.3163 20.6533 4.64316 20.6533 5.04492ZM18.1256 3.43392H17.0773V2.38561L18.1256 3.43392ZM5.73864 1.72266H16.1398V3.90267C16.1398 4.16156 16.3496 4.37142 16.6085 4.37142H18.7885V8.26866H5.73864V1.72266ZM3.87391 5.04492C3.87391 4.64316 4.20077 4.3163 4.60253 4.3163H4.80114V8.26866H3.87391V5.04492ZM22.4198 18.4339C22.4198 18.8808 22.0562 19.2443 21.6092 19.2443H19.726V16.727H20.5136C20.7725 16.727 20.9823 16.5171 20.9823 16.2582C20.9823 15.9993 20.7725 15.7895 20.5136 15.7895H14.3827C14.1238 15.7895 13.9139 15.9993 13.9139 16.2582C13.9139 16.5171 14.1238 16.727 14.3827 16.727H18.7885V23.8477H5.73864V16.727H10.1446C10.4035 16.727 10.6133 16.5171 10.6133 16.2582C10.6133 15.9993 10.4035 15.7895 10.1446 15.7895H4.01359C3.7547 15.7895 3.54484 15.9993 3.54484 16.2582C3.54484 16.5171 3.7547 16.727 4.01359 16.727H4.80114V19.2443H2.91803C2.47108 19.2443 2.10747 18.8808 2.10747 18.4339V10.0166C2.10747 9.56972 2.47108 9.20616 2.91803 9.20616H21.6092C22.0562 9.20616 22.4198 9.56972 22.4198 10.0166V18.4339Z" fill="black"/>
<path d="M12.2724 16.7272C12.0738 16.7272 11.8926 16.5971 11.829 16.4091C11.7673 16.2268 11.8256 16.0184 11.975 15.8962C12.1287 15.7705 12.3511 15.756 12.5198 15.8606C12.6837 15.9624 12.7705 16.1608 12.7323 16.3503C12.6886 16.5668 12.4932 16.7272 12.2724 16.7272Z" fill="black"/>
<path d="M15.5185 19.6934H9.00781C8.74892 19.6934 8.53906 19.4835 8.53906 19.2246C8.53906 18.9657 8.74892 18.7559 9.00781 18.7559H15.5185C15.7774 18.7559 15.9872 18.9657 15.9872 19.2246C15.9872 19.4835 15.7774 19.6934 15.5185 19.6934Z" fill="black"/>
<path d="M15.5185 22.4697H9.00781C8.74892 22.4697 8.53906 22.2599 8.53906 22.001C8.53906 21.7421 8.74892 21.5322 9.00781 21.5322H15.5185C15.7774 21.5322 15.9872 21.7421 15.9872 22.001C15.9872 22.2599 15.7774 22.4697 15.5185 22.4697Z" fill="black"/>
<path d="M20.1528 13.7607C19.3136 13.7607 18.6309 13.0779 18.6309 12.2387C18.6309 11.3995 19.3136 10.7168 20.1528 10.7168C20.992 10.7168 21.6747 11.3995 21.6747 12.2387C21.6747 13.0779 20.992 13.7607 20.1528 13.7607ZM20.1528 11.6543C19.8305 11.6543 19.5684 11.9165 19.5684 12.2387C19.5684 12.561 19.8305 12.8232 20.1528 12.8232C20.4751 12.8232 20.7372 12.561 20.7372 12.2387C20.7372 11.9165 20.4751 11.6543 20.1528 11.6543Z" fill="black"/>
<path d="M16.2563 13.7607C15.4171 13.7607 14.7344 13.0779 14.7344 12.2387C14.7344 11.3995 15.4171 10.7168 16.2563 10.7168C17.0955 10.7168 17.7783 11.3995 17.7783 12.2387C17.7783 13.0779 17.0955 13.7607 16.2563 13.7607ZM16.2563 11.6543C15.934 11.6543 15.6719 11.9165 15.6719 12.2387C15.6719 12.561 15.934 12.8232 16.2563 12.8232C16.5786 12.8232 16.8408 12.561 16.8408 12.2387C16.8408 11.9165 16.5786 11.6543 16.2563 11.6543Z" fill="black"/>
</g>
<defs>
<clipPath id="clip0_615_23783">
<rect width="24" height="24" fill="white" transform="translate(0.263672 0.785156)"/>
</clipPath>
</defs>
</svg>
