<svg width="17" height="19" viewBox="0 0 17 19" fill="none" xmlns="http://www.w3.org/2000/svg">
    <path fill-rule="evenodd" clip-rule="evenodd"
        d="M12.6248 8.44431C12.7313 8.46937 12.8378 8.49442 12.9431 8.52244H13.6507C13.7144 8.50861 13.7783 8.49574 13.8422 8.48288C13.9749 8.45615 14.1077 8.42943 14.2381 8.39409C15.6698 8.00499 16.702 6.81575 16.8908 5.34516C16.8936 5.32328 16.9017 5.30219 16.9098 5.28114C16.9135 5.27131 16.9173 5.26149 16.9205 5.2516V4.54366C16.9173 4.53377 16.9135 4.52395 16.9098 4.51412C16.9017 4.49307 16.8936 4.47198 16.8908 4.4501C16.625 2.37222 14.7062 0.967832 12.6354 1.33599C11.0466 1.61835 9.85096 2.94202 9.68512 4.60243C9.53178 6.13754 10.4829 7.68818 11.943 8.25088C12.1625 8.33551 12.3936 8.38991 12.6248 8.44431ZM14.3325 7.27272L14.4026 6.98627C14.3663 7.0033 14.3078 7.02276 14.2276 7.04492C14.1472 7.06708 14.0749 7.07836 14.0113 7.07836C13.8758 7.07836 13.7804 7.05616 13.725 7.01153C13.6701 6.96689 13.6426 6.88293 13.6426 6.75995C13.6426 6.71123 13.6509 6.63859 13.6682 6.54353C13.685 6.44783 13.7043 6.36279 13.7257 6.2884L13.9873 5.36225C14.0129 5.27725 14.0305 5.18381 14.0399 5.08182C14.0496 4.98006 14.0541 4.90886 14.0541 4.86845C14.0541 4.67315 13.9856 4.51467 13.8487 4.39241C13.7117 4.27024 13.5167 4.20915 13.264 4.20915C13.1233 4.20915 12.9746 4.23415 12.8173 4.28408C12.6599 4.33389 12.4954 4.39389 12.3233 4.46396L12.253 4.75064C12.3043 4.73168 12.3654 4.71127 12.4369 4.69014C12.508 4.66911 12.5778 4.65823 12.6457 4.65823C12.7844 4.65823 12.8778 4.68187 12.9268 4.72844C12.9757 4.77514 13.0003 4.8582 13.0003 4.97696C13.0003 5.04263 12.9925 5.11558 12.9764 5.19486C12.9605 5.27465 12.9406 5.35901 12.9172 5.44806L12.6545 6.37794C12.6311 6.47566 12.6141 6.56308 12.6033 6.64071C12.5927 6.71824 12.5875 6.79434 12.5875 6.86832C12.5875 7.05944 12.6582 7.21698 12.7993 7.34131C12.9405 7.46514 13.1385 7.52748 13.393 7.52748C13.5587 7.52748 13.7041 7.50582 13.8293 7.46227C13.9544 7.41885 14.1223 7.35569 14.3325 7.27272ZM14.2859 3.51048C14.4081 3.39717 14.4689 3.25936 14.4689 3.098C14.4689 2.93699 14.4082 2.79891 14.2859 2.68416C14.164 2.56972 14.0171 2.51232 13.8453 2.51232C13.6729 2.51232 13.5254 2.56959 13.4024 2.68416C13.2793 2.79891 13.2176 2.93695 13.2176 3.098C13.2176 3.25936 13.2793 3.39712 13.4024 3.51048C13.5256 3.6242 13.6729 3.68111 13.8453 3.68111C14.0171 3.68111 14.164 3.6242 14.2859 3.51048Z"
        fill="white" />
    <path
        d="M7.43451 9.36559C6.19768 9.3635 5.20334 8.36636 5.20508 7.12954C5.20648 5.8962 6.2085 4.89802 7.44323 4.89942C8.67866 4.90081 9.67195 5.89969 9.66951 7.13826C9.66707 8.37857 8.67482 9.36768 7.43451 9.36559Z"
        fill="white" />
    <path fill-rule="evenodd" clip-rule="evenodd"
        d="M12.4183 9.52538C12.5574 9.5581 12.6964 9.59082 12.834 9.6274H13.6041C13.2902 10.6102 12.8441 11.5375 12.3164 12.4314C11.4685 13.8681 10.4589 15.1811 9.34258 16.4106C9.33438 16.4294 9.32128 16.4485 9.3017 16.4685L9.11614 16.6573C8.98671 16.7968 8.85592 16.9353 8.72387 17.0727C8.52861 17.276 8.32842 17.4744 8.12289 17.6752L7.96474 17.8378C7.82299 17.9836 7.63411 18.056 7.44538 18.0547C7.25665 18.056 7.06778 17.9836 6.92603 17.8378L6.76789 17.6752C6.56236 17.4744 6.36216 17.276 6.1669 17.0727C6.03485 16.9353 5.90407 16.7968 5.77463 16.6573L5.58907 16.4685C5.56949 16.4485 5.55639 16.4294 5.54819 16.4106C4.4319 15.1811 3.4223 13.8681 2.57435 12.4314C2.04378 11.5326 1.59567 10.6 1.28152 9.61122C1.2448 9.54361 1.21511 9.46326 1.18849 9.36814C1.07034 8.946 0.981961 8.52628 0.927162 8.1089C0.874576 7.73071 0.85392 7.35461 0.863664 6.98369C0.883105 6.08741 1.0767 5.20177 1.4833 4.32594C2.18633 2.81145 3.42179 1.68663 4.87002 1.07264C5.70392 0.710637 6.57969 0.540652 7.44537 0.542993C8.31106 0.540646 9.18684 0.710633 10.0208 1.07265C10.1232 1.11609 10.2246 1.16209 10.3249 1.21061C9.46506 1.91223 8.85746 2.91978 8.64105 4.07944C8.27065 3.93374 7.86734 3.85336 7.44539 3.8525C5.63812 3.85618 4.17297 5.31872 4.17018 7.12406C4.1674 8.94032 5.63161 10.4077 7.44539 10.4085C8.72459 10.408 9.82992 9.67791 10.3694 8.61045C10.7175 8.88485 11.1066 9.11036 11.5281 9.27281C11.8146 9.38332 12.1165 9.45435 12.4183 9.52538Z"
        fill="white" />
</svg>
    