<svg width="25" height="25" viewBox="0 0 25 25" fill="none" xmlns="http://www.w3.org/2000/svg">
    <rect width="25" height="25" rx="3" fill="#69A9C2" />
    <path
        d="M19.6944 9.70051L11.3943 18.0006C11.2003 18.1944 10.9374 18.3033 10.6632 18.3033C10.389 18.3033 10.126 18.1944 9.93207 18.0006L5.30237 13.3464C5.10875 13.1524 5 12.8896 5 12.6156C5 12.3415 5.10875 12.0787 5.30237 11.8848L6.59522 10.5919C6.78906 10.3989 7.05148 10.2905 7.32504 10.2905C7.59859 10.2905 7.86101 10.3989 8.05485 10.5919L10.689 13.1466L16.9438 6.96872C17.1377 6.77549 17.4003 6.66699 17.674 6.66699C17.9477 6.66699 18.2103 6.77549 18.4041 6.96872L19.6937 8.23183C19.7907 8.32794 19.8677 8.4423 19.9203 8.56831C19.9728 8.69433 19.9999 8.8295 20 8.96604C20.0001 9.10258 19.9731 9.23777 19.9206 9.36383C19.8682 9.48989 19.7913 9.60432 19.6944 9.70051Z"
        fill="white" />
</svg>
    