<svg width="24" height="20" viewBox="0 0 24 20" fill="none" xmlns="http://www.w3.org/2000/svg">
    <path
        d="M12.3438 0.273955C12.4842 0.314351 12.6292 0.339209 12.7607 0.396177C16.3176 1.93379 19.8729 3.47451 23.4267 5.01886C23.5132 5.05667 23.5794 5.14056 23.6551 5.20271C23.5737 5.269 23.5028 5.36067 23.4096 5.39796C19.8698 6.81956 16.328 8.23547 12.7871 9.65397C12.4759 9.77879 12.174 9.78345 11.8601 9.6576C8.35193 8.24997 4.84271 6.84598 1.33401 5.44042C1.28636 5.42126 1.23354 5.40935 1.19211 5.38035C1.11909 5.32959 1.0528 5.269 0.983398 5.21255C1.05435 5.1473 1.11494 5.05667 1.19884 5.02041C4.77642 3.46571 8.35608 1.91567 11.9368 0.368729C12.0595 0.315904 12.2009 0.305547 12.3433 0.273438L12.3438 0.273955Z"
        fill="white" />
    <path opacity="0.54"
        d="M12.2958 14.781C12.1508 14.7411 11.997 14.7142 11.8556 14.6578C8.31321 13.2429 4.7724 11.8254 1.23262 10.4038C1.13837 10.366 1.06483 10.2775 0.981445 10.2127C1.06483 10.1469 1.1394 10.0599 1.23366 10.0185C2.55531 9.43847 3.87852 8.86051 5.20639 8.29497C5.32343 8.24526 5.49589 8.24422 5.61501 8.29135C7.56434 9.06093 9.51109 9.8388 11.4547 10.6229C12.0358 10.857 12.5998 10.858 13.1824 10.6229C15.1178 9.84087 17.0588 9.07336 18.9952 8.29342C19.1604 8.22713 19.2951 8.22661 19.4582 8.2986C20.7799 8.87915 22.1056 9.44935 23.4273 10.0289C23.5133 10.0667 23.579 10.1511 23.6547 10.2138C23.579 10.2754 23.5133 10.3614 23.4273 10.3961C19.8637 11.827 16.2986 13.2543 12.7318 14.678C12.5982 14.7313 12.4501 14.7463 12.2958 14.7821V14.781Z"
        fill="white" />
    <path
        d="M12.3214 19.7879C12.1603 19.7439 11.9987 19.716 11.8496 19.6564C8.30722 18.2426 4.76589 16.8266 1.22663 15.4056C1.13496 15.3688 1.06557 15.2761 0.986328 15.2093C1.06349 15.1482 1.13186 15.0669 1.21886 15.0291C2.55709 14.4433 3.89635 13.8607 5.24027 13.2884C5.34282 13.2449 5.49456 13.2496 5.60021 13.291C7.53297 14.0559 9.4647 14.8235 11.3907 15.6055C12.0251 15.8629 12.6326 15.8582 13.266 15.6003C15.1832 14.8203 17.1072 14.0549 19.0322 13.2946C19.1503 13.248 19.3227 13.2537 19.4408 13.304C20.7459 13.8576 22.0448 14.4252 23.3457 14.9892C23.3851 15.0063 23.4301 15.0177 23.4617 15.0441C23.5301 15.1005 23.5917 15.1653 23.6559 15.2264C23.586 15.2839 23.5254 15.3631 23.4457 15.3957C22.1711 15.9105 20.8945 16.4196 19.6184 16.9297C17.3449 17.8386 15.0719 18.748 12.7973 19.6538C12.6482 19.7134 12.4866 19.7418 12.3219 19.7874L12.3214 19.7879Z"
        fill="white" />
</svg>
    