<svg width="35" height="35" viewBox="0 0 35 35" fill="none" xmlns="http://www.w3.org/2000/svg">
<circle cx="17.5317" cy="17.3208" r="16.1408" stroke="#05B226" stroke-width="1.89892"/>
<path d="M18.0084 25.8659C21.7261 25.8658 25.0451 23.9696 26.8867 20.7934C27.1776 20.2917 27.005 19.6501 26.5012 19.3604C25.9974 19.0707 25.3531 19.2425 25.0622 19.7443C23.6014 22.2637 20.9644 23.7678 18.0083 23.7679C15.0522 23.768 12.415 22.2638 10.954 19.7443C10.6632 19.2427 10.019 19.0708 9.51505 19.3605C9.01126 19.6501 8.8387 20.2917 9.12964 20.7934C10.9714 23.9697 14.2906 25.866 18.0084 25.8659Z" fill="#05B226"/>
<path d="M12.1949 13.9977C13.3747 13.9977 14.3312 13.0412 14.3312 11.8614C14.3312 10.6815 13.3747 9.7251 12.1949 9.7251C11.015 9.7251 10.0586 10.6815 10.0586 11.8614C10.0586 13.0412 11.015 13.9977 12.1949 13.9977Z" fill="#05B226"/>
<path d="M22.8707 13.9977C24.0505 13.9977 25.0069 13.0412 25.0069 11.8614C25.0069 10.6815 24.0505 9.7251 22.8707 9.7251C21.6908 9.7251 20.7344 10.6815 20.7344 11.8614C20.7344 13.0412 21.6908 13.9977 22.8707 13.9977Z" fill="#05B226"/>
</svg>
