<svg width="109" height="109" viewBox="0 0 109 109" fill="none" xmlns="http://www.w3.org/2000/svg">
<g filter="url(#filter0_d_1915_38522)">
<path d="M12.0017 50.4161C12.0021 50.4159 12.0024 50.4155 12.0024 50.4151C11.9709 43.4781 13.4632 37.2462 16.4628 31.3789C18.4186 27.5536 20.9188 24.1175 23.9292 21.0478C26.7138 18.2089 29.8251 15.7971 33.2713 13.8185C38.073 11.0617 43.219 9.30008 48.7049 8.5407C51.2089 8.19381 53.7267 8.06956 56.2508 8.18056C61.979 8.43222 67.4416 9.76681 72.6173 12.248C77.0669 14.3818 81.0247 17.2086 84.4741 20.735C89.4384 25.8097 92.937 31.7529 94.9685 38.559C95.8856 41.6312 96.4362 44.7658 96.6677 47.9623C97.1168 54.1622 96.2136 60.1559 93.9398 65.9377C92.2571 70.2165 89.9171 74.1086 86.9559 77.6267C82.8386 82.5173 77.8825 86.3174 72.0893 89.0174C68.3624 90.7544 64.4596 91.9137 60.3858 92.5003C57.7879 92.8743 55.1786 93.013 52.5592 92.8989C47.3123 92.6705 42.2685 91.5365 37.4479 89.4362C32.6961 87.3662 28.4647 84.5217 24.7605 80.8957C20.7302 76.9506 17.6075 72.3842 15.3994 67.1934C13.8737 63.6059 12.8608 59.8803 12.3675 56.0121C12.1159 54.0395 11.9866 52.0619 12.0011 50.4171C12.0011 50.4167 12.0013 50.4163 12.0017 50.4161ZM54.5227 85.4463C54.5227 85.4467 54.5229 85.447 54.5233 85.447C57.314 85.4627 60.0593 85.1133 62.7585 84.4271C67.0941 83.3259 71.0663 81.4413 74.6841 78.8118C79.6169 75.2269 83.4384 70.7046 86.0647 65.1966C88.3605 60.3811 89.4441 55.3051 89.2347 49.9617C89.1319 47.3385 88.7787 44.752 88.1215 42.2114C86.4501 35.7466 83.2669 30.1471 78.4898 25.4666C75.6636 22.6977 72.4558 20.4795 68.8626 18.8226C64.0408 16.5994 58.973 15.5688 53.6649 15.6987C50.9862 15.7643 48.3492 16.1175 45.7538 16.7804C40.3864 18.1522 35.6132 20.6643 31.4366 24.2972C27.9058 27.3688 25.0985 31.0074 23.0197 35.2036C21.1774 38.9229 20.0478 42.8472 19.6454 46.9771C19.3988 49.5057 19.453 52.0329 19.7494 54.5564C20.1821 58.2354 21.1465 61.7649 22.6961 65.1304C25.3363 70.8642 29.2436 75.5504 34.4249 79.1499C40.4607 83.3428 47.1858 85.3825 54.522 85.4457C54.5224 85.4457 54.5227 85.446 54.5227 85.4463Z" fill="url(#paint0_linear_1915_38522)"/>
</g>
<g clip-path="url(#clip0_1915_38522)">
<g filter="url(#filter1_d_1915_38522)">
<path d="M43.6222 39.7633C44.0207 39.3649 44.5611 39.1411 45.1245 39.1411C45.688 39.1411 46.2284 39.3649 46.6269 39.7633L54.1409 47.2773L61.6549 39.7633C62.0557 39.3762 62.5925 39.162 63.1496 39.1669C63.7068 39.1717 64.2398 39.3952 64.6338 39.7892C65.0278 40.1832 65.2513 40.7161 65.2561 41.2733C65.2609 41.8305 65.0468 42.3673 64.6597 42.768L57.1457 50.282L64.6597 57.796C65.0468 58.1968 65.2609 58.7336 65.2561 59.2908C65.2513 59.8479 65.0278 60.3809 64.6338 60.7749C64.2398 61.1689 63.7068 61.3924 63.1496 61.3972C62.5925 61.4021 62.0557 61.1879 61.6549 60.8008L54.1409 53.2868L46.6269 60.8008C46.2261 61.1879 45.6894 61.4021 45.1322 61.3972C44.575 61.3924 44.042 61.1689 43.6481 60.7749C43.2541 60.3809 43.0306 59.8479 43.0257 59.2908C43.0209 58.7336 43.2351 58.1968 43.6222 57.796L51.1362 50.282L43.6222 42.768C43.2238 42.3695 43 41.8291 43 41.2657C43 40.7022 43.2238 40.1618 43.6222 39.7633Z" fill="url(#paint1_linear_1915_38522)"/>
</g>
</g>
<defs>
<filter id="filter0_d_1915_38522" x="0" y="0.141113" width="108.781" height="108.797" filterUnits="userSpaceOnUse" color-interpolation-filters="sRGB">
<feFlood flood-opacity="0" result="BackgroundImageFix"/>
<feColorMatrix in="SourceAlpha" type="matrix" values="0 0 0 0 0 0 0 0 0 0 0 0 0 0 0 0 0 0 127 0" result="hardAlpha"/>
<feOffset dy="4"/>
<feGaussianBlur stdDeviation="6"/>
<feComposite in2="hardAlpha" operator="out"/>
<feColorMatrix type="matrix" values="0 0 0 0 0.2 0 0 0 0 0.627451 0 0 0 0 0.639216 0 0 0 0.4 0"/>
<feBlend mode="normal" in2="BackgroundImageFix" result="effect1_dropShadow_1915_38522"/>
<feBlend mode="normal" in="SourceGraphic" in2="effect1_dropShadow_1915_38522" result="shape"/>
</filter>
<filter id="filter1_d_1915_38522" x="31" y="31.1411" width="46.2578" height="46.2561" filterUnits="userSpaceOnUse" color-interpolation-filters="sRGB">
<feFlood flood-opacity="0" result="BackgroundImageFix"/>
<feColorMatrix in="SourceAlpha" type="matrix" values="0 0 0 0 0 0 0 0 0 0 0 0 0 0 0 0 0 0 127 0" result="hardAlpha"/>
<feOffset dy="4"/>
<feGaussianBlur stdDeviation="6"/>
<feComposite in2="hardAlpha" operator="out"/>
<feColorMatrix type="matrix" values="0 0 0 0 0.2 0 0 0 0 0.627451 0 0 0 0 0.639216 0 0 0 0.4 0"/>
<feBlend mode="normal" in2="BackgroundImageFix" result="effect1_dropShadow_1915_38522"/>
<feBlend mode="normal" in="SourceGraphic" in2="effect1_dropShadow_1915_38522" result="shape"/>
</filter>
<linearGradient id="paint0_linear_1915_38522" x1="3.51534" y1="-18.565" x2="123.003" y2="-9.32571" gradientUnits="userSpaceOnUse">
<stop stop-color="#EE5C5E"/>
<stop offset="1" stop-color="#EFC0C0"/>
</linearGradient>
<linearGradient id="paint1_linear_1915_38522" x1="40.7726" y1="32.1317" x2="72.1402" y2="34.5577" gradientUnits="userSpaceOnUse">
<stop stop-color="#EE5C5E"/>
<stop offset="1" stop-color="#EFC0C0"/>
</linearGradient>
<clipPath id="clip0_1915_38522">
<rect width="34" height="34" fill="white" transform="translate(36 35.1411)"/>
</clipPath>
</defs>
</svg>
