<svg width="45" height="45" viewBox="0 0 45 45" fill="none" xmlns="http://www.w3.org/2000/svg">
<circle cx="22.5293" cy="22.8379" r="22" fill="white"/>
<path d="M19.4187 10.9668C24.6092 10.9668 28.832 15.1896 28.832 20.3801C28.832 22.1724 28.3436 24.0753 27.3804 26.0358C26.6166 27.5903 25.5536 29.1857 24.2207 30.7775C21.9579 33.48 19.7311 35.2141 19.6374 35.2866C19.5731 35.3364 19.4958 35.3613 19.4187 35.3613C19.3416 35.3613 19.2643 35.3364 19.2 35.2866C19.1062 35.2141 16.8795 33.48 14.6167 30.7775C13.2839 29.1856 12.2208 27.5903 11.457 26.0358C10.4938 24.0753 10.0054 22.1724 10.0054 20.3801C10.0054 15.1896 14.2282 10.9668 19.4187 10.9668ZM19.4187 16.3633C17.2817 16.3633 15.4019 18.0487 15.4019 20.3801C15.4019 22.7115 17.1854 24.3968 19.4187 24.3968C21.652 24.3968 23.4355 22.6318 23.4355 20.3801C23.4355 17.8671 21.5557 16.3633 19.4187 16.3633Z" fill="url(#paint0_linear_3326_89402)"/>
<path d="M22.1014 20.4823C22.1014 21.9633 20.9008 23.1639 19.4198 23.1639C17.9389 23.1639 16.7383 21.9633 16.7383 20.4823C16.7383 19.0014 17.9389 17.8008 19.4198 17.8008C20.9008 17.8008 22.1014 19.0014 22.1014 20.4823Z" fill="url(#paint1_linear_3326_89402)"/>
<circle cx="31.3301" cy="16.4824" r="7.24805" fill="white"/>
<circle cx="31.3301" cy="16.4824" r="5.80859" fill="url(#paint2_linear_3326_89402)"/>
<path d="M30.5668 19.4989V13.4648H32.0923V19.4989H30.5668ZM28.3125 17.2447V15.7191H34.3466V17.2447H28.3125Z" fill="white"/>
<defs>
<linearGradient id="paint0_linear_3326_89402" x1="30.0946" y1="14.4259" x2="10.3027" y2="33.5191" gradientUnits="userSpaceOnUse">
<stop stop-color="#00C0FF"/>
<stop offset="1" stop-color="#00754A"/>
</linearGradient>
<linearGradient id="paint1_linear_3326_89402" x1="16.3786" y1="18.5613" x2="20.6265" y2="23.8711" gradientUnits="userSpaceOnUse">
<stop stop-color="#00C0FF"/>
<stop offset="1" stop-color="#00754A"/>
</linearGradient>
<linearGradient id="paint2_linear_3326_89402" x1="24.7424" y1="12.3211" x2="33.9438" y2="23.8229" gradientUnits="userSpaceOnUse">
<stop stop-color="#00C0FF"/>
<stop offset="1" stop-color="#00754A"/>
</linearGradient>
</defs>
</svg>
