<svg width="45" height="45" viewBox="0 0 45 45" fill="none" xmlns="http://www.w3.org/2000/svg">
<path d="M0.121094 22.1309C0.121094 9.9806 9.97083 0.130859 22.1211 0.130859C34.2714 0.130859 44.1211 9.9806 44.1211 22.1309C44.1211 34.2811 34.2714 44.1309 22.1211 44.1309C9.97083 44.1309 0.121094 34.2811 0.121094 22.1309Z" fill="white"/>
<path d="M22.8164 24.2891C22.8164 23.7368 23.2641 23.2891 23.8164 23.2891H32.2049C32.7572 23.2891 33.2049 23.7368 33.2049 24.2891V32.6723C33.2049 33.2245 32.7572 33.6723 32.2049 33.6723H23.8164C23.2641 33.6723 22.8164 33.2245 22.8164 32.6723V24.2891ZM26.9578 32.2057C26.9578 32.2056 26.9578 32.2055 26.9577 32.2055C26.9019 32.0854 26.8672 32.0064 26.8282 31.9295C26.4742 31.2267 26.1185 30.5245 25.765 29.8212C25.578 29.4487 25.6007 29.2891 25.8778 28.9672C26.3345 28.4361 26.7918 27.9051 27.2481 27.373C27.5316 27.0423 27.4459 26.5354 27.0735 26.3095C26.2289 25.7974 25.3981 25.2938 24.5644 24.7947C24.439 24.7198 24.2941 24.8851 24.2941 25.0312V31.2061C24.2941 31.7584 24.7419 32.2061 25.2941 32.2061H26.9573C26.9576 32.2061 26.9578 32.2059 26.9578 32.2057ZM26.8024 24.7647C26.8026 24.7647 26.8028 24.765 26.8027 24.7652C26.7991 24.776 26.7955 24.7866 26.7918 24.7972C26.7879 24.8083 26.7922 24.8207 26.8023 24.8269C27.9358 25.5152 29.0693 26.2036 30.2186 26.9015C30.885 27.3062 31.7344 26.8264 31.7356 26.0468C31.7361 25.7098 31.7379 25.3768 31.7424 25.0439C31.7456 24.8163 31.686 24.7457 31.4495 24.7478C29.9749 24.7589 28.5003 24.7531 27.0257 24.7536C26.9515 24.7536 26.8772 24.761 26.8024 24.7647Z" fill="url(#paint0_linear_1_3546)"/>
<path d="M10.8887 12.377C10.8887 11.8247 11.3364 11.377 11.8887 11.377H20.2756C20.8278 11.377 21.2756 11.8247 21.2756 12.377V20.7596C21.2756 21.3119 20.8278 21.7596 20.2756 21.7596H11.8887C11.3364 21.7596 10.8887 21.3119 10.8887 20.7596V12.377ZM12.3417 19.9986C12.3417 20.1622 12.4699 20.3045 12.6335 20.3045C13.3268 20.3056 14.0201 20.2987 14.7134 20.3093C14.8968 20.3119 14.9895 20.2592 15.0632 20.0843C15.4831 19.087 16.0205 18.1577 16.718 17.3243C16.7675 17.2653 16.7844 17.1278 16.7507 17.0593C16.257 16.0583 15.9104 15.0052 15.6106 13.9342C15.5602 13.7538 15.498 13.5766 15.4295 13.381C15.3908 13.2703 15.2321 13.2521 15.1812 13.3578C14.6038 14.5542 13.7572 15.4693 12.4876 15.954C12.4165 15.9814 12.3496 16.1226 12.348 16.2122C12.3359 16.8512 12.3417 17.4908 12.3417 18.1298C12.3417 18.745 12.3417 19.3603 12.3417 19.9986ZM16.8258 19.1952C16.5426 19.6765 16.8896 20.2835 17.4481 20.2835H18.2236C18.6953 20.2835 18.8613 19.7058 18.5045 19.3973C18.3599 19.2725 18.2244 19.1371 18.0905 18.9942C17.7371 18.6171 17.133 18.6731 16.8709 19.1185C16.8559 19.1441 16.8408 19.1696 16.8258 19.1952Z" fill="url(#paint1_linear_1_3546)"/>
<path d="M20.2867 23.3066C20.839 23.3066 21.2867 23.7544 21.2867 24.3066V32.6724C21.2867 33.2247 20.839 33.6724 20.2867 33.6724H11.8809C11.3286 33.6724 10.8809 33.2247 10.8809 32.6724V24.3066C10.8809 23.7544 11.3286 23.3066 11.8809 23.3066H20.2867ZM13.356 24.7675C12.8037 24.7675 12.356 25.2152 12.356 25.7675V31.726C12.356 31.9907 12.5705 32.2052 12.8352 32.2052C13.191 32.2052 13.4228 31.8296 13.3117 31.4916C13.0195 30.602 13.044 29.7208 13.6319 28.8783C14.3896 27.7926 15.466 27.6511 16.6539 27.9363C16.7309 27.9548 16.8144 27.9177 16.8424 27.8437C17.1037 27.1393 17.6147 26.7384 18.3486 26.6067C18.4176 26.5946 18.4951 26.5914 18.5514 26.5566C18.8154 26.3928 19.0962 26.2458 19.3285 26.044C19.7698 25.6611 19.0306 24.7675 18.4464 24.7675H13.356Z" fill="url(#paint2_linear_1_3546)"/>
<path d="M32.2093 11.3945C32.7616 11.3945 33.2093 11.8422 33.2093 12.3945V20.7561C33.2093 21.3084 32.7616 21.7561 32.2093 21.7561H23.8066C23.2544 21.7561 22.8066 21.3084 22.8066 20.7561V12.3945C22.8066 11.8422 23.2544 11.3945 23.8066 11.3945H32.2093ZM26.3231 20.2901C26.3229 20.2905 26.3232 20.291 26.3237 20.291H27.4175C27.6341 20.291 27.8016 20.1258 27.841 19.9128C27.9458 19.3475 28.0133 18.7711 28.1739 18.2222C28.3683 17.5584 28.8351 17.1232 29.5242 16.952C29.5865 16.9366 29.648 16.9184 29.7106 16.8993C29.7933 16.874 29.8607 16.7926 29.8403 16.7086C29.6101 15.7593 29.9262 15.2066 30.8755 14.9337C30.8853 14.9309 30.8951 14.9282 30.9049 14.9255C31.3653 14.7988 31.7105 14.4216 31.7105 13.9441V13.8512C31.7105 13.2989 31.2628 12.8469 30.7106 12.8368C30.1664 12.8269 29.6275 12.823 29.0938 12.8717C28.5374 12.9229 28.1629 13.2553 28.0854 13.8179C28.0385 14.1583 27.9079 14.4954 27.7662 14.812C27.3858 15.6613 26.7425 16.1923 25.8022 16.3309C25.5827 16.3632 25.5039 16.6548 25.6508 16.8211C26.5273 17.8135 26.3801 19.0586 26.3232 20.2898C26.3232 20.2899 26.3232 20.29 26.3231 20.2901ZM31.7152 16.7212C31.7152 16.3058 31.2726 15.9333 30.9261 16.1623C30.8592 16.2065 30.9645 16.5095 30.9903 16.6939C30.9951 16.7286 30.9982 16.7634 31.0009 16.7982C31.0472 17.3903 30.8265 17.7238 30.2628 17.9082C30.0716 17.9709 29.8698 18.0078 29.6886 18.091C29.5605 18.1495 29.4209 18.2438 29.353 18.3607C29.201 18.6225 29.117 18.8986 29.0645 19.1824C28.9565 19.7667 29.4604 20.2873 30.0546 20.2873H30.7152C31.2675 20.2873 31.7152 19.8396 31.7152 19.2873V16.7212Z" fill="url(#paint3_linear_1_3546)"/>
<defs>
<linearGradient id="paint0_linear_1_3546" x1="22.1197" y1="24.7614" x2="30.3428" y2="35.0455" gradientUnits="userSpaceOnUse">
<stop stop-color="#00C0FF"/>
<stop offset="1" stop-color="#00754A"/>
</linearGradient>
<linearGradient id="paint1_linear_1_3546" x1="10.1921" y1="12.8492" x2="18.4149" y2="23.1319" gradientUnits="userSpaceOnUse">
<stop stop-color="#00C0FF"/>
<stop offset="1" stop-color="#00754A"/>
</linearGradient>
<linearGradient id="paint2_linear_1_3546" x1="10.183" y1="24.7765" x2="18.3862" y2="35.0701" gradientUnits="userSpaceOnUse">
<stop stop-color="#00C0FF"/>
<stop offset="1" stop-color="#00754A"/>
</linearGradient>
<linearGradient id="paint3_linear_1_3546" x1="22.109" y1="12.8638" x2="30.3087" y2="23.1541" gradientUnits="userSpaceOnUse">
<stop stop-color="#00C0FF"/>
<stop offset="1" stop-color="#00754A"/>
</linearGradient>
</defs>
</svg>
