<svg width="45" height="45" viewBox="0 0 45 45" fill="none" xmlns="http://www.w3.org/2000/svg">
<path d="M0.242188 22.6172C0.242188 10.4669 10.0919 0.617188 22.2422 0.617188C34.3925 0.617188 44.2422 10.4669 44.2422 22.6172C44.2422 34.7675 34.3925 44.6172 22.2422 44.6172C10.0919 44.6172 0.242188 34.7675 0.242188 22.6172Z" fill="white"/>
<g clip-path="url(#clip0_0_6221)">
<path d="M32.7422 16.6484H11.7422C10.9138 16.6484 10.2422 17.348 10.2422 18.2109V28.3672C10.2422 29.2301 10.9138 29.9297 11.7422 29.9297H32.7422C33.5706 29.9297 34.2422 29.2301 34.2422 28.3672V18.2109C34.2422 17.348 33.5706 16.6484 32.7422 16.6484Z" fill="url(#paint0_linear_0_6221)"/>
<path d="M11.7422 16.6484H32.3672C32.3672 17.0801 32.0316 17.4297 31.6172 17.4297H12.4922C12.0778 17.4297 11.7422 17.0801 11.7422 16.6484Z" fill="#748B9E"/>
<path d="M13.6172 19.7734C13.8243 19.7734 13.9922 19.5985 13.9922 19.3828C13.9922 19.1671 13.8243 18.9922 13.6172 18.9922C13.4101 18.9922 13.2422 19.1671 13.2422 19.3828C13.2422 19.5985 13.4101 19.7734 13.6172 19.7734Z" fill="#84BD5A"/>
<path d="M12.1172 19.7734C12.3243 19.7734 12.4922 19.5985 12.4922 19.3828C12.4922 19.1671 12.3243 18.9922 12.1172 18.9922C11.9101 18.9922 11.7422 19.1671 11.7422 19.3828C11.7422 19.5985 11.9101 19.7734 12.1172 19.7734Z" fill="#84BD5A"/>
<path d="M13.9922 23.2891H30.4922C30.6992 23.2891 30.8672 23.4641 30.8672 23.6797V24.8516C30.8672 25.0672 30.6992 25.2422 30.4922 25.2422H13.9922C13.7852 25.2422 13.6172 25.0672 13.6172 24.8516V23.6797C13.6172 23.4641 13.7852 23.2891 13.9922 23.2891Z" fill="#123247"/>
<path d="M30.8672 16.6486H13.6172L14.2472 13.3712C14.3181 13.0002 14.6338 12.7349 14.9972 12.7423H29.5022C29.8656 12.7349 30.1813 13.0002 30.2522 13.3712L30.8672 16.6486Z" fill="#35495C"/>
<path d="M29.3672 11.1797C29.3672 10.748 29.0316 10.3984 28.6172 10.3984H15.8672C15.4528 10.3984 15.1172 10.748 15.1172 11.1797V16.6484H29.3672V11.1797Z" fill="#E2E7F0"/>
<path d="M29.3672 11.9609V16.6484H28.6172V12.7422C28.6172 12.3105 28.9528 11.9609 29.3672 11.9609Z" fill="#C9D5E3"/>
<path d="M14.3672 25.2422H15.1172V26.0234C14.7028 26.0234 14.3672 25.6738 14.3672 25.2422Z" fill="#3F556B"/>
<path d="M15.1172 29.1484H12.4922C12.0778 29.1484 11.7422 29.498 11.7422 29.9297H15.1172V29.1484Z" fill="#3F556B"/>
<path d="M33.4922 18.9922V28.3672C33.4922 28.7988 33.1566 29.1484 32.7422 29.1484H30.4922C30.2852 29.1484 30.1172 28.9734 30.1172 28.7578V25.2422H29.3672V29.9297H32.7422C33.5706 29.9297 34.2422 29.2301 34.2422 28.3672V18.2109C33.8278 18.2109 33.4922 18.5605 33.4922 18.9922Z" fill="#3F556B"/>
<path d="M15.1172 33.0547C15.1172 33.4863 15.4528 33.8359 15.8672 33.8359H28.6172C29.0316 33.8359 29.3672 33.4863 29.3672 33.0547V25.2422H15.1172V33.0547Z" fill="#E2E7F0"/>
<path d="M16.9922 27.1953H27.4922C27.6992 27.1953 27.8672 27.3703 27.8672 27.5859C27.8672 27.8016 27.6992 27.9766 27.4922 27.9766H16.9922C16.7852 27.9766 16.6172 27.8016 16.6172 27.5859C16.6172 27.3703 16.7852 27.1953 16.9922 27.1953Z" fill="#9DACBA"/>
<path d="M16.9922 31.1016H22.9922C23.1992 31.1016 23.3672 31.2766 23.3672 31.4922C23.3672 31.7078 23.1992 31.8828 22.9922 31.8828H16.9922C16.7852 31.8828 16.6172 31.7078 16.6172 31.4922C16.6172 31.2766 16.7852 31.1016 16.9922 31.1016Z" fill="#9DACBA"/>
<path d="M16.9922 29.1484H27.4922C27.6992 29.1484 27.8672 29.3234 27.8672 29.5391C27.8672 29.7547 27.6992 29.9297 27.4922 29.9297H16.9922C16.7852 29.9297 16.6172 29.7547 16.6172 29.5391C16.6172 29.3234 16.7852 29.1484 16.9922 29.1484Z" fill="#9DACBA"/>
<path d="M28.9922 25.2422H15.1172C15.1172 25.6738 15.4528 26.0234 15.8672 26.0234H28.2422C28.4492 26.0234 28.6172 26.1984 28.6172 26.4141V32.6641C28.6172 32.8797 28.4492 33.0547 28.2422 33.0547H16.6172C16.2028 33.0547 15.8672 33.4043 15.8672 33.8359H28.6172C29.0316 33.8359 29.3672 33.4863 29.3672 33.0547V25.2422H28.9922Z" fill="#C9D5E3"/>
<path d="M15.1172 18.9922H17.3672C17.5742 18.9922 17.7422 19.1672 17.7422 19.3828C17.7422 19.5984 17.5742 19.7734 17.3672 19.7734H15.1172C14.9102 19.7734 14.7422 19.5984 14.7422 19.3828C14.7422 19.1672 14.9102 18.9922 15.1172 18.9922Z" fill="#35495C"/>
</g>
<defs>
<linearGradient id="paint0_linear_0_6221" x1="8.63269" y1="18.5317" x2="16.6151" y2="36.5626" gradientUnits="userSpaceOnUse">
<stop stop-color="#00C0FF"/>
<stop offset="1" stop-color="#00754A"/>
</linearGradient>
<clipPath id="clip0_0_6221">
<rect width="24" height="25" fill="white" transform="translate(10.2422 9.61719)"/>
</clipPath>
</defs>
</svg>
