<svg width="45" height="45" viewBox="0 0 45 45" fill="none" xmlns="http://www.w3.org/2000/svg">
<rect x="0.242188" y="0.617188" width="44" height="44" rx="22" fill="white"/>
<g clip-path="url(#clip0_0_6198)">
<rect x="10.6875" y="11.1045" width="22.6878" height="22.6878" rx="5.39979" fill="url(#paint0_linear_0_6198)"/>
<path d="M26.7226 14.2519C26.7226 14.1175 26.7521 13.896 26.7926 13.6571C26.8924 13.0675 27.2134 12.542 27.6609 12.1453C28.1847 11.6811 28.8615 11.4248 29.5613 11.4248C31.5241 11.5803 33.0657 13.1699 33.1611 15.1365L33.7586 27.4547C33.9407 31.2103 30.8985 34.332 27.1395 34.2467L19.3075 34.069C18.6418 34.0539 18.1298 33.4755 18.1955 32.8129C18.2493 32.2701 17.9123 31.7648 17.3904 31.6061L16.724 31.4033C16.5362 31.3462 16.3805 31.2139 16.2937 31.0378C16.1442 30.7342 16.2298 30.3672 16.4983 30.1611L17.0238 29.7576C17.3027 29.5435 17.4661 29.212 17.4661 28.8604V28.815C17.4661 28.7516 17.474 28.6885 17.4895 28.6271C17.6183 28.1179 17.2082 27.6331 16.6847 27.6757L15.3931 27.7809C15.0823 27.8062 14.7807 27.6682 14.5968 27.4165C14.4045 27.1534 14.3701 26.8066 14.5071 26.511L15.0866 25.2597C15.1476 25.128 15.189 24.9881 15.2096 24.8445L15.2727 24.4042C15.3418 23.9223 15.7547 23.5644 16.2415 23.5644C16.478 23.5644 16.7066 23.6501 16.8848 23.8056L17.2785 24.149C17.5795 24.4116 17.9793 24.5313 18.3751 24.4774C18.8919 24.407 19.3253 24.0521 19.4961 23.5592L19.5282 23.4667C19.7644 22.7849 20.4416 22.3578 21.1587 22.4384L21.3756 22.4627C21.7832 22.5085 22.1942 22.415 22.5419 22.1975L23.5323 21.5778C23.8917 21.3529 24.1978 21.0521 24.429 20.6966C24.7364 20.224 24.9 19.6712 24.9 19.1074C24.9 18.3611 25.1855 17.6414 25.6981 17.099L25.8113 16.9792C26.3965 16.3598 26.7226 15.5397 26.7226 14.6875V14.2519Z" fill="url(#paint1_linear_0_6198)"/>
<rect x="10.9035" y="11.3205" width="22.2556" height="22.2556" rx="4.10384" stroke="url(#paint2_linear_0_6198)" stroke-width="0.431984"/>
</g>
<circle cx="28.8047" cy="29.5244" r="5.28906" fill="white"/>
<path d="M29.6366 32.076L31.7009 30.0117C31.8299 29.8826 31.9023 29.7077 31.9023 29.5252C31.9023 29.3427 31.8299 29.1677 31.7009 29.0387L29.6366 26.9744C29.5068 26.8491 29.333 26.7797 29.1526 26.7813C28.9721 26.7828 28.7996 26.8552 28.672 26.9828C28.5444 27.1104 28.472 27.283 28.4705 27.4634C28.4689 27.6438 28.5383 27.8176 28.6636 27.9474L29.5533 28.8371L26.3977 28.8371C26.2152 28.8371 26.0402 28.9096 25.9111 29.0386C25.7821 29.1677 25.7096 29.3427 25.7096 29.5252C25.7096 29.7077 25.7821 29.8827 25.9111 30.0118C26.0402 30.1408 26.2152 30.2133 26.3977 30.2133L29.5533 30.2133L28.6636 31.103C28.5383 31.2328 28.4689 31.4066 28.4705 31.587C28.472 31.7674 28.5444 31.94 28.672 32.0676C28.7996 32.1952 28.9721 32.2676 29.1526 32.2691C29.333 32.2707 29.5068 32.2013 29.6366 32.076Z" fill="#606060"/>
<defs>
<linearGradient id="paint0_linear_0_6198" x1="5.96844" y1="15.8236" x2="28.6562" y2="38.5114" gradientUnits="userSpaceOnUse">
<stop stop-color="#EAF6FF"/>
<stop offset="1" stop-color="#ADDCFF"/>
</linearGradient>
<linearGradient id="paint1_linear_0_6198" x1="12.9566" y1="14.6833" x2="31.5607" y2="34.7312" gradientUnits="userSpaceOnUse">
<stop stop-color="#00C0FF"/>
<stop offset="1" stop-color="#00754A"/>
</linearGradient>
<linearGradient id="paint2_linear_0_6198" x1="16.1827" y1="9.86977" x2="22.0313" y2="33.7921" gradientUnits="userSpaceOnUse">
<stop stop-color="#8FCAF3"/>
<stop offset="1" stop-color="#0BBB9C"/>
</linearGradient>
<clipPath id="clip0_0_6198">
<rect width="22.6878" height="22.6878" fill="white" transform="translate(10.6875 11.1045)"/>
</clipPath>
</defs>
</svg>
