<svg width="19" height="20" viewBox="0 0 19 20" fill="none" xmlns="http://www.w3.org/2000/svg">
    <path
        d="M13.6292 6.69672V11.7062C13.6292 12.5839 12.9155 13.2977 12.0377 13.2977C11.1644 13.2977 10.4462 12.5839 10.4462 11.7062C10.4462 10.8328 11.1644 10.1191 12.0377 10.1191C12.4101 10.1191 12.7426 10.2477 13.013 10.4605V7.82273L8.93007 8.98422V12.5618C8.93007 13.4395 8.21189 14.1533 7.33856 14.1533C6.4608 14.1533 5.74707 13.4395 5.74707 12.5618C5.74707 11.6884 6.4608 10.9747 7.33856 10.9747C7.70652 10.9747 8.039 11.1033 8.30943 11.3116V7.39272C8.30943 6.74105 8.70397 6.23567 9.32906 6.06721L11.8914 5.36678C12.4101 5.22492 12.849 5.27368 13.1593 5.51307C13.474 5.74803 13.6292 6.14701 13.6292 6.69672Z"
        fill="url(#paint0_linear_1_13513)" />
    <defs>
        <linearGradient id="paint0_linear_1_13513" x1="24.9089" y1="24.4349" x2="-2.39352"
            y2="31.3816" gradientUnits="userSpaceOnUse">
            <stop stop-color="#036068" />
            <stop offset="0.135781" stop-color="#596451" />
            <stop offset="0.561006" stop-color="#1199A8" />
            <stop offset="0.75484" stop-color="#74C27C" />
            <stop offset="1" stop-color="#1199A8" />
        </linearGradient>
    </defs>
</svg>
    