<svg width="15" height="21" viewBox="0 0 15 21" fill="none" xmlns="http://www.w3.org/2000/svg">
    <path fill-rule="evenodd" clip-rule="evenodd"
        d="M7.15084 0.593262C3.33797 0.593262 0.24707 3.68423 0.24707 7.4971C0.24707 8.77522 0.613558 10.0266 1.30292 11.1028L7.15084 20.2312L12.9988 11.1028C13.6883 10.0265 14.0547 8.77515 14.0547 7.49704C14.0547 3.68423 10.9637 0.593262 7.15084 0.593262Z"
        fill="#7F605E" fill-opacity="0.52" />
    <path fill-rule="evenodd" clip-rule="evenodd"
        d="M4.10698 8.80812L4.10698 4.48925C4.10698 4.22422 4.32183 4.00937 4.58686 4.00937L8.90573 4.00937C9.17076 4.00937 9.3856 4.22422 9.3856 4.48925C9.3856 4.75427 9.17076 4.96912 8.90573 4.96912L5.74538 4.96912L10.0534 9.27719C10.2408 9.46459 10.2408 9.76843 10.0534 9.95583C9.86604 10.1432 9.5622 10.1432 9.3748 9.95583L5.06673 5.64777L5.06673 8.80812C5.06673 9.07314 4.85189 9.28799 4.58686 9.28799C4.32183 9.28799 4.10698 9.07314 4.10698 8.80812Z"
        fill="white" />
</svg>
    