<svg width="11" height="12" viewBox="0 0 11 12" fill="none" xmlns="http://www.w3.org/2000/svg">
    <path
        d="M5.45129 3.37934C6.9065 3.37934 8.09062 4.56347 8.09062 6.01867C8.09062 7.47388 6.9065 8.65801 5.45129 8.65801C3.99609 8.65801 2.81196 7.47388 2.81196 6.01867C2.81196 4.56347 3.99609 3.37934 5.45129 3.37934ZM5.45129 2.8418C3.6966 2.8418 2.27441 4.26398 2.27441 6.01867C2.27441 7.77337 3.6966 9.19555 5.45129 9.19555C7.20598 9.19555 8.62817 7.77337 8.62817 6.01867C8.62817 4.26398 7.20598 2.8418 5.45129 2.8418Z"
        fill="white" />
    <path
        d="M5.45049 2.46019C5.60254 2.46019 5.72617 2.33655 5.72617 2.1845V1.07256C5.72617 0.92051 5.60254 0.796875 5.45049 0.796875C5.29844 0.796875 5.1748 0.92051 5.1748 1.07256V2.1845C5.1748 2.33655 5.29844 2.46019 5.45049 2.46019Z"
        fill="white" />
    <path
        d="M5.45049 9.57227C5.29844 9.57227 5.1748 9.6959 5.1748 9.84795V10.9599C5.1748 11.1119 5.29844 11.2356 5.45049 11.2356C5.60254 11.2356 5.72617 11.1119 5.72617 10.9599V9.84795C5.72617 9.6959 5.60254 9.57227 5.45049 9.57227Z"
        fill="white" />
    <path
        d="M3.88088 2.50733C3.92158 2.61944 4.02755 2.68856 4.13967 2.68856C4.17115 2.68856 4.20264 2.68318 4.23412 2.67166C4.37695 2.61944 4.45068 2.46125 4.39922 2.31842L4.0191 1.27328C3.96689 1.13045 3.8087 1.05673 3.66586 1.10818C3.52303 1.1604 3.44931 1.31859 3.50076 1.46142L3.88088 2.50656V2.50733Z"
        fill="white" />
    <path
        d="M7.02008 9.52133C6.96786 9.3785 6.80967 9.30478 6.66684 9.35623C6.524 9.40845 6.45029 9.56664 6.50174 9.70947L6.88186 10.7546C6.92256 10.8667 7.02853 10.9358 7.14065 10.9358C7.17213 10.9358 7.20361 10.9305 7.2351 10.9189C7.37793 10.8667 7.45165 10.7085 7.4002 10.5657L7.02008 9.52056V9.52133Z"
        fill="white" />
    <path
        d="M2.77581 3.2581C2.83034 3.32337 2.90866 3.35639 2.98699 3.35639C3.04919 3.35639 3.11216 3.33489 3.16438 3.29189C3.2811 3.19436 3.29646 3.02005 3.19817 2.90332L2.48324 2.0517C2.38494 1.93498 2.21139 1.91962 2.09467 2.01791C1.97795 2.11544 1.96259 2.28976 2.06088 2.40648L2.77581 3.2581Z"
        fill="white" />
    <path
        d="M8.12386 8.77436C8.02634 8.65763 7.85202 8.64228 7.7353 8.74057C7.61857 8.83809 7.60321 9.01241 7.70151 9.12914L8.41644 9.98076C8.47096 10.046 8.54929 10.0791 8.62762 10.0791C8.68982 10.0791 8.75279 10.0575 8.805 10.0145C8.92173 9.91625 8.93709 9.7427 8.83879 9.62598L8.12386 8.77436Z"
        fill="white" />
    <path
        d="M1.03084 3.78484L1.99381 4.34081C2.03758 4.36615 2.08442 4.37767 2.13126 4.37767C2.22648 4.37767 2.31941 4.32852 2.37009 4.23945C2.44611 4.10736 2.4008 3.93919 2.26949 3.8624L1.30652 3.30643C1.17444 3.2304 1.00626 3.27571 0.929473 3.40702C0.853449 3.5391 0.898756 3.70728 1.03007 3.78407L1.03084 3.78484Z"
        fill="white" />
    <path
        d="M9.87008 8.24946L8.90711 7.69349C8.77503 7.61669 8.60685 7.66277 8.53006 7.79408C8.45403 7.92616 8.49934 8.09434 8.63066 8.17113L9.59363 8.7271C9.6374 8.75245 9.68424 8.76396 9.73108 8.76396C9.82631 8.76396 9.91922 8.71482 9.9699 8.62574C10.0459 8.49366 10.0006 8.32548 9.86931 8.24869L9.87008 8.24946Z"
        fill="white" />
    <path
        d="M0.534251 5.42793L1.6293 5.62067C1.64543 5.62374 1.66156 5.62528 1.67768 5.62528C1.809 5.62528 1.92495 5.53083 1.94876 5.39721C1.97487 5.24746 1.87504 5.10386 1.72529 5.07775L0.630241 4.88501C0.480497 4.8589 0.337666 4.95873 0.310789 5.10847C0.28468 5.25822 0.384507 5.40182 0.534251 5.42793Z"
        fill="white" />
    <path
        d="M10.3669 6.6051L9.27185 6.41235C9.1221 6.38624 8.9785 6.48607 8.95239 6.63582C8.92628 6.78556 9.02611 6.92916 9.17586 6.95527L10.2709 7.14802C10.287 7.15109 10.3032 7.15262 10.3193 7.15262C10.4506 7.15262 10.5666 7.05817 10.5904 6.92455C10.6165 6.77481 10.5166 6.63121 10.3669 6.6051Z"
        fill="white" />
    <path
        d="M1.94896 6.63582C1.92285 6.48607 1.78001 6.38624 1.6295 6.41235L0.534449 6.6051C0.384705 6.63121 0.28411 6.77481 0.310987 6.92455C0.334793 7.05817 0.450746 7.15262 0.58206 7.15262C0.598186 7.15262 0.614313 7.15109 0.630439 7.14802L1.72549 6.95527C1.87524 6.92916 1.97583 6.78556 1.94896 6.63582Z"
        fill="white" />
    <path
        d="M8.95259 5.39721C8.97639 5.53083 9.09235 5.62528 9.22367 5.62528C9.23979 5.62528 9.25592 5.62374 9.27205 5.62067L10.3671 5.42793C10.5168 5.40182 10.6174 5.25822 10.5906 5.10847C10.5645 4.95873 10.4216 4.8589 10.2711 4.88501L9.17606 5.07775C9.02631 5.10386 8.92571 5.24746 8.95259 5.39721Z"
        fill="white" />
    <path
        d="M2.3706 7.79425C2.29457 7.66217 2.12563 7.61686 1.99355 7.69365L1.03058 8.24963C0.898497 8.32565 0.85319 8.49459 0.929982 8.62667C0.980664 8.71498 1.07358 8.7649 1.1688 8.7649C1.21565 8.7649 1.26326 8.75338 1.30626 8.72804L2.26923 8.17207C2.40131 8.09604 2.44662 7.9271 2.36983 7.79502L2.3706 7.79425Z"
        fill="white" />
    <path
        d="M8.53036 4.23919C8.58104 4.3275 8.67396 4.37741 8.76918 4.37741C8.81603 4.37741 8.86364 4.36513 8.90664 4.34055L9.86961 3.78458C10.0017 3.70856 10.047 3.53961 9.9702 3.40753C9.89418 3.27545 9.72524 3.23014 9.59316 3.30693L8.63019 3.86291C8.49811 3.93893 8.4528 4.10787 8.52959 4.23996L8.53036 4.23919Z"
        fill="white" />
    <path
        d="M2.77581 8.77404L2.06088 9.62566C1.96259 9.74239 1.97795 9.91593 2.09467 10.0142C2.14612 10.0572 2.20909 10.0787 2.27206 10.0787C2.35039 10.0787 2.42871 10.0449 2.48324 9.98044L3.19817 9.12882C3.29569 9.0121 3.2811 8.83855 3.16438 8.74025C3.04766 8.64273 2.87334 8.65732 2.77581 8.77404Z"
        fill="white" />
    <path
        d="M7.91366 3.35803C7.99199 3.35803 8.07032 3.32424 8.12484 3.25974L8.83977 2.40812C8.93806 2.29139 8.9227 2.11784 8.80598 2.01955C8.68926 1.92202 8.51571 1.93661 8.41741 2.05334L7.70248 2.90496C7.60419 3.02168 7.61955 3.19523 7.73627 3.29353C7.78772 3.33653 7.85069 3.35803 7.91366 3.35803Z"
        fill="white" />
    <path
        d="M4.23451 9.35662C4.09168 9.3044 3.93349 9.37812 3.88127 9.52172L3.50115 10.5669C3.44893 10.7097 3.52265 10.8679 3.66626 10.9201C3.69774 10.9316 3.72922 10.937 3.76071 10.937C3.87359 10.937 3.9788 10.8671 4.0195 10.7558L4.39962 9.71063C4.45183 9.5678 4.37811 9.40961 4.23451 9.35739V9.35662Z"
        fill="white" />
    <path
        d="M6.66723 2.67129C6.69871 2.6828 6.7302 2.68818 6.76168 2.68818C6.87457 2.68818 6.97977 2.6183 7.02047 2.50695L7.40059 1.46182C7.45281 1.31898 7.37909 1.16079 7.23549 1.10857C7.09266 1.05635 6.93447 1.13008 6.88225 1.27368L6.50213 2.31881C6.44991 2.46164 6.52363 2.61984 6.66723 2.67205V2.67129Z"
        fill="white" />
</svg>
    