<svg width="21" height="21" viewBox="0 0 21 21" fill="none" xmlns="http://www.w3.org/2000/svg">
<path d="M3.2922 16.8882C3.31617 16.8438 3.33292 16.7929 3.36526 16.756C4.66801 15.2632 5.9725 13.7716 7.2764 12.2797C7.69602 11.7997 8.11506 11.3194 8.54363 10.8288C6.6916 8.40376 4.84216 5.98251 2.96875 3.52978H3.15878C4.60246 3.52978 6.04614 3.53094 7.48982 3.52747C7.59668 3.52747 7.66281 3.5578 7.72808 3.64472C8.73106 4.97866 9.73808 6.30972 10.7442 7.64135C10.7786 7.68669 10.8138 7.73116 10.8563 7.78545C10.8935 7.74589 10.9265 7.71268 10.9571 7.67773C12.1354 6.33051 13.3136 4.98357 14.4896 3.63433C14.5552 3.55895 14.6207 3.5269 14.7218 3.52747C15.3693 3.53209 16.0168 3.52978 16.6642 3.52978C16.711 3.52978 16.7578 3.52978 16.8499 3.52978C15.1885 5.4312 13.5531 7.3023 11.9098 9.18264C12.0909 9.42436 12.2676 9.66204 12.4461 9.89827C14.1699 12.1786 15.894 14.4586 17.6164 16.7398C17.6484 16.7823 17.662 16.8386 17.6843 16.8882H13.1649C13.1499 16.8646 13.1366 16.8397 13.1196 16.8178C12.226 15.6476 11.3322 14.4774 10.4384 13.3075C10.1629 12.9468 9.8871 12.5861 9.60582 12.2184C9.56105 12.2655 9.5238 12.3022 9.48943 12.3415C8.64962 13.3023 7.81067 14.264 6.97028 15.2242C6.48395 15.7801 5.99531 16.3338 5.50754 16.8885H3.2922V16.8882ZM15.0253 15.5101C14.9901 15.4584 14.9733 15.4313 14.954 15.4062C12.3439 11.951 9.7326 8.49704 7.1271 5.03873C7.00609 4.87816 6.88826 4.80077 6.6812 4.81261C6.33927 4.83225 5.9956 4.81781 5.62826 4.81781C5.66666 4.87441 5.68832 4.90964 5.71345 4.94256C7.58224 7.38894 9.4516 9.83532 11.3207 12.2814C12.1212 13.3291 12.922 14.3769 13.7252 15.4229C13.7558 15.4628 13.8127 15.5058 13.858 15.5064C14.2366 15.513 14.6152 15.5101 15.0253 15.5101Z" fill="#131313"/>
</svg>
