<svg width="21" height="21" viewBox="0 0 21 21" fill="none" xmlns="http://www.w3.org/2000/svg">
<path d="M10.5922 1.74548C12.8651 1.74548 13.1487 1.75385 14.0404 1.79568C14.9314 1.8375 15.5379 1.97721 16.0716 2.18468C16.6237 2.39716 17.0889 2.68494 17.554 3.14923C17.9794 3.56742 18.3085 4.07328 18.5185 4.63161C18.7252 5.1645 18.8657 5.77184 18.9075 6.66278C18.9469 7.55455 18.9577 7.83814 18.9577 10.1111C18.9577 12.384 18.9494 12.6676 18.9075 13.5594C18.8657 14.4503 18.7252 15.0568 18.5185 15.5905C18.3091 16.1492 17.9799 16.6552 17.554 17.0729C17.1357 17.4982 16.6299 17.8273 16.0716 18.0375C15.5387 18.2441 14.9314 18.3846 14.0404 18.4265C13.1487 18.4658 12.8651 18.4767 10.5922 18.4767C8.31922 18.4767 8.03563 18.4683 7.14386 18.4265C6.25292 18.3846 5.64642 18.2441 5.11269 18.0375C4.55414 17.8279 4.04819 17.4987 3.63031 17.0729C3.20484 16.6548 2.87567 16.1489 2.66576 15.5905C2.45829 15.0576 2.31858 14.4503 2.27676 13.5594C2.23744 12.6676 2.22656 12.384 2.22656 10.1111C2.22656 7.83814 2.23493 7.55455 2.27676 6.66278C2.31858 5.771 2.45829 5.16534 2.66576 4.63161C2.87509 4.07294 3.20434 3.56694 3.63031 3.14923C4.04831 2.72361 4.55423 2.39443 5.11269 2.18468C5.64642 1.97721 6.25208 1.8375 7.14386 1.79568C8.03563 1.75636 8.31922 1.74548 10.5922 1.74548ZM10.5922 5.92828C9.48281 5.92828 8.4189 6.36896 7.63447 7.15339C6.85004 7.93782 6.40936 9.00173 6.40936 10.1111C6.40936 11.2204 6.85004 12.2843 7.63447 13.0688C8.4189 13.8532 9.48281 14.2939 10.5922 14.2939C11.7015 14.2939 12.7654 13.8532 13.5498 13.0688C14.3343 12.2843 14.7749 11.2204 14.7749 10.1111C14.7749 9.00173 14.3343 7.93782 13.5498 7.15339C12.7654 6.36896 11.7015 5.92828 10.5922 5.92828ZM16.0298 5.71914C16.0298 5.4418 15.9196 5.17582 15.7235 4.97972C15.5274 4.78361 15.2614 4.67344 14.9841 4.67344C14.7067 4.67344 14.4408 4.78361 14.2447 4.97972C14.0486 5.17582 13.9384 5.4418 13.9384 5.71914C13.9384 5.99647 14.0486 6.26245 14.2447 6.45856C14.4408 6.65467 14.7067 6.76484 14.9841 6.76484C15.2614 6.76484 15.5274 6.65467 15.7235 6.45856C15.9196 6.26245 16.0298 5.99647 16.0298 5.71914ZM10.5922 7.6014C11.2578 7.6014 11.8961 7.86581 12.3668 8.33646C12.8374 8.80712 13.1018 9.44547 13.1018 10.1111C13.1018 10.7767 12.8374 11.415 12.3668 11.8857C11.8961 12.3563 11.2578 12.6207 10.5922 12.6207C9.92654 12.6207 9.2882 12.3563 8.81754 11.8857C8.34689 11.415 8.08248 10.7767 8.08248 10.1111C8.08248 9.44547 8.34689 8.80712 8.81754 8.33646C9.2882 7.86581 9.92654 7.6014 10.5922 7.6014Z" fill="#131313"/>
</svg>
