<svg width="21" height="21" viewBox="0 0 21 21" fill="none" xmlns="http://www.w3.org/2000/svg">
<path d="M11.2453 1.89062C11.8889 2.01456 12.5488 2.0825 13.1722 2.27138C15.5815 3.00304 16.9866 4.70302 17.6734 7.06373C17.6831 7.09583 17.6749 7.13316 17.6749 7.19886C17.2397 7.31682 16.8014 7.43553 16.3378 7.5617C16.2549 7.33101 16.181 7.11076 16.0981 6.89425C15.3284 4.87399 13.8599 3.74142 11.7246 3.45099C10.6913 3.31063 9.66552 3.33826 8.65987 3.62047C6.99423 4.08783 5.86091 5.17113 5.30247 6.78227C4.48421 9.14447 4.46853 11.5403 5.34428 13.8935C6.05876 15.8145 7.51087 16.8575 9.5289 17.1255C10.7257 17.2845 11.9202 17.2711 13.0498 16.8059C14.316 16.2848 15.2575 15.4315 15.5427 14.0145C15.7659 12.9058 15.2186 11.7232 14.2817 11.2536C14.1137 11.7657 13.9875 12.3003 13.7673 12.793C12.7221 15.1321 9.52741 15.1343 8.19176 13.8144C6.97034 12.6064 7.16296 10.6264 8.60313 9.69022C9.22131 9.28856 9.90891 9.08773 10.6383 9.06234C11.3431 9.03771 12.0501 9.05712 12.7534 9.05712C12.6997 8.26499 12.2651 7.66473 11.5133 7.41388C10.6592 7.12868 9.50725 7.22275 8.76215 8.18212C8.57476 8.05744 8.38214 7.93126 8.19176 7.8021C7.9969 7.66996 7.80428 7.53483 7.58628 7.38402C8.1843 6.48587 9.01898 5.96625 10.0664 5.86695C10.6368 5.8132 11.2453 5.84082 11.7985 5.98118C13.1984 6.33655 14.104 7.5072 14.2264 9.02427C14.257 9.40801 14.3899 9.62602 14.7475 9.81192C17.5092 11.2469 17.6167 14.6655 15.8062 16.6335C14.6744 17.8639 13.2611 18.4925 11.6081 18.6224C11.4865 18.6321 11.3663 18.6664 11.2453 18.6888H10.0508C9.72077 18.6396 9.38929 18.597 9.06004 18.541C6.71277 18.1446 5.00234 16.8776 4.10494 14.6767C2.97535 11.9039 2.97237 9.05413 3.96533 6.24472C4.72162 4.10426 6.24242 2.70515 8.4792 2.1579C8.9936 2.03248 9.52666 1.97798 10.0508 1.89062C10.4487 1.89062 10.8474 1.89062 11.2453 1.89062ZM12.793 10.6317C12.4174 10.5854 12.0628 10.5174 11.7067 10.5033C10.8989 10.4712 10.0851 10.4629 9.37361 10.9355C8.65241 11.4148 8.63897 12.3787 9.35121 12.8707C9.98805 13.3112 10.6898 13.3074 11.4155 13.1126C12.2069 12.9005 12.8228 11.9233 12.793 10.6309V10.6317Z" fill="#131313"/>
</svg>
