<svg width="72" height="89" viewBox="0 0 72 89" fill="none" xmlns="http://www.w3.org/2000/svg">
<g clip-path="url(#clip0_0_2046)">
<g clip-path="url(#clip1_0_2046)">
<g clip-path="url(#clip2_0_2046)">
<g clip-path="url(#clip3_0_2046)">
<circle cx="36.2422" cy="47.5425" r="20.2383" fill="url(#paint0_radial_0_2046)"/>
<path d="M55.1089 48.0385C55.3188 48.3829 55.5279 48.7375 55.7362 49.1025L55.8033 49.0637C55.5864 48.6738 55.3644 48.289 55.1399 47.9353C55.4471 46.8862 55.6112 45.8004 55.6278 44.7074H55.5477C55.5318 45.7717 55.3756 46.8292 55.0831 47.8526C54.2612 46.5035 53.3102 45.2374 52.2435 44.0721C52.5128 43.0672 52.6516 42.0318 52.6566 40.9915C52.6537 40.222 52.5741 39.4547 52.4191 38.701C53.1736 39.1585 53.8675 39.7094 54.4842 40.3407L54.5436 40.2813C53.9043 39.6267 53.1833 39.0574 52.3984 38.5874C52.0256 36.8186 51.3251 35.1352 50.3333 33.6242L50.2688 33.6681C51.244 35.1512 51.9379 36.8012 52.3158 38.5357C51.0017 37.7861 49.5587 37.2894 48.0617 37.0715C47.7538 35.8015 47.2052 34.6023 46.4457 33.539C47.6897 33.3418 48.9584 33.3592 50.1965 33.5906L50.212 33.508C48.9503 33.2754 47.6582 33.2606 46.3915 33.4641C45.6004 32.3686 44.6226 31.4211 43.5029 30.6649C44.0666 30.3497 44.6554 30.0819 45.2634 29.8644L45.2376 29.7843C44.6129 30.0079 44.0084 30.2843 43.4306 30.6106C42.1625 29.7663 40.7544 29.1542 39.272 28.803C39.4398 28.5448 39.6128 28.2866 39.7883 28.0284L39.7238 27.9793C39.5302 28.2375 39.3495 28.4957 39.1791 28.7746C38.1753 28.5414 37.1481 28.4236 36.1175 28.4234H36.0298C35.3599 28.4268 34.6911 28.4803 34.0292 28.5835C33.9156 28.3253 33.7994 28.0671 33.673 27.8398L33.6007 27.876C33.7246 28.1084 33.8356 28.3511 33.944 28.5965C32.4461 28.8338 31.0012 29.331 29.6744 30.0658C29.2409 29.7859 28.785 29.5424 28.3114 29.3376L28.2804 29.4125C28.7358 29.6098 29.1743 29.8439 29.5918 30.1123C28.296 30.8401 27.1474 31.8034 26.205 32.9528C25.2481 32.7331 24.2698 32.6205 23.288 32.6171V32.6971C24.2487 32.7005 25.2062 32.8097 26.143 33.0225C25.33 34.0339 24.7128 35.1881 24.3231 36.426C22.9299 36.5904 21.5696 36.9647 20.2884 37.5364C20.5407 36.5436 20.8864 35.5769 21.321 34.6494L21.1764 34.843C20.7584 35.7182 20.4331 36.6348 20.2058 37.5777C19.7437 37.792 19.2791 38.0296 18.8119 38.3033L18.8532 38.3756C19.2832 38.1222 19.7261 37.8913 20.18 37.6835C19.9076 38.7622 19.7612 39.8688 19.7437 40.9811C19.7433 41.8159 19.8298 42.6485 20.0019 43.4653C18.9579 44.4084 18.0345 45.4769 17.2527 46.6467C17.1019 45.8969 17.0258 45.1339 17.0255 44.3691H16.9455C16.9509 45.1669 17.0374 45.962 17.2036 46.7422C17.0229 47.0005 16.8448 47.2897 16.6719 47.5789L16.7416 47.6228C16.9016 47.3646 17.0642 47.1063 17.2295 46.8481C17.6103 48.5984 18.3331 50.2562 19.3565 51.7261C18.9308 52.6459 18.572 53.5952 18.2827 54.5666C17.8127 53.7523 17.4516 52.8797 17.2088 51.9714L17.1288 51.992C17.3804 52.9321 17.7582 53.8338 18.2517 54.6725C18.2181 54.7861 18.182 54.8945 18.151 55.0082L18.2285 55.0314C18.2517 54.9436 18.2827 54.8584 18.3085 54.7732C19.4781 56.678 21.0104 58.3345 22.8182 59.6485C22.7485 60.3174 22.6943 60.9991 22.6633 61.686H22.7459C22.7734 61.0163 22.8242 60.3544 22.8982 59.7002C24.4034 60.8133 26.036 61.7427 27.7616 62.4684C27.7616 63.4342 27.8158 64.4335 27.888 65.4819H27.9707C27.8958 64.449 27.8571 63.46 27.8467 62.5123C29.5718 63.2365 31.3755 63.7565 33.2212 64.0617C33.2444 65.0481 33.2754 66.0449 33.3245 67.0546H33.4045C33.358 66.0526 33.3271 65.0662 33.3038 64.0823C34.3871 64.2556 35.4826 64.3419 36.5796 64.3406C37.1992 64.3406 37.8135 64.3096 38.4253 64.2605C38.4408 65.2521 38.4511 66.2437 38.4615 67.2405H38.5415C38.5415 66.2437 38.5182 65.2495 38.5053 64.2554C40.2359 64.1021 41.9431 63.7504 43.5933 63.2069C43.5597 64.1366 43.5003 65.0946 43.4126 66.0914H43.4926C43.5829 65.0868 43.6423 64.1133 43.6785 63.1708C45.3942 62.5954 47.0321 61.8095 48.5547 60.8312C48.5702 61.4846 48.5702 62.1559 48.5547 62.848H48.6373C48.6606 62.1353 48.6606 61.4432 48.6373 60.7693C50.4427 59.6041 52.0179 58.1159 53.2838 56.3794C53.3035 56.6224 53.3104 56.8664 53.3045 57.1101H53.3845C53.3912 56.8319 53.3825 56.5534 53.3587 56.2761C54.1428 55.1708 54.7523 53.9515 55.1657 52.6609L55.0857 52.635C54.6877 53.8879 54.1001 55.0723 53.3432 56.1469C53.2152 55.0202 52.9239 53.918 52.4784 52.8752C53.6626 51.4503 54.5562 49.8071 55.1089 48.0385ZM55.0521 47.9456C54.5156 49.7198 53.6339 51.3705 52.4578 52.8029C51.8203 51.3063 51.0158 49.8865 50.0597 48.5705C51.0562 47.2507 51.7922 45.7529 52.2281 44.1574C53.2886 45.3266 54.2343 46.5952 55.0521 47.9456ZM33.5749 38.262C33.5751 38.494 33.617 38.724 33.6988 38.9411C32.1494 39.5667 30.6525 40.3154 29.2226 41.18C28.9404 40.5716 28.7607 39.9207 28.6909 39.2536C30.2552 38.8559 31.8892 38.5564 33.5749 38.262ZM33.6704 38.1664C33.6812 37.9456 33.7292 37.7282 33.8124 37.5234L33.8278 37.4434C33.9274 37.2271 34.0637 37.0297 34.2305 36.8598C34.6326 36.4582 35.1601 36.2066 35.7252 36.1471H35.7639C35.8495 36.1367 35.9358 36.1315 36.022 36.1316C36.1797 36.1318 36.3369 36.1465 36.4918 36.1755C36.4918 36.1755 36.4918 36.1755 36.4918 36.191L36.5719 36.2065C37.1275 36.3167 37.626 36.6205 37.9787 37.0638L38.0252 37.1309C38.2646 37.4606 38.3946 37.8571 38.3969 38.2646C38.4009 38.3239 38.4009 38.3834 38.3969 38.4427H38.2962V38.528H38.3918C38.3253 38.987 38.1029 39.4092 37.7619 39.7236L37.718 39.6848L37.6638 39.7442L37.6999 39.7778C37.2334 40.1688 36.6409 40.3771 36.0324 40.364C35.9341 40.364 35.8358 40.3589 35.7381 40.3485C35.7447 40.3256 35.7499 40.3023 35.7536 40.2788L35.6761 40.2607C35.6761 40.2865 35.6761 40.3097 35.6581 40.3381C35.1571 40.269 34.689 40.0493 34.3157 39.7081L34.2667 39.6435C34.2568 39.6474 34.2479 39.6536 34.2409 39.6616C34.0503 39.469 33.8979 39.242 33.7917 38.9928H33.8098L33.7814 38.9179H33.7633C33.6834 38.7057 33.6423 38.4809 33.642 38.2542H33.6704V38.1664ZM34.7029 40.1445C33.8356 41.6215 33.0483 43.016 32.341 44.3691C31.687 44.0299 31.0875 43.5947 30.5624 43.078C31.7052 41.8836 32.9347 40.7754 34.2409 39.7623C34.6273 40.1173 35.1126 40.3461 35.6322 40.4182C35.2579 41.996 34.9249 43.5686 34.6358 45.149C33.8615 45.0121 33.1117 44.7614 32.4107 44.4053C33.118 43.0547 33.9053 41.6577 34.7701 40.1832L34.7029 40.1445ZM39.5276 44.5163C38.8071 44.8535 38.0407 45.0824 37.2534 45.1954C37.0262 43.6082 36.7552 42.0227 36.4402 40.4389L36.3602 40.4544C36.6777 42.0347 36.9436 43.6202 37.1708 45.2032C36.8087 45.2508 36.444 45.275 36.0788 45.2755C35.623 45.2759 35.1679 45.2379 34.7184 45.1619C35.0024 43.5841 35.338 42.0115 35.7123 40.4337C35.816 40.445 35.9203 40.451 36.0246 40.4518C36.6587 40.4568 37.2728 40.23 37.7516 39.8139C39.0247 40.9027 40.2356 42.0622 41.3784 43.2871C40.8466 43.7678 40.2485 44.1696 39.6024 44.4801C38.8771 43.0521 38.0742 41.6396 37.1991 40.191L37.132 40.2349C38.0123 41.6732 38.8125 43.0909 39.5353 44.5163H39.5276ZM34.6229 45.2316C34.3364 46.8249 34.0886 48.4181 33.8898 50.0295C32.6493 49.8282 31.4443 49.449 30.312 48.9036C30.898 47.4524 31.5872 45.9934 32.3771 44.4801C33.0869 44.8388 33.8452 45.0919 34.6281 45.2316H34.6229ZM34.7055 45.2445C35.1604 45.3193 35.6205 45.3573 36.0814 45.3581C36.4509 45.3589 36.82 45.3347 37.1862 45.2858C37.4134 46.8868 37.5967 48.4904 37.749 50.1018C37.2189 50.1684 36.6853 50.2038 36.1511 50.2077H36.0633C35.3631 50.2067 34.6641 50.1514 33.9724 50.0424C34.1738 48.4345 34.4198 46.8352 34.7107 45.2445H34.7055ZM37.2663 45.2729C38.0627 45.1606 38.8379 44.9299 39.5663 44.5886C40.3011 46.0392 40.9502 47.5318 41.5101 49.0586C40.34 49.5807 39.0998 49.9287 37.829 50.0915C37.6827 48.4836 37.4969 46.8765 37.2714 45.2703L37.2663 45.2729ZM39.6386 44.555C40.2956 44.2407 40.9041 43.8337 41.4456 43.3465C42.5556 44.5466 43.5649 45.836 44.4632 47.2019C43.5963 47.9396 42.6311 48.5532 41.5953 49.025C41.0344 47.4974 40.3827 46.0048 39.6437 44.555H39.6386ZM41.492 43.2897C42.0059 42.8116 42.4415 42.2557 42.7827 41.6422C44.1427 42.5646 45.4217 43.6013 46.6058 44.741C46.0722 45.5665 45.4326 46.3183 44.7033 46.9772L44.5019 47.1502C43.6094 45.7821 42.6043 44.4908 41.4972 43.2897H41.492ZM41.4404 43.2303C40.301 42.0064 39.0945 40.8469 37.8264 39.7571C37.9987 39.5939 38.1434 39.4038 38.2549 39.1942C39.8283 39.8397 41.3316 40.6444 42.7414 41.5957C42.3967 42.2044 41.9595 42.7559 41.4456 43.2303H41.4404ZM38.2833 39.1245C38.3745 38.9309 38.4354 38.7245 38.464 38.5125C40.1534 38.5658 41.8343 38.7759 43.4849 39.14C43.4155 39.9765 43.1719 40.7893 42.7698 41.526C41.3625 40.5736 39.8608 39.7688 38.2885 39.1245H38.2833ZM33.7246 39.0186C33.8317 39.2752 33.9878 39.5086 34.1841 39.7055C32.8805 40.7207 31.652 41.8288 30.5082 43.0211C29.9952 42.5064 29.572 41.9094 29.2562 41.2549C30.6843 40.3894 32.1805 39.6415 33.7298 39.0186H33.7246ZM30.4565 43.0831C29.3257 44.2714 28.2964 45.5524 27.3795 46.9127C26.5187 46.1249 25.7885 45.2054 25.2163 44.1883C26.4556 43.1137 27.7837 42.1462 29.1865 41.2962C29.5094 41.9573 29.9384 42.5609 30.4565 43.0831ZM30.5133 43.1425C31.0442 43.6581 31.6478 44.0931 32.3048 44.4337C31.5304 45.9469 30.8283 47.4059 30.2397 48.8571C29.2228 48.3572 28.2802 47.7185 27.4389 46.9591C28.3539 45.6015 29.3833 44.3246 30.5159 43.1425H30.5133ZM30.2113 48.9423C29.6149 50.4123 29.1224 51.9224 28.7373 53.4614C27.4303 52.8914 26.2011 52.1573 25.0795 51.2767C25.7274 49.7968 26.5048 48.377 27.4027 47.034C28.2463 47.7981 29.1925 48.4404 30.2139 48.9423H30.2113ZM30.2836 48.9811C31.4223 49.5298 32.6343 49.9107 33.8821 50.1121C33.6884 51.6615 33.5387 53.2109 33.4277 54.8016C31.8383 54.5716 30.2863 54.1323 28.8122 53.4949C29.1996 51.9583 29.6921 50.4502 30.2862 48.9811H30.2836ZM33.9647 50.1225C34.6597 50.2323 35.3622 50.2884 36.0659 50.2903H36.1537C36.6905 50.2863 37.2266 50.251 37.7593 50.1844C37.9065 51.7519 38.0175 53.3271 38.1104 54.9023C37.4714 54.9678 36.8295 55.0005 36.1872 55.0004C35.2908 55.0007 34.3954 54.9377 33.5078 54.8119C33.6213 53.2315 33.7736 51.6718 33.9672 50.1225H33.9647ZM37.8368 50.1741C39.1205 50.015 40.3738 49.6678 41.5565 49.1438C42.1041 50.6605 42.5449 52.2136 42.8756 53.7919C41.3747 54.3659 39.8045 54.7393 38.2059 54.9023C38.1095 53.3202 37.9891 51.745 37.8445 50.1767L37.8368 50.1741ZM41.6108 49.1025C42.6536 48.6292 43.6251 48.012 44.4968 47.269C45.3984 48.6575 46.1577 50.1335 46.7632 51.6744C45.5796 52.5251 44.2912 53.2195 42.9299 53.7403C42.6018 52.1655 42.1637 50.6158 41.6185 49.1025H41.6108ZM44.5587 47.2174C44.6284 47.1554 44.6981 47.0986 44.7678 47.034C45.5 46.3765 46.1415 45.6245 46.6755 44.7978C47.8772 45.9556 48.9735 47.2181 49.9513 48.5705C49.0638 49.7325 48.0136 50.7605 46.8329 51.6228C46.2267 50.0821 45.4674 48.6063 44.5665 47.2174H44.5587ZM46.7193 44.728C47.4616 43.5701 47.9581 42.2719 48.1778 40.914C49.6584 41.7609 51 42.8304 52.1558 44.0851C51.7273 45.6825 50.9955 47.1826 50.0003 48.5034C49.0201 47.1506 47.9221 45.8873 46.7193 44.728ZM46.66 44.6712C45.4756 43.5309 44.1957 42.4942 42.8343 41.5725C43.2422 40.8271 43.4901 40.0047 43.5623 39.158C45.1509 39.5159 46.6812 40.0957 48.1081 40.8804C47.8919 42.2292 47.4017 43.5193 46.6677 44.6712H46.66ZM43.5623 39.0754C43.5623 38.9308 43.5804 38.7862 43.5804 38.6416C43.5803 38.105 43.5082 37.5709 43.3661 37.0535C44.8958 36.8997 46.4385 36.93 47.961 37.1438C48.1254 37.8458 48.212 38.5637 48.2191 39.2846C48.2207 39.7858 48.1845 40.2865 48.1107 40.7823C46.6869 40.0035 45.1611 39.4281 43.5778 39.0728L43.5623 39.0754ZM43.4978 38.6416C43.4978 38.781 43.4978 38.9179 43.4823 39.0573C41.8322 38.6958 40.1524 38.4866 38.464 38.4324C38.464 38.3704 38.464 38.311 38.464 38.2491C38.4619 38.1339 38.4507 38.019 38.4305 37.9056C40.0216 37.5049 41.6403 37.2227 43.2732 37.0612C43.424 37.5748 43.5048 38.1064 43.5133 38.6416H43.4978ZM38.4253 37.8256C38.3648 37.5531 38.2498 37.2957 38.0871 37.069C39.3542 36.1822 40.7046 35.4211 42.1193 34.7965C42.6407 35.4426 43.0302 36.1849 43.2654 36.9812C41.6386 37.1432 40.026 37.4254 38.4408 37.8256H38.4253ZM38.0381 37.0044C37.8927 36.8141 37.7185 36.6477 37.5218 36.5112C38.3302 35.3136 39.2433 34.1902 40.2504 33.1542C40.9366 33.5743 41.5474 34.1068 42.0573 34.7294C40.6514 35.3556 39.3104 36.1184 38.0536 37.007L38.0381 37.0044ZM37.4521 36.4673C37.1861 36.2962 36.8914 36.1746 36.5822 36.1083C36.8346 34.7659 37.1875 33.4444 37.638 32.1549C38.5332 32.3267 39.3923 32.6507 40.1781 33.1129C39.1773 34.1487 38.2703 35.2712 37.4676 36.4673H37.4521ZM36.5022 36.0929C36.342 36.0638 36.1796 36.0491 36.0169 36.049C35.9265 36.049 35.8413 36.049 35.7587 36.049C35.6179 34.7044 35.4007 33.3689 35.1082 32.049C35.9265 31.9497 36.755 31.975 37.5657 32.1239C37.1161 33.4183 36.7658 34.7452 36.5177 36.0929H36.5022ZM35.6735 36.0722C35.3832 36.1111 35.1013 36.1984 34.8398 36.3304L34.5481 35.8527C33.936 34.803 33.2646 33.7891 32.5371 32.8159C33.3204 32.4384 34.1601 32.1916 35.023 32.0851C35.319 33.4007 35.5413 34.7318 35.689 36.0722H35.6735ZM34.4784 35.8811L34.7675 36.3562C34.5628 36.4633 34.3749 36.5999 34.2099 36.7617C32.9526 35.9217 31.6467 35.1568 30.2991 34.4712C30.913 33.7976 31.6476 33.2449 32.4649 32.8417C33.1976 33.816 33.875 34.8308 34.4938 35.8811H34.4784ZM34.1505 36.8185C33.9778 36.997 33.8372 37.2041 33.7349 37.4305L32.7591 37.2239C31.5949 36.9657 30.3455 36.7074 29.0316 36.5267C29.3103 35.7953 29.7197 35.1206 30.2397 34.5357C31.5928 35.2176 32.9039 35.9799 34.166 36.8185H34.1505ZM32.7437 37.304C33.0715 37.3763 33.389 37.4408 33.7039 37.508C33.6188 37.722 33.5707 37.9491 33.562 38.1793C31.8737 38.466 30.2371 38.7733 28.6573 39.1735C28.6573 38.9979 28.6315 38.8223 28.6315 38.6416C28.6312 37.9465 28.7535 37.2567 28.9929 36.6041C30.3352 36.7823 31.5898 37.0509 32.7591 37.304H32.7437ZM28.5618 38.6416C28.5618 38.8275 28.5618 39.0108 28.5876 39.1942C27.0249 39.5799 25.5027 40.1143 24.0418 40.79C23.9744 40.3421 23.9382 39.8899 23.9333 39.4369C23.9278 38.4451 24.0749 37.4582 24.3696 36.5112C25.8833 36.349 27.4113 36.3767 28.918 36.5938C28.6881 37.2519 28.5728 37.9445 28.5773 38.6416H28.5618ZM28.5954 39.2768C28.6665 39.951 28.8507 40.6083 29.14 41.2213C27.7349 42.0722 26.405 43.0415 25.1647 44.1186C24.6149 43.1109 24.2446 42.0151 24.0702 40.8804C25.5291 40.2021 27.0496 39.6651 28.6108 39.2768H28.5954ZM25.1001 44.1832C23.8852 45.2443 22.7784 46.4233 21.7959 47.7028C20.9702 46.422 20.3833 45.002 20.0638 43.5118C21.2416 42.4715 22.5598 41.6022 23.9798 40.9295C24.1699 42.0677 24.5541 43.1648 25.1156 44.1729L25.1001 44.1832ZM25.1414 44.2555C25.72 45.2763 26.4562 46.1992 27.3227 46.9901C26.4239 48.3326 25.6464 49.7524 24.9995 51.2328C23.7673 50.2577 22.7003 49.0902 21.8398 47.7752C22.826 46.4892 23.9371 45.3041 25.1569 44.2374L25.1414 44.2555ZM24.9685 51.3103C24.3462 52.7679 23.8504 54.2764 23.4868 55.819C21.9289 54.6825 20.5662 53.3002 19.452 51.7261C20.0973 50.3484 20.8855 49.0423 21.8037 47.8294C22.6714 49.1489 23.7452 50.3207 24.984 51.3L24.9685 51.3103ZM25.033 51.3645C26.1647 52.2412 27.4034 52.9701 28.7193 53.5337C28.3342 55.103 28.0676 56.699 27.9216 58.3083C26.3719 57.6681 24.9039 56.8454 23.5487 55.8577C23.9201 54.3167 24.4219 52.8101 25.0485 51.3542L25.033 51.3645ZM28.7786 53.5853C30.2579 54.2235 31.8151 54.6629 33.4097 54.892C33.2961 56.4981 33.2247 58.1276 33.1954 59.7802C31.4065 59.5221 29.6561 59.0451 27.9836 58.36C28.1333 56.7469 28.4042 55.1474 28.7941 53.575L28.7786 53.5853ZM33.4897 54.9023C35.0186 55.122 36.5688 55.1524 38.1052 54.9927C38.1982 56.6324 38.2627 58.2748 38.3117 59.9223C37.6664 59.9791 37.0081 60.0126 36.3447 60.0126C35.3176 60.0118 34.2919 59.9375 33.2754 59.7906C33.3219 58.1302 33.389 56.5007 33.5052 54.892L33.4897 54.9023ZM38.1852 54.9849C39.7859 54.8203 41.3582 54.4479 42.8627 53.8771C43.1979 55.5132 43.4179 57.1708 43.521 58.8377C41.8593 59.3935 40.139 59.7557 38.3943 59.9171C38.3608 58.2593 38.2937 56.6118 38.2007 54.9746L38.1852 54.9849ZM42.9402 53.8435C44.3065 53.3183 45.5993 52.6187 46.7865 51.7622C47.4032 53.3355 47.859 54.9672 48.1469 56.6324C46.7301 57.5317 45.2109 58.2582 43.6217 58.7964C43.5157 57.1285 43.2931 55.47 42.9557 53.8332L42.9402 53.8435ZM46.8562 51.7157C48.0515 50.8453 49.1134 49.8048 50.008 48.6273C50.9659 49.9463 51.768 51.3718 52.3984 52.8752C51.2048 54.3175 49.794 55.565 48.2166 56.573C47.9342 54.9091 47.4836 53.2782 46.8716 51.7054L46.8562 51.7157ZM52.3029 38.6545C52.4682 39.4262 52.5547 40.2126 52.5611 41.0018C52.5618 42.0059 52.437 43.0061 52.1893 43.9792C51.0309 42.7232 49.6835 41.6559 48.1959 40.8159C48.384 39.5961 48.3385 38.3517 48.0617 37.149C49.5633 37.3697 51.0085 37.8773 52.3184 38.6442L52.3029 38.6545ZM47.9403 37.0664C46.4174 36.857 44.8751 36.8284 43.3455 36.9812C43.1115 36.1781 42.7221 35.4288 42.1993 34.7759C43.5184 34.1965 44.9065 33.7894 46.3296 33.5648C47.0891 34.6142 47.6411 35.7993 47.9558 37.0561L47.9403 37.0664ZM46.2676 33.4873C44.8451 33.7194 43.4574 34.1298 42.1374 34.7087C41.6209 34.0744 40.9992 33.5337 40.2994 33.1103C41.2153 32.1778 42.2529 31.3735 43.3842 30.7191C44.504 31.4621 45.4851 32.3955 46.2831 33.477L46.2676 33.4873ZM43.3326 30.6545C42.2101 31.3169 41.1791 32.1234 40.2659 33.0535C39.4689 32.5799 38.5953 32.2495 37.6845 32.0774C38.0759 30.9577 38.5865 29.8833 39.2075 28.8728C40.6767 29.2189 42.0732 29.8221 43.3326 30.6545ZM36.022 28.5112H36.1098C37.1245 28.5107 38.1359 28.625 39.1249 28.8521C38.5064 29.8649 37.9959 30.9399 37.6018 32.0593C37.102 31.9677 36.5948 31.9219 36.0866 31.9224C35.757 31.9226 35.4277 31.9424 35.1005 31.9818C34.8527 30.8482 34.5028 29.7393 34.055 28.6688C34.706 28.569 35.3634 28.5164 36.022 28.5112ZM33.9724 28.6843C34.4134 29.7534 34.759 30.8595 35.005 31.9896C34.1318 32.1009 33.2825 32.3538 32.4907 32.7385C31.7196 31.7218 30.7875 30.8382 29.7312 30.1226C31.0512 29.4015 32.4862 28.9148 33.9724 28.6843ZM29.6641 30.1691C30.7229 30.8801 31.6577 31.7604 32.4313 32.7746C31.6026 33.186 30.8583 33.7492 30.2371 34.435C28.9799 33.8024 27.6549 33.3147 26.2876 32.9812C27.2281 31.8416 28.3733 30.8878 29.6641 30.1691ZM26.2334 33.0509C27.6001 33.3799 28.9245 33.8651 30.1803 34.497C29.6572 35.0907 29.2454 35.7739 28.9645 36.5138C27.4562 36.2953 25.9267 36.2649 24.4109 36.4234C24.8035 35.1957 25.4215 34.0519 26.2334 33.0509ZM19.8109 40.9915C19.829 39.8586 19.9807 38.7318 20.2626 37.6345C21.5423 37.0583 22.9017 36.6787 24.2947 36.5086C24.0061 37.4533 23.8625 38.4362 23.8688 39.424C23.8742 39.8909 23.9121 40.3569 23.9824 40.8185C22.56 41.4896 21.2398 42.359 20.0613 43.4007C19.8961 42.6083 19.8122 41.801 19.8109 40.9915ZM17.2656 46.7706C18.0435 45.5932 18.9653 44.5176 20.0096 43.5686C20.3373 45.0588 20.9292 46.4782 21.7572 47.7597C20.8371 48.9691 20.0464 50.2716 19.3978 51.646C18.3718 50.1779 17.6471 48.5208 17.2656 46.7706ZM18.3395 54.657C18.6281 53.6853 18.987 52.736 19.4133 51.8164C20.5318 53.3904 21.8979 54.7726 23.4584 55.9094C23.1741 57.108 22.9646 58.3232 22.8311 59.5478C21.0242 58.232 19.4972 56.5694 18.3395 54.657ZM22.906 59.6021C23.0399 58.3734 23.2485 57.154 23.5306 55.9507C24.8896 56.9404 26.3631 57.7624 27.919 58.3987C27.8054 59.664 27.7564 60.981 27.7693 62.3729C26.0434 61.6467 24.4107 60.7165 22.906 59.6021ZM27.8442 62.409C27.8442 61.0146 27.8803 59.6976 27.9939 58.4349C29.6678 59.1181 31.4189 59.5941 33.2083 59.8525C33.1842 61.2022 33.1842 62.5734 33.2083 63.9661C31.3656 63.6583 29.5653 63.1357 27.8442 62.409ZM36.5796 64.2502C35.4808 64.2514 34.3837 64.1651 33.2987 63.992C33.2703 62.5975 33.2651 61.2263 33.2987 59.8603C34.3152 60.0065 35.3409 60.0798 36.3679 60.0798C37.0314 60.0798 37.6896 60.054 38.3375 59.9972C38.3788 61.3787 38.4098 62.7705 38.4305 64.1624C37.8135 64.2166 37.1992 64.2502 36.5796 64.2502ZM38.5053 64.1598C38.483 62.7654 38.452 61.3752 38.4124 59.9894C40.1588 59.8321 41.8805 59.469 43.5416 58.9074C43.6242 60.2425 43.6475 61.6343 43.5984 63.1011C41.9477 63.651 40.2384 64.0064 38.5053 64.1598ZM43.6681 63.0752C43.7172 61.6085 43.6965 60.2141 43.6113 58.8842C45.2058 58.3412 46.7301 57.6104 48.152 56.7073C48.3751 58.036 48.5053 59.3786 48.5418 60.7254C47.0278 61.7167 45.3935 62.5107 43.6785 63.0882L43.6681 63.0752ZM53.2709 56.2632C52.0084 58.0084 50.4328 59.504 48.6244 60.6737C48.5859 59.3277 48.454 57.986 48.2295 56.6582C49.8117 55.6497 51.2277 54.4013 52.4268 52.9578C52.8734 54.0113 53.1613 55.1252 53.2813 56.2632H53.2709Z" fill="black" stroke="black" stroke-width="0.554354"/>
<path d="M34.7283 67.2177C24.6763 66.3475 16.7127 57.5574 16.7127 47.1946C16.7127 42.9287 18.3958 39.2618 20.3809 35.8325C24.5137 28.7261 46.9719 16.3207 70.0263 7.05029C64.657 8.12711 54.2282 11.386 48.5672 13.1703C38.9876 16.1916 30.0508 19.8662 22.4486 23.8662C21.3644 24.4756 20.3835 24.8991 18.086 26.2729C6.60913 33.1315 -0.290949 42.7195 1.58831 50.611C3.02615 56.6432 9.42027 61.7665 18.3467 64.6251C22.859 65.9653 27.9934 67.0551 33.4066 67.2926C33.8635 67.2926 34.181 67.2591 34.6354 67.2616L34.7283 67.2177Z" fill="#004987"/>
<path d="M37.7412 27.7479C47.7957 28.6182 55.811 37.3386 55.811 47.7039C55.811 51.9698 54.2621 55.6367 52.2848 59.066C48.1597 66.157 25.5466 78.5778 2.49219 87.8353C7.8615 86.7585 18.2903 83.5022 23.9488 81.7153C33.5335 78.694 42.4677 75.022 50.0803 71.0194C51.1644 70.41 52.1454 69.9865 54.4428 68.6127C65.9068 61.7438 72.812 52.1661 70.9328 44.272C69.4924 38.2424 63.1008 33.1217 54.1718 30.2605C49.6595 28.9229 44.6206 27.8435 39.1997 27.6627C38.7147 27.6505 38.2295 27.6661 37.7463 27.7092L37.7412 27.7479Z" fill="#00754A"/>
</g>
</g>
</g>
</g>
<defs>
<radialGradient id="paint0_radial_0_2046" cx="0" cy="0" r="1" gradientUnits="userSpaceOnUse" gradientTransform="translate(36.2422 47.5425) rotate(90) scale(20.2383)">
<stop stop-color="white"/>
<stop offset="1" stop-color="#979797"/>
</radialGradient>
<clipPath id="clip0_0_2046">
<rect width="71.5312" height="87.8454" fill="white" transform="translate(0 0.702148)"/>
</clipPath>
<clipPath id="clip1_0_2046">
<rect width="280.581" height="80.8258" fill="white" transform="translate(0.175781 7.04443)"/>
</clipPath>
<clipPath id="clip2_0_2046">
<rect width="280.581" height="80.8258" fill="white" transform="translate(0.175781 7.04492)"/>
</clipPath>
<clipPath id="clip3_0_2046">
<rect width="280.581" height="80.8258" fill="white" transform="translate(0.175781 7.04541)"/>
</clipPath>
</defs>
</svg>
