<svg width="297" height="20" viewBox="0 0 297 20" fill="none" xmlns="http://www.w3.org/2000/svg">
<g filter="url(#filter0_b_0_3970)">
<path d="M36.8857 14.1069C36.1596 14.1069 35.5707 13.7468 35.5707 13.303V6.87214C35.5707 6.4283 36.1596 6.06828 36.8857 6.06828C37.6117 6.06828 38.2006 6.4283 38.2006 6.87214V13.303C38.2006 13.7468 37.6117 14.1069 36.8857 14.1069ZM32.3562 15.4466V4.72852C32.3562 4.28468 31.7672 3.92466 31.0412 3.92466C30.3152 3.92466 29.7263 4.28468 29.7263 4.72852V15.4466C29.7263 15.8905 30.3152 16.2505 31.0412 16.2505C31.7672 16.2505 32.3562 15.8905 32.3562 15.4466ZM26.5126 12.2312V7.94395C26.5126 7.50011 25.9237 7.14009 25.1977 7.14009C24.4716 7.14009 23.8827 7.50011 23.8827 7.94395V12.2312C23.8827 12.675 24.4716 13.035 25.1977 13.035C25.9237 13.035 26.5126 12.675 26.5126 12.2312ZM20.6682 16.5184V3.65671C20.6682 3.21287 20.0792 2.85285 19.3532 2.85285C18.6272 2.85285 18.0383 3.21287 18.0383 3.65671V16.5184C18.0383 16.9623 18.6272 17.3223 19.3532 17.3223C20.0792 17.3223 20.6682 16.9623 20.6682 16.5184ZM14.8237 18.6621V1.51309C14.8237 1.06925 14.2348 0.709229 13.5088 0.709229C12.7828 0.709229 12.1939 1.06925 12.1939 1.51309V18.6621C12.1939 19.1059 12.7828 19.4659 13.5088 19.4659C14.2348 19.4659 14.8237 19.1059 14.8237 18.6621ZM8.98016 14.3748V5.80033C8.98016 5.35649 8.39125 4.99647 7.66523 4.99647C6.93921 4.99647 6.3503 5.35649 6.3503 5.80033V14.3748C6.3503 14.8186 6.93921 15.1787 7.66523 15.1787C8.39125 15.1787 8.98016 14.8186 8.98016 14.3748ZM3.13572 13.303V6.87214C3.13572 6.4283 2.54681 6.06828 1.82079 6.06828C1.09477 6.06828 0.505859 6.4283 0.505859 6.87214V13.303C0.505859 13.7468 1.09477 14.1069 1.82079 14.1069C2.54681 14.1069 3.13572 13.7468 3.13572 13.303Z" fill="url(#paint0_linear_0_3970)"/>
</g>
<g filter="url(#filter1_b_0_3970)">
<path d="M79.8681 14.1069C79.1421 14.1069 78.5532 13.7468 78.5532 13.303V6.87214C78.5532 6.4283 79.1421 6.06828 79.8681 6.06828C80.5941 6.06828 81.183 6.4283 81.183 6.87214V13.303C81.183 13.7468 80.5941 14.1069 79.8681 14.1069ZM75.3386 15.4466V4.72852C75.3386 4.28468 74.7497 3.92466 74.0236 3.92466C73.2976 3.92466 72.7087 4.28468 72.7087 4.72852V15.4466C72.7087 15.8905 73.2976 16.2505 74.0236 16.2505C74.7497 16.2505 75.3386 15.8905 75.3386 15.4466ZM69.495 12.2312V7.94395C69.495 7.50011 68.9061 7.14009 68.1801 7.14009C67.4541 7.14009 66.8652 7.50011 66.8652 7.94395V12.2312C66.8652 12.675 67.4541 13.035 68.1801 13.035C68.9061 13.035 69.495 12.675 69.495 12.2312ZM63.6506 16.5184V3.65671C63.6506 3.21287 63.0617 2.85285 62.3356 2.85285C61.6096 2.85285 61.0207 3.21287 61.0207 3.65671V16.5184C61.0207 16.9623 61.6096 17.3223 62.3356 17.3223C63.0617 17.3223 63.6506 16.9623 63.6506 16.5184ZM57.8061 18.6621V1.51309C57.8061 1.06925 57.2172 0.709229 56.4912 0.709229C55.7652 0.709229 55.1763 1.06925 55.1763 1.51309V18.6621C55.1763 19.1059 55.7652 19.4659 56.4912 19.4659C57.2172 19.4659 57.8061 19.1059 57.8061 18.6621ZM51.9626 14.3748V5.80033C51.9626 5.35649 51.3737 4.99647 50.6477 4.99647C49.9216 4.99647 49.3327 5.35649 49.3327 5.80033V14.3748C49.3327 14.8186 49.9216 15.1787 50.6477 15.1787C51.3737 15.1787 51.9626 14.8186 51.9626 14.3748ZM46.1181 13.303V6.87214C46.1181 6.4283 45.5292 6.06828 44.8032 6.06828C44.0772 6.06828 43.4883 6.4283 43.4883 6.87214V13.303C43.4883 13.7468 44.0772 14.1069 44.8032 14.1069C45.5292 14.1069 46.1181 13.7468 46.1181 13.303Z" fill="url(#paint1_linear_0_3970)"/>
</g>
<g filter="url(#filter2_b_0_3970)">
<path d="M122.85 14.1069C122.124 14.1069 121.535 13.7468 121.535 13.303V6.87214C121.535 6.4283 122.124 6.06828 122.85 6.06828C123.576 6.06828 124.164 6.4283 124.164 6.87214V13.303C124.164 13.7468 123.576 14.1069 122.85 14.1069ZM118.32 15.4466V4.72852C118.32 4.28468 117.731 3.92466 117.005 3.92466C116.279 3.92466 115.69 4.28468 115.69 4.72852V15.4466C115.69 15.8905 116.279 16.2505 117.005 16.2505C117.731 16.2505 118.32 15.8905 118.32 15.4466ZM112.476 12.2312V7.94395C112.476 7.50011 111.888 7.14009 111.162 7.14009C110.436 7.14009 109.847 7.50011 109.847 7.94395V12.2312C109.847 12.675 110.436 13.035 111.162 13.035C111.888 13.035 112.476 12.675 112.476 12.2312ZM106.632 16.5184V3.65671C106.632 3.21287 106.043 2.85285 105.317 2.85285C104.591 2.85285 104.002 3.21287 104.002 3.65671V16.5184C104.002 16.9623 104.591 17.3223 105.317 17.3223C106.043 17.3223 106.632 16.9623 106.632 16.5184ZM100.788 18.6621V1.51309C100.788 1.06925 100.199 0.709229 99.4727 0.709229C98.7466 0.709229 98.1577 1.06925 98.1577 1.51309V18.6621C98.1577 19.1059 98.7466 19.4659 99.4727 19.4659C100.199 19.4659 100.788 19.1059 100.788 18.6621ZM94.944 14.3748V5.80033C94.944 5.35649 94.3551 4.99647 93.6291 4.99647C92.9031 4.99647 92.3142 5.35649 92.3142 5.80033V14.3748C92.3142 14.8186 92.9031 15.1787 93.6291 15.1787C94.3551 15.1787 94.944 14.8186 94.944 14.3748ZM89.0996 13.303V6.87214C89.0996 6.4283 88.5107 6.06828 87.7847 6.06828C87.0586 6.06828 86.4697 6.4283 86.4697 6.87214V13.303C86.4697 13.7468 87.0586 14.1069 87.7847 14.1069C88.5107 14.1069 89.0996 13.7468 89.0996 13.303Z" fill="url(#paint2_linear_0_3970)"/>
</g>
<g filter="url(#filter3_b_0_3970)">
<path d="M165.832 14.1069C165.106 14.1069 164.517 13.7468 164.517 13.303V6.87214C164.517 6.4283 165.106 6.06828 165.832 6.06828C166.558 6.06828 167.147 6.4283 167.147 6.87214V13.303C167.147 13.7468 166.558 14.1069 165.832 14.1069ZM161.302 15.4466V4.72852C161.302 4.28468 160.714 3.92466 159.988 3.92466C159.261 3.92466 158.673 4.28468 158.673 4.72852V15.4466C158.673 15.8905 159.261 16.2505 159.988 16.2505C160.714 16.2505 161.302 15.8905 161.302 15.4466ZM155.459 12.2312V7.94395C155.459 7.50011 154.87 7.14009 154.144 7.14009C153.418 7.14009 152.829 7.50011 152.829 7.94395V12.2312C152.829 12.675 153.418 13.035 154.144 13.035C154.87 13.035 155.459 12.675 155.459 12.2312ZM149.614 16.5184V3.65671C149.614 3.21287 149.026 2.85285 148.3 2.85285C147.573 2.85285 146.985 3.21287 146.985 3.65671V16.5184C146.985 16.9623 147.573 17.3223 148.3 17.3223C149.026 17.3223 149.614 16.9623 149.614 16.5184ZM143.77 18.6621V1.51309C143.77 1.06925 143.181 0.709229 142.455 0.709229C141.729 0.709229 141.14 1.06925 141.14 1.51309V18.6621C141.14 19.1059 141.729 19.4659 142.455 19.4659C143.181 19.4659 143.77 19.1059 143.77 18.6621ZM137.926 14.3748V5.80033C137.926 5.35649 137.338 4.99647 136.612 4.99647C135.886 4.99647 135.297 5.35649 135.297 5.80033V14.3748C135.297 14.8186 135.886 15.1787 136.612 15.1787C137.338 15.1787 137.926 14.8186 137.926 14.3748ZM132.082 13.303V6.87214C132.082 6.4283 131.493 6.06828 130.767 6.06828C130.041 6.06828 129.452 6.4283 129.452 6.87214V13.303C129.452 13.7468 130.041 14.1069 130.767 14.1069C131.493 14.1069 132.082 13.7468 132.082 13.303Z" fill="url(#paint3_linear_0_3970)"/>
</g>
<g filter="url(#filter4_b_0_3970)">
<path d="M208.814 14.1069C208.088 14.1069 207.499 13.7468 207.499 13.303V6.87214C207.499 6.4283 208.088 6.06828 208.814 6.06828C209.54 6.06828 210.129 6.4283 210.129 6.87214V13.303C210.129 13.7468 209.54 14.1069 208.814 14.1069ZM204.285 15.4466V4.72852C204.285 4.28468 203.696 3.92466 202.97 3.92466C202.244 3.92466 201.655 4.28468 201.655 4.72852V15.4466C201.655 15.8905 202.244 16.2505 202.97 16.2505C203.696 16.2505 204.285 15.8905 204.285 15.4466ZM198.441 12.2312V7.94395C198.441 7.50011 197.852 7.14009 197.126 7.14009C196.4 7.14009 195.811 7.50011 195.811 7.94395V12.2312C195.811 12.675 196.4 13.035 197.126 13.035C197.852 13.035 198.441 12.675 198.441 12.2312ZM192.597 16.5184V3.65671C192.597 3.21287 192.008 2.85285 191.282 2.85285C190.556 2.85285 189.967 3.21287 189.967 3.65671V16.5184C189.967 16.9623 190.556 17.3223 191.282 17.3223C192.008 17.3223 192.597 16.9623 192.597 16.5184ZM186.752 18.6621V1.51309C186.752 1.06925 186.164 0.709229 185.438 0.709229C184.711 0.709229 184.123 1.06925 184.123 1.51309V18.6621C184.123 19.1059 184.711 19.4659 185.438 19.4659C186.164 19.4659 186.752 19.1059 186.752 18.6621ZM180.909 14.3748V5.80033C180.909 5.35649 180.32 4.99647 179.594 4.99647C178.868 4.99647 178.279 5.35649 178.279 5.80033V14.3748C178.279 14.8186 178.868 15.1787 179.594 15.1787C180.32 15.1787 180.909 14.8186 180.909 14.3748ZM175.064 13.303V6.87214C175.064 6.4283 174.476 6.06828 173.75 6.06828C173.023 6.06828 172.435 6.4283 172.435 6.87214V13.303C172.435 13.7468 173.023 14.1069 173.75 14.1069C174.476 14.1069 175.064 13.7468 175.064 13.303Z" fill="url(#paint4_linear_0_3970)"/>
</g>
<g filter="url(#filter5_b_0_3970)">
<path d="M251.796 14.1069C251.07 14.1069 250.481 13.7468 250.481 13.303V6.87214C250.481 6.4283 251.07 6.06828 251.796 6.06828C252.522 6.06828 253.111 6.4283 253.111 6.87214V13.303C253.111 13.7468 252.522 14.1069 251.796 14.1069ZM247.266 15.4466V4.72852C247.266 4.28468 246.677 3.92466 245.951 3.92466C245.225 3.92466 244.636 4.28468 244.636 4.72852V15.4466C244.636 15.8905 245.225 16.2505 245.951 16.2505C246.677 16.2505 247.266 15.8905 247.266 15.4466ZM241.423 12.2312V7.94395C241.423 7.50011 240.834 7.14009 240.108 7.14009C239.382 7.14009 238.793 7.50011 238.793 7.94395V12.2312C238.793 12.675 239.382 13.035 240.108 13.035C240.834 13.035 241.423 12.675 241.423 12.2312ZM235.578 16.5184V3.65671C235.578 3.21287 234.989 2.85285 234.263 2.85285C233.537 2.85285 232.948 3.21287 232.948 3.65671V16.5184C232.948 16.9623 233.537 17.3223 234.263 17.3223C234.989 17.3223 235.578 16.9623 235.578 16.5184ZM229.734 18.6621V1.51309C229.734 1.06925 229.145 0.709229 228.419 0.709229C227.693 0.709229 227.104 1.06925 227.104 1.51309V18.6621C227.104 19.1059 227.693 19.4659 228.419 19.4659C229.145 19.4659 229.734 19.1059 229.734 18.6621ZM223.89 14.3748V5.80033C223.89 5.35649 223.301 4.99647 222.575 4.99647C221.849 4.99647 221.26 5.35649 221.26 5.80033V14.3748C221.26 14.8186 221.849 15.1787 222.575 15.1787C223.301 15.1787 223.89 14.8186 223.89 14.3748ZM218.046 13.303V6.87214C218.046 6.4283 217.457 6.06828 216.731 6.06828C216.005 6.06828 215.416 6.4283 215.416 6.87214V13.303C215.416 13.7468 216.005 14.1069 216.731 14.1069C217.457 14.1069 218.046 13.7468 218.046 13.303Z" fill="url(#paint5_linear_0_3970)"/>
</g>
<g filter="url(#filter6_b_0_3970)">
<path d="M294.778 14.1069C294.052 14.1069 293.463 13.7468 293.463 13.303V6.87214C293.463 6.4283 294.052 6.06828 294.778 6.06828C295.504 6.06828 296.093 6.4283 296.093 6.87214V13.303C296.093 13.7468 295.504 14.1069 294.778 14.1069ZM290.249 15.4466V4.72852C290.249 4.28468 289.66 3.92466 288.934 3.92466C288.208 3.92466 287.619 4.28468 287.619 4.72852V15.4466C287.619 15.8905 288.208 16.2505 288.934 16.2505C289.66 16.2505 290.249 15.8905 290.249 15.4466ZM284.405 12.2312V7.94395C284.405 7.50011 283.816 7.14009 283.09 7.14009C282.364 7.14009 281.775 7.50011 281.775 7.94395V12.2312C281.775 12.675 282.364 13.035 283.09 13.035C283.816 13.035 284.405 12.675 284.405 12.2312ZM278.561 16.5184V3.65671C278.561 3.21287 277.972 2.85285 277.246 2.85285C276.52 2.85285 275.931 3.21287 275.931 3.65671V16.5184C275.931 16.9623 276.52 17.3223 277.246 17.3223C277.972 17.3223 278.561 16.9623 278.561 16.5184ZM272.716 18.6621V1.51309C272.716 1.06925 272.127 0.709229 271.401 0.709229C270.675 0.709229 270.086 1.06925 270.086 1.51309V18.6621C270.086 19.1059 270.675 19.4659 271.401 19.4659C272.127 19.4659 272.716 19.1059 272.716 18.6621ZM266.873 14.3748V5.80033C266.873 5.35649 266.284 4.99647 265.558 4.99647C264.832 4.99647 264.243 5.35649 264.243 5.80033V14.3748C264.243 14.8186 264.832 15.1787 265.558 15.1787C266.284 15.1787 266.873 14.8186 266.873 14.3748ZM261.028 13.303V6.87214C261.028 6.4283 260.439 6.06828 259.713 6.06828C258.987 6.06828 258.398 6.4283 258.398 6.87214V13.303C258.398 13.7468 258.987 14.1069 259.713 14.1069C260.439 14.1069 261.028 13.7468 261.028 13.303Z" fill="url(#paint6_linear_0_3970)"/>
</g>
<defs>
<filter id="filter0_b_0_3970" x="-31.7654" y="-31.562" width="102.237" height="83.2991" filterUnits="userSpaceOnUse" color-interpolation-filters="sRGB">
<feFlood flood-opacity="0" result="BackgroundImageFix"/>
<feGaussianBlur in="BackgroundImageFix" stdDeviation="16.1356"/>
<feComposite in2="SourceAlpha" operator="in" result="effect1_backgroundBlur_0_3970"/>
<feBlend mode="normal" in="SourceGraphic" in2="effect1_backgroundBlur_0_3970" result="shape"/>
</filter>
<filter id="filter1_b_0_3970" x="11.217" y="-31.562" width="102.237" height="83.2991" filterUnits="userSpaceOnUse" color-interpolation-filters="sRGB">
<feFlood flood-opacity="0" result="BackgroundImageFix"/>
<feGaussianBlur in="BackgroundImageFix" stdDeviation="16.1356"/>
<feComposite in2="SourceAlpha" operator="in" result="effect1_backgroundBlur_0_3970"/>
<feBlend mode="normal" in="SourceGraphic" in2="effect1_backgroundBlur_0_3970" result="shape"/>
</filter>
<filter id="filter2_b_0_3970" x="54.1985" y="-31.562" width="102.237" height="83.2991" filterUnits="userSpaceOnUse" color-interpolation-filters="sRGB">
<feFlood flood-opacity="0" result="BackgroundImageFix"/>
<feGaussianBlur in="BackgroundImageFix" stdDeviation="16.1356"/>
<feComposite in2="SourceAlpha" operator="in" result="effect1_backgroundBlur_0_3970"/>
<feBlend mode="normal" in="SourceGraphic" in2="effect1_backgroundBlur_0_3970" result="shape"/>
</filter>
<filter id="filter3_b_0_3970" x="97.1809" y="-31.562" width="102.237" height="83.2991" filterUnits="userSpaceOnUse" color-interpolation-filters="sRGB">
<feFlood flood-opacity="0" result="BackgroundImageFix"/>
<feGaussianBlur in="BackgroundImageFix" stdDeviation="16.1356"/>
<feComposite in2="SourceAlpha" operator="in" result="effect1_backgroundBlur_0_3970"/>
<feBlend mode="normal" in="SourceGraphic" in2="effect1_backgroundBlur_0_3970" result="shape"/>
</filter>
<filter id="filter4_b_0_3970" x="140.163" y="-31.562" width="102.237" height="83.2991" filterUnits="userSpaceOnUse" color-interpolation-filters="sRGB">
<feFlood flood-opacity="0" result="BackgroundImageFix"/>
<feGaussianBlur in="BackgroundImageFix" stdDeviation="16.1356"/>
<feComposite in2="SourceAlpha" operator="in" result="effect1_backgroundBlur_0_3970"/>
<feBlend mode="normal" in="SourceGraphic" in2="effect1_backgroundBlur_0_3970" result="shape"/>
</filter>
<filter id="filter5_b_0_3970" x="183.145" y="-31.562" width="102.237" height="83.2991" filterUnits="userSpaceOnUse" color-interpolation-filters="sRGB">
<feFlood flood-opacity="0" result="BackgroundImageFix"/>
<feGaussianBlur in="BackgroundImageFix" stdDeviation="16.1356"/>
<feComposite in2="SourceAlpha" operator="in" result="effect1_backgroundBlur_0_3970"/>
<feBlend mode="normal" in="SourceGraphic" in2="effect1_backgroundBlur_0_3970" result="shape"/>
</filter>
<filter id="filter6_b_0_3970" x="226.127" y="-31.562" width="102.237" height="83.2991" filterUnits="userSpaceOnUse" color-interpolation-filters="sRGB">
<feFlood flood-opacity="0" result="BackgroundImageFix"/>
<feGaussianBlur in="BackgroundImageFix" stdDeviation="16.1356"/>
<feComposite in2="SourceAlpha" operator="in" result="effect1_backgroundBlur_0_3970"/>
<feBlend mode="normal" in="SourceGraphic" in2="effect1_backgroundBlur_0_3970" result="shape"/>
</filter>
<linearGradient id="paint0_linear_0_3970" x1="43.597" y1="19.4659" x2="-17.4942" y2="19.089" gradientUnits="userSpaceOnUse">
<stop stop-color="#036068"/>
<stop offset="0.382639" stop-color="#596451"/>
<stop offset="0.561006" stop-color="#1199A8"/>
<stop offset="0.75484" stop-color="#74C27C"/>
<stop offset="1" stop-color="#1199A8"/>
</linearGradient>
<linearGradient id="paint1_linear_0_3970" x1="86.5795" y1="19.4659" x2="25.4882" y2="19.089" gradientUnits="userSpaceOnUse">
<stop stop-color="#036068"/>
<stop offset="0.382639" stop-color="#596451"/>
<stop offset="0.561006" stop-color="#1199A8"/>
<stop offset="0.75484" stop-color="#74C27C"/>
<stop offset="1" stop-color="#1199A8"/>
</linearGradient>
<linearGradient id="paint2_linear_0_3970" x1="129.561" y1="19.4659" x2="68.4697" y2="19.089" gradientUnits="userSpaceOnUse">
<stop stop-color="#036068"/>
<stop offset="0.382639" stop-color="#596451"/>
<stop offset="0.561006" stop-color="#1199A8"/>
<stop offset="0.75484" stop-color="#74C27C"/>
<stop offset="1" stop-color="#1199A8"/>
</linearGradient>
<linearGradient id="paint3_linear_0_3970" x1="172.543" y1="19.4659" x2="111.452" y2="19.089" gradientUnits="userSpaceOnUse">
<stop stop-color="#036068"/>
<stop offset="0.382639" stop-color="#596451"/>
<stop offset="0.561006" stop-color="#1199A8"/>
<stop offset="0.75484" stop-color="#74C27C"/>
<stop offset="1" stop-color="#1199A8"/>
</linearGradient>
<linearGradient id="paint4_linear_0_3970" x1="215.526" y1="19.4659" x2="154.435" y2="19.089" gradientUnits="userSpaceOnUse">
<stop stop-color="#036068"/>
<stop offset="0.382639" stop-color="#596451"/>
<stop offset="0.561006" stop-color="#1199A8"/>
<stop offset="0.75484" stop-color="#74C27C"/>
<stop offset="1" stop-color="#1199A8"/>
</linearGradient>
<linearGradient id="paint5_linear_0_3970" x1="258.507" y1="19.4659" x2="197.416" y2="19.089" gradientUnits="userSpaceOnUse">
<stop stop-color="#036068"/>
<stop offset="0.382639" stop-color="#596451"/>
<stop offset="0.561006" stop-color="#1199A8"/>
<stop offset="0.75484" stop-color="#74C27C"/>
<stop offset="1" stop-color="#1199A8"/>
</linearGradient>
<linearGradient id="paint6_linear_0_3970" x1="301.49" y1="19.4659" x2="240.398" y2="19.089" gradientUnits="userSpaceOnUse">
<stop stop-color="#036068"/>
<stop offset="0.382639" stop-color="#596451"/>
<stop offset="0.561006" stop-color="#1199A8"/>
<stop offset="0.75484" stop-color="#74C27C"/>
<stop offset="1" stop-color="#1199A8"/>
</linearGradient>
</defs>
</svg>
