<svg width="15" height="15" viewBox="0 0 15 15" fill="none" xmlns="http://www.w3.org/2000/svg">
<mask id="mask0_2638_39743" style="mask-type:alpha" maskUnits="userSpaceOnUse" x="0" y="0" width="15" height="15">
<rect x="0.5" y="0.5" width="14" height="14" fill="#D9D9D9"/>
</mask>
<g mask="url(#mask0_2638_39743)">
<path d="M5.01525 9.94713L3.21501 8.22008C3.0615 8.07281 2.86613 7.99918 2.62889 7.99918C2.39165 7.99918 2.19627 8.07281 2.04276 8.22008C1.88925 8.36735 1.8125 8.55478 1.8125 8.78238C1.8125 9.00997 1.88925 9.1974 2.04276 9.34467L4.42913 11.634C4.59659 11.7947 4.79197 11.875 5.01525 11.875C5.23854 11.875 5.43391 11.7947 5.60138 11.634L12.9572 4.47049C13.1107 4.32322 13.1875 4.13579 13.1875 3.9082C13.1875 3.6806 13.1107 3.49317 12.9572 3.3459C12.8037 3.19863 12.6084 3.125 12.3711 3.125C12.1339 3.125 11.9385 3.19863 11.785 3.3459L5.01525 9.94713Z" fill="white"/>
</g>
</svg>
