<svg width="57" height="65" viewBox="0 0 57 65" fill="none" xmlns="http://www.w3.org/2000/svg">
<ellipse cx="28.3668" cy="32.5166" rx="16.2575" ry="15.793" fill="url(#paint0_radial_1453_82613)"/>
<path d="M43.3021 32.9768C43.471 33.2538 43.6393 33.5392 43.8068 33.8328L43.8608 33.8016C43.6864 33.4879 43.5077 33.1783 43.327 32.8937C43.5742 32.0497 43.7063 31.1761 43.7196 30.2967H43.6552C43.6424 31.153 43.5167 32.0038 43.2814 32.8272C42.6201 31.7417 41.8549 30.7231 40.9968 29.7856C41.2134 28.9771 41.3251 28.144 41.3291 27.307C41.3267 26.6878 41.2627 26.0705 41.138 25.4641C41.7451 25.8322 42.3033 26.2755 42.7995 26.7834L42.8473 26.7356C42.333 26.2089 41.7529 25.7508 41.1214 25.3727C40.8214 23.9496 40.2578 22.5952 39.4598 21.3795L39.4079 21.4148C40.1926 22.608 40.7509 23.9356 41.0549 25.3311C39.9976 24.728 38.8366 24.3284 37.6322 24.1531C37.3845 23.1313 36.9431 22.1664 36.332 21.3109C37.3329 21.1523 38.3536 21.1663 39.3498 21.3525L39.3622 21.286C38.3471 21.0989 37.3075 21.0869 36.2884 21.2507C35.6519 20.3693 34.8652 19.6069 33.9643 18.9985C34.4178 18.7449 34.8916 18.5295 35.3808 18.3544L35.36 18.29C34.8574 18.4699 34.371 18.6923 33.9062 18.9549C32.8859 18.2755 31.7529 17.7831 30.5603 17.5005C30.6953 17.2928 30.8344 17.085 30.9757 16.8773L30.9237 16.8378C30.768 17.0455 30.6226 17.2533 30.4855 17.4777C29.6779 17.29 28.8515 17.1952 28.0223 17.1951H27.9517C27.4127 17.1978 26.8747 17.2409 26.3421 17.3239C26.2507 17.1162 26.1572 16.9084 26.0555 16.7256L25.9973 16.7547C26.097 16.9417 26.1863 17.137 26.2736 17.3343C25.0684 17.5253 23.9059 17.9253 22.8383 18.5165C22.4896 18.2913 22.1228 18.0954 21.7417 17.9306L21.7168 17.9909C22.0832 18.1496 22.436 18.3379 22.7719 18.5539C21.7294 19.1395 20.8052 19.9146 20.047 20.8393C19.2771 20.6625 18.49 20.5719 17.7001 20.5692V20.6336C18.473 20.6363 19.2434 20.7241 19.9971 20.8954C19.343 21.7091 18.8464 22.6378 18.5329 23.6337C17.412 23.766 16.3175 24.0672 15.2867 24.5271C15.4897 23.7283 15.7679 22.9506 16.1175 22.2043L16.0012 22.3601C15.6649 23.0643 15.4031 23.8017 15.2202 24.5603C14.8485 24.7328 14.4746 24.9239 14.0987 25.1441L14.1319 25.2023C14.478 24.9985 14.8343 24.8126 15.1995 24.6455C14.9803 25.5133 14.8625 26.4037 14.8485 27.2986C14.8481 27.9703 14.9177 28.6401 15.0562 29.2973C14.2162 30.0561 13.4733 30.9158 12.8443 31.857C12.7229 31.2537 12.6617 30.6399 12.6615 30.0245H12.5971C12.6015 30.6663 12.671 31.3061 12.8048 31.9338C12.6594 32.1416 12.5161 32.3743 12.377 32.607L12.433 32.6423C12.5618 32.4345 12.6926 32.2268 12.8256 32.019C13.132 33.4273 13.7136 34.761 14.5369 35.9437C14.1944 36.6837 13.9057 37.4475 13.6729 38.2291C13.2948 37.5739 13.0043 36.8719 12.809 36.141L12.7446 36.1577C12.947 36.914 13.2509 37.6395 13.648 38.3142C13.621 38.4057 13.5919 38.4929 13.567 38.5843L13.6293 38.603C13.648 38.5324 13.6729 38.4638 13.6937 38.3953C14.6348 39.9278 15.8675 41.2606 17.3221 42.3178C17.266 42.8559 17.2224 43.4044 17.1975 43.9571H17.2639C17.2861 43.4183 17.3269 42.8857 17.3865 42.3594C18.5975 43.255 19.9111 44.0027 21.2994 44.5866C21.2994 45.3636 21.343 46.1677 21.4011 47.0112H21.4676C21.4074 46.1801 21.3762 45.3844 21.3679 44.6219C22.7558 45.2046 24.207 45.6229 25.692 45.8685C25.7107 46.6622 25.7356 47.4641 25.7751 48.2765H25.8395C25.8021 47.4704 25.7772 46.6767 25.7585 45.8851C26.6301 46.0245 27.5114 46.094 28.3941 46.0929C28.8925 46.0929 29.3868 46.068 29.8791 46.0285C29.8915 46.8263 29.8998 47.6241 29.9081 48.4261H29.9725C29.9725 47.6241 29.9538 46.8242 29.9434 46.0243C31.3358 45.901 32.7093 45.618 34.037 45.1808C34.01 45.9288 33.9623 46.6996 33.8917 47.5015H33.956C34.0287 46.6933 34.0765 45.9101 34.1056 45.1517C35.486 44.6888 36.8038 44.0565 38.0289 43.2694C38.0413 43.795 38.0413 44.3352 38.0289 44.892H38.0953C38.114 44.3186 38.114 43.7618 38.0953 43.2195C39.5479 42.2821 40.8152 41.0847 41.8338 39.6876C41.8496 39.8831 41.8551 40.0794 41.8504 40.2755H41.9147C41.9201 40.0516 41.9132 39.8276 41.894 39.6044C42.5248 38.7152 43.0152 37.7342 43.3478 36.6958L43.2834 36.675C42.9633 37.683 42.4905 38.6359 41.8815 39.5006C41.7785 38.594 41.5441 37.7072 41.1858 36.8682C42.1385 35.7218 42.8575 34.3998 43.3021 32.9768ZM43.2564 32.902C42.8248 34.3295 42.1154 35.6576 41.1691 36.81C40.6562 35.6059 40.0089 34.4636 39.2397 33.4048C40.0415 32.3429 40.6336 31.1378 40.9843 29.8541C41.8376 30.7949 42.5985 31.8155 43.2564 32.902ZM25.9766 25.1109C25.9767 25.2975 26.0105 25.4826 26.0762 25.6573C24.8296 26.1606 23.6253 26.763 22.4749 27.4586C22.2478 26.9691 22.1032 26.4454 22.047 25.9087C23.3056 25.5888 24.6203 25.3477 25.9766 25.1109ZM26.0534 25.034C26.0621 24.8564 26.1007 24.6815 26.1676 24.5167L26.1801 24.4523C26.2602 24.2783 26.3698 24.1194 26.5041 23.9827C26.8276 23.6596 27.252 23.4572 27.7066 23.4093H27.7378C27.8067 23.4009 27.876 23.3968 27.9455 23.3969C28.0723 23.397 28.1988 23.4088 28.3235 23.4322C28.3235 23.4322 28.3235 23.4322 28.3235 23.4446L28.3878 23.4571C28.8349 23.5458 29.236 23.7902 29.5198 24.1469L29.5571 24.2009C29.7498 24.4661 29.8544 24.7851 29.8562 25.113C29.8594 25.1607 29.8594 25.2086 29.8562 25.2563H29.7752V25.3249H29.8521C29.7986 25.6943 29.6197 26.0339 29.3453 26.2868L29.31 26.2557L29.2664 26.3035L29.2955 26.3305C28.9201 26.6451 28.4433 26.8127 27.9538 26.8021C27.8747 26.8021 27.7956 26.798 27.717 26.7896C27.7224 26.7712 27.7265 26.7525 27.7295 26.7335L27.6672 26.719C27.6672 26.7398 27.6672 26.7585 27.6526 26.7813C27.2496 26.7257 26.873 26.5489 26.5726 26.2744L26.5332 26.2224C26.5252 26.2256 26.5181 26.2305 26.5124 26.237C26.3591 26.082 26.2365 25.8994 26.151 25.6989H26.1656L26.1427 25.6386H26.1282C26.0639 25.4679 26.0308 25.2871 26.0306 25.1047H26.0534V25.034ZM26.8842 26.6255C26.1863 27.8139 25.5529 28.9358 24.9838 30.0245C24.4577 29.7516 23.9753 29.4014 23.5528 28.9857C24.4723 28.0247 25.4615 27.1331 26.5124 26.318C26.8233 26.6036 27.2138 26.7877 27.6318 26.8457C27.3307 28.1152 27.0628 29.3804 26.8302 30.6519C26.2072 30.5418 25.6039 30.3402 25.0399 30.0536C25.6089 28.967 26.2424 27.843 26.9382 26.6567L26.8842 26.6255ZM30.7659 30.1429C30.1862 30.4143 29.5696 30.5984 28.9361 30.6893C28.7534 29.4123 28.5353 28.1366 28.2819 26.8623L28.2175 26.8748C28.473 28.1463 28.6869 29.422 28.8697 30.6956C28.5784 30.7339 28.2849 30.7533 27.9912 30.7537C27.6244 30.7541 27.2582 30.7235 26.8966 30.6623C27.1251 29.3929 27.3951 28.1276 27.6962 26.8582C27.7797 26.8673 27.8636 26.8721 27.9475 26.8727C28.4577 26.8768 28.9518 26.6943 29.337 26.3596C30.3613 27.2355 31.3355 28.1685 32.255 29.154C31.8271 29.5407 31.3459 29.864 30.8261 30.1138C30.2425 28.9649 29.5966 27.8284 28.8925 26.6629L28.8385 26.6982C29.5468 27.8555 30.1906 28.9961 30.7721 30.1429H30.7659ZM26.8198 30.7184C26.5892 32.0003 26.3899 33.2822 26.2299 34.5787C25.2319 34.4167 24.2623 34.1116 23.3513 33.6728C23.8228 32.5052 24.3773 31.3313 25.0129 30.1138C25.584 30.4024 26.1941 30.606 26.8239 30.7184H26.8198ZM26.8862 30.7288C27.2522 30.789 27.6224 30.8195 27.9932 30.8202C28.2905 30.8209 28.5875 30.8014 28.8821 30.7621C29.0649 32.0502 29.2124 33.3404 29.3349 34.6368C28.9084 34.6904 28.4791 34.7189 28.0493 34.722H27.9787C27.4153 34.7212 26.8529 34.6768 26.2964 34.589C26.4584 33.2954 26.6564 32.0086 26.8904 30.7288H26.8862ZM28.9465 30.7517C29.5873 30.6613 30.211 30.4757 30.7971 30.2011C31.3883 31.3682 31.9105 32.5691 32.361 33.7975C31.4196 34.2176 30.4218 34.4975 29.3993 34.6285C29.2816 33.3349 29.1321 32.0419 28.9507 30.7496L28.9465 30.7517ZM30.8552 30.1741C31.3838 29.9212 31.8734 29.5938 32.309 29.2018C33.2021 30.1673 34.0142 31.2047 34.737 32.3037C34.0395 32.8972 33.2629 33.3909 32.4295 33.7705C31.9782 32.5415 31.4539 31.3405 30.8594 30.1741H30.8552ZM32.3464 29.156C32.7599 28.7714 33.1103 28.3241 33.3849 27.8305C34.4791 28.5727 35.5081 29.4067 36.4608 30.3237C36.0315 30.9879 35.5169 31.5928 34.9301 32.1229L34.7681 32.2621C34.05 31.1613 33.2413 30.1224 32.3506 29.156H32.3464ZM32.3049 29.1083C31.3882 28.1236 30.4175 27.1907 29.3972 26.3138C29.5358 26.1825 29.6523 26.0295 29.742 25.8609C31.0079 26.3803 32.2174 27.0277 33.3517 27.7931C33.0743 28.2829 32.7226 28.7265 32.309 29.1083H32.3049ZM29.7648 25.8048C29.8382 25.6491 29.8872 25.483 29.9102 25.3124C31.2695 25.3554 32.6218 25.5244 33.9498 25.8173C33.894 26.4903 33.698 27.1443 33.3745 27.737C32.2422 26.9707 31.034 26.3233 29.769 25.8048H29.7648ZM26.097 25.7196C26.1832 25.9261 26.3088 26.1139 26.4667 26.2723C25.4179 27.0891 24.4295 27.9806 23.5092 28.94C23.0965 28.5258 22.756 28.0455 22.5019 27.5189C23.6509 26.8226 24.8547 26.2208 26.1012 25.7196H26.097ZM23.4676 28.9898C22.5578 29.9459 21.7297 30.9765 20.992 32.071C20.2994 31.4372 19.7119 30.6973 19.2515 29.8791C20.2486 29.0145 21.3172 28.236 22.4458 27.5521C22.7056 28.084 23.0508 28.5697 23.4676 28.9898ZM23.5133 29.0376C23.9405 29.4525 24.4261 29.8025 24.9547 30.0764C24.3316 31.2939 23.7667 32.4678 23.2932 33.6354C22.475 33.2332 21.7166 32.7193 21.0397 32.1084C21.7759 31.016 22.6042 29.9887 23.5154 29.0376H23.5133ZM23.2703 33.704C22.7905 34.8867 22.3942 36.1016 22.0844 37.3398C21.0328 36.8813 20.0439 36.2906 19.1414 35.5822C19.6627 34.3914 20.2882 33.2491 21.0107 32.1686C21.6894 32.7834 22.4506 33.3001 23.2724 33.704H23.2703ZM23.3285 33.7351C24.2446 34.1766 25.2198 34.4831 26.2237 34.6451C26.0679 35.8917 25.9475 37.1383 25.8582 38.4181C24.5794 38.2331 23.3307 37.8796 22.1447 37.3668C22.4564 36.1305 22.8526 34.9171 23.3306 33.7351H23.3285ZM26.2902 34.6535C26.8494 34.7418 27.4146 34.7869 27.9808 34.7885H28.0514C28.4833 34.7853 28.9146 34.7569 29.3432 34.7033C29.4616 35.9644 29.5509 37.2318 29.6257 38.4991C29.1116 38.5518 28.5952 38.5782 28.0784 38.5781C27.3571 38.5783 26.6367 38.5276 25.9226 38.4264C26.0139 37.1549 26.1365 35.9 26.2922 34.6535H26.2902ZM29.4055 34.695C30.4384 34.567 31.4468 34.2877 32.3984 33.866C32.8389 35.0863 33.1935 36.336 33.4597 37.6058C32.252 38.0676 30.9887 38.368 29.7025 38.4991C29.625 37.2263 29.5281 35.9589 29.4118 34.6971L29.4055 34.695ZM32.442 33.8328C33.281 33.452 34.0626 32.9555 34.764 32.3577C35.4893 33.4748 36.1003 34.6623 36.5875 35.9021C35.6352 36.5865 34.5985 37.1452 33.5033 37.5642C33.2394 36.2972 32.8868 35.0503 32.4482 33.8328H32.442ZM34.8138 32.3161C34.8699 32.2663 34.926 32.2206 34.982 32.1686C35.5711 31.6396 36.0872 31.0345 36.5169 30.3694C37.4837 31.3009 38.3658 32.3167 39.1525 33.4048C38.4385 34.3397 37.5935 35.1668 36.6436 35.8606C36.1558 34.621 35.5449 33.4336 34.82 32.3161H34.8138ZM36.5522 30.3133C37.1494 29.3816 37.5488 28.3371 37.7256 27.2446C38.9168 27.926 39.9963 28.7865 40.9261 29.796C40.5814 31.0812 39.9926 32.2881 39.1919 33.3508C38.4032 32.2624 37.5199 31.246 36.5522 30.3133ZM36.5044 30.2676C35.5515 29.3501 34.5217 28.516 33.4264 27.7744C33.7546 27.1747 33.9541 26.5131 34.0121 25.8318C35.2902 26.1198 36.5215 26.5863 37.6695 27.2176C37.4956 28.3028 37.1012 29.3408 36.5106 30.2676H36.5044ZM34.0121 25.7654C34.0121 25.649 34.0266 25.5327 34.0266 25.4163C34.0266 24.9846 33.9686 24.5549 33.8543 24.1386C35.085 24.0148 36.3262 24.0392 37.5512 24.2113C37.6834 24.776 37.7531 25.3536 37.7589 25.9336C37.7601 26.3369 37.731 26.7398 37.6716 27.1387C36.5261 26.5121 35.2985 26.0491 34.0246 25.7633L34.0121 25.7654ZM33.9602 25.4163C33.9602 25.5285 33.9602 25.6386 33.9477 25.7508C32.6201 25.4599 31.2686 25.2916 29.9102 25.248C29.9102 25.1982 29.9102 25.1504 29.9102 25.1005C29.9085 25.0078 29.8995 24.9154 29.8832 24.8242C31.1634 24.5018 32.4657 24.2747 33.7795 24.1448C33.9009 24.558 33.9658 24.9857 33.9727 25.4163H33.9602ZM29.8791 24.7598C29.8304 24.5406 29.7379 24.3335 29.607 24.151C30.6264 23.4376 31.7129 22.8252 32.8511 22.3227C33.2707 22.8425 33.584 23.4397 33.7733 24.0804C32.4644 24.2107 31.1669 24.4378 29.8915 24.7598H29.8791ZM29.5675 24.0991C29.4505 23.946 29.3104 23.8121 29.1521 23.7023C29.8026 22.7388 30.5372 21.8349 31.3474 21.0013C31.8996 21.3394 32.391 21.7678 32.8013 22.2687C31.6701 22.7725 30.5912 23.3863 29.58 24.1012L29.5675 24.0991ZM29.0961 23.6669C28.8821 23.5293 28.6449 23.4315 28.3962 23.3782C28.5992 22.2981 28.8832 21.2348 29.2456 20.1973C29.9658 20.3356 30.6571 20.5963 31.2893 20.9681C30.4841 21.8015 29.7543 22.7046 29.1085 23.6669H29.0961ZM28.3318 23.3657C28.2029 23.3423 28.0723 23.3305 27.9413 23.3304C27.8686 23.3304 27.8001 23.3304 27.7336 23.3304C27.6203 22.2486 27.4456 21.1741 27.2102 20.1121C27.8686 20.0323 28.5352 20.0526 29.1875 20.1724C28.8257 21.2139 28.5439 22.2814 28.3442 23.3657H28.3318ZM27.6651 23.3491C27.4314 23.3804 27.2047 23.4506 26.9942 23.5568L26.7595 23.1725C26.2671 22.3279 25.7269 21.5122 25.1416 20.7292C25.7718 20.4255 26.4474 20.2268 27.1417 20.1412C27.3798 21.1997 27.5587 22.2706 27.6775 23.3491H27.6651ZM26.7035 23.1953L26.9361 23.5776C26.7714 23.6638 26.6202 23.7737 26.4875 23.9038C25.4759 23.228 24.4252 22.6126 23.341 22.0609C23.8349 21.519 24.4259 21.0743 25.0835 20.75C25.673 21.5338 26.218 22.3503 26.7159 23.1953H26.7035ZM26.4397 23.9495C26.3007 24.0932 26.1876 24.2597 26.1053 24.4419L25.3202 24.2757C24.3836 24.0679 23.3783 23.8602 22.3212 23.7147C22.5454 23.1263 22.8748 22.5835 23.2932 22.1129C24.3818 22.6615 25.4367 23.2748 26.4522 23.9495H26.4397ZM25.3078 24.3401C25.5716 24.3983 25.827 24.4502 26.0804 24.5042C26.0119 24.6765 25.9732 24.8592 25.9662 25.0444C24.6079 25.275 23.2911 25.5223 22.02 25.8443C22.02 25.703 21.9993 25.5617 21.9993 25.4163C21.999 24.857 22.0974 24.3021 22.29 23.7771C23.37 23.9204 24.3794 24.1365 25.3202 24.3401H25.3078ZM21.9432 25.4163C21.9432 25.5659 21.9432 25.7134 21.964 25.8609C20.7067 26.1713 19.482 26.6012 18.3065 27.1449C18.2523 26.7845 18.2232 26.4207 18.2193 26.0562C18.2148 25.2582 18.3332 24.4642 18.5703 23.7023C19.7881 23.5718 21.0175 23.5941 22.2298 23.7688C22.0448 24.2982 21.9521 24.8555 21.9557 25.4163H21.9432ZM21.9702 25.9274C22.0275 26.4698 22.1756 26.9987 22.4084 27.4919C21.2779 28.1765 20.2079 28.9563 19.21 29.823C18.7677 29.0122 18.4697 28.1306 18.3294 27.2176C19.5032 26.6719 20.7265 26.2398 21.9827 25.9274H21.9702ZM19.1581 29.8749C18.1806 30.7287 17.2901 31.6772 16.4996 32.7067C15.8352 31.6762 15.3631 30.5337 15.106 29.3347C16.0536 28.4978 17.1142 27.7983 18.2567 27.2571C18.4096 28.1729 18.7187 29.0556 19.1705 29.8666L19.1581 29.8749ZM19.1913 29.9331C19.6568 30.7544 20.2491 31.497 20.9463 32.1333C20.2231 33.2134 19.5976 34.3557 19.0771 35.5468C18.0857 34.7623 17.2273 33.8229 16.5349 32.7649C17.3284 31.7302 18.2223 30.7768 19.2038 29.9185L19.1913 29.9331ZM19.0521 35.6092C18.5514 36.7819 18.1526 37.9955 17.86 39.2367C16.6066 38.3224 15.5102 37.2101 14.6138 35.9437C15.133 34.8352 15.7671 33.7844 16.5058 32.8085C17.204 33.8702 18.0679 34.8129 19.0646 35.6009L19.0521 35.6092ZM19.1041 35.6528C20.0146 36.3581 21.0112 36.9446 22.0699 37.398C21.7601 38.6606 21.5456 39.9448 21.4281 41.2395C20.1812 40.7244 19.0002 40.0625 17.9098 39.2679C18.2086 38.028 18.6123 36.8159 19.1165 35.6445L19.1041 35.6528ZM22.1177 37.4396C23.3078 37.953 24.5607 38.3065 25.8436 38.4908C25.7522 39.7831 25.6948 41.0941 25.6712 42.4238C24.232 42.2161 22.8237 41.8323 21.478 41.2811C21.5984 39.9832 21.8164 38.6963 22.1301 37.4312L22.1177 37.4396ZM25.908 38.4991C27.1382 38.6759 28.3854 38.7004 29.6215 38.5719C29.6963 39.8912 29.7482 41.2125 29.7877 42.5381C29.2685 42.5838 28.7388 42.6108 28.2051 42.6108C27.3787 42.6101 26.5535 42.5504 25.7356 42.4321C25.773 41.0962 25.827 39.7852 25.9205 38.4908L25.908 38.4991ZM29.6859 38.5656C30.9737 38.4332 32.2388 38.1335 33.4493 37.6743C33.7189 38.9907 33.8959 40.3243 33.9789 41.6655C32.6419 42.1126 31.2579 42.404 29.8541 42.5339C29.8271 41.2001 29.7731 39.8745 29.6984 38.5573L29.6859 38.5656ZM33.5116 37.6473C34.6109 37.2247 35.651 36.6619 36.6062 35.9727C37.1023 37.2386 37.4691 38.5514 37.7007 39.8912C36.5608 40.6147 35.3385 41.1992 34.0599 41.6322C33.9746 40.2903 33.7955 38.9559 33.524 37.639L33.5116 37.6473ZM36.6622 35.9354C37.624 35.235 38.4783 34.3979 39.1982 33.4505C39.9688 34.5117 40.6142 35.6586 41.1214 36.8682C40.161 38.0286 39.0259 39.0324 37.7568 39.8434C37.5296 38.5046 37.167 37.1925 36.6747 35.927L36.6622 35.9354ZM41.0445 25.4267C41.1775 26.0476 41.2471 26.6803 41.2522 27.3153C41.2528 28.1231 41.1524 28.9279 40.9531 29.7108C40.0211 28.7003 38.9371 27.8415 37.7402 27.1657C37.8915 26.1843 37.8549 25.1831 37.6322 24.2154C38.8403 24.393 40.0031 24.8014 41.057 25.4184L41.0445 25.4267ZM37.5345 24.149C36.3092 23.9805 35.0683 23.9575 33.8377 24.0804C33.6494 23.4343 33.3361 22.8314 32.9155 22.3061C33.9768 21.8399 35.0936 21.5124 36.2386 21.3317C36.8496 22.1761 37.2938 23.1295 37.547 24.1406L37.5345 24.149ZM36.1887 21.2694C35.0442 21.4561 33.9277 21.7863 32.8657 22.2521C32.4501 21.7417 31.9499 21.3067 31.3869 20.966C32.1238 20.2158 32.9586 19.5686 33.8688 19.0421C34.7697 19.64 35.5591 20.3909 36.2012 21.2611L36.1887 21.2694ZM33.8273 18.9902C32.9241 19.5231 32.0946 20.172 31.3599 20.9203C30.7187 20.5393 30.0158 20.2735 29.283 20.135C29.5979 19.2341 30.0087 18.3697 30.5084 17.5566C31.6905 17.8351 32.814 18.3205 33.8273 18.9902ZM27.9455 17.2658H28.0161C28.8324 17.2653 29.6462 17.3573 30.4419 17.54C29.9443 18.3549 29.5336 19.2198 29.2165 20.1204C28.8143 20.0467 28.4063 20.0099 27.9974 20.0103C27.7322 20.0104 27.4673 20.0264 27.204 20.0581C27.0046 19.146 26.7231 18.2538 26.3629 17.3925C26.8867 17.3122 27.4156 17.2699 27.9455 17.2658ZM26.2964 17.405C26.6512 18.2652 26.9292 19.1551 27.1272 20.0643C26.4246 20.1539 25.7413 20.3574 25.1043 20.6669C24.4839 19.8489 23.7339 19.1379 22.884 18.5622C23.9461 17.982 25.1006 17.5905 26.2964 17.405ZM22.83 18.5996C23.6819 19.1717 24.4341 19.8799 25.0565 20.6959C24.3897 21.0269 23.7909 21.48 23.2911 22.0319C22.2796 21.5229 21.2135 21.1304 20.1134 20.8621C20.8702 19.9453 21.7915 19.1779 22.83 18.5996ZM20.0698 20.9182C21.1695 21.183 22.235 21.5733 23.2454 22.0817C22.8246 22.5594 22.4932 23.1091 22.2672 23.7043C21.0537 23.5286 19.8231 23.5041 18.6035 23.6316C18.9194 22.6438 19.4167 21.7236 20.0698 20.9182ZM14.9025 27.307C14.9171 26.3955 15.0391 25.4889 15.2659 24.606C16.2956 24.1424 17.3893 23.8371 18.5101 23.7002C18.2778 24.4602 18.1623 25.2511 18.1674 26.0458C18.1717 26.4215 18.2022 26.7964 18.2588 27.1678C17.1143 27.7078 16.0522 28.4073 15.1039 29.2454C14.9711 28.6078 14.9036 27.9583 14.9025 27.307ZM12.8546 31.9567C13.4805 31.0094 14.2222 30.1439 15.0624 29.3804C15.3261 30.5794 15.8023 31.7214 16.4685 32.7524C15.7282 33.7255 15.092 34.7735 14.5702 35.8793C13.7447 34.6981 13.1616 33.3648 12.8546 31.9567ZM13.7186 38.3018C13.9509 37.52 14.2397 36.7562 14.5826 36.0164C15.4825 37.2827 16.5816 38.3948 17.8371 39.3094C17.6084 40.2738 17.4399 41.2515 17.3325 42.2368C15.8787 41.1781 14.6502 39.8404 13.7186 38.3018ZM17.3927 42.2804C17.5004 41.2919 17.6683 40.3108 17.8953 39.3427C18.9887 40.139 20.1742 40.8003 21.426 41.3123C21.3347 42.3303 21.2952 43.3899 21.3056 44.5097C19.917 43.9255 18.6034 43.1771 17.3927 42.2804ZM21.3658 44.5388C21.3658 43.4169 21.3949 42.3573 21.4863 41.3413C22.8331 41.891 24.242 42.2741 25.6816 42.482C25.6622 43.5679 25.6622 44.6711 25.6816 45.7916C24.1991 45.544 22.7506 45.1235 21.3658 44.5388ZM28.3941 46.0202C27.51 46.0212 26.6273 45.9517 25.7543 45.8124C25.7315 44.6905 25.7273 43.5873 25.7543 42.4882C26.5722 42.6058 27.3975 42.6648 28.2238 42.6648C28.7575 42.6648 29.2871 42.644 29.8084 42.5983C29.8417 43.7098 29.8666 44.8297 29.8832 45.9495C29.3868 45.9932 28.8925 46.0202 28.3941 46.0202ZM29.9434 45.9475C29.9254 44.8255 29.9005 43.7071 29.8687 42.5921C31.2738 42.4656 32.659 42.1733 33.9955 41.7216C34.062 42.7957 34.0807 43.9155 34.0412 45.0956C32.7131 45.5381 31.3378 45.824 29.9434 45.9475ZM34.0973 45.0748C34.1367 43.8948 34.1201 42.7728 34.0516 41.7029C35.3344 41.266 36.5608 40.678 37.7049 39.9514C37.8843 41.0204 37.9891 42.1006 38.0185 43.1842C36.8003 43.9818 35.4854 44.6207 34.1056 45.0852L34.0973 45.0748ZM41.8234 39.5941C40.8076 40.9982 39.5399 42.2015 38.0849 43.1427C38.054 42.0597 37.9478 40.9802 37.7672 39.9119C39.0402 39.1005 40.1795 38.0961 41.1442 36.9347C41.5035 37.7823 41.7352 38.6785 41.8317 39.5941H41.8234Z" fill="white"/>
<path d="M26.9104 48.4088C18.8229 47.7086 12.4157 40.6364 12.4157 32.2988C12.4157 28.8666 13.7698 25.9164 15.3669 23.1573C18.6921 17.4396 36.7612 7.45869 55.3101 0C50.9901 0.866372 42.5994 3.48834 38.0447 4.92398C30.3373 7.35481 23.147 10.3113 17.0306 13.5295C16.1582 14.0198 15.369 14.3606 13.5206 15.4659C4.28664 20.9841 -1.26494 28.6983 0.24705 35.0475C1.40389 39.9009 6.54839 44.0229 13.7303 46.3228C17.3608 47.4011 21.4918 48.2779 25.847 48.469C26.2146 48.469 26.4701 48.442 26.8356 48.4441L26.9104 48.4088Z" fill="#004987"/>
<path d="M29.3348 16.6558C37.4244 17.3559 43.8732 24.3721 43.8732 32.7117C43.8732 36.1439 42.627 39.0942 41.0361 41.8533C37.7172 47.5584 19.5235 57.5518 0.974609 65.0001C5.29458 64.1338 13.6853 61.5139 18.2379 60.0762C25.9494 57.6453 33.1376 54.6909 39.2624 51.4706C40.1347 50.9803 40.9239 50.6396 42.7724 49.5343C51.9959 44.0078 57.5517 36.3018 56.0397 29.9505C54.8808 25.0993 49.7383 20.9793 42.5543 18.6773C38.9239 17.6011 34.8698 16.7326 30.5083 16.5872C30.1181 16.5774 29.7277 16.5899 29.339 16.6246L29.3348 16.6558Z" fill="#00754A"/>
<defs>
<radialGradient id="paint0_radial_1453_82613" cx="0" cy="0" r="1" gradientUnits="userSpaceOnUse" gradientTransform="translate(27.9023 29.2651) rotate(88.6028) scale(19.0501 19.6104)">
<stop stop-color="white"/>
<stop offset="1" stop-color="#909295"/>
</radialGradient>
</defs>
</svg>
