<svg width="21" height="20" viewBox="0 0 21 20" fill="none" xmlns="http://www.w3.org/2000/svg">
<rect x="0.5" y="0.5" width="20" height="19.352" rx="4" fill="#1D4FAF"/>
<rect x="1" y="1" width="19" height="18.352" rx="3.5" stroke="black" stroke-opacity="0.5"/>
<rect x="0.5" y="0.5" width="20" height="19.352" rx="4" fill="#1D4FAF"/>
<mask id="mask0_2638_39745" style="mask-type:alpha" maskUnits="userSpaceOnUse" x="3" y="3" width="15" height="15">
<rect x="3.5" y="3.5" width="14" height="14" fill="#D9D9D9"/>
</mask>
<g mask="url(#mask0_2638_39745)">
<path d="M8.01525 12.9471L6.21501 11.2201C6.0615 11.0728 5.86613 10.9992 5.62889 10.9992C5.39165 10.9992 5.19627 11.0728 5.04276 11.2201C4.88925 11.3674 4.8125 11.5548 4.8125 11.7824C4.8125 12.01 4.88925 12.1974 5.04276 12.3447L7.42913 14.634C7.59659 14.7947 7.79197 14.875 8.01525 14.875C8.23854 14.875 8.43391 14.7947 8.60138 14.634L15.9572 7.47049C16.1107 7.32322 16.1875 7.13579 16.1875 6.9082C16.1875 6.6806 16.1107 6.49317 15.9572 6.3459C15.8037 6.19863 15.6084 6.125 15.3711 6.125C15.1339 6.125 14.9385 6.19863 14.785 6.3459L8.01525 12.9471Z" fill="white"/>
</g>
</svg>
