<svg width="45" height="44" viewBox="0 0 45 44" fill="none" xmlns="http://www.w3.org/2000/svg">
<g filter="url(#filter0_b_1010_34556)">
<circle cx="22.1172" cy="22" r="22" fill="url(#paint0_linear_1010_34556)"/>
<circle cx="22.1172" cy="22" r="22" fill="url(#paint1_radial_1010_34556)"/>
</g>
<path d="M20.0568 34.2002C19.6701 34.5978 19.0328 34.6054 18.635 34.2189C18.2581 33.8527 17.8938 33.4968 17.5411 33.1296C15.6342 31.1446 13.9163 29.0107 12.5142 26.6352C11.528 24.9646 10.7454 23.2105 10.3354 21.2997C9.39265 16.9113 11.5676 12.5912 15.6513 10.7742C20.1681 8.76427 25.59 10.8069 27.6727 15.2934C28.7408 17.5943 28.7584 19.9435 28.0852 22.3488C27.948 22.839 27.7527 23.0489 27.2211 23.1197C24.6024 23.4673 22.3962 25.5094 21.7665 28.0973C21.4491 29.4018 21.5092 30.6882 21.9578 31.9546C21.9988 32.0707 22.0413 32.1684 21.9276 32.2841C21.3066 32.915 20.6896 33.5494 20.0568 34.2002ZM23.9179 19.218C23.9179 16.6809 21.8719 14.6314 19.3396 14.6309C16.8064 14.6309 14.7511 16.6794 14.7472 19.2087C14.7433 21.7542 16.7986 23.81 19.3421 23.8046C21.8846 23.7992 23.9184 21.761 23.9179 19.218Z" fill="white"/>
<path d="M18.6034 34.2002C18.99 34.5978 19.6274 34.6054 20.0252 34.2189C20.4021 33.8527 20.7663 33.4968 21.119 33.1296C23.0259 31.1446 24.7439 29.0107 26.146 26.6352C27.1321 24.9646 27.9147 23.2105 28.3248 21.2997C29.2675 16.9113 27.0926 12.5912 23.0088 10.7742C18.492 8.76427 13.0701 10.8069 10.9875 15.2934C9.91933 17.5943 9.90175 19.9435 10.575 22.3488C10.7122 22.839 10.9074 23.0489 11.4391 23.1197C14.0578 23.4673 16.2639 25.5094 16.8937 28.0973C17.211 29.4018 17.151 30.6882 16.7023 31.9546C16.6613 32.0707 16.6188 32.1684 16.7326 32.2841C17.3535 32.915 17.9705 33.5494 18.6034 34.2002ZM14.7422 19.218C14.7422 16.6809 16.7882 14.6314 19.3205 14.6309C21.8538 14.6309 23.9091 16.6794 23.913 19.2087C23.9169 21.7542 21.8616 23.81 19.3181 23.8046C16.7756 23.7992 14.7417 21.761 14.7422 19.218Z" fill="white"/>
<path d="M19.3305 22.3429C17.5999 22.34 16.2085 20.9447 16.2109 19.2141C16.2129 17.4883 17.615 16.0916 19.3427 16.0935C21.0714 16.0955 22.4613 17.4932 22.4579 19.2263C22.4545 20.9618 21.0661 22.3458 19.3305 22.3429Z" fill="white"/>
<path d="M22.7864 15.2802C22.5093 18.0544 24.2166 20.8334 26.8482 21.8476C27.2461 22.0011 27.6998 22.1081 28.0902 22.2002C28.247 22.2372 28.3936 22.2718 28.5224 22.306L28.6108 22.3296H28.7022H29.8358H29.911L29.9844 22.3136C30.0649 22.2961 30.155 22.2779 30.2507 22.2587C30.4745 22.2135 30.7285 22.1623 30.9598 22.0996L30.9603 22.0994C33.5122 21.4059 35.3595 19.2907 35.7143 16.6774L35.7147 16.6763C35.7177 16.6685 35.7216 16.6583 35.7257 16.6469C35.7298 16.6355 35.7346 16.6219 35.7396 16.6067L35.7741 16.5009V16.3897V15.2556V15.1443L35.7396 15.0386C35.7346 15.0234 35.7298 15.0098 35.7257 14.9983C35.7216 14.987 35.7177 14.9768 35.7147 14.9689L35.7143 14.9679C35.2136 11.2666 31.7791 8.77127 28.0868 9.4277M22.7864 15.2802L23.4829 15.3497M22.7864 15.2802L23.4829 15.3497M22.7864 15.2802C23.0817 12.3233 25.2187 9.93742 28.0868 9.4277M23.4829 15.3497C23.7486 12.6898 25.6641 10.5692 28.2093 10.1169M23.4829 15.3497C23.2373 17.809 24.761 20.2931 27.1001 21.1945C27.4516 21.3301 27.822 21.4173 28.1923 21.5044L28.2093 10.1169M28.0868 9.4277L28.2093 10.1169M28.0868 9.4277L28.2093 10.1169M28.6901 13.1015C28.6905 13.1015 28.6909 13.1015 28.6914 13.1014L28.7061 12.6593L28.6901 13.1015ZM28.6901 13.1015C28.6882 13.1015 28.6873 13.1015 28.6873 13.1015C28.6873 13.1015 28.6883 13.1015 28.6901 13.1015ZM29.1556 12.6522L28.7065 12.6589L28.7147 12.4019M29.1556 12.6522L29.3674 12.4096C29.1468 12.4103 28.9306 12.4091 28.7147 12.4019M29.1556 12.6522C29.1558 12.65 29.1559 12.6482 29.156 12.6469C29.156 12.6452 29.1561 12.6444 29.1561 12.6444L29.1556 12.6522ZM28.7147 12.4019L28.7061 12.6589L28.7147 12.4019ZM35.7209 15.018L35.7208 15.0169L35.7209 15.018ZM30.0793 15.9326H29.3793V16.6326L29.3796 17.201L29.3798 17.7419C29.3798 17.8505 29.3802 17.9571 29.3805 18.0623C29.3811 18.2237 29.3816 18.3818 29.3808 18.5386C29.311 18.539 29.2407 18.5391 29.1696 18.5392V16.6353V15.9353H28.4696H26.5724V15.7229H28.4441H29.1102L29.1433 15.0577C29.1443 15.0377 29.1459 15.012 29.1477 14.983C29.1527 14.9038 29.1592 14.7996 29.1593 14.7145C29.1595 14.5594 29.16 14.4034 29.1606 14.2467C29.1618 13.8704 29.163 13.4901 29.1607 13.1095C29.2295 13.1098 29.2985 13.1098 29.3674 13.1096V15.0099V15.7099H30.0674H31.9657V15.9326H30.0793ZM28.6925 13.1014L28.7065 12.6593L29.1555 12.6532C29.1546 12.6624 29.1525 12.6783 29.1476 12.6987C29.1355 12.75 29.1018 12.847 29.0129 12.9397C28.9221 13.0344 28.8215 13.0748 28.7589 13.0906C28.7264 13.0988 28.7025 13.1009 28.6925 13.1014Z" fill="white" stroke="url(#paint2_linear_1010_34556)" stroke-width="1.4"/>
<defs>
<filter id="filter0_b_1010_34556" x="-27.4828" y="-27.6" width="99.2" height="99.2" filterUnits="userSpaceOnUse" color-interpolation-filters="sRGB">
<feFlood flood-opacity="0" result="BackgroundImageFix"/>
<feGaussianBlur in="BackgroundImageFix" stdDeviation="13.8"/>
<feComposite in2="SourceAlpha" operator="in" result="effect1_backgroundBlur_1010_34556"/>
<feBlend mode="normal" in="SourceGraphic" in2="effect1_backgroundBlur_1010_34556" result="shape"/>
</filter>
<linearGradient id="paint0_linear_1010_34556" x1="-17.229" y1="51.1923" x2="86.4249" y2="-11.4231" gradientUnits="userSpaceOnUse">
<stop stop-color="#076193"/>
<stop offset="0.654" stop-color="#40A64B"/>
<stop offset="1" stop-color="#8A975E"/>
</linearGradient>
<radialGradient id="paint1_radial_1010_34556" cx="0" cy="0" r="1" gradientUnits="userSpaceOnUse" gradientTransform="translate(153.213 96.1289) rotate(-145.948) scale(300.165 100.641)">
<stop stop-color="#024D54"/>
<stop offset="0.382639" stop-color="#65735A"/>
<stop offset="0.561006" stop-color="#125F67"/>
<stop offset="0.75484" stop-color="#3E4A3F"/>
<stop offset="1" stop-color="#33696F"/>
</radialGradient>
<linearGradient id="paint2_linear_1010_34556" x1="36.7372" y1="21.6296" x2="17.9091" y2="21.5717" gradientUnits="userSpaceOnUse">
<stop stop-color="#036068"/>
<stop offset="0.382639" stop-color="#596451"/>
<stop offset="0.561006" stop-color="#1E7C87"/>
<stop offset="0.75484" stop-color="#4C7950"/>
<stop offset="1" stop-color="#1199A8"/>
</linearGradient>
</defs>
</svg>
