<svg width="45" height="44" viewBox="0 0 45 44" fill="none" xmlns="http://www.w3.org/2000/svg">
<g filter="url(#filter0_b_1010_34529)">
<circle cx="22.1172" cy="22" r="22" fill="url(#paint0_linear_1010_34529)"/>
<circle cx="22.1172" cy="22" r="22" fill="url(#paint1_radial_1010_34529)"/>
</g>
<path d="M23.0508 23.9126C23.0508 23.3603 23.4985 22.9126 24.0508 22.9126H32.4392C32.9915 22.9126 33.4392 23.3603 33.4392 23.9126V32.2958C33.4392 32.8481 32.9915 33.2958 32.4392 33.2958H24.0508C23.4985 33.2958 23.0508 32.8481 23.0508 32.2958V23.9126ZM27.1922 31.8292C27.1922 31.8291 27.1921 31.8291 27.1921 31.829C27.1363 31.709 27.1015 31.63 27.0626 31.5531C26.7085 30.8503 26.3529 30.148 25.9994 29.4447C25.8124 29.0722 25.8351 28.9126 26.1122 28.5907C26.5689 28.0597 27.0262 27.5286 27.4824 26.9965C27.766 26.6659 27.6803 26.1589 27.3078 25.933C26.4633 25.4209 25.6325 24.9173 24.7988 24.4183C24.6733 24.3434 24.5285 24.5086 24.5285 24.6547V30.8296C24.5285 31.3819 24.9762 31.8296 25.5285 31.8296H27.1917C27.192 31.8296 27.1922 31.8294 27.1922 31.8292ZM27.0367 24.3882C27.037 24.3882 27.0372 24.3885 27.0371 24.3887C27.0335 24.3995 27.0299 24.4101 27.0262 24.4207C27.0223 24.4319 27.0266 24.4443 27.0367 24.4504C28.1702 25.1387 29.3037 25.8271 30.453 26.525C31.1194 26.9297 31.9688 26.45 31.97 25.6703C31.9705 25.3334 31.9723 25.0004 31.9768 24.6675C31.9799 24.4399 31.9204 24.3693 31.6839 24.3714C30.2093 24.3824 28.7347 24.3766 27.2601 24.3772C27.1858 24.3772 27.1115 24.3845 27.0367 24.3882Z" fill="white"/>
<path d="M11.125 12C11.125 11.4477 11.5727 11 12.125 11H20.5119C21.0642 11 21.5119 11.4477 21.5119 12V20.3827C21.5119 20.9349 21.0642 21.3827 20.5119 21.3827H12.125C11.5727 21.3827 11.125 20.9349 11.125 20.3827V12ZM12.578 19.6216C12.578 19.7853 12.7062 19.9276 12.8698 19.9276C13.5631 19.9286 14.2564 19.9218 14.9497 19.9323C15.1331 19.9349 15.2258 19.8823 15.2996 19.7074C15.7194 18.7101 16.2568 17.7808 16.9543 16.9473C17.0038 16.8883 17.0207 16.7508 16.987 16.6823C16.4933 15.6814 16.1467 14.6282 15.8469 13.5572C15.7965 13.3768 15.7343 13.1997 15.6658 13.004C15.6271 12.8933 15.4684 12.8752 15.4176 12.9809C14.8402 14.1773 13.9936 15.0924 12.7239 15.5771C12.6528 15.6044 12.5859 15.7456 12.5843 15.8352C12.5722 16.4742 12.578 17.1138 12.578 17.7528C12.578 18.3681 12.578 18.9833 12.578 19.6216ZM17.0621 18.8183C16.7789 19.2996 17.1259 19.9065 17.6844 19.9065H18.4599C18.9316 19.9065 19.0976 19.3288 18.7408 19.0204C18.5962 18.8955 18.4607 18.7602 18.3268 18.6173C17.9734 18.2401 17.3693 18.2961 17.1072 18.7416C17.0922 18.7671 17.0772 18.7927 17.0621 18.8183Z" fill="white"/>
<path d="M20.523 22.9292C21.0753 22.9292 21.523 23.3769 21.523 23.9292V32.295C21.523 32.8473 21.0753 33.295 20.523 33.295H12.1172C11.5649 33.295 11.1172 32.8473 11.1172 32.295V23.9292C11.1172 23.3769 11.5649 22.9292 12.1172 22.9292H20.523ZM13.5923 24.3901C13.04 24.3901 12.5923 24.8378 12.5923 25.3901V31.3486C12.5923 31.6133 12.8068 31.8278 13.0715 31.8278C13.4273 31.8278 13.6591 31.4521 13.5481 31.1141C13.2559 30.2245 13.2803 29.3433 13.8683 28.5009C14.626 27.4151 15.7023 27.2737 16.8902 27.5589C16.9672 27.5774 17.0507 27.5403 17.0787 27.4662C17.34 26.7618 17.8511 26.3609 18.5849 26.2292C18.6539 26.2171 18.7314 26.214 18.7878 26.1792C19.0517 26.0153 19.3325 25.8684 19.5648 25.6666C20.0061 25.2837 19.267 24.3901 18.6828 24.3901H13.5923Z" fill="white"/>
<path d="M32.4457 11.0166C32.9979 11.0166 33.4457 11.4643 33.4457 12.0166V20.3782C33.4457 20.9305 32.9979 21.3782 32.4457 21.3782H24.043C23.4907 21.3782 23.043 20.9305 23.043 20.3782V12.0166C23.043 11.4643 23.4907 11.0166 24.043 11.0166H32.4457ZM26.5595 19.9122C26.5592 19.9126 26.5596 19.9131 26.56 19.9131H27.6539C27.8705 19.9131 28.0379 19.7478 28.0773 19.5348C28.1821 18.9696 28.2496 18.3932 28.4103 17.8443C28.6047 17.1805 29.0714 16.7453 29.7605 16.5741C29.8229 16.5586 29.8843 16.5404 29.9469 16.5213C30.0296 16.4961 30.0971 16.4147 30.0766 16.3307C29.8464 15.3813 30.1625 14.8287 31.1118 14.5558C31.1216 14.553 31.1314 14.5502 31.1412 14.5475C31.6016 14.4209 31.9468 14.0437 31.9468 13.5662V13.4733C31.9468 12.921 31.4991 12.469 30.947 12.4589C30.4027 12.449 29.8639 12.445 29.3301 12.4938C28.7738 12.5449 28.3992 12.8773 28.3218 13.44C28.2749 13.7803 28.1442 14.1175 28.0025 14.4341C27.6221 15.2834 26.9789 15.8144 26.0385 15.953C25.819 15.9853 25.7402 16.2769 25.8871 16.4432C26.7636 17.4356 26.6164 18.6806 26.5595 19.9119C26.5595 19.912 26.5595 19.9121 26.5595 19.9122ZM31.9516 16.3432C31.9516 15.9278 31.5089 15.5553 31.1624 15.7844C31.0955 15.8286 31.2009 16.1315 31.2267 16.3159C31.2314 16.3507 31.2346 16.3855 31.2372 16.4202C31.2836 17.0124 31.0628 17.3459 30.4991 17.5303C30.3079 17.593 30.1061 17.6298 29.9249 17.7131C29.7969 17.7716 29.6573 17.8659 29.5893 17.9828C29.4373 18.2446 29.3533 18.5207 29.3008 18.8045C29.1928 19.3887 29.6968 19.9094 30.2909 19.9094H30.9516C31.5039 19.9094 31.9516 19.4617 31.9516 18.9094V16.3432Z" fill="white"/>
<defs>
<filter id="filter0_b_1010_34529" x="-27.4828" y="-27.6" width="99.2" height="99.2" filterUnits="userSpaceOnUse" color-interpolation-filters="sRGB">
<feFlood flood-opacity="0" result="BackgroundImageFix"/>
<feGaussianBlur in="BackgroundImageFix" stdDeviation="13.8"/>
<feComposite in2="SourceAlpha" operator="in" result="effect1_backgroundBlur_1010_34529"/>
<feBlend mode="normal" in="SourceGraphic" in2="effect1_backgroundBlur_1010_34529" result="shape"/>
</filter>
<linearGradient id="paint0_linear_1010_34529" x1="-17.229" y1="51.1923" x2="86.4249" y2="-11.4231" gradientUnits="userSpaceOnUse">
<stop stop-color="#076193"/>
<stop offset="0.654" stop-color="#40A64B"/>
<stop offset="1" stop-color="#8A975E"/>
</linearGradient>
<radialGradient id="paint1_radial_1010_34529" cx="0" cy="0" r="1" gradientUnits="userSpaceOnUse" gradientTransform="translate(153.213 96.1289) rotate(-145.948) scale(300.165 100.641)">
<stop stop-color="#024D54"/>
<stop offset="0.382639" stop-color="#65735A"/>
<stop offset="0.561006" stop-color="#125F67"/>
<stop offset="0.75484" stop-color="#3E4A3F"/>
<stop offset="1" stop-color="#33696F"/>
</radialGradient>
</defs>
</svg>
