<svg width="45" height="44" viewBox="0 0 45 44" fill="none" xmlns="http://www.w3.org/2000/svg">
<g filter="url(#filter0_b_1010_34536)">
<circle cx="22.1172" cy="22" r="22" fill="url(#paint0_linear_1010_34536)"/>
<circle cx="22.1172" cy="22" r="22" fill="url(#paint1_radial_1010_34536)"/>
</g>
<path d="M30.0547 10.8691H14.888C14.3854 10.8698 13.9035 11.0697 13.5481 11.4251C13.1927 11.7805 12.9928 12.2624 12.9922 12.765V31.3938C12.9922 31.7322 13.0829 32.0644 13.2547 32.356C13.4265 32.6475 13.6732 32.8878 13.9692 33.0518C14.2652 33.2159 14.5997 33.2977 14.938 33.2888C15.2763 33.2799 15.6061 33.1807 15.8931 33.0013L22.3275 28.9795C22.3707 28.9527 22.4205 28.9385 22.4713 28.9384C22.5221 28.9383 22.5719 28.9524 22.6152 28.979L29.0496 33.0018C29.3367 33.1811 29.6665 33.2802 30.0048 33.289C30.3431 33.2978 30.6775 33.2159 30.9735 33.0518C31.2695 32.8878 31.5162 32.6475 31.688 32.3559C31.8598 32.0644 31.9504 31.7322 31.9505 31.3938V12.765C31.9499 12.2624 31.75 11.7805 31.3946 11.4251C31.0392 11.0697 30.5573 10.8698 30.0547 10.8691Z" fill="white"/>
<path d="M22.0066 15.2383L20.901 17.8181C20.862 17.9091 20.7971 17.9867 20.7144 18.0412C20.6318 18.0957 20.5349 18.1248 20.4359 18.1248H18.2404C18.1355 18.1248 18.0333 18.1574 17.9477 18.218C17.8622 18.2787 17.7976 18.3644 17.7629 18.4633C17.7282 18.5623 17.7251 18.6696 17.754 18.7703C17.7829 18.8711 17.8424 18.9605 17.9243 19.026L19.8409 20.5592C19.9197 20.6223 19.9778 20.7074 20.0079 20.8037C20.0379 20.9001 20.0384 21.0032 20.0094 21.0998L19.131 24.0281C19.1004 24.1301 19.1027 24.2392 19.1378 24.3398C19.1728 24.4404 19.2387 24.5274 19.326 24.5884C19.4134 24.6494 19.5178 24.6812 19.6243 24.6794C19.7308 24.6776 19.834 24.6422 19.9193 24.5783L22.1681 22.8917C22.2557 22.826 22.3622 22.7905 22.4717 22.7905C22.5812 22.7905 22.6877 22.826 22.7753 22.8917L25.0241 24.5783C25.1094 24.6422 25.2126 24.6776 25.3191 24.6794C25.4256 24.6812 25.53 24.6494 25.6174 24.5884C25.7047 24.5274 25.7706 24.4404 25.8057 24.3398C25.8407 24.2392 25.843 24.1301 25.8124 24.0281L24.934 21.0998C24.905 21.0032 24.9055 20.9001 24.9356 20.8037C24.9656 20.7074 25.0237 20.6223 25.1025 20.5592L27.0191 19.026C27.101 18.9605 27.1605 18.8711 27.1894 18.7703C27.2183 18.6696 27.2152 18.5623 27.1805 18.4633C27.1458 18.3644 27.0812 18.2787 26.9957 18.218C26.9101 18.1574 26.8079 18.1248 26.703 18.1248H24.5075C24.4085 18.1248 24.3117 18.0957 24.229 18.0412C24.1463 17.9867 24.0814 17.9091 24.0424 17.8181L22.9368 15.2383C22.8978 15.1473 22.8329 15.0697 22.7503 15.0152C22.6676 14.9607 22.5707 14.9316 22.4717 14.9316C22.3727 14.9316 22.2758 14.9607 22.1931 15.0152C22.1105 15.0697 22.0456 15.1473 22.0066 15.2383Z" fill="url(#paint2_linear_1010_34536)"/>
<defs>
<filter id="filter0_b_1010_34536" x="-27.4828" y="-27.6" width="99.2" height="99.2" filterUnits="userSpaceOnUse" color-interpolation-filters="sRGB">
<feFlood flood-opacity="0" result="BackgroundImageFix"/>
<feGaussianBlur in="BackgroundImageFix" stdDeviation="13.8"/>
<feComposite in2="SourceAlpha" operator="in" result="effect1_backgroundBlur_1010_34536"/>
<feBlend mode="normal" in="SourceGraphic" in2="effect1_backgroundBlur_1010_34536" result="shape"/>
</filter>
<linearGradient id="paint0_linear_1010_34536" x1="-17.229" y1="51.1923" x2="86.4249" y2="-11.4231" gradientUnits="userSpaceOnUse">
<stop stop-color="#076193"/>
<stop offset="0.654" stop-color="#40A64B"/>
<stop offset="1" stop-color="#8A975E"/>
</linearGradient>
<radialGradient id="paint1_radial_1010_34536" cx="0" cy="0" r="1" gradientUnits="userSpaceOnUse" gradientTransform="translate(153.213 96.1289) rotate(-145.948) scale(300.165 100.641)">
<stop stop-color="#024D54"/>
<stop offset="0.382639" stop-color="#65735A"/>
<stop offset="0.561006" stop-color="#125F67"/>
<stop offset="0.75484" stop-color="#3E4A3F"/>
<stop offset="1" stop-color="#33696F"/>
</radialGradient>
<linearGradient id="paint2_linear_1010_34536" x1="28.5654" y1="24.6795" x2="13.2096" y2="24.6337" gradientUnits="userSpaceOnUse">
<stop stop-color="#036068"/>
<stop offset="0.382639" stop-color="#596451"/>
<stop offset="0.561006" stop-color="#1E7C87"/>
<stop offset="0.75484" stop-color="#4C7950"/>
<stop offset="1" stop-color="#1199A8"/>
</linearGradient>
</defs>
</svg>
