<svg width="44" height="44" viewBox="0 0 44 44" fill="none" xmlns="http://www.w3.org/2000/svg">
<g filter="url(#filter0_b_1184_28081)">
<circle cx="22" cy="22" r="22" fill="url(#paint0_linear_1184_28081)"/>
<circle cx="22" cy="22" r="22" fill="url(#paint1_radial_1184_28081)"/>
</g>
<g clip-path="url(#clip0_1184_28081)">
<path d="M32.5 16.0312H11.5C10.6716 16.0312 10 16.7309 10 17.5938V27.75C10 28.6129 10.6716 29.3125 11.5 29.3125H32.5C33.3284 29.3125 34 28.6129 34 27.75V17.5938C34 16.7309 33.3284 16.0312 32.5 16.0312Z" fill="url(#paint2_linear_1184_28081)"/>
<path d="M11.5 16.0312H32.125C32.125 16.4629 31.7894 16.8125 31.375 16.8125H12.25C11.8356 16.8125 11.5 16.4629 11.5 16.0312Z" fill="#748B9E"/>
<path d="M13.375 19.1562C13.5821 19.1562 13.75 18.9814 13.75 18.7656C13.75 18.5499 13.5821 18.375 13.375 18.375C13.1679 18.375 13 18.5499 13 18.7656C13 18.9814 13.1679 19.1562 13.375 19.1562Z" fill="#84BD5A"/>
<path d="M11.875 19.1562C12.0821 19.1562 12.25 18.9814 12.25 18.7656C12.25 18.5499 12.0821 18.375 11.875 18.375C11.6679 18.375 11.5 18.5499 11.5 18.7656C11.5 18.9814 11.6679 19.1562 11.875 19.1562Z" fill="#84BD5A"/>
<path d="M13.75 22.6719H30.25C30.457 22.6719 30.625 22.8469 30.625 23.0625V24.2344C30.625 24.45 30.457 24.625 30.25 24.625H13.75C13.543 24.625 13.375 24.45 13.375 24.2344V23.0625C13.375 22.8469 13.543 22.6719 13.75 22.6719Z" fill="#123247"/>
<path d="M30.625 16.0313H13.375L14.005 12.7539C14.0759 12.3828 14.3916 12.1176 14.755 12.125H29.26C29.6234 12.1176 29.9391 12.3828 30.01 12.7539L30.625 16.0313Z" fill="#35495C"/>
<path d="M29.125 10.5625C29.125 10.1309 28.7894 9.78125 28.375 9.78125H15.625C15.2106 9.78125 14.875 10.1309 14.875 10.5625V16.0312H29.125V10.5625Z" fill="white"/>
<path d="M29.125 11.3438V16.0312H28.375V12.125C28.375 11.6934 28.7106 11.3438 29.125 11.3438Z" fill="#C9D5E3"/>
<path d="M14.125 24.625H14.875V25.4062C14.4606 25.4062 14.125 25.0566 14.125 24.625Z" fill="#3F556B"/>
<path d="M14.875 28.5312H12.25C11.8356 28.5312 11.5 28.8809 11.5 29.3125H14.875V28.5312Z" fill="#3F556B"/>
<path d="M33.25 18.375V27.75C33.25 28.1816 32.9144 28.5312 32.5 28.5312H30.25C30.043 28.5312 29.875 28.3562 29.875 28.1406V24.625H29.125V29.3125H32.5C33.3284 29.3125 34 28.6129 34 27.75V17.5938C33.5856 17.5938 33.25 17.9434 33.25 18.375Z" fill="#3F556B"/>
<path d="M14.875 32.4375C14.875 32.8691 15.2106 33.2188 15.625 33.2188H28.375C28.7894 33.2188 29.125 32.8691 29.125 32.4375V24.625H14.875V32.4375Z" fill="white"/>
<path d="M16.75 26.5781H27.25C27.457 26.5781 27.625 26.7531 27.625 26.9688C27.625 27.1844 27.457 27.3594 27.25 27.3594H16.75C16.543 27.3594 16.375 27.1844 16.375 26.9688C16.375 26.7531 16.543 26.5781 16.75 26.5781Z" fill="#9DACBA"/>
<path d="M16.75 30.4844H22.75C22.957 30.4844 23.125 30.6594 23.125 30.875C23.125 31.0906 22.957 31.2656 22.75 31.2656H16.75C16.543 31.2656 16.375 31.0906 16.375 30.875C16.375 30.6594 16.543 30.4844 16.75 30.4844Z" fill="#9DACBA"/>
<path d="M16.75 28.5312H27.25C27.457 28.5312 27.625 28.7063 27.625 28.9219C27.625 29.1375 27.457 29.3125 27.25 29.3125H16.75C16.543 29.3125 16.375 29.1375 16.375 28.9219C16.375 28.7063 16.543 28.5312 16.75 28.5312Z" fill="#9DACBA"/>
<path d="M28.75 24.625H14.875C14.875 25.0566 15.2106 25.4062 15.625 25.4062H28C28.207 25.4062 28.375 25.5813 28.375 25.7969V32.0469C28.375 32.2625 28.207 32.4375 28 32.4375H16.375C15.9606 32.4375 15.625 32.7871 15.625 33.2188H28.375C28.7894 33.2188 29.125 32.8691 29.125 32.4375V24.625H28.75Z" fill="#C9D5E3"/>
<path d="M14.875 18.375H17.125C17.332 18.375 17.5 18.55 17.5 18.7656C17.5 18.9812 17.332 19.1562 17.125 19.1562H14.875C14.668 19.1562 14.5 18.9812 14.5 18.7656C14.5 18.55 14.668 18.375 14.875 18.375Z" fill="#35495C"/>
</g>
<defs>
<filter id="filter0_b_1184_28081" x="-27.6" y="-27.6" width="99.2" height="99.2" filterUnits="userSpaceOnUse" color-interpolation-filters="sRGB">
<feFlood flood-opacity="0" result="BackgroundImageFix"/>
<feGaussianBlur in="BackgroundImageFix" stdDeviation="13.8"/>
<feComposite in2="SourceAlpha" operator="in" result="effect1_backgroundBlur_1184_28081"/>
<feBlend mode="normal" in="SourceGraphic" in2="effect1_backgroundBlur_1184_28081" result="shape"/>
</filter>
<linearGradient id="paint0_linear_1184_28081" x1="-17.3462" y1="51.1923" x2="86.3077" y2="-11.4231" gradientUnits="userSpaceOnUse">
<stop stop-color="#076193"/>
<stop offset="0.654" stop-color="#40A64B"/>
<stop offset="1" stop-color="#8A975E"/>
</linearGradient>
<radialGradient id="paint1_radial_1184_28081" cx="0" cy="0" r="1" gradientUnits="userSpaceOnUse" gradientTransform="translate(153.096 96.1289) rotate(-145.948) scale(300.165 100.641)">
<stop stop-color="#024D54"/>
<stop offset="0.382639" stop-color="#65735A"/>
<stop offset="0.561006" stop-color="#125F67"/>
<stop offset="0.75484" stop-color="#3E4A3F"/>
<stop offset="1" stop-color="#33696F"/>
</radialGradient>
<linearGradient id="paint2_linear_1184_28081" x1="8.3905" y1="17.9145" x2="16.3729" y2="35.9454" gradientUnits="userSpaceOnUse">
<stop stop-color="#00C0FF"/>
<stop offset="1" stop-color="#00754A"/>
</linearGradient>
<clipPath id="clip0_1184_28081">
<rect width="24" height="25" fill="white" transform="translate(10 9)"/>
</clipPath>
</defs>
</svg>
