<svg width="44" height="44" viewBox="0 0 44 44" fill="none" xmlns="http://www.w3.org/2000/svg">
<g filter="url(#filter0_b_1184_28082)">
<circle cx="22" cy="22" r="22" fill="url(#paint0_linear_1184_28082)"/>
<circle cx="22" cy="22" r="22" fill="url(#paint1_radial_1184_28082)"/>
</g>
<g clip-path="url(#clip0_1184_28082)">
<rect x="9.6875" y="9.24512" width="22.6878" height="22.6878" rx="5.39979" fill="white"/>
<path d="M25.7226 12.3926C25.7226 12.2582 25.7521 12.0366 25.7926 11.7977C25.8924 11.2081 26.2134 10.6826 26.6609 10.286C27.1847 9.82175 27.8615 9.56543 28.5613 9.56543C30.5241 9.72096 32.0657 11.3105 32.1611 13.2771L32.7586 25.5953C32.9407 29.351 29.8985 32.4726 26.1395 32.3873L18.3075 32.2096C17.6418 32.1945 17.1298 31.6161 17.1955 30.9536C17.2493 30.4107 16.9123 29.9055 16.3904 29.7467L15.724 29.544C15.5362 29.4868 15.3805 29.3545 15.2937 29.1784C15.1442 28.8748 15.2298 28.5078 15.4983 28.3017L16.0238 27.8982C16.3027 27.6841 16.4661 27.3526 16.4661 27.0011V26.9556C16.4661 26.8923 16.474 26.8291 16.4895 26.7677C16.6183 26.2586 16.2082 25.7737 15.6847 25.8163L14.3931 25.9215C14.0823 25.9468 13.7807 25.8088 13.5968 25.5571C13.4045 25.294 13.3701 24.9473 13.5071 24.6516L14.0866 23.4003C14.1476 23.2686 14.189 23.1287 14.2096 22.9851L14.2727 22.5449C14.3418 22.0629 14.7547 21.7051 15.2415 21.7051C15.478 21.7051 15.7066 21.7907 15.8848 21.9462L16.2785 22.2896C16.5795 22.5522 16.9793 22.6719 17.3751 22.618C17.8919 22.5476 18.3253 22.1927 18.4961 21.6998L18.5282 21.6073C18.7644 20.9255 19.4416 20.4984 20.1587 20.579L20.3756 20.6034C20.7832 20.6491 21.1942 20.5556 21.5419 20.3381L22.5323 19.7184C22.8917 19.4935 23.1978 19.1928 23.429 18.8373C23.7364 18.3647 23.9 17.8118 23.9 17.2481C23.9 16.5017 24.1855 15.7821 24.6981 15.2396L24.8113 15.1198C25.3965 14.5004 25.7226 13.6803 25.7226 12.8281V12.3926Z" fill="url(#paint2_linear_1184_28082)"/>
<rect x="9.90349" y="9.46111" width="22.2556" height="22.2556" rx="4.10384" stroke="url(#paint3_linear_1184_28082)" stroke-width="0.431984"/>
</g>
<circle cx="27.8047" cy="27.665" r="5.28906" fill="white"/>
<path d="M28.6366 30.2166L30.7009 28.1523C30.8299 28.0233 30.9023 27.8483 30.9023 27.6658C30.9023 27.4834 30.8299 27.3084 30.7009 27.1793L28.6366 25.115C28.5068 24.9897 28.333 24.9203 28.1526 24.9219C27.9721 24.9235 27.7996 24.9958 27.672 25.1234C27.5444 25.251 27.472 25.4236 27.4705 25.604C27.4689 25.7844 27.5383 25.9582 27.6636 26.088L28.5533 26.9777L25.3977 26.9777C25.2152 26.9777 25.0402 27.0502 24.9111 27.1793C24.7821 27.3083 24.7096 27.4833 24.7096 27.6658C24.7096 27.8483 24.7821 28.0233 24.9111 28.1524C25.0402 28.2814 25.2152 28.3539 25.3977 28.3539L28.5533 28.3539L27.6636 29.2436C27.5383 29.3734 27.4689 29.5472 27.4705 29.7276C27.472 29.9081 27.5444 30.0807 27.672 30.2082C27.7996 30.3358 27.9721 30.4082 28.1526 30.4097C28.333 30.4113 28.5068 30.342 28.6366 30.2166Z" fill="#606060"/>
<defs>
<filter id="filter0_b_1184_28082" x="-27.6" y="-27.6" width="99.2" height="99.2" filterUnits="userSpaceOnUse" color-interpolation-filters="sRGB">
<feFlood flood-opacity="0" result="BackgroundImageFix"/>
<feGaussianBlur in="BackgroundImageFix" stdDeviation="13.8"/>
<feComposite in2="SourceAlpha" operator="in" result="effect1_backgroundBlur_1184_28082"/>
<feBlend mode="normal" in="SourceGraphic" in2="effect1_backgroundBlur_1184_28082" result="shape"/>
</filter>
<linearGradient id="paint0_linear_1184_28082" x1="-17.3462" y1="51.1923" x2="86.3077" y2="-11.4231" gradientUnits="userSpaceOnUse">
<stop stop-color="#076193"/>
<stop offset="0.654" stop-color="#40A64B"/>
<stop offset="1" stop-color="#8A975E"/>
</linearGradient>
<radialGradient id="paint1_radial_1184_28082" cx="0" cy="0" r="1" gradientUnits="userSpaceOnUse" gradientTransform="translate(153.096 96.1289) rotate(-145.948) scale(300.165 100.641)">
<stop stop-color="#024D54"/>
<stop offset="0.382639" stop-color="#65735A"/>
<stop offset="0.561006" stop-color="#125F67"/>
<stop offset="0.75484" stop-color="#3E4A3F"/>
<stop offset="1" stop-color="#33696F"/>
</radialGradient>
<linearGradient id="paint2_linear_1184_28082" x1="11.9566" y1="12.824" x2="30.5607" y2="32.8719" gradientUnits="userSpaceOnUse">
<stop stop-color="#00C0FF"/>
<stop offset="1" stop-color="#00754A"/>
</linearGradient>
<linearGradient id="paint3_linear_1184_28082" x1="15.1827" y1="8.0104" x2="21.0313" y2="31.9327" gradientUnits="userSpaceOnUse">
<stop stop-color="#8FCAF3"/>
<stop offset="1" stop-color="#0BBB9C"/>
</linearGradient>
<clipPath id="clip0_1184_28082">
<rect width="22.6878" height="22.6878" fill="white" transform="translate(9.6875 9.24512)"/>
</clipPath>
</defs>
</svg>
