<svg width="45" height="44" viewBox="0 0 45 44" fill="none" xmlns="http://www.w3.org/2000/svg">
<g filter="url(#filter0_b_1010_34542)">
<circle cx="22.1172" cy="22" r="22" fill="url(#paint0_linear_1010_34542)"/>
<circle cx="22.1172" cy="22" r="22" fill="url(#paint1_radial_1010_34542)"/>
</g>
<path d="M6.64952 21.6781C6.97921 21.5402 7.30782 21.282 7.63752 21.282C16.8516 21.2602 26.0657 21.2602 35.2788 21.282C35.6085 21.282 35.9381 21.5402 36.2678 21.6781V31.9627C35.9511 32.0863 35.6344 32.3161 35.3166 32.3172C26.096 32.3368 16.8754 32.3314 7.65481 32.3379C7.26026 32.3379 6.91327 32.2854 6.64844 31.9627C6.64952 28.5348 6.64952 25.107 6.64952 21.6781ZM35.0388 22.5403H7.87749V31.0786H9.26004V28.606H10.4642V31.0819H11.8392V26.5217H13.0445V31.0863H14.4184V28.5972H15.6237V31.0907H17.017V26.5261H18.2039V31.0743H19.5756V28.6038H20.7463V31.0841H22.1191V26.5217H23.3266V31.0753H24.748V28.5994H25.9209V31.0874H27.2948V26.5184H28.5022V31.0896H29.8956V28.595H31.0976V31.0786H32.4888V26.5272H33.6919V31.0874H35.0399V22.5403H35.0388Z" fill="white"/>
<g clip-path="url(#clip0_1010_34542)">
<g clip-path="url(#clip1_1010_34542)">
<path d="M7.23541 21.8577C7.55145 21.7271 7.86645 21.4826 8.18248 21.4826C17.0149 21.4619 25.8473 21.4619 34.6787 21.4826C34.9948 21.4826 35.3108 21.7271 35.6268 21.8577V31.5978C35.3232 31.7149 35.0196 31.9325 34.715 31.9335C25.8764 31.9522 17.0377 31.947 8.19906 31.9532C7.82085 31.9532 7.48824 31.9035 7.23438 31.5978C7.23541 28.3514 7.23541 25.1051 7.23541 21.8577ZM34.4487 22.6742H8.41252V30.7606H9.73779V28.4188H10.8921V30.7637H12.2101V26.4449H13.3655V30.7678H14.6825V28.4105H15.8378V30.772H17.1734V26.449H18.3112V30.7564H19.6261V28.4167H20.7483V30.7658H22.0642V26.4449H23.2216V30.7575H24.5842V28.4126H25.7085V30.7689H27.0255V26.4418H28.1829V30.7709H29.5185V28.4084H30.6708V30.7606H32.0043V26.45H33.1576V30.7689H34.4497V22.6742H34.4487Z" fill="#868686"/>
</g>
</g>
<path d="M12.3933 16.4552C12.6679 16.7101 12.8933 16.8939 13.088 17.1062C13.3955 17.441 13.3823 17.8108 13.088 18.1357C12.8101 18.4421 12.4337 18.5198 12.1077 18.2517C11.2784 17.5679 10.4611 16.8688 9.67442 16.1357C9.33306 15.8184 9.36479 15.3841 9.70506 15.0668C10.4633 14.3578 11.2412 13.6685 12.0311 12.9934C12.3933 12.6838 12.7937 12.7418 13.1011 13.0897C13.4162 13.4464 13.3637 13.8272 13.0333 14.1598C12.8298 14.3644 12.6088 14.5514 12.3221 14.814H30.9405C30.6965 14.5886 30.4996 14.4202 30.3168 14.2353C29.9766 13.8906 29.9394 13.418 30.2457 13.116C30.5827 12.7845 30.981 12.7779 31.3289 13.0722C32.0794 13.7079 32.8147 14.3633 33.5368 15.0329C33.9099 15.3786 33.9219 15.848 33.5499 16.1871C32.7972 16.8753 32.0204 17.5383 31.2403 18.1959C30.877 18.5023 30.4941 18.464 30.1681 18.127C29.8442 17.7933 29.8858 17.3961 30.26 17.0186C30.4339 16.8436 30.6199 16.6817 30.8639 16.4541H12.3933V16.4552Z" fill="white"/>
<path d="M6.77676 15.7157C6.77676 14.8962 6.76253 14.0756 6.78113 13.2561C6.79645 12.6358 7.11265 12.3141 7.6214 12.3393C8.09843 12.3622 8.3457 12.6872 8.33913 13.3054C8.32272 14.8174 8.29975 16.3295 8.27786 17.8415C8.27568 17.987 8.28224 18.1358 8.25379 18.277C8.1597 18.7266 7.89712 18.9958 7.41352 18.9476C6.96166 18.9028 6.73737 18.6227 6.73409 18.1763C6.72752 17.3568 6.7319 16.5362 6.7319 15.7168C6.74722 15.7168 6.76253 15.7168 6.77785 15.7168L6.77676 15.7157Z" fill="white"/>
<path d="M36.4953 15.5686C36.4953 16.3695 36.5106 17.1704 36.4898 17.9702C36.4734 18.6004 36.1561 18.9472 35.6758 18.9242C35.1977 18.9012 34.9428 18.5446 34.9493 17.9034C34.9647 16.4297 34.9789 14.9548 34.9975 13.4811C34.9997 13.318 34.9953 13.1484 35.0358 12.9931C35.1375 12.5981 35.3881 12.3508 35.8159 12.3793C36.2568 12.4088 36.5292 12.655 36.5358 13.1112C36.5489 13.9296 36.5391 14.7491 36.5391 15.5675C36.5238 15.5675 36.5084 15.5675 36.4931 15.5675L36.4953 15.5686Z" fill="white"/>
<defs>
<filter id="filter0_b_1010_34542" x="-27.4828" y="-27.6" width="99.2" height="99.2" filterUnits="userSpaceOnUse" color-interpolation-filters="sRGB">
<feFlood flood-opacity="0" result="BackgroundImageFix"/>
<feGaussianBlur in="BackgroundImageFix" stdDeviation="13.8"/>
<feComposite in2="SourceAlpha" operator="in" result="effect1_backgroundBlur_1010_34542"/>
<feBlend mode="normal" in="SourceGraphic" in2="effect1_backgroundBlur_1010_34542" result="shape"/>
</filter>
<linearGradient id="paint0_linear_1010_34542" x1="-17.229" y1="51.1923" x2="86.4249" y2="-11.4231" gradientUnits="userSpaceOnUse">
<stop stop-color="#076193"/>
<stop offset="0.654" stop-color="#40A64B"/>
<stop offset="1" stop-color="#8A975E"/>
</linearGradient>
<radialGradient id="paint1_radial_1010_34542" cx="0" cy="0" r="1" gradientUnits="userSpaceOnUse" gradientTransform="translate(153.213 96.1289) rotate(-145.948) scale(300.165 100.641)">
<stop stop-color="#024D54"/>
<stop offset="0.382639" stop-color="#65735A"/>
<stop offset="0.561006" stop-color="#125F67"/>
<stop offset="0.75484" stop-color="#3E4A3F"/>
<stop offset="1" stop-color="#33696F"/>
</radialGradient>
<clipPath id="clip0_1010_34542">
<rect width="27.4533" height="7.39127" fill="white" transform="translate(7.91016 23.5959)"/>
</clipPath>
<clipPath id="clip1_1010_34542">
<rect width="27" height="10" fill="white" transform="translate(8.91016 21.5178)"/>
</clipPath>
</defs>
</svg>
