<svg width="25" height="24" viewBox="0 0 25 24" fill="none" xmlns="http://www.w3.org/2000/svg">
    <path
        d="M3.97534 12.2737C3.97534 11.5492 4.06727 10.8462 4.24012 10.1757C5.15381 10.2231 6.06079 9.76827 6.54963 8.92157C7.0381 8.07551 6.97893 7.06354 6.4821 6.29615C7.48132 5.3142 8.72562 4.58086 10.1148 4.19629C10.5307 5.0113 11.378 5.56941 12.3557 5.56941C13.3335 5.56941 14.1808 5.0113 14.5967 4.19629C15.9859 4.58086 17.2302 5.3142 18.2294 6.29615C17.7325 7.06354 17.6734 8.07551 18.1619 8.92157C18.6507 9.76827 19.5577 10.2231 20.4714 10.1757C20.6442 10.8462 20.7361 11.5492 20.7361 12.2737C20.7361 12.9982 20.6442 13.7012 20.4714 14.3717C19.5577 14.3244 18.6507 14.7792 18.1619 15.6259C17.6734 16.472 17.7325 17.4839 18.2294 18.2513C17.2302 19.2332 15.9859 19.9666 14.5967 20.3512C14.1808 19.5362 13.3335 18.978 12.3557 18.978C11.378 18.978 10.5307 19.5362 10.1148 20.3512C8.72562 19.9666 7.48132 19.2332 6.4821 18.2513C6.97893 17.4839 7.0381 16.472 6.54963 15.6259C6.06079 14.7792 5.15381 14.3244 4.24012 14.3717C4.06727 13.7012 3.97534 12.9982 3.97534 12.2737ZM8.00116 14.7878C8.52921 15.7025 8.68058 16.754 8.47409 17.7409C8.81584 17.9841 9.17961 18.1948 9.56079 18.3699C10.3124 17.697 11.2991 17.302 12.3557 17.302C13.4123 17.302 14.3991 17.697 15.1507 18.3699C15.5318 18.1948 15.8956 17.9841 16.2374 17.7409C16.0309 16.754 16.1822 15.7025 16.7104 14.7878C17.2383 13.8733 18.0733 13.2165 19.0311 12.9018C19.0503 12.6942 19.0601 12.4847 19.0601 12.2737C19.0601 12.0628 19.0503 11.8533 19.0311 11.6457C18.0733 11.331 17.2383 10.6742 16.7104 9.75961C16.1822 8.845 16.0309 7.79353 16.2374 6.80655C15.8956 6.56337 15.5318 6.35268 15.1507 6.17758C14.3991 6.85045 13.4123 7.24549 12.3557 7.24549C11.2991 7.24549 10.3124 6.85045 9.56079 6.17758C9.17961 6.35268 8.81584 6.56337 8.47409 6.80655C8.68058 7.79353 8.52921 8.845 8.00116 9.75961C7.47312 10.6742 6.63825 11.331 5.68034 11.6457C5.66112 11.8533 5.65142 12.0628 5.65142 12.2737C5.65142 12.4847 5.66112 12.6942 5.68034 12.9018C6.63825 13.2165 7.47312 13.8733 8.00116 14.7878ZM12.3557 14.7878C10.9672 14.7878 9.84162 13.6623 9.84162 12.2737C9.84162 10.8852 10.9672 9.75961 12.3557 9.75961C13.7443 9.75961 14.8699 10.8852 14.8699 12.2737C14.8699 13.6623 13.7443 14.7878 12.3557 14.7878ZM12.3557 13.1118C12.8186 13.1118 13.1938 12.7366 13.1938 12.2737C13.1938 11.8109 12.8186 11.4357 12.3557 11.4357C11.8929 11.4357 11.5177 11.8109 11.5177 12.2737C11.5177 12.7366 11.8929 13.1118 12.3557 13.1118Z"
        fill="#616161" />
</svg>
    