<svg width="25" height="24" viewBox="0 0 25 24" fill="none" xmlns="http://www.w3.org/2000/svg">
    <path
        d="M4.08469 14.7916C3.94092 14.8181 3.84182 14.8139 3.76365 14.853C2.51297 15.4951 1.70617 15.2913 1.04454 14.0518C0.928687 13.8326 1.09758 13.2952 1.31254 13.0942C2.63441 11.8617 4.04701 10.7255 5.34375 9.46783C5.99142 8.8397 6.39063 7.96032 7.01876 7.30706C8.56117 5.70323 9.83837 5.67113 11.579 7.08233C13.1186 8.32882 13.2498 8.31207 14.4154 6.74453C14.7671 6.26995 15.1119 5.78838 15.479 5.32635C16.1057 4.53491 16.9418 4.17338 17.9189 4.41347C18.9435 4.66472 19.6512 5.36962 19.8996 6.39976C20.1383 7.37825 19.7852 8.21436 18.9909 8.84109C18.2679 9.4106 17.5393 9.96894 16.8064 10.5259C16.2509 10.9474 16.1825 11.4011 16.6515 11.9427C16.9307 12.2637 17.1568 12.6322 17.4276 12.9616C18.5429 14.3114 18.5331 15.7729 17.2727 17.011C16.5691 17.7033 15.6437 18.1737 14.9569 18.88C13.6979 20.1754 12.5212 21.5531 11.3515 22.9294C10.8532 23.5142 10.4679 23.5701 9.90956 23.0006C8.06984 21.119 6.22592 19.2388 4.3178 17.4283C3.63942 16.7835 3.43144 16.1986 3.88648 15.3834C3.97861 15.2187 4.00932 15.0177 4.08051 14.793L4.08469 14.7916ZM6.84149 9.48598C5.20975 10.9195 3.66315 12.2763 2.09143 13.6554C2.40968 14.2165 2.72933 14.4301 3.28487 14.0281C3.73573 13.7028 4.2159 13.4097 4.71003 13.1557C4.91243 13.051 5.18741 13.0887 5.42889 13.0621C5.45123 13.3078 5.54754 13.5744 5.48194 13.7936C5.29489 14.4217 5.01991 15.0233 4.83147 15.65C4.7547 15.9055 4.6877 16.3103 4.82449 16.4582C5.66061 17.3697 6.55534 18.2282 7.49335 19.1662C8.28061 18.2337 8.95341 17.3851 9.69181 16.5992C9.88444 16.3954 10.2809 16.3842 10.5838 16.2851C10.5251 16.6034 10.5628 16.9956 10.3869 17.2273C9.81464 17.9867 9.1572 18.6832 8.5528 19.4188C8.42299 19.5765 8.37692 19.8013 8.29178 19.9953C8.36436 20.04 8.43694 20.0846 8.50813 20.1307C8.68959 19.9688 8.89059 19.8236 9.04693 19.6422C9.73648 18.8465 10.3855 18.016 11.1114 17.2567C11.3277 17.0291 11.7465 16.9984 12.0745 16.877C11.9964 17.1869 12.0075 17.5665 11.8275 17.7968C11.1812 18.6246 10.4581 19.3923 9.78812 20.2047C9.5927 20.442 9.48383 20.7491 9.33447 21.024C9.41125 21.0729 9.48662 21.1204 9.56339 21.1692C9.78394 20.9487 10.017 20.7379 10.225 20.5048C11.1002 19.5235 11.9517 18.5185 12.8534 17.5637C13.0223 17.3837 13.388 17.3865 13.6616 17.3055C13.6141 17.5875 13.6602 17.9462 13.5039 18.1416C12.6161 19.2415 11.6781 20.2996 10.7638 21.3758C10.5991 21.5712 10.4651 21.7918 10.3171 21.9983C10.4218 22.0835 10.5251 22.1672 10.6298 22.2524C12.0312 20.6807 13.4327 19.1061 14.8606 17.5051L6.84428 9.48877L6.84149 9.48598ZM7.35935 8.38465L15.9257 16.951C17.5616 15.5439 17.6398 14.9158 16.4226 13.2966C16.2244 13.0342 16.029 12.7718 15.8307 12.5094C15.1286 11.5867 15.1831 10.6752 16.0638 9.90612C16.7283 9.32545 17.4555 8.81597 18.1702 8.29392C18.7411 7.87656 19.2268 7.33218 18.9225 6.64822C18.695 6.13873 18.1883 5.62925 17.6802 5.40033C17.0046 5.09604 16.4505 5.56644 16.029 6.13873C15.4636 6.90226 14.9137 7.68394 14.2772 8.38465C13.6099 9.12166 12.6831 9.14399 11.8875 8.55495C11.5971 8.33998 11.318 8.11386 11.0276 7.8989C9.37356 6.68032 8.78451 6.75012 7.35795 8.38605L7.35935 8.38465Z"
        fill="#505050" />
    <path
        d="M18.2941 5.94347C18.188 6.67489 18.2648 7.26534 18.0386 7.42446C17.7344 7.63942 17.1956 7.52217 16.7573 7.5473C16.7712 7.13413 16.64 6.60929 16.8438 6.34129C17.0308 6.09283 17.5808 6.11795 18.2941 5.94347Z"
        fill="#505050" />
</svg>
    