<svg width="25" height="24" viewBox="0 0 25 24" fill="none" xmlns="http://www.w3.org/2000/svg">
    <g opacity="0.8">
        <path
            d="M6.35017 20.5638L6.35014 20.5638C6.09378 20.9056 5.73636 21.1581 5.32852 21.2855C4.92068 21.4129 4.4831 21.4087 4.07775 21.2736C3.67241 21.1385 3.31985 20.8793 3.07001 20.5326C2.82018 20.186 2.68575 19.7696 2.68575 19.3423V7.10584V7.10571H2.88575L6.35017 20.5638ZM6.35017 20.5638L6.35238 20.5607M6.35017 20.5638L6.35238 20.5607M6.35238 20.5607L7.06243 19.5758C7.21528 19.3739 7.41264 19.2099 7.63918 19.0966C7.86637 18.983 8.11675 18.9235 8.37074 18.9227H16.9581H16.9584M6.35238 20.5607L16.9584 18.9227M16.9584 18.9227C18.1453 18.9211 19.2834 18.4497 20.1239 17.6116C20.9643 16.7734 21.4387 15.6366 21.4435 14.4496V14.4488M16.9584 18.9227L21.4435 14.4488M21.4435 14.4488L21.4435 7.10616M21.4435 14.4488L21.4435 7.10616M8.39279 17.3065H8.39307H16.9577C17.7153 17.3051 18.4415 17.0035 18.9771 16.4678C19.5127 15.9322 19.8143 15.2063 19.8158 14.4488C19.8158 14.4487 19.8158 14.4486 19.8158 14.4484M8.39279 17.3065L16.9581 4.04226C17.7691 4.04226 18.5468 4.36441 19.1202 4.93784C19.6937 5.51128 20.0158 6.28902 20.0158 7.09997V14.4488L19.8158 14.4484M8.39279 17.3065C7.88696 17.3072 7.38816 17.4251 6.93551 17.6509C6.48286 17.8767 6.08867 18.2043 5.78385 18.6079L5.78335 18.6086L5.05026 19.588C5.05007 19.5882 5.04987 19.5885 5.04968 19.5887C4.99737 19.6568 4.92516 19.707 4.84307 19.7322C4.76066 19.7575 4.67241 19.7565 4.59063 19.7292C4.50885 19.702 4.43762 19.6499 4.38689 19.5802C4.33633 19.5107 4.30865 19.4272 4.30768 19.3413L4.30768 7.10571L4.30768 7.10533C4.30698 6.72915 4.38055 6.35653 4.52418 6.00885C4.66782 5.66117 4.87868 5.34526 5.14468 5.07926C5.41068 4.81326 5.72659 4.60239 6.07427 4.45876C6.42195 4.31513 6.79457 4.24155 7.17076 4.24226H7.17113H16.9581C17.716 4.24226 18.4429 4.54334 18.9788 5.07927C19.5147 5.61519 19.8158 6.34206 19.8158 7.09997L19.8158 14.4484M8.39279 17.3065L19.8158 14.4484M20.1286 3.93528C19.7133 3.51744 19.2193 3.18608 18.6751 2.96037M20.1286 3.93528C20.5464 4.35057 20.8777 4.84458 21.1034 5.38873C21.3292 5.93296 21.4448 6.51654 21.4435 7.10571C21.4435 7.10586 21.4435 7.10601 21.4435 7.10616M20.1286 3.93528C20.1287 3.93543 20.1289 3.93557 20.129 3.93571L19.9871 4.07668L20.1286 3.93528ZM18.6751 2.96037L21.2435 7.10571L21.4435 7.10616M18.6751 2.96037C18.1308 2.73462 17.5471 2.61904 16.9579 2.62032M18.6751 2.96037L16.9579 2.62032M16.9579 2.62032H16.9581V2.82032L16.9579 2.62032ZM16.9579 2.62032H7.17127H7.17113H16.9579Z"
            fill="#505050" stroke="#505050" stroke-width="0.4" />
        <path
            d="M7.1709 13.735H7.0709V13.835V15.0569V15.1569H7.1709H12.0644H12.1644V15.0569V13.835V13.735H12.0644H7.1709Z"
            fill="#505050" stroke="#505050" stroke-width="0.2" />
        <path
            d="M7.1709 8.09434H7.0709V8.19434V9.41627V9.51627H7.1709H17.5717H17.6717V9.41627V8.19434V8.09434H17.5717H7.1709Z"
            fill="#505050" stroke="#505050" stroke-width="0.2" />
        <path
            d="M7.1709 10.6764H7.0709V10.7764V11.9983V12.0983H7.1709H17.5717H17.6717V11.9983V10.7764V10.6764H17.5717H7.1709Z"
            fill="#505050" stroke="#505050" stroke-width="0.2" />
    </g>
</svg>
    