<svg width="42" height="41" viewBox="0 0 42 41" fill="none" xmlns="http://www.w3.org/2000/svg">
<g clip-path="url(#clip0_502_106695)">
<path d="M30.0237 13.943C27.7871 9.61038 23.2939 6.54219 18.0234 6.54199V13.3193C21.754 13.3196 24.7877 16.2402 24.7878 19.9509C24.7878 23.6165 21.7288 26.7763 18.0234 26.7766V40.7868C22.7739 35.863 28.2413 30.4504 30.6336 23.9702C31.8298 20.7296 31.6066 17.0094 30.0237 13.943Z" fill="#B3B3B3"/>
<path d="M5.4208 23.9702C7.81292 30.4504 13.2804 35.863 18.0308 40.7868V26.7766C14.3254 26.7763 11.2664 23.6165 11.2665 19.9509C11.2666 16.2402 14.3002 13.3196 18.0308 13.3193V6.54199C12.7603 6.54219 8.26702 9.61038 6.03049 13.943C4.44771 17.0094 4.2246 20.7296 5.4208 23.9702Z" fill="#979797"/>
<path d="M18.0285 30.5393C23.9705 30.5393 28.7875 25.748 28.7875 19.8377C28.7875 13.9275 23.9705 9.13623 18.0285 9.13623C12.0865 9.13623 7.26953 13.9275 7.26953 19.8377C7.26953 25.748 12.0865 30.5393 18.0285 30.5393Z" fill="#F0F0F0"/>
<path d="M13.3516 23.561L14.2872 29.8748C15.4527 30.3049 16.7134 30.5403 18.0294 30.5403C22.6554 30.5403 26.5991 27.6361 28.1192 23.561H13.3516Z" fill="black"/>
<path d="M13.3516 16.1155L14.2872 9.80173C15.4527 9.3716 16.7134 9.13623 18.0294 9.13623C22.6554 9.13623 26.5991 12.0403 28.1192 16.1155H13.3516Z" fill="#6DA544"/>
<path d="M7.26953 19.8391C7.26953 24.4403 10.1892 28.363 14.2863 29.875V9.80322C10.1892 11.3152 7.26953 15.2379 7.26953 19.8391Z" fill="#A2001D"/>
<path d="M18.0228 7.99561C13.064 7.99561 8.51116 11.1761 6.81938 15.8081C5.11523 20.4748 6.6081 25.8298 10.4488 28.9891C14.2975 32.1553 19.8877 32.5758 24.1651 30.0023C28.4435 27.4279 30.703 22.3319 29.6973 17.4565C28.7119 12.6818 24.7196 8.89279 19.8751 8.13847C19.2623 8.04303 18.6424 7.99561 18.0228 7.99561ZM27.616 24.1467C25.5825 28.6285 20.5062 31.1563 15.6817 30.0592C11.9688 29.215 8.9315 26.3294 7.89635 22.6888C6.83734 18.9662 7.98565 14.8765 10.8159 12.2264C13.8778 9.35931 18.4932 8.5765 22.3361 10.3002C26.924 12.3581 29.462 17.5334 28.2301 22.3959C28.0779 22.9964 27.8702 23.5818 27.616 24.1467C27.7197 23.9162 27.4756 24.4561 27.616 24.1467Z" fill="#C7C7C7"/>
</g>
<ellipse cx="32.7363" cy="9.23235" rx="7.59567" ry="7.5551" fill="#00754A" stroke="white" stroke-width="1.56912"/>
<path fill-rule="evenodd" clip-rule="evenodd" d="M35.3187 7.35698C35.518 7.52394 35.5442 7.82084 35.3773 8.02013L32.5289 11.4199C32.4473 11.5173 32.3299 11.5776 32.2032 11.587C32.0765 11.5965 31.9514 11.5544 31.8562 11.4703L30.1472 9.95925C29.9524 9.78705 29.9342 9.48956 30.1064 9.29479C30.2786 9.10002 30.5761 9.08173 30.7708 9.25393L32.1177 10.4447L34.6556 7.41551C34.8226 7.21622 35.1194 7.19002 35.3187 7.35698Z" fill="white"/>
<defs>
<clipPath id="clip0_502_106695">
<rect width="34.4287" height="34.2448" fill="white" transform="translate(0.8125 6.54297)"/>
</clipPath>
</defs>
</svg>
