<svg width="29" height="29" viewBox="0 0 29 29" fill="none" xmlns="http://www.w3.org/2000/svg">
<path d="M10.7362 19.1207L10.7363 19.1206L10.7288 19.1131C10.6213 19.0056 10.5612 18.845 10.5741 18.6779L10.798 16.2475C10.7981 16.2471 10.7981 16.2467 10.7981 16.2463C10.8204 16.0212 10.919 15.8135 11.078 15.6545L11.0784 15.654L17.6761 9.04061L20.7934 12.1579L14.1791 18.7722C14.0201 18.9312 13.8123 19.0298 13.5872 19.0521C13.5868 19.0521 13.5865 19.0521 13.5861 19.0522L11.1754 19.2743H11.1754H11.1752H11.175H11.1748H11.1746H11.1744H11.1742H11.174H11.1738H11.1736H11.1733H11.1731H11.1729H11.1727H11.1725H11.1723H11.1721H11.1719H11.1716H11.1714H11.1712H11.171H11.1708H11.1706H11.1703H11.1701H11.1699H11.1697H11.1695H11.1693H11.169H11.1688H11.1686H11.1684H11.1681H11.1679H11.1677H11.1675H11.1673H11.167H11.1668H11.1666H11.1664H11.1661H11.1659H11.1657H11.1655H11.1652H11.165H11.1648H11.1645H11.1643H11.1641H11.1639H11.1636H11.1634H11.1632H11.1629H11.1627H11.1625H11.1623H11.162H11.1618H11.1616H11.1613H11.1611H11.1609H11.1606H11.1604H11.1602H11.1599H11.1597H11.1595H11.1592H11.159H11.1588H11.1585H11.1583H11.158H11.1578H11.1576H11.1573H11.1571H11.1569H11.1566H11.1564H11.1562H11.1559H11.1557H11.1554H11.1552H11.155H11.1547H11.1545H11.1543H11.154H11.1538H11.1535H11.1533H11.1531H11.1528H11.1526H11.1523H11.1521H11.1519H11.1516H11.1514H11.1511H11.1509H11.1507H11.1504H11.1502H11.15H11.1497H11.1495H11.1492H11.149H11.1488H11.1485H11.1483H11.148H11.1478H11.1476H11.1473H11.1471H11.1468H11.1466H11.1464H11.1461H11.1459H11.1456H11.1454H11.1452H11.1449H11.1447H11.1444H11.1442H11.144H11.1437H11.1435H11.1432H11.143H11.1428H11.1425H11.1423H11.142H11.1418H11.1416H11.1413H11.1411H11.1409H11.1406H11.1404H11.1401H11.1399H11.1397H11.1394H11.1392H11.139H11.1387H11.1385H11.1383H11.138H11.1378H11.1375H11.1373H11.1371H11.1368H11.1366H11.1364H11.1361H11.1359H11.1357H11.1354H11.1352H11.135H11.1347H11.1345H11.1343H11.134H11.1338H11.1336H11.1334H11.1331H11.1329H11.1327H11.1324H11.1322H11.132H11.1317H11.1315H11.1313H11.1311H11.1308H11.1306H11.1304H11.1302H11.1299H11.1297H11.1295H11.1293H11.129H11.1288H11.1286H11.1284H11.1281H11.1279H11.1277H11.1275H11.1273H11.127H11.1268H11.1266H11.1264H11.1262H11.1259H11.1257H11.1255H11.1253H11.1251H11.1249H11.1246H11.1244H11.1242H11.124H11.1238H11.1236H11.1234H11.1231H11.1229H11.1227H11.1225H11.1223H11.1221H11.1219H11.1217H11.1215H11.1213H11.1211H11.1208H11.1206H11.1204H11.1202H11.12H11.1198H11.1196H11.1194H11.1192H11.119H11.1188H11.1186H11.1184H11.1182H11.118H11.1178H11.1176H11.1174H11.1172H11.117H11.1169H11.1167H11.1165H11.1163H11.1161H11.1159H11.1157H11.1155H11.1153H11.1151H11.115H11.1148H11.1146H11.1144H11.1142H11.114H11.1139H11.1137H11.1135H11.1133H11.1131H11.113H11.1128H11.1126H11.1124H11.1122H11.1121H11.1119H11.1117H11.1116H11.1114H11.1112H11.111H11.1109H11.1107H11.1105H11.1104H11.1102H11.11H11.1099H11.1097H11.1096H11.1094H11.1092H11.1091H11.1089H11.1088H11.1086H11.1084H11.1083H11.1081H11.108H11.1078H11.1077H11.1075H11.1074H11.1072H11.1071H11.1069C10.9626 19.2743 10.8289 19.2174 10.7362 19.1207ZM17.3225 8.68706L17.6757 8.33308L17.6757 8.33311L18.0292 8.68663L17.3225 8.68706ZM22.3819 10.5694L19.2641 7.45171L19.6423 7.07355L19.2931 6.72437L19.6423 7.07355C20.3367 6.37913 21.4752 6.37913 22.1697 7.07355L22.6136 7.51746V7.52863L22.7635 7.67564C23.0985 8.00427 23.2871 8.45705 23.2871 8.93175C23.2871 9.40365 23.1004 9.85091 22.76 10.1913L22.3819 10.5694ZM21.6241 15.9827V20.8053C21.6241 22.2504 20.4511 23.4234 19.006 23.4234H9.02822C7.58319 23.4234 6.41016 22.2504 6.41016 20.8053V10.8275C6.41016 9.3825 7.58319 8.20947 9.02822 8.20947H13.8591C13.8889 8.20947 13.9198 8.22159 13.9452 8.24699C13.9706 8.27238 13.9828 8.30331 13.9828 8.33308C13.9828 8.36285 13.9706 8.39378 13.9452 8.41917C13.9198 8.44457 13.8889 8.45669 13.8591 8.45669H9.02822C7.72104 8.45669 6.65738 9.52035 6.65738 10.8275V20.8137C6.65738 22.1208 7.72104 23.1845 9.02822 23.1845H19.006C20.3132 23.1845 21.3769 22.1208 21.3769 20.8137V15.9827C21.3769 15.953 21.389 15.922 21.4144 15.8966C21.4398 15.8713 21.4707 15.8591 21.5005 15.8591C21.5303 15.8591 21.5612 15.8712 21.5866 15.8966C21.612 15.922 21.6241 15.953 21.6241 15.9827Z" fill="url(#paint0_linear_502_106690)" stroke="#1A6263"/>
<defs>
<linearGradient id="paint0_linear_502_106690" x1="26.3464" y1="23.9234" x2="-2.62729" y2="23.8344" gradientUnits="userSpaceOnUse">
<stop stop-color="#036068"/>
<stop offset="0.382639" stop-color="#596451"/>
<stop offset="0.561006" stop-color="#1E7C87"/>
<stop offset="0.75484" stop-color="#4C7950"/>
<stop offset="1" stop-color="#1199A8"/>
</linearGradient>
</defs>
</svg>
