<svg width="29" height="29" viewBox="0 0 29 29" fill="none" xmlns="http://www.w3.org/2000/svg">
<path d="M9.63178 22.8849L9.58269 22.8603L9.52944 22.847C9.50298 22.8404 9.47776 22.8256 9.4517 22.7833C9.42201 22.7351 9.39844 22.6587 9.39844 22.5675V8.97447C9.39844 7.80636 10.279 6.92578 11.4471 6.92578H18.2436C19.4117 6.92578 20.2923 7.80636 20.2923 8.97447V22.5675C20.2923 22.6499 20.2731 22.6997 20.2489 22.7361C20.2225 22.7757 20.1696 22.8296 20.059 22.8849L19.9962 22.9163C19.98 22.917 19.9641 22.917 19.9428 22.917C19.8737 22.917 19.8384 22.9061 19.8166 22.8964C19.7926 22.8857 19.7571 22.8641 19.7016 22.8086L15.1989 18.3059L14.8454 17.9524L14.4918 18.3059L9.98914 22.8086C9.8647 22.9331 9.75296 22.9455 9.63178 22.8849Z" stroke="#1A6263"/>
</svg>
