<svg width="21" height="21" viewBox="0 0 21 21" fill="none" xmlns="http://www.w3.org/2000/svg">
<path d="M10.3539 1.74536C12.6268 1.74536 12.9104 1.75373 13.8022 1.79555C14.6931 1.83738 15.2996 1.97709 15.8333 2.18455C16.3855 2.39704 16.8506 2.68482 17.3157 3.14911C17.7411 3.5673 18.0703 4.07316 18.2803 4.63149C18.4869 5.16438 18.6274 5.77172 18.6693 6.66265C18.7086 7.55443 18.7195 7.83802 18.7195 10.111C18.7195 12.3839 18.7111 12.6675 18.6693 13.5592C18.6274 14.4502 18.4869 15.0567 18.2803 15.5904C18.0709 16.149 17.7416 16.655 17.3157 17.0728C16.8974 17.498 16.3916 17.8272 15.8333 18.0373C15.3004 18.244 14.6931 18.3845 13.8022 18.4263C12.9104 18.4657 12.6268 18.4765 10.3539 18.4765C8.08094 18.4765 7.79735 18.4682 6.90557 18.4263C6.01464 18.3845 5.40813 18.244 4.87441 18.0373C4.31586 17.8278 3.80991 17.4986 3.39203 17.0728C2.96656 16.6547 2.63739 16.1488 2.42747 15.5904C2.22001 15.0575 2.0803 14.4502 2.03847 13.5592C1.99916 12.6675 1.98828 12.3839 1.98828 10.111C1.98828 7.83802 1.99665 7.55443 2.03847 6.66265C2.0803 5.77088 2.22001 5.16521 2.42747 4.63149C2.63681 4.07282 2.96605 3.56682 3.39203 3.14911C3.81003 2.72349 4.31595 2.3943 4.87441 2.18455C5.40813 1.97709 6.0138 1.83738 6.90557 1.79555C7.79735 1.75624 8.08094 1.74536 10.3539 1.74536ZM10.3539 5.92816C9.24452 5.92816 8.18061 6.36884 7.39619 7.15327C6.61176 7.93769 6.17108 9.0016 6.17108 10.111C6.17108 11.2203 6.61176 12.2842 7.39619 13.0686C8.18061 13.8531 9.24452 14.2937 10.3539 14.2937C11.4632 14.2937 12.5271 13.8531 13.3116 13.0686C14.096 12.2842 14.5367 11.2203 14.5367 10.111C14.5367 9.0016 14.096 7.93769 13.3116 7.15327C12.5271 6.36884 11.4632 5.92816 10.3539 5.92816V5.92816ZM15.7915 5.71902C15.7915 5.44168 15.6813 5.1757 15.4852 4.9796C15.2891 4.78349 15.0231 4.67332 14.7458 4.67332C14.4685 4.67332 14.2025 4.78349 14.0064 4.9796C13.8103 5.1757 13.7001 5.44168 13.7001 5.71902C13.7001 5.99635 13.8103 6.26233 14.0064 6.45844C14.2025 6.65454 14.4685 6.76471 14.7458 6.76471C15.0231 6.76471 15.2891 6.65454 15.4852 6.45844C15.6813 6.26233 15.7915 5.99635 15.7915 5.71902ZM10.3539 7.60127C11.0195 7.60127 11.6578 7.86569 12.1285 8.33634C12.5991 8.807 12.8635 9.44534 12.8635 10.111C12.8635 10.7766 12.5991 11.4149 12.1285 11.8856C11.6578 12.3562 11.0195 12.6206 10.3539 12.6206C9.68826 12.6206 9.04992 12.3562 8.57926 11.8856C8.10861 11.4149 7.84419 10.7766 7.84419 10.111C7.84419 9.44534 8.10861 8.807 8.57926 8.33634C9.04992 7.86569 9.68826 7.60127 10.3539 7.60127V7.60127Z" fill="white"/>
</svg>
