<svg width="21" height="21" viewBox="0 0 21 21" fill="none" xmlns="http://www.w3.org/2000/svg">
<path d="M11.0031 1.89062C11.6467 2.01456 12.3067 2.0825 12.9301 2.27138C15.3393 3.00304 16.7444 4.70302 17.4312 7.06373C17.4409 7.09583 17.4327 7.13316 17.4327 7.19886C16.9975 7.31682 16.5592 7.43553 16.0956 7.5617C16.0127 7.33101 15.9388 7.11076 15.8559 6.89425C15.0862 4.87399 13.6177 3.74142 11.4824 3.45099C10.4491 3.31063 9.42334 3.33826 8.41768 3.62047C6.75205 4.08783 5.61873 5.17113 5.06028 6.78227C4.24202 9.14447 4.22634 11.5403 5.10209 13.8935C5.81657 15.8145 7.26869 16.8575 9.28671 17.1255C10.4835 17.2845 11.678 17.2711 12.8076 16.8059C14.0738 16.2848 15.0153 15.4315 15.3005 14.0145C15.5237 12.9058 14.9765 11.7232 14.0395 11.2536C13.8715 11.7657 13.7453 12.3003 13.5251 12.793C12.4799 15.1321 9.28522 15.1343 7.94957 13.8144C6.72816 12.6064 6.92078 10.6264 8.36094 9.69022C8.97912 9.28856 9.66672 9.08773 10.3961 9.06234C11.1009 9.03771 11.8079 9.05712 12.5112 9.05712C12.4575 8.26499 12.023 7.66473 11.2711 7.41388C10.417 7.12868 9.26506 7.22275 8.51997 8.18212C8.33257 8.05744 8.13995 7.93126 7.94957 7.8021C7.75471 7.66996 7.56209 7.53483 7.34409 7.38402C7.94211 6.48587 8.77679 5.96625 9.82425 5.86695C10.3946 5.8132 11.0031 5.84082 11.5563 5.98118C12.9562 6.33655 13.8618 7.5072 13.9842 9.02427C14.0148 9.40801 14.1477 9.62602 14.5054 9.81192C17.267 11.2469 17.3745 14.6655 15.564 16.6335C14.4322 17.8639 13.0189 18.4925 11.366 18.6224C11.2443 18.6321 11.1241 18.6664 11.0031 18.6888H9.80858C9.47858 18.6396 9.1471 18.597 8.81785 18.541C6.47058 18.1446 4.76015 16.8776 3.86275 14.6767C2.73317 11.9039 2.73018 9.05413 3.72314 6.24472C4.47944 4.10426 6.00023 2.70515 8.23701 2.1579C8.75141 2.03248 9.28447 1.97798 9.80858 1.89062C10.2065 1.89062 10.6052 1.89062 11.0031 1.89062ZM12.5508 10.6317C12.1753 10.5854 11.8206 10.5174 11.4645 10.5033C10.6567 10.4712 9.84292 10.4629 9.13142 10.9355C8.41022 11.4148 8.39678 12.3787 9.10902 12.8707C9.74586 13.3112 10.4477 13.3074 11.1733 13.1126C11.9647 12.9005 12.5807 11.9233 12.5508 10.6309V10.6317Z" fill="white"/>
</svg>
