<svg width="21" height="21" viewBox="0 0 21 21" fill="none" xmlns="http://www.w3.org/2000/svg">
<path d="M3.05001 16.8882C3.07398 16.8438 3.09073 16.7929 3.12308 16.756C4.42583 15.2632 5.73031 13.7716 7.03422 12.2797C7.45383 11.7997 7.87287 11.3194 8.30144 10.8288C6.44941 8.40376 4.59997 5.98251 2.72656 3.52978H2.91659C4.36027 3.52978 5.80395 3.53094 7.24763 3.52747C7.35449 3.52747 7.42062 3.5578 7.48589 3.64472C8.48887 4.97866 9.4959 6.30972 10.5021 7.64135C10.5364 7.68669 10.5717 7.73116 10.6141 7.78545C10.6514 7.74589 10.6843 7.71268 10.7149 7.67773C11.8932 6.33051 13.0715 4.98357 14.2474 3.63433C14.313 3.55895 14.3785 3.5269 14.4796 3.52747C15.1271 3.53209 15.7746 3.52978 16.422 3.52978C16.4688 3.52978 16.5156 3.52978 16.6077 3.52978C14.9463 5.4312 13.3109 7.3023 11.6676 9.18264C11.8487 9.42436 12.0254 9.66204 12.2039 9.89827C13.9277 12.1786 15.6518 14.4586 17.3742 16.7398C17.4063 16.7823 17.4198 16.8386 17.4421 16.8882H12.9227C12.9077 16.8646 12.8944 16.8397 12.8774 16.8178C11.9839 15.6476 11.09 14.4774 10.1962 13.3075C9.92071 12.9468 9.64491 12.5861 9.36363 12.2184C9.31887 12.2655 9.28161 12.3022 9.24725 12.3415C8.40743 13.3023 7.56848 14.264 6.72809 15.2242C6.24176 15.7801 5.75313 16.3338 5.26535 16.8885H3.05001V16.8882ZM14.7831 15.5101C14.7479 15.4584 14.7312 15.4313 14.7118 15.4062C12.1017 11.951 9.49041 8.49704 6.88491 5.03873C6.7639 4.87816 6.64608 4.80077 6.43901 4.81261C6.09708 4.83225 5.75341 4.81781 5.38607 4.81781C5.42448 4.87441 5.44614 4.90964 5.47126 4.94256C7.34005 7.38894 9.20941 9.83532 11.0785 12.2814C11.879 13.3291 12.6799 14.3769 13.483 15.4229C13.5136 15.4628 13.5705 15.5058 13.6158 15.5064C13.9944 15.513 14.3731 15.5101 14.7831 15.5101Z" fill="white"/>
</svg>
