<svg width="27" height="27" viewBox="0 0 27 27" fill="none" xmlns="http://www.w3.org/2000/svg">
<path d="M21.0547 1.86914H5.88802C5.3854 1.86975 4.90354 2.06969 4.54814 2.42509C4.19273 2.7805 3.9928 3.26236 3.99219 3.76497V22.3938C3.99225 22.7322 4.08288 23.0644 4.25468 23.356C4.42648 23.6475 4.67319 23.8878 4.9692 24.0518C5.2652 24.2159 5.59972 24.2977 5.93802 24.2888C6.27632 24.2799 6.60608 24.1807 6.89306 24.0013L13.3275 19.9795C13.3707 19.9527 13.4205 19.9385 13.4713 19.9384C13.5221 19.9383 13.5719 19.9524 13.6152 19.979L20.0496 24.0018C20.3367 24.1811 20.6665 24.2802 21.0048 24.289C21.3431 24.2978 21.6775 24.2159 21.9735 24.0518C22.2695 23.8878 22.5162 23.6475 22.688 23.3559C22.8598 23.0644 22.9504 22.7322 22.9505 22.3938V3.76497C22.9499 3.26236 22.75 2.7805 22.3946 2.42509C22.0392 2.06969 21.5573 1.86975 21.0547 1.86914Z" fill="white"/>
<path d="M13.0066 6.23834L11.901 8.81812C11.862 8.90914 11.7971 8.98672 11.7144 9.04123C11.6318 9.09575 11.5349 9.1248 11.4359 9.1248H9.24039C9.13553 9.1248 9.03327 9.15737 8.94773 9.21802C8.86219 9.27866 8.79761 9.36438 8.7629 9.46333C8.72819 9.56227 8.72508 9.66955 8.75399 9.77034C8.7829 9.87113 8.84241 9.96045 8.92428 10.026L10.8409 11.5592C10.9197 11.6223 10.9778 11.7074 11.0079 11.8037C11.0379 11.9001 11.0384 12.0032 11.0094 12.0998L10.131 15.0281C10.1004 15.1301 10.1027 15.2392 10.1378 15.3398C10.1728 15.4404 10.2387 15.5274 10.326 15.5884C10.4134 15.6494 10.5178 15.6812 10.6243 15.6794C10.7308 15.6776 10.834 15.6422 10.9193 15.5783L13.1681 13.8917C13.2557 13.826 13.3622 13.7905 13.4717 13.7905C13.5812 13.7905 13.6877 13.826 13.7753 13.8917L16.0241 15.5783C16.1094 15.6422 16.2126 15.6776 16.3191 15.6794C16.4256 15.6812 16.53 15.6494 16.6174 15.5884C16.7047 15.5274 16.7706 15.4404 16.8057 15.3398C16.8407 15.2392 16.843 15.1301 16.8124 15.0281L15.934 12.0998C15.905 12.0032 15.9055 11.9001 15.9356 11.8037C15.9656 11.7074 16.0237 11.6223 16.1025 11.5592L18.0191 10.026C18.101 9.96045 18.1605 9.87113 18.1894 9.77034C18.2183 9.66955 18.2152 9.56227 18.1805 9.46333C18.1458 9.36438 18.0812 9.27866 17.9957 9.21802C17.9101 9.15737 17.8079 9.1248 17.703 9.1248H15.5075C15.4085 9.1248 15.3117 9.09575 15.229 9.04123C15.1463 8.98672 15.0814 8.90914 15.0424 8.81812L13.9368 6.23834C13.8978 6.14732 13.8329 6.06974 13.7503 6.01522C13.6676 5.9607 13.5707 5.93164 13.4717 5.93164C13.3727 5.93164 13.2758 5.9607 13.1931 6.01522C13.1105 6.06974 13.0456 6.14732 13.0066 6.23834Z" fill="url(#paint0_linear_1256_28601)"/>
<defs>
<linearGradient id="paint0_linear_1256_28601" x1="19.5654" y1="15.6795" x2="4.20957" y2="15.6337" gradientUnits="userSpaceOnUse">
<stop stop-color="#036068"/>
<stop offset="0.382639" stop-color="#596451"/>
<stop offset="0.561006" stop-color="#1E7C87"/>
<stop offset="0.75484" stop-color="#4C7950"/>
<stop offset="1" stop-color="#1199A8"/>
</linearGradient>
</defs>
</svg>
