<svg width="24" height="24" viewBox="0 0 24 24" fill="none" xmlns="http://www.w3.org/2000/svg">
<g clip-path="url(#clip0_2488_39758)">
<path d="M4.01926 14.7916C3.87549 14.8181 3.77639 14.8139 3.69822 14.853C2.44754 15.4951 1.64074 15.2913 0.979113 14.0518C0.863257 13.8326 1.03215 13.2952 1.24711 13.0942C2.56898 11.8617 3.98158 10.7255 5.27832 9.46783C5.92599 8.8397 6.3252 7.96032 6.95333 7.30706C8.49574 5.70323 9.77294 5.67113 11.5136 7.08233C13.0532 8.32882 13.1844 8.31207 14.3499 6.74453C14.7017 6.26995 15.0465 5.78838 15.4136 5.32635C16.0403 4.53491 16.8764 4.17338 17.8535 4.41347C18.8781 4.66472 19.5857 5.36962 19.8342 6.39976C20.0729 7.37825 19.7197 8.21436 18.9255 8.84109C18.2025 9.4106 17.4738 9.96894 16.741 10.5259C16.1855 10.9474 16.1171 11.4011 16.5861 11.9427C16.8652 12.2637 17.0914 12.6322 17.3622 12.9616C18.4774 14.3114 18.4677 15.7729 17.2072 17.011C16.5037 17.7033 15.5783 18.1737 14.8915 18.88C13.6325 20.1754 12.4558 21.5531 11.286 22.9294C10.7877 23.5142 10.4025 23.5701 9.84413 23.0006C8.00441 21.119 6.16049 19.2388 4.25237 17.4283C3.57399 16.7835 3.36601 16.1986 3.82105 15.3834C3.91318 15.2187 3.94389 15.0177 4.01508 14.793L4.01926 14.7916ZM6.77606 9.48598C5.14432 10.9195 3.59772 12.2763 2.026 13.6554C2.34425 14.2165 2.6639 14.4301 3.21944 14.0281C3.6703 13.7028 4.15047 13.4097 4.6446 13.1557C4.847 13.051 5.12198 13.0887 5.36346 13.0621C5.3858 13.3078 5.48211 13.5744 5.41651 13.7936C5.22946 14.4217 4.95448 15.0233 4.76604 15.65C4.68927 15.9055 4.62227 16.3103 4.75906 16.4582C5.59518 17.3697 6.48991 18.2282 7.42792 19.1662C8.21518 18.2337 8.88798 17.3851 9.62638 16.5992C9.81901 16.3954 10.2154 16.3842 10.5183 16.2851C10.4597 16.6034 10.4974 16.9956 10.3215 17.2273C9.74921 17.9867 9.09177 18.6832 8.48737 19.4188C8.35756 19.5765 8.31149 19.8013 8.22635 19.9953C8.29893 20.04 8.37151 20.0846 8.4427 20.1307C8.62416 19.9688 8.82516 19.8236 8.9815 19.6422C9.67105 18.8465 10.3201 18.016 11.046 17.2567C11.2623 17.0291 11.6811 16.9984 12.0091 16.877C11.9309 17.1869 11.9421 17.5665 11.762 17.7968C11.1157 18.6246 10.3927 19.3923 9.72269 20.2047C9.52727 20.442 9.4184 20.7491 9.26904 21.024C9.34582 21.0729 9.42119 21.1204 9.49796 21.1692C9.71851 20.9487 9.95161 20.7379 10.1596 20.5048C11.0348 19.5235 11.8863 18.5185 12.788 17.5637C12.9569 17.3837 13.3226 17.3865 13.5962 17.3055C13.5487 17.5875 13.5948 17.9462 13.4384 18.1416C12.5507 19.2415 11.6127 20.2996 10.6984 21.3758C10.5337 21.5712 10.3997 21.7918 10.2517 21.9983C10.3564 22.0835 10.4597 22.1672 10.5644 22.2524C11.9658 20.6807 13.3672 19.1061 14.7952 17.5051L6.77885 9.48877L6.77606 9.48598ZM7.29392 8.38465L15.8602 16.951C17.4962 15.5439 17.5743 14.9158 16.3572 13.2966C16.1589 13.0342 15.9635 12.7718 15.7653 12.5094C15.0632 11.5867 15.1176 10.6752 15.9984 9.90612C16.6628 9.32545 17.3901 8.81597 18.1048 8.29392C18.6757 7.87656 19.1614 7.33218 18.8571 6.64822C18.6296 6.13873 18.1229 5.62925 17.6148 5.40033C16.9392 5.09604 16.3851 5.56644 15.9635 6.13873C15.3982 6.90226 14.8482 7.68394 14.2117 8.38465C13.5445 9.12166 12.6177 9.14399 11.822 8.55495C11.5317 8.33998 11.2525 8.11386 10.9622 7.8989C9.30813 6.68032 8.71908 6.75012 7.29252 8.38605L7.29392 8.38465Z" fill="white"/>
<path d="M18.2287 5.94323C18.1226 6.67465 18.1993 7.26509 17.9732 7.42422C17.6689 7.63918 17.1301 7.52193 16.6918 7.54706C16.7058 7.13389 16.5746 6.60905 16.7784 6.34104C16.9654 6.09258 17.5154 6.11771 18.2287 5.94323Z" fill="white"/>
</g>
<defs>
<clipPath id="clip0_2488_39758">
<rect width="24" height="24" fill="white"/>
</clipPath>
</defs>
</svg>
