<svg width="221" height="120" viewBox="0 0 221 120" fill="none" xmlns="http://www.w3.org/2000/svg">
<g filter="url(#filter0_bd_2488_39972)">
<path d="M47 52C47 42.0589 55.0589 34 65 34H168C177.941 34 186 42.0589 186 52V54C186 63.9411 177.941 72 168 72H65C55.0589 72 47 63.9411 47 54V52Z" fill="url(#paint0_linear_2488_39972)" fill-opacity="0.6" shape-rendering="crispEdges"/>
<path d="M47 52C47 42.0589 55.0589 34 65 34H168C177.941 34 186 42.0589 186 52V54C186 63.9411 177.941 72 168 72H65C55.0589 72 47 63.9411 47 54V52Z" stroke="white" stroke-opacity="0.7" stroke-width="1.4" shape-rendering="crispEdges"/>
<path d="M58.484 58C57.956 58 57.604 57.632 57.604 57.072V48.576C57.604 48.016 57.956 47.648 58.484 47.648H61.892C64.148 47.648 65.38 48.592 65.38 50.336C65.38 51.456 64.74 52.208 63.556 52.56C65.092 52.912 65.796 53.888 65.796 55.104C65.796 57.04 64.564 58 61.86 58H58.484ZM59.236 52.16H61.684C62.9 52.16 63.668 51.52 63.668 50.528C63.668 49.504 62.996 48.976 61.652 48.976H59.236V52.16ZM59.236 56.672H61.748C63.412 56.672 64.1 56.176 64.1 54.976C64.1 53.888 63.332 53.344 61.796 53.344H59.236V56.672ZM66.9186 55.984C66.9186 54.208 68.6146 53.44 72.0866 53.376H72.2946V53.216C72.2946 52.048 71.6226 51.408 70.3906 51.408C69.2226 51.408 68.5346 52.016 68.1826 52.72C68.1826 52.736 67.2066 52.72 67.2066 51.952C67.2066 51.664 67.3826 51.312 67.7346 50.992C68.2626 50.512 69.1906 50.112 70.5026 50.112C72.6786 50.112 73.8626 51.232 73.8626 53.184V57.904C73.8626 57.984 73.5746 58.08 73.2866 58.08C72.8546 58.08 72.5026 57.888 72.3746 57.376C72.3426 57.232 72.3106 57.056 72.3106 56.848C71.7186 57.68 70.7106 58.176 69.5426 58.176C67.8946 58.176 66.9186 57.296 66.9186 55.984ZM72.2946 54.96V54.368L71.8626 54.384C69.6226 54.464 68.4706 54.88 68.4706 55.92C68.4706 56.608 69.0146 57.04 69.9266 57.04C71.3026 57.04 72.2946 56.176 72.2946 54.96ZM75.7896 57.52C75.3896 57.232 75.1816 56.88 75.1816 56.56C75.1816 56.064 75.7576 55.808 75.8056 55.84C76.3176 56.496 77.1816 56.992 78.3976 56.992C79.4856 56.992 80.0936 56.592 80.0936 55.952C80.0936 55.168 79.3736 55.024 78.1096 54.752C76.9736 54.512 75.4056 54.16 75.4056 52.528C75.4056 51.088 76.6056 50.112 78.4776 50.112C79.9496 50.112 80.8776 50.576 81.2456 51.12C81.3736 51.296 81.4376 51.488 81.4376 51.664C81.4376 52.16 80.8296 52.448 80.7976 52.4C80.3176 51.76 79.5176 51.312 78.5416 51.312C77.4536 51.312 76.8776 51.728 76.8776 52.368C76.8776 53.072 77.5496 53.232 78.7976 53.504C79.9816 53.76 81.6296 54.112 81.6296 55.776C81.6296 57.248 80.4136 58.192 78.4296 58.192C77.2136 58.192 76.3336 57.904 75.7896 57.52ZM82.6995 54.192C82.6995 51.856 84.3635 50.112 86.6355 50.112C88.8595 50.112 90.3315 51.68 90.3315 53.984V54.112C90.3315 54.448 90.2195 54.576 89.8515 54.576H84.1715C84.1715 54.672 84.1875 54.768 84.2035 54.864C84.4275 56.128 85.4355 56.96 86.7955 56.96C88.1395 56.96 88.8115 56.368 89.2115 55.68C89.2435 55.648 90.0435 55.792 90.0435 56.464C90.0435 56.8 89.7555 57.232 89.1955 57.584C88.6355 57.936 87.8195 58.208 86.7635 58.208C84.3315 58.208 82.6995 56.592 82.6995 54.192ZM88.7955 53.504C88.7155 52.176 87.8995 51.312 86.6195 51.312C85.3555 51.312 84.3795 52.224 84.1875 53.504H88.7955ZM94.6509 57.312V48.496C94.6509 47.936 95.0189 47.584 95.5949 47.584H96.0269C96.6669 47.584 96.8429 47.824 97.0989 48.416L99.5469 53.936L102.011 48.416C102.267 47.808 102.459 47.584 103.067 47.584H103.467C104.059 47.584 104.443 47.936 104.443 48.496V57.312C104.443 57.808 104.235 58.064 103.755 58.064H103.531C103.067 58.064 102.875 57.808 102.875 57.312V49.712L100.587 54.864C100.411 55.28 100.235 55.568 99.5309 55.568C98.8109 55.568 98.6669 55.28 98.4749 54.864L96.2189 49.76V57.312C96.2189 57.808 96.0269 58.064 95.5469 58.064H95.2909C94.8429 58.064 94.6509 57.808 94.6509 57.312ZM106.075 55.984C106.075 54.208 107.771 53.44 111.243 53.376H111.451V53.216C111.451 52.048 110.779 51.408 109.547 51.408C108.379 51.408 107.691 52.016 107.339 52.72C107.339 52.736 106.363 52.72 106.363 51.952C106.363 51.664 106.539 51.312 106.891 50.992C107.419 50.512 108.347 50.112 109.659 50.112C111.835 50.112 113.019 51.232 113.019 53.184V57.904C113.019 57.984 112.731 58.08 112.443 58.08C112.011 58.08 111.659 57.888 111.531 57.376C111.499 57.232 111.467 57.056 111.467 56.848C110.875 57.68 109.867 58.176 108.699 58.176C107.051 58.176 106.075 57.296 106.075 55.984ZM111.451 54.96V54.368L111.019 54.384C108.779 54.464 107.627 54.88 107.627 55.92C107.627 56.608 108.171 57.04 109.083 57.04C110.459 57.04 111.451 56.176 111.451 54.96ZM119.17 50.112C121.234 50.112 122.77 51.696 122.77 54.144C122.77 56.56 121.25 58.208 119.122 58.208C117.842 58.208 116.914 57.536 116.482 56.768V60.384C116.482 60.96 116.178 61.136 115.778 61.136H115.602C115.186 61.136 114.898 60.96 114.898 60.384V50.4C114.898 50.352 115.154 50.224 115.474 50.224C115.858 50.224 116.29 50.4 116.418 51.104C116.434 51.184 116.466 51.392 116.466 51.552C117.058 50.656 117.938 50.112 119.17 50.112ZM118.834 56.896C120.274 56.896 121.234 55.792 121.234 54.16C121.234 52.56 120.242 51.424 118.866 51.424C117.682 51.424 116.866 52.048 116.466 53.024V54.64C116.466 55.936 117.554 56.896 118.834 56.896ZM135.6 52.544C136.192 52.544 136.48 52.912 136.48 53.488V57.904C136.48 57.952 136.24 58.064 135.936 58.064C135.456 58.064 135.04 57.824 135.04 56.736V56.544C134.4 57.568 133.2 58.192 131.6 58.192C128.608 58.192 126.704 55.936 126.704 52.848C126.704 49.68 128.88 47.44 132.016 47.44C133.28 47.44 134.256 47.776 134.912 48.208C135.584 48.64 135.936 49.184 135.936 49.584C135.936 50.336 135.088 50.496 135.04 50.432C134.4 49.408 133.2 48.864 132.048 48.864C129.904 48.864 128.4 50.496 128.4 52.864C128.4 55.184 129.728 56.864 131.92 56.864C133.6 56.864 134.816 55.92 135.024 54.544V53.888H132.592C132.032 53.888 131.76 53.712 131.76 53.264V53.184C131.76 52.72 132.032 52.544 132.592 52.544H135.6ZM137.919 55.984C137.919 54.208 139.615 53.44 143.087 53.376H143.295V53.216C143.295 52.048 142.623 51.408 141.391 51.408C140.223 51.408 139.535 52.016 139.183 52.72C139.183 52.736 138.207 52.72 138.207 51.952C138.207 51.664 138.383 51.312 138.735 50.992C139.263 50.512 140.191 50.112 141.503 50.112C143.679 50.112 144.863 51.232 144.863 53.184V57.904C144.863 57.984 144.575 58.08 144.287 58.08C143.855 58.08 143.503 57.888 143.375 57.376C143.343 57.232 143.311 57.056 143.311 56.848C142.719 57.68 141.711 58.176 140.543 58.176C138.895 58.176 137.919 57.296 137.919 55.984ZM143.295 54.96V54.368L142.863 54.384C140.623 54.464 139.471 54.88 139.471 55.92C139.471 56.608 140.015 57.04 140.927 57.04C142.303 57.04 143.295 56.176 143.295 54.96ZM147.526 58.064C147.11 58.064 146.806 57.888 146.806 57.312V47.184C146.806 47.136 147.078 47.008 147.382 47.008C147.878 47.008 148.39 47.264 148.39 48.368V57.312C148.39 57.888 148.102 58.064 147.686 58.064H147.526ZM151.213 58.064C150.797 58.064 150.493 57.888 150.493 57.312V47.184C150.493 47.136 150.765 47.008 151.069 47.008C151.565 47.008 152.077 47.264 152.077 48.368V57.312C152.077 57.888 151.789 58.064 151.373 58.064H151.213ZM153.653 54.192C153.653 51.856 155.317 50.112 157.589 50.112C159.813 50.112 161.285 51.68 161.285 53.984V54.112C161.285 54.448 161.173 54.576 160.805 54.576H155.125C155.125 54.672 155.141 54.768 155.157 54.864C155.381 56.128 156.389 56.96 157.749 56.96C159.093 56.96 159.765 56.368 160.165 55.68C160.197 55.648 160.997 55.792 160.997 56.464C160.997 56.8 160.709 57.232 160.149 57.584C159.589 57.936 158.773 58.208 157.717 58.208C155.285 58.208 153.653 56.592 153.653 54.192ZM159.749 53.504C159.669 52.176 158.853 51.312 157.573 51.312C156.309 51.312 155.333 52.224 155.141 53.504H159.749ZM166.277 50.112C167.077 50.112 167.541 50.496 167.541 51.136C167.541 51.744 167.093 51.984 167.061 51.952C166.821 51.76 166.517 51.616 166.085 51.616C164.837 51.616 164.341 52.832 164.341 54.608V57.312C164.341 57.888 164.037 58.064 163.637 58.064H163.461C163.045 58.064 162.757 57.888 162.757 57.312V50.4C162.757 50.352 163.013 50.224 163.333 50.224C163.701 50.224 164.101 50.384 164.261 50.992C164.293 51.152 164.325 51.344 164.325 51.568C164.661 50.624 165.301 50.112 166.277 50.112ZM170.918 61.12C170.47 61.12 170.054 60.768 170.086 60.688L171.366 57.568C171.014 57.536 170.822 57.44 170.694 57.12L167.942 50.688C167.91 50.592 168.262 50.224 168.774 50.224C169.222 50.224 169.526 50.432 169.782 51.12L171.862 56.432L173.702 51.152C173.926 50.448 174.278 50.224 174.694 50.224C175.126 50.224 175.558 50.576 175.526 50.656L171.894 60.24C171.638 60.928 171.286 61.12 170.918 61.12Z" fill="white"/>
</g>
<defs>
<filter id="filter0_bd_2488_39972" x="0.300781" y="0.300049" width="220.398" height="119.4" filterUnits="userSpaceOnUse" color-interpolation-filters="sRGB">
<feFlood flood-opacity="0" result="BackgroundImageFix"/>
<feGaussianBlur in="BackgroundImageFix" stdDeviation="12"/>
<feComposite in2="SourceAlpha" operator="in" result="effect1_backgroundBlur_2488_39972"/>
<feColorMatrix in="SourceAlpha" type="matrix" values="0 0 0 0 0 0 0 0 0 0 0 0 0 0 0 0 0 0 127 0" result="hardAlpha"/>
<feOffset dx="-6" dy="7"/>
<feGaussianBlur stdDeviation="20"/>
<feComposite in2="hardAlpha" operator="out"/>
<feColorMatrix type="matrix" values="0 0 0 0 0 0 0 0 0 0 0 0 0 0 0 0 0 0 0.3 0"/>
<feBlend mode="normal" in2="effect1_backgroundBlur_2488_39972" result="effect2_dropShadow_2488_39972"/>
<feBlend mode="normal" in="SourceGraphic" in2="effect2_dropShadow_2488_39972" result="shape"/>
</filter>
<linearGradient id="paint0_linear_2488_39972" x1="116.5" y1="34" x2="116.5" y2="72" gradientUnits="userSpaceOnUse">
<stop stop-color="white"/>
<stop offset="1" stop-color="white"/>
</linearGradient>
</defs>
</svg>
