<svg width="23" height="24" viewBox="0 0 23 24" fill="none" xmlns="http://www.w3.org/2000/svg">
<path d="M22.3828 11.6703C21.5315 10.9653 20.2677 10.9991 19.4501 11.7454L16.6863 14.2655C16.3 13.7367 15.6775 13.3954 14.9725 13.3954H12.0398C11.6723 13.3954 11.3123 13.3354 10.9785 13.2079C10.1498 12.9003 8.51094 12.4879 6.86462 13.1666C6.54964 13.2979 6.23836 13.4929 5.93459 13.7441L3.06947 16.1406C2.61948 15.878 2.03444 15.9343 1.65194 16.3168L0.343152 17.6293C-0.114384 18.0868 -0.114384 18.8256 0.343152 19.2831L4.71959 23.6595C5.17337 24.1133 5.91588 24.1133 6.37341 23.6595L7.68224 22.347C8.13973 21.8933 8.13973 21.1507 7.68224 20.6932L7.64098 20.652L7.95601 20.3369C8.55225 19.7407 9.35483 19.4257 10.1611 19.4819C12.0962 19.6057 14.0612 19.4519 15.9926 19.0206C16.6676 18.8707 17.2864 18.5293 17.7777 18.0381L22.4654 13.3504C22.9379 12.8779 22.9004 12.0979 22.3828 11.6703ZM21.9365 12.8179L17.2488 17.5093C16.855 17.8993 16.3675 18.1693 15.8313 18.2894C13.9637 18.7057 12.0736 18.8557 10.2098 18.7319C9.18972 18.6644 8.17345 19.0582 7.42715 19.8045L7.11216 20.1232C4.61455 17.6069 3.8833 16.8718 3.70327 16.6881C3.70327 16.6881 3.68452 16.6731 3.67331 16.6581C3.66581 16.6506 3.6583 16.6431 3.64705 16.6319L6.41468 14.3218C6.65843 14.1155 6.90593 13.9618 7.14968 13.8605C8.56351 13.2792 9.99229 13.643 10.7161 13.9131C11.1361 14.0668 11.5824 14.1455 12.0399 14.1455H14.9726C15.7451 14.1455 16.3489 14.7719 16.3414 15.5219C16.3414 15.7506 16.1501 15.9344 15.9176 15.9344H9.32472C9.11848 15.9344 8.94972 16.1031 8.94972 16.3094C8.94972 16.5194 9.11848 16.6844 9.32472 16.6844H15.9175C16.5588 16.6844 17.0875 16.1669 17.0913 15.5293C17.0913 15.338 17.0688 15.1506 17.0238 14.9705L19.9565 12.3004C20.5002 11.8016 21.3403 11.7829 21.9065 12.2516C22.0828 12.3941 22.0978 12.6604 21.9365 12.8179Z" fill="white"/>
<path d="M12.9038 11.9321C15.7724 11.9321 18.1068 9.59849 18.1075 6.72981C18.1075 6.52329 17.9399 6.35481 17.7325 6.35481H13.2803V1.90297C13.2803 1.6957 13.1112 1.52759 12.9038 1.52759C10.0362 1.52759 7.70312 3.8608 7.70312 6.72836C7.70317 9.59779 10.0362 11.9321 12.9038 11.9321ZM12.5302 2.29302V6.72986C12.5302 6.93712 12.698 7.10486 12.9053 7.10486H17.3417C17.1498 9.38499 15.2326 11.1821 12.9038 11.1821C10.4497 11.1821 8.45318 9.18429 8.45318 6.7284C8.45323 4.39993 10.2503 2.48346 12.5302 2.29302Z" fill="white"/>
<path d="M19.6351 5.20143C19.6351 5.40766 19.4701 5.57643 19.2601 5.57643H14.4336C14.2273 5.57643 14.0586 5.40766 14.0586 5.20143V0.375004C14.0586 0.168721 14.2273 7.07018e-10 14.4336 7.07018e-10C17.3024 -4.68924e-05 19.6351 2.33255 19.6351 5.20143Z" fill="white"/>
</svg>
