<svg width="24" height="24" viewBox="0 0 24 24" fill="none" xmlns="http://www.w3.org/2000/svg">
<path d="M17.2181 16.1755L21.3932 12.0005M21.3932 12.0005L17.2181 7.82543M21.3932 12.0005H6.78051M13.0431 16.1755V17.2193C13.0431 18.0497 12.7132 18.8462 12.1259 19.4334C11.5387 20.0207 10.7423 20.3506 9.91179 20.3506H5.73675C4.90628 20.3506 4.10983 20.0207 3.5226 19.4334C2.93537 18.8462 2.60547 18.0497 2.60547 17.2193V6.78167C2.60547 5.9512 2.93537 5.15475 3.5226 4.56752C4.10983 3.98029 4.90628 3.65039 5.73675 3.65039H9.91179C10.7423 3.65039 11.5387 3.98029 12.1259 4.56752C12.7132 5.15475 13.0431 5.9512 13.0431 6.78167V7.82543" stroke="white" stroke-width="2" stroke-linecap="round" stroke-linejoin="round"/>
</svg>
