<svg width="24" height="24" viewBox="0 0 24 24" fill="none" xmlns="http://www.w3.org/2000/svg">
<path d="M6.20473 20.5038L6.20471 20.5038C5.96094 20.8288 5.62108 21.0689 5.23328 21.19C4.84547 21.3112 4.42938 21.3072 4.04395 21.1787C3.65851 21.0503 3.32327 20.8038 3.08571 20.4742C2.84815 20.1446 2.72032 19.7486 2.72032 19.3423L2.72032 7.10584L2.72032 7.10571H2.82032L6.20473 20.5038ZM6.20473 20.5038L6.20583 20.5022M6.20473 20.5038L6.20583 20.5022M6.20583 20.5022L6.91589 19.5173C6.91611 19.517 6.91633 19.5167 6.91654 19.5164C7.07877 19.3018 7.28838 19.1275 7.52903 19.0072C7.77001 18.8867 8.03559 18.8236 8.305 18.8227H16.8927H16.8928M6.20583 20.5022L16.8928 18.8227M16.8928 18.8227C18.0533 18.8212 19.1661 18.3603 19.9878 17.5408C20.8095 16.7212 21.2734 15.6097 21.2781 14.4492V14.4488M16.8928 18.8227L21.2781 14.4488M21.2781 14.4488V7.10593M21.2781 14.4488L18.5713 3.05274M18.5713 3.05274C19.1034 3.27342 19.5864 3.59741 19.9924 4.00597C20.401 4.41199 20.725 4.895 20.9456 5.42705C21.1664 5.95919 21.2794 6.52983 21.2781 7.10593M18.5713 3.05274C18.0392 2.83204 17.4686 2.71905 16.8926 2.72032M18.5713 3.05274L16.8926 2.72032M21.2781 7.10593L21.1781 7.10571M21.2781 7.10593V7.10571H21.1781M21.1781 7.10571C21.1793 6.54283 21.0689 5.98529 20.8533 5.46536C20.6376 4.94543 20.321 4.47343 19.9217 4.07668M21.1781 7.10571V14.4488C21.1735 15.5829 20.7202 16.6691 19.9172 17.47C19.1142 18.2708 18.0268 18.7212 16.8927 18.7227L19.9217 4.07668M19.9217 4.07668C19.525 3.6774 19.053 3.36077 18.533 3.14511C18.0131 2.92946 17.4556 2.81907 16.8927 2.82032V2.72032H16.8926M19.9217 4.07668L16.8926 2.72032M16.8926 2.72032H7.10577H16.8926ZM8.32764 17.4065H8.3275C7.83711 17.4072 7.35354 17.5215 6.91472 17.7404C6.47589 17.9593 6.09374 18.2768 5.79822 18.6682L5.79797 18.6685L5.06428 19.6487C5.06418 19.6488 5.06409 19.649 5.064 19.6491C4.99902 19.7339 4.90918 19.7964 4.80701 19.8278C4.7047 19.8592 4.59512 19.858 4.49358 19.8241C4.39203 19.7903 4.30359 19.7255 4.24061 19.639C4.17771 19.5526 4.14333 19.4487 4.14225 19.3418L4.14225 7.10571L4.14225 7.10552C4.14152 6.71618 4.21767 6.33052 4.36633 5.97067C4.51499 5.61082 4.73323 5.28386 5.00854 5.00855C5.28385 4.73324 5.61081 4.515 5.97066 4.36634C6.33051 4.21768 6.71617 4.14153 7.10552 4.14226H7.1057H16.8927C17.6771 4.14226 18.4294 4.45388 18.9841 5.00855C19.5388 5.56323 19.8504 6.31554 19.8504 7.09997V14.4486C19.8489 15.2327 19.5368 15.9842 18.9824 16.5386C18.428 17.093 17.6765 17.4051 16.8925 17.4065H8.32764Z" fill="white" stroke="white" stroke-width="0.2"/>
<path d="M7.10547 13.7359H7.00547V13.8359V15.0579V15.1579H7.10547H11.999H12.099V15.0579V13.8359V13.7359H11.999H7.10547Z" fill="white" stroke="white" stroke-width="0.2"/>
<path d="M7.10547 8.09531H7.00547V8.19531V9.41725V9.51725H7.10547H17.5063H17.6063V9.41725V8.19531V8.09531H17.5063H7.10547Z" fill="white" stroke="white" stroke-width="0.2"/>
<path d="M7.10547 10.6754H7.00547V10.7754V11.9973V12.0973H7.10547H17.5063H17.6063V11.9973V10.7754V10.6754H17.5063H7.10547Z" fill="white" stroke="white" stroke-width="0.2"/>
</svg>
