<svg width="32" height="32" viewBox="0 0 32 32" fill="none" xmlns="http://www.w3.org/2000/svg">
<path d="M13.3516 27.2283C12.7862 26.6711 12.2523 26.1697 11.7453 25.6419C10.0569 23.8843 8.53571 21.9949 7.29424 19.8915C6.42107 18.4122 5.72815 16.8591 5.36505 15.1672C4.53034 11.2816 6.45608 7.45648 10.072 5.84759C14.0713 4.06795 18.872 5.87655 20.7161 9.84907C21.6619 11.8863 21.6774 13.9664 21.0813 16.0962C20.9599 16.5302 20.787 16.716 20.3162 16.7787C17.9976 17.0865 16.0442 18.8946 15.4865 21.1861C15.2056 22.3411 15.2587 23.4801 15.656 24.6014C15.6923 24.7043 15.7299 24.7907 15.6292 24.8932C14.8783 25.6561 14.134 26.4247 13.3516 27.2283ZM17.3915 13.324C17.3915 11.0776 15.5799 9.26292 13.3377 9.26248C11.0947 9.26248 9.27488 11.0763 9.27143 13.3158C9.26797 15.5697 11.0878 17.3899 13.3399 17.3852C15.5911 17.3804 17.392 15.5757 17.3915 13.324Z" fill="url(#paint0_linear_505_48911)"/>
<path d="M13.3086 27.2283C13.874 26.6711 14.4078 26.1697 14.9149 25.6419C16.6033 23.8843 18.1244 21.9949 19.3659 19.8915C20.2391 18.4122 20.932 16.8591 21.2951 15.1672C22.1298 11.2816 20.2041 7.45648 16.5882 5.84759C12.5889 4.06795 7.78812 5.87655 5.94408 9.84907C4.99828 11.8863 4.98272 13.9664 5.57881 16.0962C5.70028 16.5302 5.87319 16.716 6.34393 16.7787C8.6626 17.0865 10.616 18.8946 11.1736 21.1861C11.4546 22.3411 11.4014 23.4801 11.0042 24.6014C10.9679 24.7043 10.9303 24.7907 11.031 24.8932C11.7818 25.6561 12.5262 26.4247 13.3086 27.2283ZM9.26863 13.324C9.26863 11.0776 11.0803 9.26292 13.3224 9.26248C15.5654 9.26248 17.3853 11.0763 17.3887 13.3158C17.3922 15.5697 15.5724 17.3899 13.3203 17.3852C11.069 17.3804 9.2682 15.5757 9.26863 13.324Z" fill="url(#paint1_linear_505_48911)"/>
<path d="M13.3286 16.092C11.7962 16.0894 10.5642 14.854 10.5664 13.3216C10.5681 11.7936 11.8096 10.5569 13.3394 10.5586C14.87 10.5603 16.1007 11.7979 16.0977 13.3324C16.0946 14.8691 14.8653 16.0946 13.3286 16.092Z" fill="url(#paint2_linear_505_48911)"/>
<path d="M21.5477 16.0803L21.4694 16.0595C21.3554 16.0292 21.2256 15.9985 21.0867 15.9658C20.7411 15.8842 20.3395 15.7895 19.9872 15.6536L21.5477 16.0803ZM21.5477 16.0803H21.6287M21.5477 16.0803H21.6287M21.6287 16.0803H22.6324H22.6989L22.7639 16.0662C22.8352 16.0507 22.915 16.0346 22.9997 16.0175C23.1979 15.9775 23.4228 15.9322 23.6276 15.8767L23.6281 15.8765C25.8876 15.2625 27.5232 13.3895 27.8374 11.0757L27.8378 11.0747L27.8475 11.0487C27.8511 11.0386 27.8554 11.0265 27.8598 11.0131L27.8903 10.9194V10.8209V9.81674V9.71824M21.6287 16.0803L27.8903 9.71824M27.8903 9.71824L27.8598 9.62459M27.8903 9.71824L27.8598 9.62459M27.8598 9.62459C27.8554 9.61115 27.8511 9.5991 27.8475 9.58896L27.8378 9.56293L27.8374 9.56205M27.8598 9.62459L27.8374 9.56205M27.8374 9.56205C27.3941 6.28479 24.353 4.07534 21.0838 4.65654L27.8374 9.56205ZM16.3906 9.8385C16.1452 12.2949 17.6569 14.7555 19.987 15.6536L21.0837 4.65654C18.5442 5.10789 16.6521 7.2204 16.3906 9.8385Z" fill="url(#paint3_linear_505_48911)" stroke="white" stroke-width="1.23961"/>
<path d="M22.3671 8.96221L23.4853 10.0805L20.8761 12.6897H19.7578V11.5715L22.3671 8.96221ZM22.7398 8.58945L23.299 8.03032C23.4019 7.92739 23.5688 7.92739 23.6717 8.03032L24.4172 8.77583C24.5202 8.87876 24.5202 9.04565 24.4172 9.14858L23.8581 9.70771L22.7398 8.58945Z" fill="white"/>
<defs>
<linearGradient id="paint0_linear_505_48911" x1="-1.45122" y1="11.8457" x2="37.8211" y2="26.7728" gradientUnits="userSpaceOnUse">
<stop stop-color="#00754A"/>
<stop offset="1" stop-color="#00C0FF"/>
</linearGradient>
<linearGradient id="paint1_linear_505_48911" x1="22.5823" y1="8.29109" x2="4.7235" y2="24.7953" gradientUnits="userSpaceOnUse">
<stop stop-color="#00C0FF"/>
<stop offset="1" stop-color="#00754A"/>
</linearGradient>
<linearGradient id="paint2_linear_505_48911" x1="10.1955" y1="11.3432" x2="14.5786" y2="16.82" gradientUnits="userSpaceOnUse">
<stop stop-color="#00C0FF"/>
<stop offset="1" stop-color="#00754A"/>
</linearGradient>
<linearGradient id="paint3_linear_505_48911" x1="16.2946" y1="6.64086" x2="24.4328" y2="16.8227" gradientUnits="userSpaceOnUse">
<stop stop-color="#00C0FF"/>
<stop offset="1" stop-color="#00754A"/>
</linearGradient>
</defs>
</svg>
