<svg width="25" height="25" viewBox="0 0 25 25" fill="none" xmlns="http://www.w3.org/2000/svg">
<path d="M12.4983 3.59558C17.8904 3.59558 22.3764 7.47534 23.3169 12.5956C22.3764 17.7158 17.8904 21.5956 12.4983 21.5956C7.10617 21.5956 2.6202 17.7158 1.67969 12.5956C2.6202 7.47534 7.10617 3.59558 12.4983 3.59558ZM12.4983 19.5956C16.7339 19.5956 20.3583 16.6476 21.2757 12.5956C20.3583 8.54361 16.7339 5.59558 12.4983 5.59558C8.26265 5.59558 4.63827 8.54361 3.72083 12.5956C4.63827 16.6476 8.26265 19.5956 12.4983 19.5956ZM12.4983 17.0956C10.013 17.0956 7.99831 15.0809 7.99831 12.5956C7.99831 10.1103 10.013 8.09558 12.4983 8.09558C14.9835 8.09558 16.9983 10.1103 16.9983 12.5956C16.9983 15.0809 14.9835 17.0956 12.4983 17.0956ZM12.4983 15.0956C13.879 15.0956 14.9983 13.9763 14.9983 12.5956C14.9983 11.2149 13.879 10.0956 12.4983 10.0956C11.1176 10.0956 9.99831 11.2149 9.99831 12.5956C9.99831 13.9763 11.1176 15.0956 12.4983 15.0956Z" fill="black"/>
</svg>
