<svg width="18" height="19" viewBox="0 0 18 19" fill="none" xmlns="http://www.w3.org/2000/svg">
<g clip-path="url(#clip0_505_48370)">
<path d="M2.25 5.5448H3.75M3.75 5.5448H15.75M3.75 5.5448V16.0448C3.75 16.4426 3.90804 16.8242 4.18934 17.1055C4.47064 17.3868 4.85218 17.5448 5.25 17.5448H12.75C13.1478 17.5448 13.5294 17.3868 13.8107 17.1055C14.092 16.8242 14.25 16.4426 14.25 16.0448V5.5448H3.75ZM6 5.5448V4.0448C6 3.64698 6.15804 3.26544 6.43934 2.98414C6.72064 2.70284 7.10218 2.5448 7.5 2.5448H10.5C10.8978 2.5448 11.2794 2.70284 11.5607 2.98414C11.842 3.26544 12 3.64698 12 4.0448V5.5448M7.5 9.2948V13.7948M10.5 9.2948V13.7948" stroke="#DD6A6A" stroke-width="1.66667" stroke-linecap="round" stroke-linejoin="round"/>
</g>
<defs>
<clipPath id="clip0_505_48370">
<rect width="18" height="18" fill="white" transform="translate(0 0.595581)"/>
</clipPath>
</defs>
</svg>
