<svg width="12" height="12" viewBox="0 0 12 12" fill="none" xmlns="http://www.w3.org/2000/svg">
<path d="M2.62117 1.13664C2.23065 0.746119 1.59748 0.746119 1.20696 1.13664C0.816431 1.52717 0.816431 2.16033 1.20696 2.55086L2.62117 1.13664ZM9.88664 11.2305C10.2772 11.6211 10.9103 11.6211 11.3009 11.2305C11.6914 10.84 11.6914 10.2069 11.3009 9.81633L9.88664 11.2305ZM1.20696 9.81633C0.816431 10.2069 0.816431 10.84 1.20696 11.2305C1.59748 11.6211 2.23065 11.6211 2.62117 11.2305L1.20696 9.81633ZM11.3009 2.55086C11.6914 2.16033 11.6914 1.52717 11.3009 1.13664C10.9103 0.746119 10.2772 0.746119 9.88664 1.13664L11.3009 2.55086ZM1.20696 2.55086L5.5468 6.8907L6.96101 5.47649L2.62117 1.13664L1.20696 2.55086ZM5.5468 6.8907L9.88664 11.2305L11.3009 9.81633L6.96101 5.47649L5.5468 6.8907ZM5.5468 5.47649L1.20696 9.81633L2.62117 11.2305L6.96101 6.8907L5.5468 5.47649ZM2.62117 11.2305L11.3009 2.55086L9.88664 1.13664L1.20696 9.81633L2.62117 11.2305Z" fill="#DA0000"/>
</svg>
