<svg width="17" height="3" viewBox="0 0 17 3" fill="none" xmlns="http://www.w3.org/2000/svg">
    <path
        d="M9.875 1.5C9.875 1.79667 9.78703 2.08668 9.6222 2.33336C9.45738 2.58003 9.22312 2.77229 8.94903 2.88582C8.67494 2.99935 8.37334 3.02906 8.08237 2.97118C7.79139 2.9133 7.52412 2.77044 7.31434 2.56066C7.10456 2.35088 6.9617 2.08361 6.90382 1.79264C6.84594 1.50166 6.87565 1.20006 6.98918 0.925975C7.10271 0.651886 7.29497 0.417618 7.54165 0.252796C7.78832 0.0879736 8.07833 0 8.375 0C8.77283 0 9.15436 0.158036 9.43566 0.43934C9.71696 0.720645 9.875 1.10218 9.875 1.5ZM2 0C1.70333 0 1.41332 0.0879736 1.16665 0.252796C0.919972 0.417618 0.727713 0.651886 0.614181 0.925975C0.50065 1.20006 0.470945 1.50166 0.528823 1.79264C0.586701 2.08361 0.729562 2.35088 0.939341 2.56066C1.14912 2.77044 1.41639 2.9133 1.70737 2.97118C1.99834 3.02906 2.29994 2.99935 2.57403 2.88582C2.84811 2.77229 3.08238 2.58003 3.24721 2.33336C3.41203 2.08668 3.5 1.79667 3.5 1.5C3.5 1.10218 3.34197 0.720645 3.06066 0.43934C2.77936 0.158036 2.39783 0 2 0ZM14.75 0C14.4533 0 14.1633 0.0879736 13.9166 0.252796C13.67 0.417618 13.4777 0.651886 13.3642 0.925975C13.2507 1.20006 13.2209 1.50166 13.2788 1.79264C13.3367 2.08361 13.4796 2.35088 13.6893 2.56066C13.8991 2.77044 14.1664 2.9133 14.4574 2.97118C14.7483 3.02906 15.0499 2.99935 15.324 2.88582C15.5981 2.77229 15.8324 2.58003 15.9972 2.33336C16.162 2.08668 16.25 1.79667 16.25 1.5C16.25 1.10218 16.092 0.720645 15.8107 0.43934C15.5294 0.158036 15.1478 0 14.75 0Z"
        fill="black" />
</svg>
    