<svg width="211" height="121" viewBox="0 0 211 121" fill="none" xmlns="http://www.w3.org/2000/svg">
<g filter="url(#filter0_bd_2488_39985)">
<path d="M46.9316 49.7612C46.9316 40.9498 54.0748 33.8066 62.8862 33.8066H159.665C168.476 33.8066 175.619 40.9498 175.619 49.7612C175.619 58.5727 168.476 65.7158 159.665 65.7158H62.8862C54.0748 65.7158 46.9316 58.5727 46.9316 49.7612Z" fill="url(#paint0_linear_2488_39985)" fill-opacity="0.6" shape-rendering="crispEdges"/>
<path d="M46.9316 49.7612C46.9316 40.9498 54.0748 33.8066 62.8862 33.8066H159.665C168.476 33.8066 175.619 40.9498 175.619 49.7612C175.619 58.5727 168.476 65.7158 159.665 65.7158H62.8862C54.0748 65.7158 46.9316 58.5727 46.9316 49.7612Z" stroke="white" stroke-opacity="0.7" stroke-width="1.4" shape-rendering="crispEdges"/>
<path d="M61.0114 54.7617C60.5494 54.7617 60.2414 54.4397 60.2414 53.9497V46.5157C60.2414 46.0257 60.5494 45.7037 61.0114 45.7037H63.9934C65.9674 45.7037 67.0454 46.5297 67.0454 48.0557C67.0454 49.0357 66.4854 49.6937 65.4494 50.0017C66.7934 50.3097 67.4094 51.1637 67.4094 52.2277C67.4094 53.9217 66.3314 54.7617 63.9654 54.7617H61.0114ZM61.6694 49.6517H63.8114C64.8754 49.6517 65.5474 49.0917 65.5474 48.2237C65.5474 47.3277 64.9594 46.8657 63.7834 46.8657H61.6694V49.6517ZM61.6694 53.5997H63.8674C65.3234 53.5997 65.9254 53.1657 65.9254 52.1157C65.9254 51.1637 65.2534 50.6877 63.9094 50.6877H61.6694V53.5997ZM68.3917 52.9977C68.3917 51.4437 69.8757 50.7717 72.9137 50.7157H73.0957V50.5757C73.0957 49.5537 72.5077 48.9937 71.4297 48.9937C70.4077 48.9937 69.8057 49.5257 69.4977 50.1417C69.4977 50.1557 68.6437 50.1417 68.6437 49.4697C68.6437 49.2177 68.7977 48.9097 69.1057 48.6297C69.5677 48.2097 70.3797 47.8597 71.5277 47.8597C73.4317 47.8597 74.4677 48.8397 74.4677 50.5477V54.6777C74.4677 54.7477 74.2157 54.8317 73.9637 54.8317C73.5857 54.8317 73.2777 54.6637 73.1657 54.2157C73.1377 54.0897 73.1097 53.9357 73.1097 53.7537C72.5917 54.4817 71.7097 54.9157 70.6877 54.9157C69.2457 54.9157 68.3917 54.1457 68.3917 52.9977ZM73.0957 52.1017V51.5837L72.7177 51.5977C70.7577 51.6677 69.7497 52.0317 69.7497 52.9417C69.7497 53.5437 70.2257 53.9217 71.0237 53.9217C72.2277 53.9217 73.0957 53.1657 73.0957 52.1017ZM76.1538 54.3417C75.8038 54.0897 75.6218 53.7817 75.6218 53.5017C75.6218 53.0677 76.1258 52.8437 76.1678 52.8717C76.6158 53.4457 77.3718 53.8797 78.4358 53.8797C79.3878 53.8797 79.9198 53.5297 79.9198 52.9697C79.9198 52.2837 79.2898 52.1577 78.1838 51.9197C77.1898 51.7097 75.8178 51.4017 75.8178 49.9737C75.8178 48.7137 76.8678 47.8597 78.5058 47.8597C79.7938 47.8597 80.6058 48.2657 80.9278 48.7417C81.0398 48.8957 81.0958 49.0637 81.0958 49.2177C81.0958 49.6517 80.5638 49.9037 80.5358 49.8617C80.1158 49.3017 79.4158 48.9097 78.5618 48.9097C77.6098 48.9097 77.1058 49.2737 77.1058 49.8337C77.1058 50.4497 77.6938 50.5897 78.7858 50.8277C79.8218 51.0517 81.2638 51.3597 81.2638 52.8157C81.2638 54.1037 80.1998 54.9297 78.4638 54.9297C77.3998 54.9297 76.6298 54.6777 76.1538 54.3417ZM82.2 51.4297C82.2 49.3857 83.656 47.8597 85.644 47.8597C87.59 47.8597 88.878 49.2317 88.878 51.2477V51.3597C88.878 51.6537 88.78 51.7657 88.458 51.7657H83.488C83.488 51.8497 83.502 51.9337 83.516 52.0177C83.712 53.1237 84.594 53.8517 85.784 53.8517C86.96 53.8517 87.548 53.3337 87.898 52.7317C87.926 52.7037 88.626 52.8297 88.626 53.4177C88.626 53.7117 88.374 54.0897 87.884 54.3977C87.394 54.7057 86.68 54.9437 85.756 54.9437C83.628 54.9437 82.2 53.5297 82.2 51.4297ZM87.534 50.8277C87.464 49.6657 86.75 48.9097 85.63 48.9097C84.524 48.9097 83.67 49.7077 83.502 50.8277H87.534ZM98.1605 47.8597C99.8685 47.8597 100.695 48.8957 100.695 50.6317V54.1597C100.695 54.6637 100.443 54.8177 100.079 54.8177H99.9385C99.5605 54.8177 99.3085 54.6637 99.3085 54.1597V50.7997C99.3085 49.6657 98.8185 49.0777 97.8245 49.0777C97.1105 49.0777 96.4665 49.5257 96.1165 50.1977V54.1597C96.1165 54.6637 95.8645 54.8177 95.5005 54.8177H95.3605C94.9965 54.8177 94.7305 54.6637 94.7305 54.1597V50.8557C94.7305 49.6657 94.2405 49.0777 93.2465 49.0777C92.5465 49.0777 91.8885 49.5257 91.5525 50.1977V54.1597C91.5525 54.6637 91.2865 54.8177 90.9365 54.8177H90.7825C90.4185 54.8177 90.1665 54.6637 90.1665 54.1597V48.1117C90.1665 48.0697 90.3905 47.9577 90.6705 47.9577C91.0625 47.9577 91.4825 48.1257 91.5385 48.9937C92.0005 48.3357 92.7005 47.8597 93.6245 47.8597C94.7165 47.8597 95.4725 48.3777 95.8225 49.2737C96.2845 48.4897 97.0405 47.8597 98.1605 47.8597ZM101.942 52.9977C101.942 51.4437 103.426 50.7717 106.464 50.7157H106.646V50.5757C106.646 49.5537 106.058 48.9937 104.98 48.9937C103.958 48.9937 103.356 49.5257 103.048 50.1417C103.048 50.1557 102.194 50.1417 102.194 49.4697C102.194 49.2177 102.348 48.9097 102.656 48.6297C103.118 48.2097 103.93 47.8597 105.078 47.8597C106.982 47.8597 108.018 48.8397 108.018 50.5477V54.6777C108.018 54.7477 107.766 54.8317 107.514 54.8317C107.136 54.8317 106.828 54.6637 106.716 54.2157C106.688 54.0897 106.66 53.9357 106.66 53.7537C106.142 54.4817 105.26 54.9157 104.238 54.9157C102.796 54.9157 101.942 54.1457 101.942 52.9977ZM106.646 52.1017V51.5837L106.268 51.5977C104.308 51.6677 103.3 52.0317 103.3 52.9417C103.3 53.5437 103.776 53.9217 104.574 53.9217C105.778 53.9217 106.646 53.1657 106.646 52.1017ZM113.401 47.8597C115.207 47.8597 116.551 49.2457 116.551 51.3877C116.551 53.5017 115.221 54.9437 113.359 54.9437C112.239 54.9437 111.427 54.3557 111.049 53.6837V56.8477C111.049 57.3517 110.783 57.5057 110.433 57.5057H110.279C109.915 57.5057 109.663 57.3517 109.663 56.8477V48.1117C109.663 48.0697 109.887 47.9577 110.167 47.9577C110.503 47.9577 110.881 48.1117 110.993 48.7277C111.007 48.7977 111.035 48.9797 111.035 49.1197C111.553 48.3357 112.323 47.8597 113.401 47.8597ZM113.107 53.7957C114.367 53.7957 115.207 52.8297 115.207 51.4017C115.207 50.0017 114.339 49.0077 113.135 49.0077C112.099 49.0077 111.385 49.5537 111.035 50.4077V51.8217C111.035 52.9557 111.987 53.7957 113.107 53.7957ZM127.777 49.9877C128.295 49.9877 128.547 50.3097 128.547 50.8137V54.6777C128.547 54.7197 128.337 54.8177 128.071 54.8177C127.651 54.8177 127.287 54.6077 127.287 53.6557V53.4877C126.727 54.3837 125.677 54.9297 124.277 54.9297C121.659 54.9297 119.993 52.9557 119.993 50.2537C119.993 47.4817 121.897 45.5217 124.641 45.5217C125.747 45.5217 126.601 45.8157 127.175 46.1937C127.763 46.5717 128.071 47.0477 128.071 47.3977C128.071 48.0557 127.329 48.1957 127.287 48.1397C126.727 47.2437 125.677 46.7677 124.669 46.7677C122.793 46.7677 121.477 48.1957 121.477 50.2677C121.477 52.2977 122.639 53.7677 124.557 53.7677C126.027 53.7677 127.091 52.9417 127.273 51.7377V51.1637H125.145C124.655 51.1637 124.417 51.0097 124.417 50.6177V50.5477C124.417 50.1417 124.655 49.9877 125.145 49.9877H127.777ZM129.806 52.9977C129.806 51.4437 131.29 50.7717 134.328 50.7157H134.51V50.5757C134.51 49.5537 133.922 48.9937 132.844 48.9937C131.822 48.9937 131.22 49.5257 130.912 50.1417C130.912 50.1557 130.058 50.1417 130.058 49.4697C130.058 49.2177 130.212 48.9097 130.52 48.6297C130.982 48.2097 131.794 47.8597 132.942 47.8597C134.846 47.8597 135.882 48.8397 135.882 50.5477V54.6777C135.882 54.7477 135.63 54.8317 135.378 54.8317C135 54.8317 134.692 54.6637 134.58 54.2157C134.552 54.0897 134.524 53.9357 134.524 53.7537C134.006 54.4817 133.124 54.9157 132.102 54.9157C130.66 54.9157 129.806 54.1457 129.806 52.9977ZM134.51 52.1017V51.5837L134.132 51.5977C132.172 51.6677 131.164 52.0317 131.164 52.9417C131.164 53.5437 131.64 53.9217 132.438 53.9217C133.642 53.9217 134.51 53.1657 134.51 52.1017ZM138.212 54.8177C137.848 54.8177 137.582 54.6637 137.582 54.1597V45.2977C137.582 45.2557 137.82 45.1437 138.086 45.1437C138.52 45.1437 138.968 45.3677 138.968 46.3337V54.1597C138.968 54.6637 138.716 54.8177 138.352 54.8177H138.212ZM141.438 54.8177C141.074 54.8177 140.808 54.6637 140.808 54.1597V45.2977C140.808 45.2557 141.046 45.1437 141.312 45.1437C141.746 45.1437 142.194 45.3677 142.194 46.3337V54.1597C142.194 54.6637 141.942 54.8177 141.578 54.8177H141.438ZM143.573 51.4297C143.573 49.3857 145.029 47.8597 147.017 47.8597C148.963 47.8597 150.251 49.2317 150.251 51.2477V51.3597C150.251 51.6537 150.153 51.7657 149.831 51.7657H144.861C144.861 51.8497 144.875 51.9337 144.889 52.0177C145.085 53.1237 145.967 53.8517 147.157 53.8517C148.333 53.8517 148.921 53.3337 149.271 52.7317C149.299 52.7037 149.999 52.8297 149.999 53.4177C149.999 53.7117 149.747 54.0897 149.257 54.3977C148.767 54.7057 148.053 54.9437 147.129 54.9437C145.001 54.9437 143.573 53.5297 143.573 51.4297ZM148.907 50.8277C148.837 49.6657 148.123 48.9097 147.003 48.9097C145.897 48.9097 145.043 49.7077 144.875 50.8277H148.907ZM154.62 47.8597C155.32 47.8597 155.726 48.1957 155.726 48.7557C155.726 49.2877 155.334 49.4977 155.306 49.4697C155.096 49.3017 154.83 49.1757 154.452 49.1757C153.36 49.1757 152.926 50.2397 152.926 51.7937V54.1597C152.926 54.6637 152.66 54.8177 152.31 54.8177H152.156C151.792 54.8177 151.54 54.6637 151.54 54.1597V48.1117C151.54 48.0697 151.764 47.9577 152.044 47.9577C152.366 47.9577 152.716 48.0977 152.856 48.6297C152.884 48.7697 152.912 48.9377 152.912 49.1337C153.206 48.3077 153.766 47.8597 154.62 47.8597ZM158.681 57.4917C158.289 57.4917 157.925 57.1837 157.953 57.1137L159.073 54.3837C158.765 54.3557 158.597 54.2717 158.485 53.9917L156.077 48.3637C156.049 48.2797 156.357 47.9577 156.805 47.9577C157.197 47.9577 157.463 48.1397 157.687 48.7417L159.507 53.3897L161.117 48.7697C161.313 48.1537 161.621 47.9577 161.985 47.9577C162.363 47.9577 162.741 48.2657 162.713 48.3357L159.535 56.7217C159.311 57.3237 159.003 57.4917 158.681 57.4917Z" fill="#212121"/>
</g>
<g filter="url(#filter1_bd_2488_39985)">
<path d="M111.166 73.3965L102.729 64.96H119.603L111.166 73.3965Z" fill="url(#paint1_linear_2488_39985)" fill-opacity="0.6" shape-rendering="crispEdges"/>
</g>
<g filter="url(#filter2_bd_2488_39985)">
<path fill-rule="evenodd" clip-rule="evenodd" d="M102.576 64.9601L119.973 64.96L111.156 73.6864L102.576 64.9601ZM104.408 64.96L111.156 71.7066L117.902 64.96H104.408Z" fill="white" fill-opacity="0.7" shape-rendering="crispEdges"/>
</g>
<defs>
<filter id="filter0_bd_2488_39985" x="0.232422" y="0.106445" width="210.086" height="113.31" filterUnits="userSpaceOnUse" color-interpolation-filters="sRGB">
<feFlood flood-opacity="0" result="BackgroundImageFix"/>
<feGaussianBlur in="BackgroundImageFix" stdDeviation="12"/>
<feComposite in2="SourceAlpha" operator="in" result="effect1_backgroundBlur_2488_39985"/>
<feColorMatrix in="SourceAlpha" type="matrix" values="0 0 0 0 0 0 0 0 0 0 0 0 0 0 0 0 0 0 127 0" result="hardAlpha"/>
<feOffset dx="-6" dy="7"/>
<feGaussianBlur stdDeviation="20"/>
<feComposite in2="hardAlpha" operator="out"/>
<feColorMatrix type="matrix" values="0 0 0 0 0 0 0 0 0 0 0 0 0 0 0 0 0 0 0.3 0"/>
<feBlend mode="normal" in2="effect1_backgroundBlur_2488_39985" result="effect2_dropShadow_2488_39985"/>
<feBlend mode="normal" in="SourceGraphic" in2="effect2_dropShadow_2488_39985" result="shape"/>
</filter>
<filter id="filter1_bd_2488_39985" x="56.7285" y="31.96" width="96.873" height="88.4365" filterUnits="userSpaceOnUse" color-interpolation-filters="sRGB">
<feFlood flood-opacity="0" result="BackgroundImageFix"/>
<feGaussianBlur in="BackgroundImageFix" stdDeviation="12"/>
<feComposite in2="SourceAlpha" operator="in" result="effect1_backgroundBlur_2488_39985"/>
<feColorMatrix in="SourceAlpha" type="matrix" values="0 0 0 0 0 0 0 0 0 0 0 0 0 0 0 0 0 0 127 0" result="hardAlpha"/>
<feOffset dx="-6" dy="7"/>
<feGaussianBlur stdDeviation="20"/>
<feComposite in2="hardAlpha" operator="out"/>
<feColorMatrix type="matrix" values="0 0 0 0 0 0 0 0 0 0 0 0 0 0 0 0 0 0 0.3 0"/>
<feBlend mode="normal" in2="effect1_backgroundBlur_2488_39985" result="effect2_dropShadow_2488_39985"/>
<feBlend mode="normal" in="SourceGraphic" in2="effect2_dropShadow_2488_39985" result="shape"/>
</filter>
<filter id="filter2_bd_2488_39985" x="56.5762" y="31.96" width="97.3965" height="88.7266" filterUnits="userSpaceOnUse" color-interpolation-filters="sRGB">
<feFlood flood-opacity="0" result="BackgroundImageFix"/>
<feGaussianBlur in="BackgroundImageFix" stdDeviation="12"/>
<feComposite in2="SourceAlpha" operator="in" result="effect1_backgroundBlur_2488_39985"/>
<feColorMatrix in="SourceAlpha" type="matrix" values="0 0 0 0 0 0 0 0 0 0 0 0 0 0 0 0 0 0 127 0" result="hardAlpha"/>
<feOffset dx="-6" dy="7"/>
<feGaussianBlur stdDeviation="20"/>
<feComposite in2="hardAlpha" operator="out"/>
<feColorMatrix type="matrix" values="0 0 0 0 0 0 0 0 0 0 0 0 0 0 0 0 0 0 0.3 0"/>
<feBlend mode="normal" in2="effect1_backgroundBlur_2488_39985" result="effect2_dropShadow_2488_39985"/>
<feBlend mode="normal" in="SourceGraphic" in2="effect2_dropShadow_2488_39985" result="shape"/>
</filter>
<linearGradient id="paint0_linear_2488_39985" x1="111.275" y1="33.8066" x2="111.275" y2="65.7158" gradientUnits="userSpaceOnUse">
<stop stop-color="white"/>
<stop offset="1" stop-color="white"/>
</linearGradient>
<linearGradient id="paint1_linear_2488_39985" x1="111.166" y1="64.96" x2="111.166" y2="73.3965" gradientUnits="userSpaceOnUse">
<stop stop-color="white"/>
<stop offset="1" stop-color="white"/>
</linearGradient>
</defs>
</svg>
