<svg width="24" height="24" viewBox="0 0 24 24" fill="none" xmlns="http://www.w3.org/2000/svg">
<path d="M3.55469 12.2737C3.55469 11.5492 3.64662 10.8462 3.81947 10.1757C4.73316 10.2231 5.64013 9.76827 6.12898 8.92157C6.61745 8.07551 6.55827 7.06354 6.06144 6.29615C7.06066 5.3142 8.30497 4.58086 9.69419 4.19629C10.11 5.0113 10.9573 5.56941 11.9351 5.56941C12.9128 5.56941 13.7602 5.0113 14.176 4.19629C15.5652 4.58086 16.8095 5.3142 17.8087 6.29615C17.3119 7.06354 17.2527 8.07551 17.7412 8.92157C18.23 9.76827 19.137 10.2231 20.0508 10.1757C20.2236 10.8462 20.3155 11.5492 20.3155 12.2737C20.3155 12.9982 20.2236 13.7012 20.0508 14.3717C19.137 14.3244 18.23 14.7792 17.7412 15.6259C17.2527 16.472 17.3119 17.4839 17.8087 18.2513C16.8095 19.2332 15.5652 19.9666 14.176 20.3512C13.7602 19.5362 12.9128 18.978 11.9351 18.978C10.9573 18.978 10.11 19.5362 9.69419 20.3512C8.30497 19.9666 7.06066 19.2332 6.06144 18.2513C6.55827 17.4839 6.61745 16.472 6.12898 15.6259C5.64013 14.7792 4.73316 14.3244 3.81947 14.3717C3.64662 13.7012 3.55469 12.9982 3.55469 12.2737ZM7.58051 14.7878C8.10856 15.7025 8.25993 16.754 8.05344 17.7409C8.39518 17.9841 8.75896 18.1948 9.14013 18.3699C9.89175 17.697 10.8785 17.302 11.9351 17.302C12.9917 17.302 13.9784 17.697 14.73 18.3699C15.1112 18.1948 15.475 17.9841 15.8167 17.7409C15.6102 16.754 15.7616 15.7025 16.2897 14.7878C16.8177 13.8733 17.6526 13.2165 18.6105 12.9018C18.6297 12.6942 18.6394 12.4847 18.6394 12.2737C18.6394 12.0628 18.6297 11.8533 18.6105 11.6457C17.6526 11.331 16.8177 10.6742 16.2897 9.75961C15.7616 8.845 15.6102 7.79353 15.8167 6.80655C15.475 6.56337 15.1112 6.35268 14.73 6.17758C13.9784 6.85045 12.9917 7.24549 11.9351 7.24549C10.8785 7.24549 9.89175 6.85045 9.14013 6.17758C8.75896 6.35268 8.39518 6.56337 8.05344 6.80655C8.25993 7.79353 8.10856 8.845 7.58051 9.75961C7.05247 10.6742 6.21759 11.331 5.25969 11.6457C5.24046 11.8533 5.23077 12.0628 5.23077 12.2737C5.23077 12.4847 5.24046 12.6942 5.25969 12.9018C6.21759 13.2165 7.05247 13.8733 7.58051 14.7878ZM11.9351 14.7878C10.5465 14.7878 9.42097 13.6623 9.42097 12.2737C9.42097 10.8852 10.5465 9.75961 11.9351 9.75961C13.3236 9.75961 14.4492 10.8852 14.4492 12.2737C14.4492 13.6623 13.3236 14.7878 11.9351 14.7878ZM11.9351 13.1118C12.3979 13.1118 12.7731 12.7366 12.7731 12.2737C12.7731 11.8109 12.3979 11.4357 11.9351 11.4357C11.4722 11.4357 11.097 11.8109 11.097 12.2737C11.097 12.7366 11.4722 13.1118 11.9351 13.1118Z" fill="white"/>
</svg>
