<svg width="18" height="17" viewBox="0 0 18 17" fill="none" xmlns="http://www.w3.org/2000/svg">
<path d="M0.554688 8.27371C0.554688 7.54923 0.64662 6.8462 0.819466 6.17569C1.73316 6.22305 2.64013 5.76827 3.12898 4.92157C3.61745 4.07551 3.55827 3.06354 3.06144 2.29615C4.06066 1.3142 5.30497 0.580857 6.69419 0.196289C7.11 1.0113 7.95735 1.56941 8.93509 1.56941C9.91283 1.56941 10.7602 1.0113 11.176 0.196289C12.5652 0.580857 13.8095 1.3142 14.8087 2.29615C14.3119 3.06354 14.2527 4.07551 14.7412 4.92157C15.23 5.76827 16.137 6.22305 17.0508 6.17569C17.2236 6.8462 17.3155 7.54923 17.3155 8.27371C17.3155 8.9982 17.2236 9.70123 17.0508 10.3717C16.137 10.3244 15.23 10.7792 14.7412 11.6259C14.2527 12.472 14.3119 13.4839 14.8087 14.2513C13.8095 15.2332 12.5652 15.9666 11.176 16.3512C10.7602 15.5362 9.91283 14.978 8.93509 14.978C7.95735 14.978 7.11 15.5362 6.69419 16.3512C5.30497 15.9666 4.06066 15.2332 3.06144 14.2513C3.55827 13.4839 3.61745 12.472 3.12898 11.6259C2.64013 10.7792 1.73316 10.3244 0.819466 10.3717C0.64662 9.70123 0.554688 8.9982 0.554688 8.27371ZM4.58051 10.7878C5.10856 11.7025 5.25993 12.754 5.05344 13.7409C5.39518 13.9841 5.75896 14.1948 6.14013 14.3699C6.89175 13.697 7.87849 13.302 8.93509 13.302C9.99169 13.302 10.9784 13.697 11.73 14.3699C12.1112 14.1948 12.475 13.9841 12.8167 13.7409C12.6102 12.754 12.7616 11.7025 13.2897 10.7878C13.8177 9.87328 14.6526 9.21651 15.6105 8.90182C15.6297 8.69416 15.6394 8.48473 15.6394 8.27371C15.6394 8.06278 15.6297 7.85327 15.6105 7.64569C14.6526 7.331 13.8177 6.67423 13.2897 5.75961C12.7616 4.845 12.6102 3.79353 12.8167 2.80655C12.475 2.56337 12.1112 2.35268 11.73 2.17758C10.9784 2.85045 9.99169 3.24549 8.93509 3.24549C7.87849 3.24549 6.89175 2.85045 6.14013 2.17758C5.75896 2.35268 5.39518 2.56337 5.05344 2.80655C5.25993 3.79353 5.10856 4.845 4.58051 5.75961C4.05247 6.67423 3.21759 7.331 2.25969 7.64569C2.24046 7.85327 2.23077 8.06278 2.23077 8.27371C2.23077 8.48473 2.24046 8.69416 2.25969 8.90182C3.21759 9.21651 4.05247 9.87328 4.58051 10.7878ZM8.93509 10.7878C7.54654 10.7878 6.42097 9.66226 6.42097 8.27371C6.42097 6.88525 7.54654 5.75961 8.93509 5.75961C10.3236 5.75961 11.4492 6.88525 11.4492 8.27371C11.4492 9.66226 10.3236 10.7878 8.93509 10.7878ZM8.93509 9.11175C9.39794 9.11175 9.77313 8.73656 9.77313 8.27371C9.77313 7.81086 9.39794 7.43567 8.93509 7.43567C8.47224 7.43567 8.09705 7.81086 8.09705 8.27371C8.09705 8.73656 8.47224 9.11175 8.93509 9.11175Z" fill="white"/>
</svg>
