<svg width="36" height="35" viewBox="0 0 36 35" fill="none" xmlns="http://www.w3.org/2000/svg">
<circle cx="17.977" cy="17.3208" r="16.1408" stroke="#EED500" stroke-width="1.89892"/>
<path d="M24.6809 24.5581C25.2708 24.5581 25.749 24.0798 25.749 23.49C25.749 22.9 25.2708 22.4218 24.6808 22.4218H11.2713C10.6813 22.4218 10.2031 22.9001 10.2031 23.49C10.2031 24.0798 10.6813 24.5581 11.2713 24.5581H24.6809Z" fill="#EED500"/>
<path d="M12.6402 13.9977C13.82 13.9977 14.7765 13.0412 14.7765 11.8614C14.7765 10.6815 13.82 9.7251 12.6402 9.7251C11.4604 9.7251 10.5039 10.6815 10.5039 11.8614C10.5039 13.0412 11.4604 13.9977 12.6402 13.9977Z" fill="#EED500"/>
<path d="M23.316 13.9977C24.4958 13.9977 25.4523 13.0412 25.4523 11.8614C25.4523 10.6815 24.4958 9.7251 23.316 9.7251C22.1361 9.7251 21.1797 10.6815 21.1797 11.8614C21.1797 13.0412 22.1361 13.9977 23.316 13.9977Z" fill="#EED500"/>
</svg>
