<svg width="24" height="24" viewBox="0 0 24 24" fill="none" xmlns="http://www.w3.org/2000/svg">
<path d="M19.9217 4.07668C19.525 3.6774 19.053 3.36077 18.533 3.14511C18.0131 2.92946 17.4556 2.81907 16.8927 2.82032H7.1057C6.54273 2.81957 5.98513 2.9299 5.46486 3.14499C4.9446 3.36008 4.47188 3.67571 4.07379 4.0738C3.67571 4.47189 3.36008 4.9446 3.14498 5.46487C2.92989 5.98514 2.81956 6.54273 2.82032 7.10571V19.3423C2.82032 19.7276 2.94155 20.1031 3.16683 20.4157C3.39212 20.7283 3.71004 20.962 4.07557 21.0839C4.44109 21.2057 4.83569 21.2095 5.20346 21.0946C5.57123 20.9797 5.89353 20.752 6.12471 20.4438L6.83607 19.457C7.00768 19.2297 7.22954 19.0451 7.48431 18.9177C7.73908 18.7904 8.01986 18.7236 8.30469 18.7227H16.8927C18.0268 18.7212 19.1142 18.2708 19.9172 17.47C20.7202 16.6691 21.1735 15.5829 21.1781 14.4488V7.10571C21.1793 6.54283 21.0689 5.98529 20.8533 5.46536C20.6376 4.94543 20.321 4.47343 19.9217 4.07668ZM19.9504 14.4488C19.9489 15.2593 19.6262 16.0362 19.0531 16.6093C18.48 17.1824 17.7032 17.505 16.8927 17.5065H8.32764C7.8527 17.5072 7.38436 17.6179 6.95936 17.8299C6.53435 18.0419 6.16424 18.3494 5.87803 18.7285L5.14372 19.7095C5.06606 19.811 4.95861 19.8858 4.83639 19.9234C4.71416 19.961 4.58326 19.9594 4.46195 19.919C4.34065 19.8785 4.235 19.8012 4.15975 19.6978C4.08451 19.5945 4.04343 19.4702 4.04225 19.3423V7.10571C4.0415 6.7032 4.12022 6.3045 4.27391 5.93249C4.42759 5.56047 4.65321 5.22246 4.93783 4.93784C5.22245 4.65322 5.56046 4.4276 5.93248 4.27391C6.30449 4.12023 6.70319 4.04151 7.1057 4.04226H16.8927C17.7036 4.04226 18.4814 4.36441 19.0548 4.93784C19.6282 5.51128 19.9504 6.28902 19.9504 7.09997V14.4488Z" fill="white"/>
<path d="M7.10547 14.4469C7.10547 14.1095 7.37901 13.8359 7.71644 13.8359H11.388C11.7254 13.8359 11.999 14.1095 11.999 14.4469V14.4469C11.999 14.7843 11.7254 15.0579 11.388 15.0579H7.71644C7.37901 15.0579 7.10547 14.7843 7.10547 14.4469V14.4469Z" fill="white"/>
<path d="M7.10547 8.80628C7.10547 8.46885 7.37901 8.19531 7.71644 8.19531H16.8953C17.2327 8.19531 17.5063 8.46885 17.5063 8.80628V8.80628C17.5063 9.14371 17.2327 9.41725 16.8953 9.41725H7.71644C7.37901 9.41725 7.10547 9.14371 7.10547 8.80628V8.80628Z" fill="white"/>
<path d="M7.10547 11.3864C7.10547 11.0489 7.37901 10.7754 7.71644 10.7754H16.8953C17.2327 10.7754 17.5063 11.0489 17.5063 11.3864V11.3864C17.5063 11.7238 17.2327 11.9973 16.8953 11.9973H7.71644C7.37901 11.9973 7.10547 11.7238 7.10547 11.3864V11.3864Z" fill="white"/>
</svg>
