<svg width="193" height="53" viewBox="0 0 193 53" fill="none" xmlns="http://www.w3.org/2000/svg">
<g clip-path="url(#clip0_502_114661)">
<g clip-path="url(#clip1_502_114661)">
<g clip-path="url(#clip2_502_114661)">
<g clip-path="url(#clip3_502_114661)">
<g clip-path="url(#clip4_502_114661)">
<g clip-path="url(#clip5_502_114661)">
<path d="M33.8348 27.5856C33.9624 27.795 34.0896 28.0106 34.2162 28.2325L34.257 28.2089C34.1252 27.9719 33.9902 27.7379 33.8536 27.5228C34.0404 26.885 34.1402 26.2248 34.1503 25.5603H34.1016C34.0919 26.2074 33.9969 26.8503 33.8191 27.4726C33.3194 26.6523 32.7412 25.8825 32.0926 25.174C32.2564 24.563 32.3408 23.9335 32.3438 23.301C32.342 22.8331 32.2936 22.3666 32.1994 21.9083C32.6581 22.1865 33.08 22.5215 33.455 22.9053L33.4911 22.8692C33.1024 22.4712 32.664 22.125 32.1868 21.8392C31.9601 20.7638 31.5343 19.7403 30.9312 18.8216L30.892 18.8483C31.4849 19.75 31.9068 20.7533 32.1366 21.8078C31.3376 21.352 30.4603 21.0501 29.55 20.9176C29.3629 20.1454 29.0293 19.4163 28.5675 18.7698C29.3239 18.6499 30.0952 18.6605 30.848 18.8012L30.8574 18.7509C30.0903 18.6096 29.3047 18.6005 28.5346 18.7243C28.0535 18.0582 27.459 17.4821 26.7783 17.0223C27.121 16.8307 27.479 16.6679 27.8487 16.5356L27.833 16.4869C27.4532 16.6229 27.0856 16.7909 26.7343 16.9894C25.9633 16.476 25.1072 16.1038 24.2059 15.8903C24.3079 15.7333 24.413 15.5763 24.5198 15.4193L24.4805 15.3895C24.3628 15.5465 24.253 15.7035 24.1494 15.873C23.539 15.7312 22.9145 15.6596 22.2879 15.6595H22.2346C21.8273 15.6616 21.4207 15.6941 21.0182 15.7569C20.9491 15.5999 20.8785 15.4429 20.8016 15.3047L20.7577 15.3267C20.833 15.468 20.9005 15.6156 20.9664 15.7647C20.0557 15.909 19.1772 16.2113 18.3704 16.6581C18.1069 16.4879 17.8297 16.3398 17.5417 16.2153L17.5229 16.2608C17.7998 16.3808 18.0664 16.5231 18.3202 16.6863C17.5324 17.1289 16.8341 17.7146 16.261 18.4134C15.6792 18.2798 15.0844 18.2113 14.4875 18.2093V18.258C15.0716 18.26 15.6537 18.3264 16.2234 18.4558C15.729 19.0707 15.3538 19.7725 15.1169 20.5251C14.2698 20.6251 13.4427 20.8527 12.6637 21.2002C12.8171 20.5966 13.0273 20.0089 13.2915 19.4449L13.2036 19.5627C12.9495 20.0948 12.7517 20.6521 12.6135 21.2254C12.3326 21.3557 12.05 21.5001 11.766 21.6665L11.7911 21.7105C12.0526 21.5565 12.3218 21.416 12.5978 21.2897C12.4322 21.9455 12.3431 22.6183 12.3326 23.2947C12.3323 23.8022 12.3849 24.3084 12.4895 24.8051C11.8548 25.3784 11.2933 26.0281 10.818 26.7394C10.7263 26.2835 10.68 25.8196 10.6799 25.3546H10.6312C10.6345 25.8396 10.6871 26.3231 10.7882 26.7975C10.6783 26.9545 10.57 27.1303 10.4648 27.3062L10.5072 27.3329C10.6045 27.1758 10.7034 27.0188 10.8039 26.8618C11.0354 27.926 11.4749 28.934 12.0971 29.8277C11.8383 30.3869 11.6201 30.9641 11.4442 31.5547C11.1585 31.0596 10.939 30.5291 10.7913 29.9768L10.7426 29.9894C10.8957 30.561 11.1253 31.1092 11.4254 31.6191C11.405 31.6882 11.383 31.7541 11.3642 31.8232L11.4113 31.8373C11.4254 31.7839 11.4442 31.7321 11.4599 31.6803C12.1711 32.8385 13.1027 33.8456 14.2018 34.6446C14.1595 35.0512 14.1265 35.4657 14.1077 35.8834H14.1579C14.1746 35.4762 14.2055 35.0737 14.2505 34.676C15.1656 35.3528 16.1583 35.9178 17.2074 36.3591C17.2074 36.9463 17.2404 37.5539 17.2843 38.1913H17.3346C17.2891 37.5633 17.2655 36.962 17.2592 36.3858C18.3081 36.8261 19.4047 37.1422 20.5269 37.3278C20.5411 37.9276 20.5599 38.5336 20.5897 39.1475H20.6384C20.6101 38.5383 20.5913 37.9385 20.5772 37.3404C21.2358 37.4457 21.9019 37.4982 22.5689 37.4974C22.9456 37.4974 23.3191 37.4785 23.6911 37.4487C23.7005 38.0516 23.7068 38.6545 23.713 39.2605H23.7617C23.7617 38.6545 23.7476 38.05 23.7397 37.4456C24.7919 37.3524 25.8299 37.1385 26.8332 36.8081C26.8128 37.3733 26.7767 37.9558 26.7234 38.5619H26.772C26.8269 37.9511 26.863 37.3592 26.885 36.7861C27.9282 36.4363 28.9241 35.9585 29.8498 35.3637C29.8592 35.7609 29.8592 36.1691 29.8498 36.5899H29.9C29.9142 36.1565 29.9142 35.7358 29.9 35.326C30.9977 34.6175 31.9554 33.7127 32.7252 32.6569C32.7371 32.8047 32.7413 32.953 32.7377 33.1012H32.7864C32.7904 32.932 32.7852 32.7627 32.7707 32.5941C33.2474 31.9221 33.618 31.1807 33.8693 30.396L33.8207 30.3803C33.5787 31.1421 33.2214 31.8622 32.7613 32.5156C32.6834 31.8305 32.5063 31.1604 32.2355 30.5263C32.9554 29.66 33.4988 28.6609 33.8348 27.5856ZM33.8003 27.5291C33.4741 28.6079 32.938 29.6115 32.2229 30.4824C31.8353 29.5724 31.3462 28.7092 30.7648 27.9091C31.3708 27.1066 31.8182 26.1959 32.0832 25.2258C32.728 25.9368 33.303 26.7081 33.8003 27.5291ZM20.742 21.6414C20.7421 21.7825 20.7676 21.9223 20.8173 22.0543C19.8753 22.4347 18.9652 22.8899 18.0958 23.4156C17.9242 23.0457 17.8149 22.6499 17.7725 22.2443C18.7236 22.0025 19.7171 21.8204 20.742 21.6414ZM20.8 21.5833C20.8066 21.4491 20.8358 21.3169 20.8864 21.1924L20.8958 21.1437C20.9563 21.0122 21.0392 20.8922 21.1406 20.7889C21.3851 20.5447 21.7058 20.3917 22.0494 20.3555H22.0729C22.125 20.3492 22.1774 20.3461 22.2299 20.3461C22.3257 20.3462 22.4213 20.3552 22.5155 20.3728C22.5155 20.3728 22.5155 20.3728 22.5155 20.3822L22.5642 20.3917C22.902 20.4587 23.2051 20.6434 23.4195 20.9129L23.4478 20.9537C23.5934 21.1542 23.6724 21.3952 23.6738 21.643C23.6762 21.6791 23.6762 21.7152 23.6738 21.7513H23.6126V21.8031H23.6707C23.6303 22.0822 23.495 22.3389 23.2877 22.5301L23.261 22.5065L23.2281 22.5426L23.25 22.563C22.9664 22.8008 22.6061 22.9274 22.2361 22.9194C22.1764 22.9195 22.1167 22.9163 22.0572 22.91C22.0613 22.8961 22.0644 22.8819 22.0666 22.8676L22.0195 22.8566C22.0195 22.8723 22.0196 22.8865 22.0086 22.9037C21.704 22.8617 21.4194 22.7281 21.1924 22.5206L21.1626 22.4814C21.1566 22.4838 21.1512 22.4875 21.1469 22.4924C21.0311 22.3753 20.9384 22.2373 20.8738 22.0857H20.8848L20.8675 22.0402H20.8565C20.808 21.9112 20.783 21.7745 20.7828 21.6367H20.8V21.5833ZM21.4278 22.786C20.9005 23.6841 20.4218 24.5319 19.9917 25.3546C19.5942 25.1483 19.2297 24.8837 18.9104 24.5696C19.6052 23.8434 20.3528 23.1696 21.1469 22.5536C21.3818 22.7695 21.6769 22.9086 21.9929 22.9524C21.7653 23.9117 21.5628 24.8679 21.387 25.8287C20.9163 25.7455 20.4604 25.5931 20.0341 25.3766C20.4642 24.5554 20.9429 23.706 21.4687 22.8095L21.4278 22.786ZM24.3613 25.4441C23.9232 25.6491 23.4573 25.7883 22.9785 25.857C22.8404 24.8919 22.6756 23.9279 22.4841 22.965L22.4355 22.9744C22.6285 23.9353 22.7902 24.8993 22.9283 25.8617C22.7082 25.8907 22.4864 25.9054 22.2644 25.9057C21.9872 25.9059 21.7105 25.8828 21.4373 25.8366C21.6099 24.8773 21.8139 23.9211 22.0415 22.9618C22.1046 22.9687 22.168 22.9724 22.2314 22.9728C22.617 22.9759 22.9904 22.838 23.2814 22.585C24.0555 23.247 24.7917 23.952 25.4866 24.6967C25.1632 24.989 24.7996 25.2333 24.4068 25.4221C23.9657 24.5539 23.4776 23.695 22.9456 22.8142L22.9048 22.8409C23.44 23.7155 23.9265 24.5774 24.366 25.4441H24.3613ZM21.3792 25.879C21.205 26.8477 21.0543 27.8164 20.9335 28.7961C20.1792 28.6738 19.4466 28.4432 18.7581 28.1116C19.1144 27.2292 19.5335 26.3421 20.0137 25.4221C20.4453 25.6401 20.9063 25.7941 21.3823 25.879H21.3792ZM21.4294 25.8868C21.706 25.9323 21.9857 25.9554 22.266 25.9559C22.4906 25.9564 22.715 25.9417 22.9377 25.912C23.0758 26.8854 23.1873 27.8604 23.2799 28.8401C22.9576 28.8806 22.6332 28.9021 22.3083 28.9045H22.255C21.8293 28.9039 21.4042 28.8703 20.9837 28.804C21.1061 27.8264 21.2557 26.854 21.4326 25.8868H21.4294ZM22.9864 25.9041C23.4706 25.8358 23.9419 25.6956 24.3848 25.488C24.8316 26.37 25.2262 27.2775 25.5666 28.2058C24.8552 28.5233 24.1012 28.7348 23.3285 28.8338C23.2396 27.8562 23.1266 26.8791 22.9895 25.9025L22.9864 25.9041ZM24.4287 25.4676C24.8282 25.2765 25.1982 25.0291 25.5274 24.7328C26.2023 25.4625 26.816 26.2465 27.3622 27.0769C26.8351 27.5255 26.2482 27.8985 25.6184 28.1854C25.2774 27.2566 24.8812 26.3491 24.4319 25.4676H24.4287ZM25.5556 24.6983C25.8681 24.4076 26.1329 24.0696 26.3404 23.6966C27.1673 24.2575 27.9449 24.8878 28.6648 25.5807C28.3404 26.0826 27.9515 26.5397 27.5081 26.9403L27.3857 27.0455C26.843 26.2137 26.2319 25.4285 25.5588 24.6983H25.5556ZM25.5243 24.6622C24.8315 23.9181 24.098 23.2131 23.3269 22.5505C23.4317 22.4512 23.5197 22.3356 23.5875 22.2082C24.5441 22.6007 25.4581 23.0899 26.3153 23.6684C26.1057 24.0384 25.8399 24.3737 25.5274 24.6622H25.5243ZM23.6048 22.1658C23.6602 22.0481 23.6972 21.9226 23.7146 21.7937C24.7418 21.8262 25.7637 21.9539 26.7673 22.1752C26.7251 22.6839 26.577 23.178 26.3326 23.626C25.4769 23.0469 24.5639 22.5576 23.6079 22.1658H23.6048ZM20.833 22.1014C20.8981 22.2575 20.993 22.3993 21.1124 22.5191C20.3198 23.1363 19.5729 23.8101 18.8774 24.535C18.5655 24.2221 18.3082 23.8591 18.1162 23.4611C18.9845 22.9349 19.8942 22.4802 20.8361 22.1014H20.833ZM18.846 24.5727C18.1585 25.2952 17.5327 26.074 16.9752 26.9011C16.4518 26.4221 16.0078 25.863 15.6599 25.2447C16.4134 24.5913 17.2209 24.003 18.0738 23.4862C18.2701 23.8882 18.531 24.2552 18.846 24.5727ZM18.8805 24.6088C19.2033 24.9223 19.5703 25.1868 19.9698 25.3938C19.4989 26.3139 19.072 27.201 18.7142 28.0833C18.0959 27.7794 17.5228 27.391 17.0113 26.9293C17.5676 26.1039 18.1935 25.3275 18.8821 24.6088H18.8805ZM18.6969 28.1351C18.3343 29.0289 18.0348 29.947 17.8007 30.8827C17.006 30.5362 16.2587 30.0899 15.5767 29.5545C15.9706 28.6546 16.4433 27.7914 16.9893 26.9749C17.5022 27.4394 18.0775 27.83 18.6985 28.1351H18.6969ZM18.7409 28.1587C19.4332 28.4923 20.1701 28.7239 20.9287 28.8464C20.811 29.7884 20.72 30.7304 20.6525 31.6976C19.6861 31.5578 18.7425 31.2906 17.8462 30.9031C18.0818 29.9689 18.3812 29.0519 18.7424 28.1587H18.7409ZM20.979 28.8527C21.4016 28.9194 21.8287 28.9535 22.2565 28.9547H22.3099C22.6363 28.9523 22.9623 28.9308 23.2861 28.8903C23.3756 29.8434 23.4431 30.8011 23.4996 31.7588C23.1111 31.7986 22.7208 31.8185 22.3303 31.8185C21.7852 31.8187 21.2408 31.7804 20.7012 31.7039C20.7702 30.743 20.8628 29.7947 20.9805 28.8527H20.979ZM23.3332 28.8841C24.1137 28.7873 24.8758 28.5762 25.5949 28.2576C25.9278 29.1798 26.1958 30.1241 26.3969 31.0837C25.4843 31.4327 24.5296 31.6597 23.5577 31.7588C23.4991 30.7969 23.4258 29.8392 23.3379 28.8856L23.3332 28.8841ZM25.6278 28.2325C26.2619 27.9447 26.8526 27.5695 27.3826 27.1178C27.9307 27.962 28.3924 28.8594 28.7606 29.7963C28.0409 30.3135 27.2575 30.7357 26.4299 31.0523C26.2304 30.0948 25.964 29.1526 25.6326 28.2325H25.6278ZM27.4202 27.0864C27.4626 27.0487 27.505 27.0141 27.5473 26.9749C27.9925 26.5751 28.3825 26.1179 28.7072 25.6152C29.4379 26.3192 30.1044 27.0868 30.6989 27.9091C30.1594 28.6156 29.5208 29.2406 28.803 29.7649C28.4344 28.8281 27.9727 27.9308 27.4249 27.0864H27.4202ZM28.7339 25.5728C29.1852 24.8688 29.487 24.0795 29.6207 23.2539C30.5209 23.7688 31.3366 24.419 32.0393 25.1819C31.7788 26.1531 31.3338 27.0652 30.7287 27.8682C30.1327 27.0458 29.4652 26.2776 28.7339 25.5728ZM28.6978 25.5383C27.9777 24.8449 27.1995 24.2146 26.3718 23.6542C26.6198 23.201 26.7705 22.701 26.8144 22.1862C27.7803 22.4038 28.7107 22.7564 29.5783 23.2334C29.4468 24.0535 29.1488 24.8379 28.7025 25.5383H28.6978ZM26.8144 22.136C26.8144 22.0481 26.8254 21.9601 26.8254 21.8722C26.8253 21.546 26.7815 21.2212 26.6951 20.9066C27.6252 20.8131 28.5631 20.8316 29.4888 20.9616C29.5888 21.3884 29.6414 21.8248 29.6458 22.2632C29.6468 22.5679 29.6247 22.8723 29.5799 23.1738C28.7142 22.7003 27.7865 22.3504 26.8238 22.1344L26.8144 22.136ZM26.7752 21.8722C26.7752 21.957 26.7752 22.0402 26.7657 22.125C25.7625 21.9052 24.7411 21.778 23.7146 21.745C23.7146 21.7074 23.7146 21.6712 23.7146 21.6336C23.7133 21.5635 23.7065 21.4937 23.6942 21.4247C24.6617 21.1811 25.6458 21.0095 26.6386 20.9113C26.7303 21.2236 26.7794 21.5468 26.7846 21.8722H26.7752ZM23.6911 21.3761C23.6543 21.2104 23.5844 21.0539 23.4855 20.9161C24.2558 20.3769 25.0769 19.9141 25.937 19.5344C26.2541 19.9272 26.4908 20.3785 26.6339 20.8627C25.6448 20.9612 24.6643 21.1328 23.7005 21.3761H23.6911ZM23.4556 20.8768C23.3672 20.7611 23.2613 20.6599 23.1417 20.5769C23.6333 19.8488 24.1884 19.1658 24.8007 18.5359C25.218 18.7913 25.5893 19.1151 25.8994 19.4936C25.0445 19.8743 24.2292 20.3381 23.4651 20.8784L23.4556 20.8768ZM23.0994 20.5502C22.9376 20.4462 22.7585 20.3723 22.5704 20.332C22.7239 19.5158 22.9385 18.7123 23.2124 17.9282C23.7567 18.0327 24.279 18.2297 24.7568 18.5107C24.1483 19.1405 23.5968 19.823 23.1088 20.5502H23.0994ZM22.5218 20.3226C22.4244 20.3049 22.3257 20.296 22.2267 20.2959C22.1718 20.2959 22.12 20.2959 22.0698 20.2959C21.9841 19.4784 21.8521 18.6664 21.6743 17.8639C22.1718 17.8035 22.6755 17.8189 23.1684 17.9094C22.8951 18.6964 22.6821 19.5032 22.5312 20.3226H22.5218ZM22.018 20.31C21.8414 20.3337 21.6701 20.3868 21.511 20.467L21.3337 20.1766C20.9615 19.5383 20.5533 18.9219 20.111 18.3302C20.5873 18.1007 21.0978 17.9506 21.6225 17.8859C21.8024 18.6857 21.9376 19.4951 22.0274 20.31H22.018ZM21.2913 20.1938L21.4671 20.4827C21.3426 20.5478 21.2284 20.6309 21.1281 20.7292C20.3636 20.2185 19.5696 19.7535 18.7503 19.3366C19.1236 18.927 19.5702 18.591 20.0671 18.3459C20.5126 18.9383 20.9244 19.5552 21.3007 20.1938H21.2913ZM21.092 20.7638C20.987 20.8723 20.9015 20.9982 20.8393 21.1359L20.246 21.0103C19.5382 20.8532 18.7785 20.6962 17.9796 20.5863C18.1491 20.1416 18.398 19.7315 18.7142 19.3758C19.5369 19.7904 20.334 20.2539 21.1014 20.7638H21.092ZM20.2366 21.0589C20.4359 21.1029 20.629 21.1421 20.8204 21.183C20.7687 21.3131 20.7395 21.4512 20.7341 21.5912C19.7077 21.7654 18.7126 21.9523 17.7521 22.1956C17.7521 22.0889 17.7364 21.9821 17.7364 21.8722C17.7362 21.4496 17.8105 21.0302 17.9561 20.6334C18.7722 20.7418 19.535 20.9051 20.246 21.0589H20.2366ZM17.694 21.8722C17.694 21.9853 17.694 22.0967 17.7097 22.2082C16.7596 22.4427 15.8341 22.7676 14.9458 23.1785C14.9048 22.9061 14.8828 22.6312 14.8799 22.3558C14.8765 21.7527 14.9659 21.1527 15.1451 20.5769C16.0654 20.4783 16.9945 20.4952 17.9106 20.6272C17.7708 21.0272 17.7007 21.4484 17.7034 21.8722H17.694ZM17.7144 22.2584C17.7577 22.6683 17.8696 23.068 18.0456 23.4407C17.1913 23.9581 16.3826 24.5474 15.6285 25.2023C15.2943 24.5896 15.0691 23.9234 14.963 23.2334C15.8501 22.821 16.7745 22.4945 17.7238 22.2584H17.7144ZM15.5893 25.2415C14.8506 25.8867 14.1777 26.6036 13.5803 27.3815C13.0782 26.6028 12.7214 25.7394 12.5272 24.8333C13.2433 24.2008 14.0448 23.6723 14.9081 23.2633C15.0237 23.9553 15.2573 24.6224 15.5987 25.2353L15.5893 25.2415ZM15.6144 25.2855C15.9662 25.9062 16.4137 26.4673 16.9406 26.9482C16.3942 27.7644 15.9214 28.6277 15.5281 29.5278C14.7789 28.9349 14.1302 28.225 13.607 27.4255C14.2066 26.6436 14.8822 25.9231 15.6238 25.2745L15.6144 25.2855ZM15.5092 29.5749C15.1309 30.4611 14.8294 31.3783 14.6083 32.3162C13.6612 31.6252 12.8326 30.7847 12.1552 29.8277C12.5475 28.99 13.0268 28.1959 13.585 27.4585C14.1126 28.2607 14.7655 28.9732 15.5187 29.5686L15.5092 29.5749ZM15.5485 29.6079C16.2366 30.1409 16.9897 30.584 17.7897 30.9267C17.5556 31.8809 17.3935 32.8513 17.3048 33.8297C16.3625 33.4405 15.47 32.9403 14.646 32.3397C14.8718 31.4028 15.1769 30.4868 15.5579 29.6016L15.5485 29.6079ZM17.8258 30.9581C18.7252 31.3461 19.672 31.6133 20.6415 31.7525C20.5725 32.7291 20.529 33.7198 20.5113 34.7247C19.4236 34.5677 18.3594 34.2777 17.3424 33.8611C17.4334 32.8804 17.5982 31.9078 17.8352 30.9518L17.8258 30.9581ZM20.6902 31.7588C21.6198 31.8924 22.5623 31.9109 23.4965 31.8138C23.553 32.8108 23.5922 33.8093 23.622 34.811C23.2296 34.8455 22.8294 34.866 22.4261 34.866C21.8016 34.8654 21.178 34.8203 20.5599 34.7309C20.5882 33.7214 20.629 32.7307 20.6996 31.7525L20.6902 31.7588ZM23.5451 31.8091C24.5183 31.709 25.4743 31.4825 26.3891 31.1355C26.5928 32.1303 26.7266 33.1381 26.7893 34.1516C25.779 34.4895 24.733 34.7097 23.6722 34.8079C23.6518 33.7999 23.611 32.7982 23.5545 31.8028L23.5451 31.8091ZM26.4361 31.1151C27.2669 30.7957 28.0529 30.3704 28.7747 29.8496C29.1497 30.8062 29.4268 31.7983 29.6018 32.8108C28.7404 33.3575 27.8168 33.7992 26.8505 34.1265C26.786 33.1124 26.6507 32.104 26.4456 31.1088L26.4361 31.1151ZM28.8171 29.8214C29.5439 29.2921 30.1895 28.6595 30.7334 27.9436C31.3158 28.7456 31.8035 29.6122 32.1868 30.5263C31.4611 31.4033 30.6033 32.1618 29.6442 32.7746C29.4725 31.763 29.1985 30.7714 28.8265 29.8151L28.8171 29.8214ZM32.1287 21.8801C32.2293 22.3492 32.2818 22.8274 32.2857 23.3072C32.2862 23.9177 32.2102 24.5259 32.0597 25.1175C31.3554 24.3539 30.5362 23.7049 29.6317 23.1942C29.746 22.4526 29.7183 21.696 29.55 20.9647C30.463 21.0989 31.3417 21.4075 32.1382 21.8738L32.1287 21.8801ZM29.4763 20.9145C28.5503 20.7872 27.6126 20.7698 26.6826 20.8627C26.5403 20.3744 26.3035 19.9188 25.9857 19.5218C26.7877 19.1696 27.6317 18.9221 28.4969 18.7855C28.9587 19.4236 29.2943 20.1441 29.4857 20.9082L29.4763 20.9145ZM28.4592 18.7384C27.5943 18.8795 26.7506 19.129 25.948 19.481C25.634 19.0953 25.256 18.7666 24.8305 18.5092C25.3874 17.9422 26.0183 17.4532 26.7061 17.0553C27.3869 17.5071 27.9835 18.0746 28.4687 18.7321L28.4592 18.7384ZM26.6747 17.016C25.9922 17.4188 25.3654 17.9091 24.8101 18.4746C24.3256 18.1867 23.7944 17.9858 23.2406 17.8811C23.4786 17.2004 23.7891 16.5471 24.1666 15.9327C25.0599 16.1432 25.909 16.5099 26.6747 17.016ZM22.2299 15.7129H22.2832C22.9002 15.7125 23.5151 15.7821 24.1164 15.9201C23.7404 16.5359 23.43 17.1895 23.1904 17.8702C22.8865 17.8144 22.5781 17.7866 22.2691 17.7869C22.0687 17.787 21.8685 17.7991 21.6695 17.8231C21.5189 17.1338 21.3061 16.4596 21.0339 15.8087C21.4297 15.748 21.8294 15.716 22.2299 15.7129ZM20.9837 15.8181C21.2518 16.4681 21.4619 17.1407 21.6115 17.8278C21.0806 17.8954 20.5642 18.0492 20.0828 18.2831C19.614 17.6649 19.0472 17.1277 18.405 16.6926C19.2075 16.2542 20.08 15.9583 20.9837 15.8181ZM18.3642 16.7209C19.0079 17.1532 19.5763 17.6884 20.0467 18.3051C19.5428 18.5552 19.0903 18.8976 18.7126 19.3146C17.9482 18.93 17.1426 18.6334 16.3113 18.4307C16.8831 17.7378 17.5794 17.1579 18.3642 16.7209ZM16.2783 18.4731C17.1093 18.6731 17.9145 18.9681 18.6781 19.3523C18.36 19.7133 18.1096 20.1286 17.9388 20.5785C17.0218 20.4457 16.0918 20.4272 15.1702 20.5235C15.4089 19.7771 15.7847 19.0817 16.2783 18.4731ZM12.3734 23.301C12.3844 22.6122 12.4766 21.9271 12.648 21.2599C13.4261 20.9096 14.2526 20.6788 15.0996 20.5753C14.9241 21.1497 14.8368 21.7474 14.8406 22.3479C14.8439 22.6318 14.867 22.9151 14.9097 23.1958C14.0449 23.6039 13.2422 24.1325 12.5256 24.7658C12.4252 24.284 12.3742 23.7932 12.3734 23.301ZM10.8258 26.8147C11.2988 26.0989 11.8593 25.4448 12.4942 24.8679C12.6935 25.7739 13.0533 26.6369 13.5568 27.4161C12.9974 28.1514 12.5166 28.9434 12.1222 29.779C11.4984 28.8864 11.0578 27.8789 10.8258 26.8147ZM11.4787 31.6097C11.6543 31.0189 11.8725 30.4417 12.1317 29.8826C12.8117 30.8396 13.6423 31.68 14.5911 32.3711C14.4182 33.0999 14.2909 33.8388 14.2097 34.5833C13.1111 33.7833 12.1827 32.7724 11.4787 31.6097ZM14.2552 34.6163C14.3366 33.8693 14.4635 33.1279 14.635 32.3963C15.4613 32.998 16.3571 33.4978 17.3032 33.8847C17.2341 34.654 17.2043 35.4547 17.2122 36.301C16.1628 35.8595 15.1701 35.2939 14.2552 34.6163ZM17.2577 36.323C17.2577 35.4751 17.2796 34.6744 17.3487 33.9067C18.3665 34.322 19.4312 34.6115 20.5191 34.7686C20.5045 35.5892 20.5045 36.4229 20.5191 37.2697C19.3987 37.0825 18.3041 36.7648 17.2577 36.323ZM22.5689 37.4424C21.9008 37.4432 21.2338 37.3907 20.574 37.2854C20.5568 36.4376 20.5536 35.6039 20.574 34.7733C21.1921 34.8622 21.8157 34.9068 22.4402 34.9068C22.8435 34.9068 23.2438 34.8911 23.6377 34.8565C23.6628 35.6965 23.6817 36.5428 23.6942 37.389C23.3191 37.422 22.9456 37.4424 22.5689 37.4424ZM23.7397 37.3875C23.7261 36.5396 23.7073 35.6944 23.6832 34.8518C24.745 34.7562 25.7918 34.5354 26.8018 34.194C26.8521 35.0057 26.8662 35.8519 26.8364 36.7437C25.8327 37.0781 24.7935 37.2942 23.7397 37.3875ZM26.8787 36.728C26.9086 35.8362 26.896 34.9884 26.8442 34.1798C27.8137 33.8497 28.7404 33.4054 29.605 32.8563C29.7406 33.6641 29.8198 34.4804 29.842 35.2993C28.9214 35.902 27.9277 36.3848 26.885 36.7359L26.8787 36.728ZM32.7173 32.5862C31.9497 33.6474 30.9917 34.5567 29.8922 35.2679C29.8688 34.4495 29.7886 33.6337 29.6521 32.8265C30.6141 32.2132 31.475 31.4542 32.2041 30.5766C32.4756 31.2171 32.6507 31.8944 32.7236 32.5862H32.7173Z" fill="black" stroke="black" stroke-width="0.337051"/>
<path d="M21.4454 39.2443C15.3337 38.7152 10.4918 33.3707 10.4918 27.0701C10.4918 24.4764 11.5151 22.2469 12.7221 20.1619C15.2349 15.8411 28.8896 8.29859 42.9068 2.66211C39.6423 3.31682 33.3014 5.29823 29.8595 6.38313C24.0351 8.22009 18.6014 10.4543 13.9792 12.8863C13.3201 13.2568 12.7236 13.5143 11.3268 14.3496C4.34876 18.5196 0.153468 24.3492 1.29607 29.1473C2.17028 32.8149 6.05795 35.9299 11.4853 37.668C14.2288 38.4828 17.3505 39.1454 20.6418 39.2898C20.9196 39.2898 21.1127 39.2694 21.3889 39.271L21.4454 39.2443Z" fill="#004987"/>
<path d="M23.2754 15.2457C29.3886 15.7748 34.2619 21.0768 34.2619 27.379C34.2619 29.9727 33.3202 32.2022 32.118 34.2872C29.6099 38.5986 15.861 46.1505 1.84375 51.7792C5.10832 51.1245 11.4491 49.1446 14.8895 48.0582C20.7171 46.2212 26.1491 43.9886 30.7776 41.555C31.4368 41.1845 32.0332 40.927 33.4301 40.0917C40.4002 35.9154 44.5987 30.0921 43.4561 25.2924C42.5803 21.6263 38.6942 18.5129 33.2653 16.7733C30.5218 15.96 27.4581 15.3037 24.1621 15.1938C23.8673 15.1864 23.5723 15.1959 23.2785 15.2221L23.2754 15.2457Z" fill="#00754A"/>
<path d="M92.9141 17.7246L93.126 17.2834H93.4791C93.4007 17.1099 93.3621 16.9211 93.3661 16.7307C93.3661 16.0274 93.8369 15.7793 94.2293 15.7793C94.5274 15.779 94.8092 15.9155 94.9937 16.1498L95.0282 16.1922L94.7441 16.5298L94.697 16.4843C94.5739 16.3462 94.4081 16.2534 94.2262 16.2205C93.9735 16.2205 93.8212 16.4105 93.8212 16.7307C93.8212 17.1013 93.9531 17.2834 94.2262 17.2834H95.1004L94.8759 17.7246H92.9141Z" fill="black"/>
<path d="M49.4336 34.2306V28.5078H52.6699V29.2834H50.2843V30.9571H52.5867V31.7311H50.2843V33.4535H52.7437V34.2306H49.4336Z" fill="black"/>
<path d="M54.4546 30.3938H54.4735C54.7832 29.985 55.262 29.7395 55.7746 29.7266C56.5986 29.7266 57.2578 30.2965 57.2578 31.5007V34.2138H56.3945V31.4897C56.3945 30.8444 56.065 30.4221 55.5407 30.4221C55.1625 30.4221 54.8611 30.5995 54.4546 31.0595V34.2138H53.5898V29.8176H54.4546V30.3938Z" fill="black"/>
<path d="M57.7383 29.8125H58.6784L59.8524 32.5146L60.9981 29.8125H61.9194L59.9984 34.2981H59.708L57.7383 29.8125Z" fill="black"/>
<path d="M63.4511 34.2094H62.5863V29.8132H63.4511V34.2094ZM63.0242 28.9984C62.8137 29.0003 62.6228 28.8749 62.5409 28.6808C62.459 28.4868 62.5023 28.2625 62.6505 28.1129C62.7987 27.9633 63.0225 27.9179 63.2172 27.9981C63.4119 28.0783 63.539 28.268 63.539 28.4787C63.5382 28.7635 63.3089 28.9949 63.0242 28.9984Z" fill="black"/>
<path d="M65.6117 29.8114V30.8178H65.6321C66.0684 30.0469 66.4843 29.7188 66.8877 29.7188C67.2393 29.7188 67.5673 29.8883 67.9251 30.229L67.4684 30.9826C67.2079 30.7299 66.8689 30.5524 66.6648 30.5524C66.0731 30.5524 65.607 31.1491 65.607 31.9043V34.206H64.7422V29.8098L65.6117 29.8114Z" fill="black"/>
<path d="M68.9125 31.9647C68.9125 32.8942 69.4854 33.5112 70.3251 33.5112C71.237 33.5112 71.8083 32.9224 71.8083 31.9741C71.8203 31.5783 71.6675 31.1953 71.3862 30.9166C71.105 30.6379 70.7206 30.4887 70.3251 30.5046C69.5089 30.5046 68.9125 31.1216 68.9125 31.9647ZM72.6888 31.9647C72.6888 33.3542 71.7266 34.2962 70.3345 34.2962C68.9957 34.2962 68.0352 33.315 68.0352 31.9647C68.0337 31.3592 68.2773 30.7789 68.7104 30.3559C69.1436 29.933 69.7294 29.7034 70.3345 29.7195C71.7031 29.7195 72.6888 30.6616 72.6888 31.9647Z" fill="black"/>
<path d="M74.4999 30.3938H74.5203C74.8286 29.985 75.3065 29.7393 75.8183 29.7266C76.6439 29.7266 77.303 30.2965 77.303 31.5007V34.2138H76.4492V31.4897C76.4492 30.8444 76.1181 30.4221 75.5939 30.4221C75.2172 30.4221 74.9143 30.5995 74.5078 31.0595V34.2138H73.6445V29.8176H74.5078V30.3938H74.4999Z" fill="black"/>
<path d="M79.332 29.8177V30.3939C79.7762 29.9433 80.1952 29.7266 80.6017 29.7266C81.1508 29.722 81.6548 30.0301 81.9013 30.5211C82.2779 30.0909 82.7362 29.7266 83.3578 29.7266C84.2414 29.7266 84.8033 30.4127 84.8033 31.4537V34.2154H83.9416V31.4898C83.9416 30.8241 83.5335 30.4614 83.0376 30.4614C82.7566 30.452 82.3768 30.6985 82.0676 31.0219V34.2138H81.2044V31.4819C81.2044 30.766 80.8434 30.4614 80.4196 30.4614C79.9959 30.4614 79.6914 30.5996 79.3335 31.0219V34.2138H78.4688V29.8177H79.332Z" fill="black"/>
<path d="M88.8457 31.5698C88.819 30.9025 88.4392 30.4818 87.8303 30.4818C87.1695 30.4818 86.7724 30.8743 86.6531 31.5698H88.8457ZM89.6305 33.782C89.1239 34.1424 88.5127 34.3256 87.8915 34.3033C86.5339 34.3033 85.7773 33.1744 85.7773 31.9623C85.7773 30.6293 86.6108 29.7266 87.8177 29.7266C88.9729 29.7266 89.7105 30.521 89.7105 32.146H86.6374C86.7756 33.019 87.2652 33.468 88.1018 33.468C88.626 33.468 89.1204 33.2733 89.6289 32.9405V33.782H89.6305Z" fill="black"/>
<path d="M91.4804 30.3938H91.5008C91.81 29.9845 92.2892 29.7388 92.8019 29.7266C93.6259 29.7266 94.2835 30.2965 94.2835 31.5007V34.2138H93.4203V31.4897C93.4203 30.8444 93.0907 30.4221 92.5681 30.4221C92.1883 30.4221 91.8885 30.5995 91.4804 31.0595V34.2138H90.6172V29.8176H91.4804V30.3938Z" fill="black"/>
<path d="M96.4955 29.8126H97.8719V30.5976H96.4955V32.8506C96.4955 33.3703 96.8627 33.5163 97.1233 33.5163C97.4748 33.5025 97.8153 33.3899 98.1058 33.1913V34.0062C97.7807 34.1781 97.4228 34.2787 97.0558 34.3014C96.1141 34.3014 95.6432 33.7126 95.6432 32.9182V30.5945H94.8867V30.4971L96.508 28.9004V29.8126H96.4955Z" fill="black"/>
<path d="M104.369 31.7835L103.495 29.8021L102.684 31.7835H104.369ZM105.484 34.2343L104.714 32.5481L102.34 32.5591L101.649 34.2218L100.773 34.2359L103.203 28.4926L103.792 28.4785L106.34 34.2359L105.484 34.2343Z" fill="black"/>
<path d="M108.337 30.5661C107.881 30.551 107.497 30.9045 107.474 31.3606C107.474 31.8394 107.822 32.1644 108.348 32.1644C108.571 32.1747 108.787 32.0914 108.945 31.9349C109.104 31.7783 109.189 31.5627 109.182 31.3402C109.156 30.8959 108.782 30.5526 108.337 30.5661ZM108.114 34.4237C107.532 34.4237 107.126 34.7001 107.126 35.091C107.126 35.5322 107.552 35.7677 108.337 35.7677C109.095 35.7677 109.543 35.5322 109.543 35.1318C109.543 34.5729 108.65 34.4237 108.114 34.4237ZM110.395 30.4892H109.503C109.842 30.8315 109.958 31.0748 109.958 31.4485C109.941 31.8157 109.798 32.1658 109.552 32.4392C108.97 33.0672 107.785 32.7532 107.785 33.2698C107.785 33.5147 108.238 33.6607 109.116 33.8365C110.046 34.0249 110.371 34.5038 110.371 35.0628C110.371 35.9341 109.605 36.4632 108.314 36.4632C107.141 36.4632 106.305 35.9043 106.305 35.1318C106.305 34.485 106.644 34.1019 107.403 33.9166C107.104 33.7282 106.969 33.5539 106.969 33.3577C106.969 33.0735 107.24 32.8286 107.658 32.7297V32.7108C107.368 32.5959 107.116 32.4023 106.931 32.1519C106.769 31.9081 106.687 31.6201 106.695 31.3276C106.695 30.3856 107.425 29.8125 108.598 29.8125H110.395V30.4876V30.4892Z" fill="black"/>
<path d="M113.928 31.5698C113.896 30.9025 113.52 30.4818 112.906 30.4818C112.248 30.4818 111.85 30.8743 111.734 31.5698H113.928ZM114.703 33.782C114.197 34.1421 113.586 34.3253 112.966 34.3033C111.606 34.3033 110.852 33.1744 110.852 31.9623C110.852 30.6293 111.685 29.7266 112.892 29.7266C114.047 29.7266 114.786 30.521 114.786 32.146H111.715C111.85 33.019 112.343 33.468 113.179 33.468C113.728 33.4479 114.259 33.2642 114.703 32.9405V33.782Z" fill="black"/>
<path d="M116.559 30.3938H116.581C116.889 29.9842 117.368 29.7383 117.88 29.7266C118.704 29.7266 119.365 30.2965 119.365 31.5007V34.2138H118.502V31.4897C118.502 30.8444 118.17 30.4221 117.649 30.4221C117.27 30.4221 116.967 30.5995 116.551 31.0595V34.2138H115.688V29.8176H116.551V30.3938H116.559Z" fill="black"/>
<path d="M123.767 30.9598C123.272 30.627 122.943 30.5281 122.563 30.5281C121.778 30.5281 121.235 31.1262 121.235 32.018C121.235 32.9098 121.817 33.4766 122.707 33.4766C123.11 33.464 123.505 33.3633 123.864 33.1814V34.045C123.45 34.2113 123.009 34.2982 122.563 34.3009C121.263 34.3009 120.352 33.3887 120.352 32.1028C120.352 30.6521 121.187 29.7305 122.505 29.7305C122.942 29.7328 123.372 29.8377 123.761 30.0366V30.9661L123.767 30.9598Z" fill="black"/>
<path d="M125.361 36.4617H124.403L125.886 33.2682L124.199 29.8125H125.179L126.353 32.2869L127.479 29.8125H128.448L125.361 36.4617Z" fill="black"/>
<path d="M136.263 32.1919H137.729L136.968 30.4648L136.263 32.1919ZM139.328 34.211H138.638L138.01 32.8073H136L135.403 34.211H134.711L136.74 29.416H137.211L139.322 34.211H139.328Z" fill="black"/>
<path d="M140.525 33.5907H141.376C142.171 33.5907 142.386 33.1919 142.386 32.837C142.386 32.4037 142.054 32.096 141.341 32.096H140.525V33.5907ZM140.525 31.4805H140.975C141.644 31.4805 141.974 31.2293 141.974 30.719C141.974 30.3626 141.771 30.0565 141.148 30.0565H140.52V31.4805H140.525ZM139.844 29.4395H141.217C142.234 29.4395 142.672 30.0565 142.672 30.6562C142.672 31.1524 142.443 31.4742 141.95 31.6768V31.6893C142.655 31.8228 143.086 32.2907 143.086 32.9344C143.086 33.5216 142.648 34.2061 141.465 34.2061H139.85V29.4426L139.844 29.4395Z" fill="black"/>
<path d="M147.712 32.3315C147.712 33.498 147.021 34.2674 145.617 34.2674C144.618 34.2674 143.648 33.7006 143.648 32.4021V29.4395H144.326V32.2561C144.326 32.7931 144.397 33.0176 144.612 33.2358C144.881 33.5053 145.249 33.6514 145.629 33.6393C146.147 33.6393 146.524 33.4729 146.736 33.2563C146.979 33.0113 147.035 32.6612 147.035 32.2153V29.4395H147.712V32.3315Z" fill="black"/>
<path d="M151.262 33.5907H152.341C153.876 33.5907 154.225 32.41 154.225 31.8228C154.225 30.8666 153.622 30.0565 152.302 30.0565H151.255V33.5907H151.262ZM150.582 29.4395H152.412C154.157 29.4395 154.923 30.6955 154.923 31.8228C154.923 33.0459 153.982 34.2061 152.412 34.2061H150.582V29.4426V29.4395Z" fill="black"/>
<path d="M159.768 34.2061H159.088V32.1305H156.444V34.2061H155.766V29.4395H156.444V31.5166H159.088V29.4395H159.768V34.2061Z" fill="black"/>
<path d="M161.846 32.1919H163.315L162.551 30.4648L161.846 32.1919ZM164.911 34.211H164.219L163.591 32.8073H161.585L160.991 34.211H160.297L162.325 29.416H162.807L164.914 34.211H164.911Z" fill="black"/>
<path d="M166.104 33.5907H166.953C167.753 33.5907 167.967 33.1919 167.967 32.837C167.967 32.4037 167.636 32.096 166.922 32.096H166.104V33.5907ZM166.104 31.4805H166.553C167.224 31.4805 167.551 31.2293 167.551 30.719C167.551 30.3626 167.35 30.0565 166.727 30.0565H166.099V31.4805H166.104ZM165.426 29.4395H166.796C167.813 29.4395 168.251 30.0565 168.251 30.6562C168.251 31.1524 168.022 31.4742 167.53 31.6768V31.6893C168.237 31.8228 168.665 32.2907 168.665 32.9344C168.665 33.5216 168.23 34.2061 167.044 34.2061H165.432V29.4426L165.426 29.4395Z" fill="black"/>
<path d="M170.012 34.2061H169.332V29.4395H170.012V34.2061Z" fill="black"/>
<path d="M79.2137 24.4177C80.2292 24.4177 80.7235 23.8022 80.7235 22.5336C80.7235 21.265 80.2292 20.6496 79.2576 20.6496C78.2861 20.6496 76.3321 22.2557 75.6274 24.4051L79.2137 24.4177ZM70.4244 25.0096C69.7954 25.0115 69.1776 24.8427 68.6368 24.5213C68.3527 24.8353 67.9493 24.9923 67.4031 25.008H57.0444C56.3177 25.008 55.6114 24.851 55.3729 23.8054L55.0354 22.2463C54.7655 21.0531 54.5301 20.7595 53.8379 20.7595H53.524L54.4783 24.7286L54.3872 24.7506C53.5638 24.9169 52.7255 24.999 51.8854 24.9955C50.3159 24.9955 49.5469 24.2214 49.5469 22.6263V20.2963H50.1888V22.5399C50.1888 23.8478 50.7099 24.4051 51.9294 24.4051C52.533 24.4071 53.1355 24.3545 53.7296 24.2481C53.0186 21.3059 52.9449 21.0751 52.9025 20.9636C52.8787 20.8883 52.8588 20.8117 52.8428 20.7344L52.7063 20.1927H53.5491C54.7121 20.1927 55.2944 20.6637 55.5612 21.835L55.974 23.6562C56.131 24.4193 56.707 24.4193 57.0193 24.4193H67.2949C68.1251 24.4193 68.4798 23.9483 68.4798 22.8492V20.2963H69.1076V23.0235C69.1116 23.3573 69.0536 23.689 68.9366 24.0016C69.365 24.2711 69.8603 24.4152 70.3664 24.4177H75.0749V18.3809H75.6933V22.7283C76.9991 20.5475 78.6957 20.0592 79.2592 20.0592C80.6011 20.0592 81.4 20.9856 81.4 22.5399C81.4 23.3909 81.1913 24.0346 80.7722 24.4538C80.6656 24.5605 80.5465 24.6538 80.4175 24.7317C80.0947 24.921 79.7259 25.0172 79.3518 25.0096H70.4244Z" fill="black"/>
<path d="M84.4742 21.518C83.8244 21.518 83.1699 21.9686 83.1699 22.9781C83.1699 23.8903 83.6251 24.4163 84.4255 24.4163H85.2354V21.6593L85.149 21.6326C84.9322 21.5567 84.7039 21.519 84.4742 21.5211V21.518ZM83.3394 27.2345L83.071 26.6552H83.228C83.3112 26.6552 83.3943 26.6552 83.476 26.6552C84.6233 26.6552 85.1616 26.1449 85.2275 24.9988H84.38C83.5011 24.9988 82.5625 24.4697 82.5625 22.9781C82.5625 21.4866 83.5419 20.9481 84.4569 20.9481C84.9084 20.9441 85.3579 21.0098 85.7894 21.1427L85.86 21.1632V24.4069H90.6282C91.4757 24.4069 91.8226 23.9516 91.8226 22.8368V20.2949H92.4504V23.0221C92.4504 24.3158 91.8712 24.9847 90.7239 25.0066H85.8632C85.8098 26.506 85.0486 27.233 83.5356 27.233L83.3394 27.2345Z" fill="black"/>
<path d="M93.8203 25.0096V18.3809H94.4513V25.0096H93.8203Z" fill="black"/>
<path d="M146.773 19.2079L146.96 18.8342H147.349L147.321 18.7824C147.244 18.6126 147.206 18.4273 147.211 18.2407C147.211 17.5687 147.66 17.3301 148.046 17.3301C148.344 17.3327 148.624 17.4751 148.801 17.7147L148.552 18.0005C148.422 17.8437 148.241 17.7384 148.04 17.7038C147.773 17.7038 147.607 17.9094 147.607 18.2407C147.607 18.6395 147.748 18.8342 148.04 18.8342H148.867L148.669 19.2079H146.773Z" fill="black"/>
<path d="M115 19.2079L115.185 18.8342H115.574L115.546 18.7824C115.469 18.6124 115.432 18.4272 115.436 18.2407C115.436 17.5687 115.885 17.3301 116.271 17.3301C116.572 17.3307 116.854 17.4733 117.033 17.7147L116.777 18.0005C116.647 17.8437 116.466 17.7384 116.265 17.7038C115.997 17.7038 115.83 17.9094 115.83 18.2407C115.83 18.6395 115.973 18.8342 116.265 18.8342H117.092L116.894 19.2079H115Z" fill="black"/>
<path d="M52.2773 26.992V25.9668H52.7827V26.992H52.2773Z" fill="black"/>
<path d="M90.5 26.9591V25.9668H91.0054V26.9591H90.5Z" fill="black"/>
<path d="M67.1484 26.9591V25.9668H67.6554V26.9591H67.1484Z" fill="black"/>
<path d="M51.4258 26.992V25.9668H51.9312V26.992H51.4258Z" fill="black"/>
<path d="M79.6016 19.3901V18.3633H80.1069V19.3901H79.6016Z" fill="black"/>
<path d="M104.316 19.4382V18.4004H104.822V19.4382H104.316Z" fill="black"/>
<path d="M105.262 19.4382V18.4004H105.767V19.4382H105.262Z" fill="black"/>
<path d="M140.512 19.4382V18.4004H141.017V19.4382H140.512Z" fill="black"/>
<path d="M141.457 19.4382V18.4004H141.961V19.4382H141.457Z" fill="black"/>
<path d="M104.301 20.9148C103.627 20.9148 103.422 21.2194 103.422 22.2211C103.422 23.3547 103.745 23.4395 104.236 23.4395C104.515 23.4368 104.793 23.3982 105.062 23.3248V20.9839C104.812 20.9265 104.556 20.9032 104.301 20.9148ZM127.333 25.0095C126.713 25.0114 126.103 24.8517 125.563 24.5463C125.236 24.8538 124.801 25.0192 124.353 25.0064H122.65C122.029 25.0084 121.418 24.8488 120.878 24.5432C120.55 24.8504 120.114 25.0157 119.665 25.0032H117.963C117.342 25.0047 116.731 24.8451 116.19 24.5401C115.899 24.8337 115.502 24.9844 114.981 25.0001H105.062V24.1695C104.789 24.242 104.508 24.28 104.225 24.2826C103.054 24.2826 102.574 23.6844 102.574 22.2195C102.574 20.7547 103.124 20.0686 104.301 20.0686C104.805 20.0662 105.307 20.1414 105.789 20.2915L105.878 20.315V24.2166H114.843C115.615 24.2166 115.929 23.7927 115.929 22.7455V20.3213H116.745V22.9229C116.75 23.2431 116.701 23.5617 116.598 23.8649C116.995 24.0996 117.447 24.2238 117.908 24.2245H119.526C120.3 24.2245 120.614 23.8006 120.614 22.7533V20.3213H121.43V22.9229C121.435 23.2431 121.386 23.5617 121.283 23.8649C121.68 24.0994 122.132 24.2235 122.593 24.2245H124.215C124.985 24.2245 125.301 23.8006 125.301 22.7533V20.3213H126.114V22.9229C126.119 23.2428 126.07 23.5613 125.969 23.8649C126.366 24.0993 126.819 24.2234 127.28 24.2245H130.752C131.536 24.2245 131.85 23.8116 131.85 22.7533V18.4043H132.677V22.9229C132.677 24.248 132.098 24.9467 130.951 25.0032H130.861L127.333 25.0095Z" fill="black"/>
<path d="M133.848 25.0095V18.4043H134.672V25.0095H133.848Z" fill="black"/>
<path d="M140.512 20.9169C139.751 20.9169 139.38 21.344 139.38 22.2232C139.38 23.294 139.894 23.4415 140.446 23.4415C140.726 23.4389 141.004 23.4003 141.275 23.3269V20.986C141.025 20.9288 140.768 20.9056 140.512 20.9169ZM167.52 24.214V23.8184C167.52 23.1103 167.336 22.8104 166.909 22.8104C166.374 22.8104 166.269 23.1793 166.269 23.8184V24.214H167.52ZM156.303 24.999C155.683 25.0007 155.073 24.8411 154.534 24.5359C154.206 24.8429 153.77 25.0082 153.321 24.9959H149.756C149.136 24.9976 148.525 24.838 147.984 24.5327C147.657 24.8397 147.221 25.005 146.773 24.9928H141.279V24.1716C141.006 24.2439 140.724 24.2819 140.441 24.2847C139.178 24.2847 138.539 23.5891 138.539 22.2216C138.539 20.8541 139.261 20.0706 140.517 20.0706C141.021 20.0681 141.523 20.1433 142.005 20.2936L142.092 20.3171V24.2187H146.631C147.416 24.2187 147.73 23.7948 147.73 22.7476V20.3234H148.546V22.925C148.551 23.2451 148.501 23.5638 148.399 23.867C148.795 24.1011 149.247 24.2252 149.708 24.2266H153.181C153.966 24.2266 154.28 23.8027 154.28 22.7554V20.3234H155.079V22.925C155.083 23.2449 155.034 23.5632 154.934 23.867C155.331 24.1015 155.783 24.2257 156.243 24.2266H165.467V23.8309C165.467 22.2609 166.368 22.0206 166.903 22.0206C167.438 22.0206 168.328 22.2562 168.328 23.8309V24.2266H169.502V22.9705C169.502 21.6674 168.664 20.7206 167.511 20.7206C167.054 20.7013 166.6 20.7879 166.183 20.9734L166.049 21.0331L165.859 20.2638L165.957 20.2245C166.456 20.0245 166.989 19.9212 167.526 19.9199C168.923 19.9199 170.331 20.84 170.331 22.8936V25.0132L156.303 24.999Z" fill="black"/>
<path d="M152.898 27.0667V26.0273H153.402V27.0667H152.898Z" fill="black"/>
<path d="M153.844 27.0667V26.0273H154.349V27.0667H153.844Z" fill="black"/>
<path d="M118.844 27.0667V26.0273H119.349V27.0667H118.844Z" fill="black"/>
<path d="M119.797 27.0667V26.0273H120.302V27.0667H119.797Z" fill="black"/>
<path d="M124.082 27.0667V26.0273H124.587V27.0667H124.082Z" fill="black"/>
<path d="M132.986 32.1202H130.426V31.4922H132.986V32.1202Z" fill="black"/>
<path d="M99.9364 22.88H97.375V22.252H99.9364V22.88Z" fill="black"/>
</g>
</g>
</g>
</g>
</g>
</g>
<defs>
<clipPath id="clip0_502_114661">
<rect width="172.44" height="48.8325" fill="white" transform="translate(0.730469 4.13086)"/>
</clipPath>
<clipPath id="clip1_502_114661">
<rect width="195.127" height="44.7957" fill="white" transform="translate(-21.957 4.62695)"/>
</clipPath>
<clipPath id="clip2_502_114661">
<rect width="174.611" height="50.2994" fill="white" transform="translate(0.558594 2.32422)"/>
</clipPath>
<clipPath id="clip3_502_114661">
<rect width="170.595" height="49.1426" fill="white" transform="translate(0.433594 2.6582)"/>
</clipPath>
<clipPath id="clip4_502_114661">
<rect width="170.595" height="49.1426" fill="white" transform="translate(0.433594 2.6582)"/>
</clipPath>
<clipPath id="clip5_502_114661">
<rect width="170.595" height="49.1426" fill="white" transform="translate(0.429688 2.6582)"/>
</clipPath>
</defs>
</svg>
