<svg width="24" height="25" viewBox="0 0 24 25" fill="none" xmlns="http://www.w3.org/2000/svg">
<path d="M3.90625 2.38281L20.1213 5.82669V23.15H3.90629L3.90625 2.38281Z" fill="#EFF258" fill-opacity="0.4" stroke="white" stroke-width="1.0216"/>
<rect x="1.00391" y="10.4658" width="22.2045" height="7.61246" fill="url(#paint0_linear_2931_41124)"/>
<path d="M0.346554 9.94957C0.605982 9.84109 0.864561 9.63791 1.12399 9.63791C8.37438 9.6207 15.6248 9.6207 22.8743 9.63791C23.1338 9.63791 23.3932 9.84109 23.6526 9.94957V18.0423C23.4034 18.1396 23.1542 18.3204 22.9041 18.3212C15.6486 18.3367 8.3931 18.3324 1.1376 18.3376C0.827135 18.3376 0.554097 18.2963 0.345703 18.0423C0.346554 15.345 0.346554 12.6477 0.346554 9.94957ZM22.6855 10.628H1.31282V17.3467H2.40072V15.401H3.34827V17.3492H4.43022V13.7609H5.37862V17.3527H6.45972V15.3941H7.40812V17.3561H8.50452V13.7643H9.43847V17.3432H10.5179V15.3992H11.439V17.351H12.5193V13.7609H13.4694V17.3441H14.5879V15.3958H15.5108V17.3535H16.5919V13.7583H17.542V17.3553H18.6384V15.3923H19.5843V17.3467H20.679V13.7652H21.6257V17.3535H22.6863V10.628H22.6855Z" fill="white"/>
<rect x="18.5" y="4.51855" width="3.24155" height="3.24155" rx="1.0216" fill="white"/>
<rect x="2.28516" y="0.766602" width="3.24155" height="3.24155" rx="1.0216" fill="white"/>
<rect x="2.28516" y="21.5342" width="3.24155" height="3.24155" rx="1.0216" fill="white"/>
<rect x="18.5" y="21.5342" width="3.24155" height="3.24155" rx="1.0216" fill="white"/>
<defs>
<linearGradient id="paint0_linear_2931_41124" x1="12.1061" y1="10.4658" x2="12.1061" y2="18.0783" gradientUnits="userSpaceOnUse">
<stop stop-color="#1FA6B8"/>
<stop offset="1" stop-color="#34BC93"/>
</linearGradient>
</defs>
</svg>
