<svg width="25" height="24" viewBox="0 0 25 24" fill="none" xmlns="http://www.w3.org/2000/svg">
<path d="M21.0625 8C22.1671 8 23.0625 8.89543 23.0625 10V14C23.0625 15.1046 22.1671 16 21.0625 16H20.0006C19.5085 19.9463 16.1421 23 12.0625 23V21C15.3762 21 18.0625 18.3137 18.0625 15V9C18.0625 5.68629 15.3762 3 12.0625 3C8.74879 3 6.0625 5.68629 6.0625 9V16H3.0625C1.95793 16 1.0625 15.1046 1.0625 14V10C1.0625 8.89543 1.95793 8 3.0625 8H4.12439C4.61649 4.05369 7.98288 1 12.0625 1C16.1421 1 19.5085 4.05369 20.0006 8H21.0625ZM7.82194 15.7849L8.88208 14.0887C9.80411 14.6662 10.8943 15 12.0625 15C13.2307 15 14.3209 14.6662 15.2429 14.0887L16.3031 15.7849C15.0737 16.5549 13.6201 17 12.0625 17C10.5049 17 9.05132 16.5549 7.82194 15.7849Z" fill="white" fill-opacity="0.8"/>
</svg>
