<svg width="25" height="24" viewBox="0 0 25 24" fill="none" xmlns="http://www.w3.org/2000/svg">
<g opacity="0.8">
<path d="M12.0639 1.99805C6.54913 1.99805 2.0625 6.48474 2.0625 11.9995C2.0625 17.5143 6.54913 22.0009 12.0639 22.0009C17.5787 22.0009 22.0653 17.5143 22.0653 11.9995C22.0653 6.48474 17.5787 1.99805 12.0639 1.99805ZM12.0639 20.1824C7.55175 20.1824 3.88094 16.5116 3.88094 11.9995C3.88094 7.48742 7.55175 3.81648 12.0639 3.81648C16.5761 3.81648 20.2469 7.48742 20.2469 11.9995C20.2469 16.5116 16.576 20.1824 12.0639 20.1824Z" fill="white" fill-opacity="0.8"/>
<path d="M12.0636 6.24023C11.3953 6.24023 10.8516 6.78431 10.8516 7.45307C10.8516 8.12123 11.3953 8.66482 12.0636 8.66482C12.7319 8.66482 13.2757 8.12123 13.2757 7.45307C13.2757 6.78431 12.7319 6.24023 12.0636 6.24023Z" fill="white" fill-opacity="0.8"/>
<path d="M12.0655 10.4863C11.5633 10.4863 11.1562 10.8934 11.1562 11.3955V16.8509C11.1562 17.353 11.5633 17.7601 12.0655 17.7601C12.5676 17.7601 12.9747 17.353 12.9747 16.8509V11.3955C12.9747 10.8934 12.5676 10.4863 12.0655 10.4863Z" fill="white" fill-opacity="0.8"/>
</g>
</svg>
