<svg width="26" height="17" viewBox="0 0 26 17" fill="none" xmlns="http://www.w3.org/2000/svg">
<rect x="1.5" y="8.76953" width="23.0012" height="7.88563" fill="url(#paint0_linear_2931_41139)"/>
<path d="M0.817287 8.23856C1.08603 8.12619 1.35388 7.91572 1.62262 7.91572C9.13319 7.89788 16.6438 7.89788 24.1534 7.91572C24.4222 7.91572 24.6909 8.12619 24.9597 8.23856V16.6217C24.7015 16.7224 24.4433 16.9097 24.1843 16.9106C16.6684 16.9267 9.15257 16.9222 1.63672 16.9276C1.31511 16.9276 1.03228 16.8848 0.816406 16.6217C0.817287 13.8276 0.817287 11.0335 0.817287 8.23856ZM23.9578 8.94131H1.81823V15.9011H2.94516V13.8856H3.92672V15.9038H5.04749V12.1866H6.02992V15.9073H7.14981V13.8784H8.13225V15.9109H9.268V12.1902H10.2355V15.8975H11.3536V13.8838H12.3078V15.9055H13.4268V12.1866H14.411V15.8984H15.5697V13.8802H16.5257V15.9082H17.6456V12.184H18.6298V15.91H19.7655V13.8766H20.7453V15.9011H21.8793V12.1911H22.86V15.9082H23.9587V8.94131H23.9578Z" fill="white"/>
<path d="M5.50037 3.97841C5.72421 4.18621 5.90793 4.33603 6.06667 4.50905C6.31727 4.78194 6.30657 5.08338 6.06667 5.34825C5.84015 5.59796 5.53336 5.66128 5.2676 5.44278C4.5916 4.88539 3.92541 4.31552 3.28419 3.718C3.00594 3.45937 3.03181 3.10532 3.30916 2.84669C3.92719 2.26879 4.56128 1.70695 5.20517 1.15669C5.50037 0.904309 5.82677 0.951576 6.07737 1.23517C6.33422 1.52591 6.29141 1.83626 6.02208 2.10737C5.8562 2.27415 5.67605 2.42665 5.4424 2.64068H20.6185C20.4196 2.45697 20.2591 2.31963 20.1102 2.16891C19.8328 1.88799 19.8025 1.50272 20.0522 1.25658C20.3269 0.986357 20.6515 0.981006 20.9351 1.22091C21.5469 1.73905 22.1462 2.27325 22.7348 2.81905C23.0389 3.10086 23.0487 3.48345 22.7455 3.75992C22.1319 4.32087 21.4987 4.86132 20.8629 5.3973C20.5668 5.64701 20.2546 5.6158 19.9889 5.34111C19.7249 5.06911 19.7588 4.74538 20.0638 4.4377C20.2056 4.29501 20.3572 4.16302 20.5561 3.97752H5.50037V3.97841Z" fill="white"/>
<path d="M0.922495 3.37535C0.922495 2.70737 0.910901 2.03851 0.926062 1.37053C0.938548 0.864872 1.19628 0.602677 1.61098 0.623188C1.99981 0.641917 2.20137 0.906787 2.19601 1.41067C2.18264 2.64316 2.16391 3.87566 2.14607 5.10815C2.14429 5.22676 2.14964 5.34805 2.12645 5.4631C2.04976 5.82963 1.83572 6.04902 1.44153 6.00978C1.07321 5.97322 0.89039 5.74491 0.887714 5.38105C0.882363 4.71308 0.88593 4.04421 0.88593 3.37624C0.898416 3.37624 0.910901 3.37624 0.923387 3.37624L0.922495 3.37535Z" fill="white"/>
<path d="M25.145 3.25869C25.145 3.9115 25.1575 4.56432 25.1406 5.21624C25.1272 5.72992 24.8685 6.01263 24.477 5.9939C24.0873 5.97518 23.8795 5.68444 23.8849 5.16184C23.8974 3.96055 23.9089 2.75838 23.9241 1.5571C23.9259 1.42422 23.9223 1.28598 23.9553 1.15935C24.0383 0.837399 24.2425 0.635848 24.5912 0.659035C24.9506 0.683115 25.1727 0.883774 25.178 1.25566C25.1887 1.92274 25.1807 2.59072 25.1807 3.2578C25.1682 3.2578 25.1557 3.2578 25.1432 3.2578L25.145 3.25869Z" fill="white"/>
<defs>
<linearGradient id="paint0_linear_2931_41139" x1="13.0006" y1="8.76953" x2="13.0006" y2="16.6552" gradientUnits="userSpaceOnUse">
<stop stop-color="#1FA6B8"/>
<stop offset="1" stop-color="#34BC93"/>
</linearGradient>
</defs>
</svg>
