<svg width="22" height="22" viewBox="0 0 22 22" fill="none" xmlns="http://www.w3.org/2000/svg">
<path d="M2.625 11.2737C2.625 10.5492 2.71693 9.8462 2.88978 9.17569C3.80347 9.22305 4.71045 8.76827 5.19929 7.92157C5.68776 7.07551 5.62859 6.06354 5.13175 5.29615C6.13097 4.3142 7.37528 3.58086 8.76451 3.19629C9.18032 4.0113 10.0277 4.56941 11.0054 4.56941C11.9831 4.56941 12.8305 4.0113 13.2463 3.19629C14.6355 3.58086 15.8799 4.3142 16.8791 5.29615C16.3822 6.06354 16.323 7.07551 16.8115 7.92157C17.3003 8.76827 18.2073 9.22305 19.1211 9.17569C19.2939 9.8462 19.3858 10.5492 19.3858 11.2737C19.3858 11.9982 19.2939 12.7012 19.1211 13.3717C18.2073 13.3244 17.3003 13.7792 16.8115 14.6259C16.323 15.472 16.3822 16.4839 16.8791 17.2513C15.8799 18.2332 14.6355 18.9666 13.2463 19.3512C12.8305 18.5362 11.9831 17.978 11.0054 17.978C10.0277 17.978 9.18032 18.5362 8.76451 19.3512C7.37528 18.9666 6.13097 18.2332 5.13175 17.2513C5.62859 16.4839 5.68776 15.472 5.19929 14.6259C4.71045 13.7792 3.80347 13.3244 2.88978 13.3717C2.71693 12.7012 2.625 11.9982 2.625 11.2737ZM6.65082 13.7878C7.17887 14.7025 7.33024 15.754 7.12375 16.7409C7.46549 16.9841 7.82927 17.1948 8.21044 17.3699C8.96206 16.697 9.9488 16.302 11.0054 16.302C12.062 16.302 13.0487 16.697 13.8003 17.3699C14.1815 17.1948 14.5453 16.9841 14.887 16.7409C14.6805 15.754 14.8319 14.7025 15.36 13.7878C15.888 12.8733 16.7229 12.2165 17.6808 11.9018C17.7 11.6942 17.7097 11.4847 17.7097 11.2737C17.7097 11.0628 17.7 10.8533 17.6808 10.6457C16.7229 10.331 15.888 9.67423 15.36 8.75961C14.8319 7.845 14.6805 6.79353 14.887 5.80655C14.5453 5.56337 14.1815 5.35268 13.8003 5.17758C13.0487 5.85045 12.062 6.24549 11.0054 6.24549C9.9488 6.24549 8.96206 5.85045 8.21044 5.17758C7.82927 5.35268 7.46549 5.56337 7.12375 5.80655C7.33024 6.79353 7.17887 7.845 6.65082 8.75961C6.12278 9.67423 5.28791 10.331 4.33 10.6457C4.31078 10.8533 4.30108 11.0628 4.30108 11.2737C4.30108 11.4847 4.31078 11.6942 4.33 11.9018C5.28791 12.2165 6.12278 12.8733 6.65082 13.7878ZM11.0054 13.7878C9.61685 13.7878 8.49128 12.6623 8.49128 11.2737C8.49128 9.88525 9.61685 8.75961 11.0054 8.75961C12.3939 8.75961 13.5195 9.88525 13.5195 11.2737C13.5195 12.6623 12.3939 13.7878 11.0054 13.7878ZM11.0054 12.1118C11.4683 12.1118 11.8434 11.7366 11.8434 11.2737C11.8434 10.8109 11.4683 10.4357 11.0054 10.4357C10.5426 10.4357 10.1674 10.8109 10.1674 11.2737C10.1674 11.7366 10.5426 12.1118 11.0054 12.1118Z" fill="white" fill-opacity="0.8"/>
</svg>
