<svg width="25" height="24" viewBox="0 0 25 24" fill="none" xmlns="http://www.w3.org/2000/svg">
<g opacity="0.8">
<path d="M19.9842 4.07668C19.5875 3.6774 19.1155 3.36077 18.5955 3.14511C18.0756 2.92946 17.5181 2.81907 16.9552 2.82032H7.1682C6.60523 2.81957 6.04763 2.9299 5.52736 3.14499C5.0071 3.36008 4.53438 3.67571 4.13629 4.0738C3.73821 4.47189 3.42258 4.9446 3.20748 5.46487C2.99239 5.98514 2.88206 6.54273 2.88282 7.10571V19.3423C2.88282 19.7276 3.00405 20.1031 3.22933 20.4157C3.45462 20.7283 3.77254 20.962 4.13807 21.0839C4.50359 21.2057 4.89819 21.2095 5.26596 21.0946C5.63373 20.9797 5.95603 20.752 6.18721 20.4438L6.89857 19.457C7.07018 19.2297 7.29204 19.0451 7.54681 18.9177C7.80158 18.7903 8.08236 18.7236 8.36719 18.7227H16.9552C18.0893 18.7212 19.1767 18.2708 19.9797 17.47C20.7827 16.6691 21.236 15.5829 21.2406 14.4488V7.10571C21.2418 6.54283 21.1314 5.98529 20.9158 5.46536C20.7001 4.94543 20.3835 4.47343 19.9842 4.07668ZM20.0129 14.4488C20.0114 15.2593 19.6887 16.0362 19.1156 16.6093C18.5425 17.1824 17.7657 17.505 16.9552 17.5065H8.39014C7.9152 17.5072 7.44686 17.6179 7.02186 17.8299C6.59685 18.0419 6.22674 18.3494 5.94053 18.7285L5.20622 19.7095C5.12856 19.811 5.02111 19.8858 4.89889 19.9234C4.77666 19.961 4.64576 19.9594 4.52445 19.919C4.40315 19.8785 4.2975 19.8012 4.22225 19.6978C4.14701 19.5945 4.10593 19.4702 4.10475 19.3423V7.10571C4.104 6.7032 4.18272 6.3045 4.33641 5.93249C4.49009 5.56047 4.71571 5.22246 5.00033 4.93784C5.28495 4.65322 5.62296 4.4276 5.99498 4.27391C6.36699 4.12023 6.76569 4.04151 7.1682 4.04226H16.9552C17.7661 4.04226 18.5439 4.36441 19.1173 4.93784C19.6907 5.51128 20.0129 6.28902 20.0129 7.09997V14.4488Z" fill="white" fill-opacity="0.8"/>
<path d="M6.34724 20.5638L6.34721 20.5638C6.09085 20.9056 5.73343 21.1581 5.32559 21.2855C4.91775 21.4129 4.48017 21.4087 4.07482 21.2736C3.66948 21.1385 3.31692 20.8793 3.06708 20.5326C2.81725 20.186 2.68282 19.7696 2.68282 19.3423V7.10584V7.10571H2.88282L6.34724 20.5638ZM6.34724 20.5638L6.34945 20.5607M6.34724 20.5638L6.34945 20.5607M6.34945 20.5607L7.0595 19.5758C7.21235 19.3739 7.40971 19.2099 7.63625 19.0966C7.86344 18.983 8.11382 18.9235 8.36782 18.9227H16.9552H16.9554M6.34945 20.5607L16.9554 18.9227M16.9554 18.9227C18.1424 18.9211 19.2805 18.4497 20.1209 17.6116C20.9614 16.7734 21.4358 15.6366 21.4406 14.4496V14.4488M16.9554 18.9227L21.4406 14.4488M21.4406 14.4488L21.4406 7.10616M21.4406 14.4488L21.4406 7.10616M8.38986 17.3065H8.39014H16.9548C17.7124 17.3051 18.4385 17.0035 18.9742 16.4678C19.5098 15.9322 19.8114 15.2063 19.8129 14.4488C19.8129 14.4487 19.8129 14.4486 19.8129 14.4484M8.38986 17.3065L16.9552 4.04226C17.7661 4.04226 18.5439 4.36441 19.1173 4.93784C19.6907 5.51128 20.0129 6.28902 20.0129 7.09997V14.4488L19.8129 14.4484M8.38986 17.3065C7.88403 17.3072 7.38523 17.4251 6.93258 17.6509C6.47993 17.8767 6.08575 18.2043 5.78092 18.6079L5.78042 18.6086L5.04733 19.588C5.04714 19.5882 5.04694 19.5885 5.04675 19.5887C4.99444 19.6568 4.92223 19.707 4.84014 19.7322C4.75773 19.7575 4.66948 19.7565 4.5877 19.7292C4.50592 19.702 4.43469 19.6499 4.38396 19.5802C4.3334 19.5107 4.30572 19.4272 4.30475 19.3413L4.30475 7.10571L4.30475 7.10533C4.30405 6.72915 4.37762 6.35653 4.52125 6.00885C4.66489 5.66117 4.87575 5.34526 5.14175 5.07926C5.40776 4.81326 5.72366 4.60239 6.07134 4.45876C6.41902 4.31513 6.79165 4.24155 7.16783 4.24226H7.1682H16.9552C17.7131 4.24226 18.44 4.54334 18.9759 5.07927C19.5118 5.61519 19.8129 6.34206 19.8129 7.09997L19.8129 14.4484M8.38986 17.3065L19.8129 14.4484M20.1257 3.93528C19.7104 3.51744 19.2163 3.18608 18.6722 2.96037M20.1257 3.93528C20.5435 4.35057 20.8748 4.84458 21.1005 5.38873C21.3262 5.93296 21.4418 6.51654 21.4406 7.10571C21.4406 7.10586 21.4406 7.10601 21.4406 7.10616M20.1257 3.93528C20.1258 3.93543 20.1259 3.93557 20.1261 3.93571L19.9842 4.07668L20.1257 3.93528ZM18.6722 2.96037L21.2406 7.10571L21.4406 7.10616M18.6722 2.96037C18.1279 2.73462 17.5442 2.61904 16.955 2.62032M18.6722 2.96037L16.955 2.62032M16.955 2.62032H16.9552V2.82032L16.955 2.62032ZM16.955 2.62032H7.16834H7.1682H16.955Z" stroke="white" stroke-opacity="0.8" stroke-width="0.4"/>
<path d="M7.17188 13.8359H12.0654V15.0579H7.17188V13.8359Z" fill="white" fill-opacity="0.8"/>
<path d="M7.17188 13.7359H7.07187V13.8359V15.0579V15.1579H7.17188H12.0654H12.1654V15.0579V13.8359V13.7359H12.0654H7.17188Z" stroke="white" stroke-opacity="0.8" stroke-width="0.2"/>
<path d="M7.17188 8.19531H17.5727V9.41725H7.17188V8.19531Z" fill="white" fill-opacity="0.8"/>
<path d="M7.17188 8.09531H7.07187V8.19531V9.41725V9.51725H7.17188H17.5727H17.6727V9.41725V8.19531V8.09531H17.5727H7.17188Z" stroke="white" stroke-opacity="0.8" stroke-width="0.2"/>
<path d="M7.17188 10.7754H17.5727V11.9973H7.17188V10.7754Z" fill="white" fill-opacity="0.8"/>
<path d="M7.17188 10.6754H7.07187V10.7754V11.9973V12.0973H7.17188H17.5727H17.6727V11.9973V10.7754V10.6754H17.5727H7.17188Z" stroke="white" stroke-opacity="0.8" stroke-width="0.2"/>
</g>
</svg>
