<svg width="25" height="24" viewBox="0 0 25 24" fill="none" xmlns="http://www.w3.org/2000/svg">
<g clip-path="url(#clip0_1233_35379)">
<path d="M7.25861 4.78277L8.11799 9.90973C8.168 10.2082 8.43776 10.4278 8.75444 10.4278H15.1998C15.5164 10.4278 15.7861 10.2082 15.8362 9.90973L16.6956 4.78277C16.7847 4.25121 16.163 3.87411 15.6967 4.17681L13.9894 5.28505L12.4329 3.79934C12.1812 3.55907 11.7731 3.55907 11.5214 3.79934L9.96487 5.28505L8.25751 4.17681C7.7913 3.87411 7.16945 4.25113 7.25861 4.78277ZM9.68106 6.58886C9.93694 6.75497 10.2804 6.724 10.4992 6.51515L11.9771 5.10446L13.455 6.51511C13.6738 6.724 14.0172 6.75493 14.2731 6.58882L15.1868 5.99577L14.6501 9.19729H9.30405L8.76742 5.99581L9.68106 6.58886Z" fill="white" fill-opacity="0.8"/>
<path d="M11.9805 3.00391C12.3364 3.00391 12.625 2.72846 12.625 2.38867C12.625 2.04889 12.3364 1.77344 11.9805 1.77344C11.6245 1.77344 11.3359 2.04889 11.3359 2.38867C11.3359 2.72846 11.6245 3.00391 11.9805 3.00391Z" fill="white" fill-opacity="0.8"/>
<path d="M16.4883 3.61914C16.8442 3.61914 17.1328 3.34369 17.1328 3.00391C17.1328 2.66412 16.8442 2.38867 16.4883 2.38867C16.1323 2.38867 15.8438 2.66412 15.8438 3.00391C15.8438 3.34369 16.1323 3.61914 16.4883 3.61914Z" fill="white" fill-opacity="0.8"/>
<path d="M7.47266 3.61914C7.82862 3.61914 8.11719 3.34369 8.11719 3.00391C8.11719 2.66412 7.82862 2.38867 7.47266 2.38867C7.11669 2.38867 6.82812 2.66412 6.82812 3.00391C6.82812 3.34369 7.11669 3.61914 7.47266 3.61914Z" fill="white" fill-opacity="0.8"/>
<path d="M21.0469 15.3906H15.6615V12.2734C15.6615 11.9337 15.3729 11.6582 15.0169 11.6582H8.98696C8.63101 11.6582 8.34243 11.9337 8.34243 12.2734V14.1602H2.95703C2.60108 14.1602 2.3125 14.4356 2.3125 14.7754V22.1582C2.3125 22.498 2.60108 22.7734 2.95703 22.7734H21.0469C21.4028 22.7734 21.6914 22.498 21.6914 22.1582V16.0059C21.6914 15.6661 21.4028 15.3906 21.0469 15.3906ZM3.60156 15.3906H8.34243V21.543H3.60156V15.3906ZM9.6315 12.8887H14.3724V21.543H9.6315V12.8887ZM20.4023 21.543H15.6615V16.6211H20.4023V21.543Z" fill="white" fill-opacity="0.8"/>
<path d="M12 14.1191H11.3555C10.9995 14.1191 10.7109 14.3946 10.7109 14.7344C10.7109 15.0741 10.9995 15.3496 11.3555 15.3496V17.1953C11.3555 17.5351 11.644 17.8105 12 17.8105C12.356 17.8105 12.6445 17.5351 12.6445 17.1953V14.7344C12.6445 14.3946 12.356 14.1191 12 14.1191Z" fill="white" fill-opacity="0.8"/>
</g>
<defs>
<clipPath id="clip0_1233_35379">
<rect width="22" height="21" fill="white" transform="translate(1 1.77344)"/>
</clipPath>
</defs>
</svg>
