<svg width="25" height="24" viewBox="0 0 25 24" fill="none" xmlns="http://www.w3.org/2000/svg">
<g clip-path="url(#clip0_1233_35320)">
<path d="M4.08567 14.7916C3.9419 14.8181 3.84279 14.8139 3.76463 14.853C2.51395 15.4951 1.70715 15.2913 1.04552 14.0518C0.929664 13.8326 1.09856 13.2952 1.31352 13.0942C2.63539 11.8617 4.04798 10.7255 5.34472 9.46783C5.9924 8.8397 6.39161 7.96032 7.01974 7.30706C8.56215 5.70323 9.83935 5.67113 11.58 7.08233C13.1196 8.32882 13.2508 8.31207 14.4163 6.74453C14.7681 6.26995 15.1129 5.78838 15.48 5.32635C16.1067 4.53491 16.9428 4.17338 17.9199 4.41347C18.9445 4.66472 19.6522 5.36962 19.9006 6.39976C20.1393 7.37825 19.7862 8.21436 18.9919 8.84109C18.2689 9.4106 17.5402 9.96894 16.8074 10.5259C16.2519 10.9474 16.1835 11.4011 16.6525 11.9427C16.9316 12.2637 17.1578 12.6322 17.4286 12.9616C18.5438 14.3114 18.5341 15.7729 17.2736 17.011C16.5701 17.7033 15.6447 18.1737 14.9579 18.88C13.6989 20.1754 12.5222 21.5531 11.3524 22.9294C10.8541 23.5142 10.4689 23.5701 9.91054 23.0006C8.07081 21.119 6.2269 19.2388 4.31878 17.4283C3.6404 16.7835 3.43241 16.1986 3.88746 15.3834C3.97959 15.2187 4.0103 15.0177 4.08148 14.793L4.08567 14.7916ZM6.84247 9.48598C5.21072 10.9195 3.66413 12.2763 2.0924 13.6554C2.41066 14.2165 2.7303 14.4301 3.28585 14.0281C3.73671 13.7028 4.21688 13.4097 4.71101 13.1557C4.91341 13.051 5.18839 13.0887 5.42987 13.0621C5.4522 13.3078 5.54852 13.5744 5.48291 13.7936C5.29587 14.4217 5.02089 15.0233 4.83245 15.65C4.75568 15.9055 4.68868 16.3103 4.82547 16.4582C5.66158 17.3697 6.55632 18.2282 7.49433 19.1662C8.28159 18.2337 8.95438 17.3851 9.69279 16.5992C9.88541 16.3954 10.2818 16.3842 10.5847 16.2851C10.5261 16.6034 10.5638 16.9956 10.3879 17.2273C9.81562 17.9867 9.15818 18.6832 8.55378 19.4188C8.42396 19.5765 8.3779 19.8013 8.29275 19.9953C8.36534 20.04 8.43792 20.0846 8.50911 20.1307C8.69057 19.9688 8.89157 19.8236 9.04791 19.6422C9.73745 18.8465 10.3865 18.016 11.1124 17.2567C11.3287 17.0291 11.7475 16.9984 12.0755 16.877C11.9973 17.1869 12.0085 17.5665 11.8284 17.7968C11.1822 18.6246 10.4591 19.3923 9.7891 20.2047C9.59368 20.442 9.48481 20.7491 9.33545 21.024C9.41222 21.0729 9.4876 21.1204 9.56437 21.1692C9.78491 20.9487 10.018 20.7379 10.226 20.5048C11.1012 19.5235 11.9527 18.5185 12.8544 17.5637C13.0233 17.3837 13.389 17.3865 13.6626 17.3055C13.6151 17.5875 13.6612 17.9462 13.5048 18.1416C12.6171 19.2415 11.6791 20.2996 10.7648 21.3758C10.6001 21.5712 10.4661 21.7918 10.3181 21.9983C10.4228 22.0835 10.5261 22.1672 10.6308 22.2524C12.0322 20.6807 13.4337 19.1061 14.8616 17.5051L6.84526 9.48877L6.84247 9.48598ZM7.36033 8.38465L15.9266 16.951C17.5626 15.5439 17.6407 14.9158 16.4236 13.2966C16.2253 13.0342 16.0299 12.7718 15.8317 12.5094C15.1296 11.5867 15.184 10.6752 16.0648 9.90612C16.7292 9.32545 17.4565 8.81597 18.1712 8.29392C18.7421 7.87656 19.2278 7.33218 18.9235 6.64822C18.696 6.13873 18.1893 5.62925 17.6812 5.40033C17.0056 5.09604 16.4515 5.56644 16.0299 6.13873C15.4646 6.90226 14.9146 7.68394 14.2781 8.38465C13.6109 9.12166 12.6841 9.14399 11.8885 8.55495C11.5981 8.33998 11.3189 8.11386 11.0286 7.8989C9.37453 6.68032 8.78549 6.75012 7.35893 8.38605L7.36033 8.38465Z" fill="white" fill-opacity="0.8"/>
<path d="M18.299 5.94323C18.1929 6.67465 18.2697 7.26509 18.0435 7.42422C17.7392 7.63918 17.2004 7.52193 16.7621 7.54706C16.7761 7.13389 16.6449 6.60905 16.8487 6.34104C17.0357 6.09258 17.5857 6.11771 18.299 5.94323Z" fill="white" fill-opacity="0.8"/>
</g>
<defs>
<clipPath id="clip0_1233_35320">
<rect width="24" height="24" fill="white" transform="translate(0.0625)"/>
</clipPath>
</defs>
</svg>
