<svg width="15" height="16" viewBox="0 0 15 16" fill="none" xmlns="http://www.w3.org/2000/svg">
<path d="M9.26648 7.98465L14.3429 2.92006C14.5652 2.69776 14.6901 2.39625 14.6901 2.08187C14.6901 1.76749 14.5652 1.46598 14.3429 1.24368C14.1206 1.02137 13.8191 0.896484 13.5047 0.896484C13.1903 0.896484 12.8888 1.02137 12.6665 1.24368L7.6019 6.32007L2.53731 1.24368C2.31501 1.02137 2.0135 0.896484 1.69912 0.896484C1.38474 0.896484 1.08323 1.02137 0.860925 1.24368C0.638622 1.46598 0.513733 1.76749 0.513733 2.08187C0.513733 2.39625 0.638622 2.69776 0.860925 2.92006L5.93731 7.98465L0.860925 13.0492C0.750273 13.159 0.662447 13.2895 0.602512 13.4334C0.542577 13.5773 0.511719 13.7316 0.511719 13.8874C0.511719 14.0433 0.542577 14.1976 0.602512 14.3414C0.662447 14.4853 0.750273 14.6159 0.860925 14.7256C0.970673 14.8363 1.10124 14.9241 1.24511 14.984C1.38897 15.044 1.54327 15.0748 1.69912 15.0748C1.85497 15.0748 2.00927 15.044 2.15313 14.984C2.297 14.9241 2.42757 14.8363 2.53731 14.7256L7.6019 9.64923L12.6665 14.7256C12.7762 14.8363 12.9068 14.9241 13.0507 14.984C13.1945 15.044 13.3488 15.0748 13.5047 15.0748C13.6605 15.0748 13.8148 15.044 13.9587 14.984C14.1026 14.9241 14.2331 14.8363 14.3429 14.7256C14.4535 14.6159 14.5413 14.4853 14.6013 14.3414C14.6612 14.1976 14.6921 14.0433 14.6921 13.8874C14.6921 13.7316 14.6612 13.5773 14.6013 13.4334C14.5413 13.2895 14.4535 13.159 14.3429 13.0492L9.26648 7.98465Z" fill="black" fill-opacity="0.8"/>
</svg>
