<svg width="19" height="19" viewBox="0 0 19 19" fill="none" xmlns="http://www.w3.org/2000/svg">
<path d="M17.1014 1.25637C16.7046 0.857085 16.2327 0.540454 15.7127 0.3248C15.1928 0.109146 14.6352 -0.0012464 14.0724 1.06152e-05H4.28539C3.72241 -0.000744553 3.16482 0.109585 2.64455 0.324678C2.12428 0.539772 1.65157 0.855402 1.25348 1.25349C0.855395 1.65157 0.539765 2.12429 0.324671 2.64456C0.109578 3.16483 -0.000751318 3.72242 3.85056e-06 4.2854V16.522C3.85056e-06 16.9073 0.121234 17.2828 0.346521 17.5954C0.571808 17.908 0.889731 18.1417 1.25526 18.2636C1.62078 18.3854 2.01538 18.3891 2.38315 18.2743C2.75092 18.1594 3.07322 17.9317 3.3044 17.6235L4.01576 16.6367C4.18737 16.4094 4.40923 16.2248 4.664 16.0974C4.91877 15.97 5.19954 15.9033 5.48438 15.9024H14.0724C15.2065 15.9009 16.2939 15.4505 17.0969 14.6496C17.8999 13.8488 18.3532 12.7626 18.3578 11.6285V4.2854C18.359 3.72252 18.2486 3.16498 18.033 2.64505C17.8173 2.12511 17.5007 1.65312 17.1014 1.25637ZM17.1301 11.6285C17.1286 12.439 16.8059 13.2158 16.2328 13.789C15.6597 14.3621 14.8829 14.6847 14.0724 14.6862H5.50733C5.03238 14.6869 4.56405 14.7975 4.13904 15.0095C3.71404 15.2216 3.34392 15.5291 3.05772 15.9081L2.32341 16.8891C2.24575 16.9907 2.1383 17.0655 2.01608 17.1031C1.89385 17.1406 1.76295 17.1391 1.64164 17.0987C1.52033 17.0582 1.41468 16.9809 1.33944 16.8775C1.2642 16.7742 1.22312 16.6498 1.22194 16.522V4.2854C1.22119 3.88289 1.29991 3.48419 1.45359 3.11217C1.60728 2.74016 1.8329 2.40214 2.11752 2.11753C2.40214 1.83291 2.74015 1.60729 3.11217 1.4536C3.48418 1.29992 3.88288 1.22119 4.28539 1.22195H14.0724C14.8833 1.22195 15.6611 1.5441 16.2345 2.11753C16.8079 2.69096 17.1301 3.46871 17.1301 4.27966V11.6285Z" fill="#505050"/>
<path d="M4.28516 11.0146H9.17864V12.2366H4.28516V11.0146Z" fill="#505050"/>
<path d="M4.28516 5.37402H14.686V6.59596H4.28516V5.37402Z" fill="#505050"/>
<path d="M4.28516 7.95605H14.686V9.17799H4.28516V7.95605Z" fill="#505050"/>
</svg>
