<svg width="25" height="17" viewBox="0 0 25 17" fill="none" xmlns="http://www.w3.org/2000/svg">
<rect x="0.957031" y="8.81543" width="23.0012" height="7.88563" fill="url(#paint0_linear_502_111368)"/>
<path d="M0.274319 8.28446C0.543057 8.17209 0.810914 7.96162 1.07965 7.96162C8.59022 7.94378 16.1008 7.94378 23.6105 7.96162C23.8792 7.96162 24.1479 8.17209 24.4167 8.28446V16.6676C24.1585 16.7683 23.9004 16.9556 23.6413 16.9565C16.1255 16.9726 8.6096 16.9681 1.09375 16.9735C0.772145 16.9735 0.489309 16.9307 0.273438 16.6676C0.274319 13.8735 0.274319 11.0794 0.274319 8.28446ZM23.4149 8.98721H1.27526V15.947H2.40219V13.9315H3.38375V15.9497H4.50452V12.2325H5.48696V15.9532H6.60684V13.9243H7.58928V15.9568H8.72503V12.2361H9.69248V15.9434H10.8106V13.9297H11.7649V15.9514H12.8839V12.2325H13.8681V15.9443H15.0267V13.9261H15.9827V15.9541H17.1026V12.2299H18.0868V15.9559H19.2226V13.9225H20.2023V15.947H21.3363V12.237H22.317V15.9541H23.4157V8.98721H23.4149Z" fill="#555555"/>
<path d="M4.9574 4.02431C5.18124 4.23211 5.36496 4.38193 5.5237 4.55494C5.7743 4.82784 5.7636 5.12928 5.5237 5.39415C5.29718 5.64386 4.99039 5.70718 4.72463 5.48868C4.04863 4.93129 3.38244 4.36142 2.74122 3.7639C2.46298 3.50527 2.48884 3.15122 2.76619 2.89259C3.38423 2.31469 4.01831 1.75285 4.6622 1.20259C4.9574 0.950208 5.2838 0.997474 5.5344 1.28107C5.79125 1.57181 5.74844 1.88216 5.47911 2.15327C5.31323 2.32004 5.13309 2.47254 4.89943 2.68658H20.0755C19.8767 2.50287 19.7161 2.36553 19.5672 2.21481C19.2898 1.93389 19.2595 1.54862 19.5092 1.30248C19.7839 1.03226 20.1085 1.0269 20.3921 1.2668C21.0039 1.78495 21.6032 2.31915 22.1918 2.86495C22.4959 3.14676 22.5057 3.52935 22.2025 3.80582C21.589 4.36677 20.9558 4.90721 20.3199 5.4432C20.0238 5.69291 19.7117 5.66169 19.4459 5.38701C19.1819 5.11501 19.2158 4.79128 19.5208 4.4836C19.6626 4.34091 19.8142 4.20892 20.0131 4.02342H4.9574V4.02431Z" fill="#555555"/>
<path d="M0.379526 3.42124C0.379526 2.75327 0.367933 2.08441 0.383094 1.41643C0.395579 0.91077 0.653315 0.648575 1.06801 0.669087C1.45685 0.687815 1.6584 0.952686 1.65305 1.45656C1.63967 2.68906 1.62094 3.92155 1.6031 5.15405C1.60132 5.27266 1.60667 5.39395 1.58348 5.50899C1.50679 5.87553 1.29275 6.09492 0.898566 6.05568C0.530244 6.01912 0.347421 5.79081 0.344745 5.42695C0.339394 4.75897 0.342962 4.09011 0.342962 3.42214C0.355447 3.42214 0.367933 3.42214 0.380418 3.42214L0.379526 3.42124Z" fill="#555555"/>
<path d="M24.602 3.30459C24.602 3.9574 24.6145 4.61021 24.5976 5.26214C24.5842 5.77582 24.3256 6.05853 23.9341 6.0398C23.5443 6.02107 23.3365 5.73034 23.3419 5.20773C23.3544 4.00645 23.366 2.80428 23.3811 1.603C23.3829 1.47012 23.3794 1.33188 23.4124 1.20525C23.4953 0.883298 23.6995 0.681747 24.0482 0.704934C24.4076 0.729013 24.6297 0.929673 24.635 1.30156C24.6457 1.96864 24.6377 2.63662 24.6377 3.3037C24.6252 3.3037 24.6127 3.3037 24.6003 3.3037L24.602 3.30459Z" fill="#555555"/>
<defs>
<linearGradient id="paint0_linear_502_111368" x1="12.4577" y1="8.81543" x2="12.4577" y2="16.7011" gradientUnits="userSpaceOnUse">
<stop stop-color="#1FA6B8"/>
<stop offset="1" stop-color="#34BC93"/>
</linearGradient>
</defs>
</svg>
