<svg width="243" height="70" viewBox="0 0 243 70" fill="none" xmlns="http://www.w3.org/2000/svg">
<g clip-path="url(#clip0_5990_108878)">
<ellipse cx="31.5" cy="35" rx="17.5" ry="17" fill="url(#paint0_radial_5990_108878)"/>
<path d="M47.5778 35.4967C47.7597 35.7949 47.9407 36.102 48.1211 36.4181L48.1792 36.3846C47.9914 36.0469 47.7991 35.7136 47.6046 35.4073C47.8707 34.4987 48.0128 33.5583 48.0272 32.6117H47.9579C47.9441 33.5335 47.8088 34.4494 47.5555 35.3357C46.8436 34.1672 46.02 33.0707 45.0963 32.0616C45.3295 31.1913 45.4497 30.2945 45.454 29.3935C45.4514 28.7271 45.3825 28.0626 45.2483 27.4098C45.9018 27.8061 46.5027 28.2832 47.0368 28.8299L47.0882 28.7785C46.5346 28.2116 45.9102 27.7185 45.2304 27.3114C44.9075 25.7795 44.3009 24.3217 43.4419 23.013L43.386 23.051C44.2306 24.3355 44.8316 25.7645 45.1589 27.2667C44.0207 26.6174 42.771 26.1873 41.4745 25.9986C41.2079 24.8987 40.7328 23.8601 40.075 22.9392C41.1524 22.7684 42.2511 22.7836 43.3234 22.9839L43.3368 22.9124C42.2441 22.711 41.1251 22.6981 40.028 22.8743C39.3429 21.9256 38.496 21.105 37.5264 20.4501C38.0145 20.1771 38.5245 19.9452 39.0511 19.7568L39.0287 19.6874C38.4877 19.8811 37.9641 20.1205 37.4638 20.4031C36.3655 19.6718 35.1459 19.1418 33.8621 18.8376C34.0075 18.614 34.1572 18.3903 34.3093 18.1667L34.2534 18.1242C34.0857 18.3478 33.9292 18.5715 33.7817 18.813C32.9123 18.611 32.0227 18.509 31.1302 18.5089H31.0542C30.474 18.5118 29.8948 18.5581 29.3215 18.6475C29.2232 18.4239 29.1226 18.2002 29.013 18.0034L28.9504 18.0347C29.0577 18.236 29.1539 18.4462 29.2478 18.6587C27.9505 18.8642 26.6991 19.2949 25.55 19.9312C25.1746 19.6888 24.7797 19.4779 24.3696 19.3005L24.3428 19.3654C24.7371 19.5363 25.1169 19.739 25.4785 19.9715C24.3563 20.6018 23.3615 21.4361 22.5453 22.4315C21.7166 22.2412 20.8693 22.1437 20.019 22.1408V22.2101C20.8511 22.2131 21.6803 22.3076 22.4916 22.4919C21.7875 23.3678 21.253 24.3674 20.9155 25.4395C19.7089 25.5819 18.5308 25.9061 17.4212 26.4012C17.6397 25.5414 17.9391 24.7042 18.3155 23.9009L18.1903 24.0686C17.8283 24.8266 17.5465 25.6203 17.3497 26.437C16.9495 26.6226 16.5471 26.8283 16.1424 27.0654L16.1782 27.128C16.5507 26.9086 16.9342 26.7085 17.3273 26.5287C17.0914 27.4628 16.9646 28.4212 16.9495 29.3846C16.9491 30.1075 17.024 30.8286 17.173 31.536C16.2689 32.3527 15.4692 33.2782 14.7921 34.2913C14.6615 33.6419 14.5956 32.9812 14.5953 32.3188H14.526C14.5307 33.0097 14.6056 33.6983 14.7496 34.374C14.5931 34.5977 14.4389 34.8481 14.2891 35.0986L14.3494 35.1366C14.488 34.913 14.6289 34.6894 14.772 34.4657C15.1018 35.9816 15.7278 37.4173 16.6141 38.6903C16.2455 39.4869 15.9346 40.3091 15.6841 41.1504C15.2771 40.4451 14.9644 39.6895 14.7541 38.9028L14.6848 38.9207C14.9027 39.7348 15.2299 40.5157 15.6573 41.2421C15.6282 41.3405 15.5969 41.4344 15.5701 41.5328L15.6372 41.5529C15.6573 41.4769 15.6841 41.4031 15.7065 41.3293C16.7194 42.979 18.0464 44.4136 19.6121 45.5517C19.5518 46.1309 19.5048 46.7213 19.478 47.3162H19.5495C19.5734 46.7362 19.6174 46.1629 19.6814 45.5964C20.985 46.5604 22.399 47.3653 23.8934 47.9938C23.8934 48.8303 23.9403 49.6957 24.0029 50.6037H24.0745C24.0096 49.7092 23.9761 48.8526 23.9672 48.0319C25.4611 48.659 27.0233 49.1094 28.6218 49.3737C28.6419 50.228 28.6687 51.0913 28.7112 51.9657H28.7805C28.7403 51.098 28.7134 50.2437 28.6933 49.3916C29.6315 49.5416 30.5802 49.6164 31.5304 49.6152C32.0669 49.6152 32.599 49.5884 33.1288 49.5459C33.1423 50.4047 33.1512 51.2635 33.1601 52.1267H33.2295C33.2295 51.2635 33.2093 50.4025 33.1982 49.5414C34.6969 49.4087 36.1754 49.1041 37.6046 48.6335C37.5755 49.4386 37.5241 50.2683 37.4481 51.1315H37.5174C37.5957 50.2616 37.6471 49.4184 37.6784 48.6021C39.1643 48.1038 40.5829 47.4232 41.9015 46.5759C41.9149 47.1418 41.9149 47.7232 41.9015 48.3226H41.9731C41.9932 47.7053 41.9932 47.106 41.9731 46.5223C43.5366 45.5132 44.9008 44.2243 45.9972 42.7204C46.0142 42.9309 46.0202 43.1421 46.0151 43.3533H46.0844C46.0902 43.1122 46.0827 42.8711 46.0621 42.6309C46.7411 41.6737 47.269 40.6177 47.627 39.4999L47.5577 39.4775C47.2131 40.5626 46.7041 41.5884 46.0486 42.5191C45.9378 41.5432 45.6855 40.5887 45.2997 39.6855C46.3252 38.4515 47.0992 37.0284 47.5778 35.4967ZM47.5286 35.4162C47.064 36.9528 46.3004 38.3824 45.2818 39.6229C44.7297 38.3268 44.0329 37.0971 43.2049 35.9574C44.068 34.8143 44.7053 33.5172 45.0828 32.1354C46.0013 33.148 46.8204 34.2467 47.5286 35.4162ZM28.9281 27.0296C28.9282 27.2305 28.9646 27.4298 29.0354 27.6178C27.6935 28.1596 26.3972 28.808 25.1588 29.5568C24.9143 29.0299 24.7587 28.4661 24.6982 27.8884C26.053 27.544 27.4682 27.2846 28.9281 27.0296ZM29.0108 26.9469C29.0201 26.7556 29.0617 26.5674 29.1337 26.39L29.1472 26.3207C29.2334 26.1333 29.3514 25.9623 29.4959 25.8152C29.8441 25.4674 30.301 25.2495 30.7904 25.198H30.8239C30.8981 25.189 30.9727 25.1845 31.0475 25.1846C31.184 25.1847 31.3202 25.1974 31.4543 25.2226C31.4543 25.2226 31.4543 25.2226 31.4543 25.236L31.5237 25.2494C32.0048 25.3449 32.4366 25.608 32.7421 25.9919L32.7823 26.0501C32.9897 26.3356 33.1023 26.679 33.1043 27.0319C33.1077 27.0832 33.1077 27.1348 33.1043 27.1862H33.0171V27.26H33.0998C33.0422 27.6576 32.8496 28.0232 32.5543 28.2954L32.5163 28.2619L32.4693 28.3133L32.5006 28.3424C32.0966 28.6811 31.5834 28.8615 31.0564 28.8501C30.9713 28.8501 30.8862 28.8456 30.8015 28.8366C30.8073 28.8168 30.8118 28.7967 30.815 28.7763L30.7479 28.7606C30.7479 28.783 30.7479 28.8031 30.7322 28.8277C30.2984 28.7678 29.893 28.5775 29.5697 28.282L29.5272 28.2261C29.5186 28.2295 29.511 28.2348 29.5049 28.2418C29.3398 28.0749 29.2079 27.8784 29.1159 27.6625H29.1315L29.1069 27.5977H29.0913C29.0221 27.4139 28.9865 27.2192 28.9862 27.0229H29.0108V26.9469ZM29.905 28.66C29.1539 29.9392 28.472 31.1469 27.8594 32.3188C27.2931 32.025 26.7739 31.6481 26.3191 31.2005C27.3088 30.1661 28.3737 29.2063 29.5049 28.329C29.8395 28.6364 30.2598 28.8346 30.7099 28.897C30.3857 30.2635 30.0973 31.6255 29.8469 32.9942C29.1763 32.8756 28.5269 32.6585 27.9198 32.3501C28.5324 31.1804 29.2142 29.9705 29.9632 28.6935L29.905 28.66ZM34.0835 32.4462C33.4595 32.7383 32.7958 32.9365 32.1139 33.0344C31.9171 31.6598 31.6824 30.2866 31.4096 28.9149L31.3403 28.9283C31.6153 30.297 31.8456 31.6702 32.0423 33.0411C31.7288 33.0824 31.4129 33.1033 31.0966 33.1037C30.7019 33.1041 30.3077 33.0712 29.9185 33.0053C30.1644 31.6389 30.455 30.2769 30.7792 28.9104C30.869 28.9202 30.9593 28.9255 31.0497 28.9261C31.5989 28.9304 32.1307 28.734 32.5453 28.3737C33.648 29.3166 34.6966 30.3209 35.6864 31.3817C35.2258 31.798 34.7078 32.1459 34.1483 32.4149C33.5201 31.1782 32.8248 29.9549 32.0669 28.7002L32.0088 28.7382C32.7711 29.9839 33.4642 31.2117 34.0902 32.4462H34.0835ZM29.8357 33.0657C29.5876 34.4456 29.373 35.8255 29.2008 37.221C28.1265 37.0467 27.0828 36.7183 26.1022 36.2459C26.6097 34.989 27.2066 33.7255 27.8907 32.4149C28.5055 32.7255 29.1622 32.9448 29.8402 33.0657H29.8357ZM29.9073 33.0769C30.3012 33.1417 30.6997 33.1746 31.0989 33.1753C31.4189 33.176 31.7386 33.1551 32.0557 33.1127C32.2525 34.4993 32.4112 35.8881 32.5431 37.2836C32.084 37.3413 31.6219 37.3719 31.1592 37.3753H31.0832C30.4768 37.3745 29.8714 37.3266 29.2724 37.2322C29.4467 35.8396 29.6599 34.4545 29.9118 33.0769H29.9073ZM32.125 33.1015C32.8148 33.0042 33.4862 32.8044 34.117 32.5088C34.7534 33.7652 35.3155 35.0578 35.8004 36.3801C34.7871 36.8323 33.713 37.1337 32.6124 37.2747C32.4857 35.8821 32.3248 34.4903 32.1295 33.0993L32.125 33.1015ZM34.1796 32.4798C34.7486 32.2076 35.2756 31.8551 35.7446 31.4331C36.7059 32.4724 37.58 33.5892 38.358 34.7721C37.6072 35.411 36.7713 35.9424 35.8742 36.351C35.3884 35.0281 34.824 33.7354 34.1841 32.4798H34.1796ZM35.7848 31.3839C36.2299 30.9699 36.6071 30.4884 36.9026 29.9571C38.0805 30.756 39.1881 31.6538 40.2136 32.6408C39.7515 33.3558 39.1975 34.0069 38.5659 34.5775L38.3916 34.7274C37.6185 33.5425 36.7481 32.4241 35.7893 31.3839H35.7848ZM35.7401 31.3325C34.7533 30.2725 33.7084 29.2683 32.6102 28.3245C32.7594 28.1831 32.8847 28.0185 32.9813 27.837C34.3439 28.396 35.6459 29.0929 36.8668 29.9168C36.5683 30.444 36.1897 30.9216 35.7446 31.3325H35.7401ZM33.0059 27.7766C33.0848 27.609 33.1376 27.4302 33.1624 27.2465C34.6255 27.2928 36.0812 27.4747 37.5107 27.79C37.4506 28.5145 37.2397 29.2184 36.8914 29.8565C35.6726 29.0316 34.3721 28.3346 33.0104 27.7766H33.0059ZM29.0577 27.6849C29.1505 27.9072 29.2857 28.1092 29.4557 28.2798C28.3267 29.159 27.2628 30.1187 26.2721 31.1513C25.8279 30.7056 25.4614 30.1885 25.1878 29.6216C26.4247 28.8721 27.7204 28.2244 29.0622 27.6849H29.0577ZM26.2274 31.205C25.2481 32.2341 24.3566 33.3436 23.5625 34.5216C22.817 33.8394 22.1846 33.043 21.689 32.1622C22.7623 31.2315 23.9126 30.3936 25.1275 29.6574C25.4071 30.2299 25.7787 30.7527 26.2274 31.205ZM26.2766 31.2565C26.7364 31.703 27.2591 32.0797 27.8281 32.3747C27.1574 33.6852 26.5493 34.9488 26.0396 36.2057C25.1589 35.7727 24.3425 35.2195 23.6139 34.5619C24.4064 33.3861 25.2979 32.2802 26.2788 31.2565H26.2766ZM26.015 36.2795C25.4985 37.5526 25.072 38.8604 24.7385 40.1932C23.6065 39.6996 22.542 39.0638 21.5706 38.3012C22.1316 37.0194 22.805 35.7898 23.5826 34.6267C24.3132 35.2885 25.1327 35.8448 26.0173 36.2795H26.015ZM26.0776 36.313C27.0638 36.7882 28.1135 37.1181 29.1941 37.2926C29.0264 38.6344 28.8968 39.9763 28.8006 41.3539C27.4241 41.1547 26.08 40.7742 24.8033 40.2223C25.1388 38.8915 25.5654 37.5853 26.0799 36.313H26.0776ZM29.2657 37.3015C29.8676 37.3966 30.476 37.4452 31.0855 37.4469H31.1615C31.6264 37.4434 32.0907 37.4128 32.5521 37.3552C32.6795 38.7127 32.7756 40.0769 32.8561 41.4411C32.3027 41.4978 31.7468 41.5262 31.1905 41.5261C30.4141 41.5263 29.6387 41.4718 28.8699 41.3628C28.9683 39.9942 29.1002 38.6434 29.2679 37.3015H29.2657ZM32.6191 37.3462C33.7309 37.2084 34.8164 36.9077 35.8407 36.4539C36.3149 37.7675 36.6966 39.1126 36.9831 40.4795C35.6832 40.9766 34.3233 41.2999 32.9388 41.4411C32.8554 40.0709 32.751 38.7067 32.6258 37.3485L32.6191 37.3462ZM35.8876 36.4181C36.7908 36.0082 37.6322 35.4737 38.3871 34.8303C39.1679 36.0328 39.8255 37.311 40.35 38.6456C39.3249 39.3823 38.209 39.9837 37.03 40.4347C36.746 39.0709 36.3665 37.7287 35.8943 36.4181H35.8876ZM38.4407 34.7855C38.5011 34.7319 38.5615 34.6827 38.6218 34.6267C39.2559 34.0573 39.8115 33.406 40.274 32.69C41.3147 33.6927 42.2642 34.7862 43.111 35.9574C42.3424 36.9638 41.4329 37.8541 40.4103 38.6009C39.8853 37.2666 39.2277 35.9884 38.4474 34.7855H38.4407ZM40.312 32.6296C40.9548 31.6268 41.3848 30.5024 41.5751 29.3264C42.8574 30.0599 44.0193 30.9861 45.0202 32.0727C44.6491 33.4562 44.0154 34.7554 43.1535 35.8993C42.3045 34.7277 41.3537 33.6336 40.312 32.6296ZM40.2606 32.5804C39.2348 31.5928 38.1264 30.6949 36.9473 29.8967C37.3006 29.2511 37.5153 28.5389 37.5778 27.8057C38.9536 28.1156 40.2789 28.6178 41.5148 29.2973C41.3275 30.4655 40.9029 31.5828 40.2673 32.5804H40.2606ZM37.5778 27.7341C37.5778 27.6088 37.5934 27.4836 37.5934 27.3584C37.5934 26.8937 37.531 26.4311 37.4079 25.983C38.7327 25.8498 40.0687 25.876 41.3873 26.0612C41.5297 26.6692 41.6047 27.2909 41.6109 27.9152C41.6123 28.3494 41.5809 28.783 41.517 29.2124C40.2839 28.5379 38.9625 28.0396 37.5912 27.7319L37.5778 27.7341ZM37.5219 27.3584C37.5219 27.4791 37.5219 27.5977 37.5085 27.7184C36.0794 27.4053 34.6246 27.2241 33.1624 27.1772C33.1624 27.1235 33.1624 27.0721 33.1624 27.0184C33.1606 26.9187 33.1508 26.8192 33.1333 26.721C34.5114 26.3739 35.9132 26.1295 37.3274 25.9897C37.458 26.4345 37.528 26.8949 37.5353 27.3584H37.5219ZM33.1288 26.6517C33.0765 26.4157 32.9768 26.1928 32.836 25.9964C33.9333 25.2284 35.1028 24.5692 36.3281 24.0283C36.7797 24.5879 37.1169 25.2307 37.3207 25.9204C35.9117 26.0606 34.5151 26.3051 33.1423 26.6517H33.1288ZM32.7935 25.9405C32.6676 25.7757 32.5167 25.6316 32.3464 25.5133C33.0465 24.4762 33.8373 23.5032 34.7094 22.606C35.3038 22.9698 35.8328 23.431 36.2744 23.9702C35.0568 24.5125 33.8954 25.1732 32.8069 25.9427L32.7935 25.9405ZM32.286 25.4753C32.0556 25.3271 31.8004 25.2218 31.5326 25.1644C31.7512 24.0018 32.0569 22.8573 32.447 21.7405C33.2223 21.8893 33.9663 22.17 34.6469 22.5702C33.7801 23.4673 32.9946 24.4395 32.2994 25.4753H32.286ZM31.4633 25.151C31.3246 25.1259 31.1839 25.1131 31.043 25.113C30.9647 25.113 30.891 25.113 30.8194 25.113C30.6974 23.9485 30.5094 22.7919 30.256 21.6488C30.9647 21.5628 31.6823 21.5847 32.3844 21.7136C31.995 22.8347 31.6916 23.9838 31.4767 25.151H31.4633ZM30.7456 25.1331C30.4942 25.1668 30.2501 25.2424 30.0235 25.3568L29.7709 24.943C29.2408 24.034 28.6594 23.1559 28.0293 22.313C28.7077 21.9861 29.4349 21.7723 30.1823 21.6801C30.4386 22.8195 30.6312 23.9723 30.7591 25.1331H30.7456ZM29.7105 24.9676L29.9609 25.3791C29.7836 25.4719 29.6209 25.5902 29.478 25.7303C28.3891 25.0028 27.2582 24.3404 26.091 23.7465C26.6227 23.1632 27.2589 22.6845 27.9667 22.3354C28.6013 23.1792 29.188 24.058 29.724 24.9676H29.7105ZM29.4266 25.7795C29.277 25.9341 29.1553 26.1134 29.0667 26.3095L28.2216 26.1306C27.2133 25.9069 26.1313 25.6833 24.9933 25.5267C25.2347 24.8933 25.5892 24.309 26.0396 23.8025C27.2115 24.393 28.347 25.0532 29.44 25.7795H29.4266ZM28.2082 26.1999C28.4921 26.2625 28.7671 26.3184 29.0399 26.3766C28.9661 26.562 28.9245 26.7586 28.9169 26.958C27.4548 27.2063 26.0374 27.4724 24.6692 27.8191C24.6692 27.667 24.6468 27.5149 24.6468 27.3584C24.6465 26.7563 24.7525 26.159 24.9598 25.5938C26.1223 25.7481 27.2089 25.9807 28.2216 26.1999H28.2082ZM24.5864 27.3584C24.5864 27.5194 24.5864 27.6782 24.6088 27.837C23.2554 28.171 21.9371 28.6339 20.6718 29.2191C20.6135 28.8311 20.5821 28.4395 20.5779 28.0472C20.5731 27.1882 20.7005 26.3335 20.9558 25.5133C22.2667 25.3728 23.59 25.3969 24.895 25.5849C24.6958 26.1548 24.596 26.7547 24.5999 27.3584H24.5864ZM24.6155 27.9085C24.6772 28.4924 24.8366 29.0617 25.0872 29.5926C23.8703 30.3295 22.7185 31.169 21.6443 32.1018C21.1682 31.229 20.8475 30.2801 20.6964 29.2973C21.9599 28.7099 23.2768 28.2448 24.6289 27.9085H24.6155ZM21.5884 32.1577C20.5363 33.0768 19.5777 34.0978 18.7268 35.206C18.0116 34.0967 17.5034 32.8669 17.2267 31.5763C18.2467 30.6753 19.3884 29.9225 20.6182 29.3398C20.7828 30.3256 21.1155 31.2758 21.6019 32.1488L21.5884 32.1577ZM21.6242 32.2204C22.1253 33.1044 22.7628 33.9037 23.5133 34.5887C22.7349 35.7514 22.0616 36.981 21.5013 38.2632C20.4341 37.4186 19.5101 36.4075 18.7648 35.2686C19.6189 34.1549 20.5812 33.1286 21.6376 32.2047L21.6242 32.2204ZM21.4744 38.3303C20.9354 39.5926 20.5061 40.899 20.1912 42.235C18.842 41.2508 17.6618 40.0536 16.6969 38.6903C17.2557 37.4971 17.9384 36.366 18.7335 35.3156C19.485 36.4584 20.415 37.4732 21.4878 38.3213L21.4744 38.3303ZM21.5303 38.3772C22.5105 39.1364 23.5832 39.7677 24.7228 40.2558C24.3893 41.6149 24.1584 42.9972 24.032 44.391C22.6898 43.8365 21.4185 43.124 20.2448 42.2686C20.5665 40.934 21.001 39.6292 21.5437 38.3683L21.5303 38.3772ZM24.7742 40.3005C26.0553 40.8532 27.404 41.2338 28.785 41.4322C28.6866 42.8232 28.6248 44.2344 28.5994 45.6657C27.0502 45.4422 25.5342 45.0291 24.0857 44.4357C24.2153 43.0386 24.45 41.6534 24.7877 40.2916L24.7742 40.3005ZM28.8543 41.4411C30.1785 41.6314 31.521 41.6577 32.8516 41.5194C32.9321 42.9395 32.988 44.3619 33.0305 45.7887C32.4716 45.8379 31.9015 45.867 31.3269 45.867C30.4374 45.8662 29.5491 45.802 28.6687 45.6747C28.709 44.2366 28.7671 42.8255 28.8677 41.4322L28.8543 41.4411ZM32.9209 41.5127C34.3072 41.3701 35.6689 41.0476 36.9719 40.5533C37.2622 41.9702 37.4527 43.4058 37.542 44.8494C36.1029 45.3308 34.613 45.6445 33.102 45.7843C33.073 44.3485 33.0148 42.9216 32.9343 41.5037L32.9209 41.5127ZM37.039 40.5242C38.2223 40.0693 39.3419 39.4634 40.3701 38.7216C40.9042 40.0842 41.2989 41.4974 41.5483 42.9395C40.3213 43.7183 39.0056 44.3475 37.6292 44.8136C37.5374 43.3691 37.3447 41.9328 37.0524 40.5152L37.039 40.5242ZM40.4305 38.6814C41.4657 37.9275 42.3853 37.0264 43.1602 36.0066C43.9897 37.149 44.6844 38.3835 45.2304 39.6855C44.1967 40.9346 42.9748 42.0151 41.6087 42.8881C41.3641 41.447 40.9738 40.0346 40.4439 38.6724L40.4305 38.6814ZM45.1477 27.3696C45.2909 28.0379 45.3658 28.719 45.3712 29.4025C45.3719 30.2721 45.2638 31.1383 45.0493 31.9811C44.0461 30.8933 42.8792 29.969 41.5908 29.2414C41.7537 28.1851 41.7142 27.1073 41.4745 26.0657C42.775 26.2568 44.0266 26.6965 45.1611 27.3606L45.1477 27.3696ZM41.3694 25.9942C40.0505 25.8129 38.7147 25.7881 37.39 25.9204C37.1874 25.2248 36.8501 24.5759 36.3974 24.0104C37.5397 23.5087 38.742 23.1561 39.9744 22.9616C40.6322 23.8705 41.1103 24.8968 41.3829 25.9852L41.3694 25.9942ZM39.9207 22.8945C38.6887 23.0955 37.4869 23.4509 36.3437 23.9523C35.8964 23.4029 35.358 22.9346 34.7519 22.568C35.5451 21.7604 36.4438 21.0638 37.4235 20.497C38.3933 21.1405 39.243 21.9489 39.9342 22.8855L39.9207 22.8945ZM37.3788 20.4411C36.4067 21.0148 35.5138 21.7132 34.7229 22.5188C34.0327 22.1086 33.276 21.8225 32.4872 21.6734C32.8262 20.7037 33.2684 19.7732 33.8062 18.898C35.0787 19.1978 36.2881 19.7202 37.3788 20.4411ZM31.0475 18.5849H31.1235C32.0022 18.5844 32.8782 18.6834 33.7347 18.8801C33.199 19.7572 32.7569 20.6882 32.4157 21.6577C31.9827 21.5784 31.5435 21.5387 31.1034 21.5392C30.8179 21.5393 30.5327 21.5565 30.2493 21.5906C30.0347 20.6088 29.7317 19.6485 29.3439 18.7213C29.9077 18.6349 30.4771 18.5893 31.0475 18.5849ZM29.2724 18.7347C29.6543 19.6607 29.9536 20.6186 30.1666 21.5973C29.4104 21.6937 28.6749 21.9128 27.9891 22.2459C27.3213 21.3654 26.514 20.6001 25.5992 19.9804C26.7424 19.3559 27.9852 18.9344 29.2724 18.7347ZM25.5411 20.0207C26.4581 20.6365 27.2677 21.3988 27.9377 22.2772C27.2199 22.6335 26.5754 23.1213 26.0374 23.7152C24.9485 23.1673 23.801 22.7449 22.6168 22.4561C23.4314 21.4692 24.4232 20.6432 25.5411 20.0207ZM22.5699 22.5165C23.7536 22.8015 24.9005 23.2217 25.9882 23.7689C25.5352 24.2831 25.1785 24.8748 24.9352 25.5156C23.6289 25.3264 22.3043 25.3001 20.9915 25.4373C21.3315 24.374 21.8668 23.3835 22.5699 22.5165ZM17.0076 29.3935C17.0233 28.4124 17.1547 27.4365 17.3988 26.4862C18.5072 25.9871 19.6845 25.6584 20.8909 25.5111C20.641 26.3292 20.5166 27.1805 20.522 28.036C20.5267 28.4404 20.5595 28.8439 20.6204 29.2437C19.3885 29.825 18.2452 30.5779 17.2245 31.4801C17.0814 30.7938 17.0088 30.0946 17.0076 29.3935ZM14.8033 34.3986C15.477 33.3789 16.2753 32.4473 17.1798 31.6255C17.4636 32.9161 17.9762 34.1454 18.6933 35.2552C17.8964 36.3026 17.2116 37.4307 16.6499 38.621C15.7613 37.3495 15.1336 35.9144 14.8033 34.3986ZM15.7333 41.2287C15.9833 40.3872 16.2941 39.565 16.6633 38.7686C17.632 40.1317 18.8151 41.3288 20.1666 42.3133C19.9204 43.3514 19.7389 44.4038 19.6233 45.4644C18.0584 44.3248 16.736 42.8849 15.7333 41.2287ZM19.6881 45.5114C19.8041 44.4473 19.9848 43.3912 20.2292 42.3491C21.4061 43.2063 22.6822 43.9181 24.0298 44.4692C23.9314 45.5651 23.8889 46.7057 23.9001 47.9111C22.4054 47.2822 20.9914 46.4766 19.6881 45.5114ZM23.9649 47.9424C23.9649 46.7347 23.9962 45.5942 24.0946 44.5005C25.5443 45.0922 27.0609 45.5045 28.6106 45.7283C28.5897 46.8972 28.5897 48.0848 28.6106 49.291C27.0147 49.0244 25.4556 48.5718 23.9649 47.9424ZM31.5304 49.537C30.5788 49.5381 29.6286 49.4633 28.6889 49.3133C28.6643 48.1057 28.6598 46.9181 28.6889 45.735C29.5693 45.8617 30.4576 45.9252 31.347 45.9251C31.9216 45.9251 32.4917 45.9028 33.0528 45.8536C33.0886 47.0501 33.1154 48.2555 33.1333 49.4609C32.599 49.5079 32.0669 49.537 31.5304 49.537ZM33.1982 49.4587C33.1788 48.251 33.1519 47.0471 33.1177 45.8469C34.6301 45.7107 36.1212 45.3961 37.5599 44.9098C37.6314 46.066 37.6516 47.2715 37.6091 48.5418C36.1795 49.0181 34.6991 49.3258 33.1982 49.4587ZM37.6694 48.5194C37.7119 47.2491 37.694 46.0414 37.6203 44.8897C39.0012 44.4194 40.3213 43.7866 41.5528 43.0044C41.746 44.1551 41.8588 45.3179 41.8903 46.4842C40.5791 47.3428 39.1637 48.0305 37.6784 48.5306L37.6694 48.5194ZM45.986 42.6197C44.8926 44.1312 43.5281 45.4264 41.9619 46.4395C41.9285 45.2738 41.8142 44.1118 41.6198 42.9619C42.9902 42.0884 44.2165 41.0072 45.255 39.7571C45.6417 40.6695 45.8911 41.6342 45.995 42.6197H45.986Z" fill="white"/>
<path d="M29.932 52.1086C21.2264 51.355 14.3294 43.7422 14.3294 34.7674C14.3294 31.0728 15.7871 27.8971 17.5063 24.9272C21.0855 18.7725 40.5357 8.02875 60.5022 0C55.8521 0.932588 46.8201 3.75495 41.9173 5.30032C33.6208 7.91693 25.881 11.0994 19.297 14.5636C18.3581 15.0914 17.5085 15.4581 15.5188 16.6479C5.57911 22.5879 -0.396775 30.8917 1.23078 37.7262C2.47603 42.9505 8.01372 47.3875 15.7446 49.8633C19.6525 51.024 24.0992 51.9677 28.7873 52.1735C29.183 52.1735 29.458 52.1444 29.8515 52.1466L29.932 52.1086Z" fill="#004987"/>
<path d="M32.5414 17.9274C41.2492 18.681 48.1909 26.2334 48.1909 35.2104C48.1909 38.905 46.8495 42.0807 45.137 45.0507C41.5645 51.1919 21.9802 61.9491 2.01367 69.9667C6.66381 69.0341 15.6958 66.214 20.5964 64.6664C28.8973 62.0497 36.6349 58.8695 43.2278 55.4031C44.1668 54.8753 45.0163 54.5085 47.006 53.3187C56.9345 47.3699 62.9149 39.075 61.2873 32.2382C60.0398 27.0162 54.5044 22.5814 46.7713 20.1034C42.8634 18.9449 38.4994 18.0101 33.8046 17.8536C33.3846 17.843 32.9643 17.8565 32.5459 17.8938L32.5414 17.9274Z" fill="#00754A"/>
<path d="M131.73 21.4565L132.032 20.828H132.535C132.424 20.5809 132.369 20.3119 132.374 20.0408C132.374 19.0389 133.045 18.6855 133.604 18.6855C134.029 18.6851 134.43 18.8796 134.693 19.2133L134.742 19.2737L134.337 19.7546L134.27 19.6897C134.095 19.4931 133.859 19.3609 133.599 19.314C133.24 19.314 133.023 19.5846 133.023 20.0408C133.023 20.5686 133.21 20.828 133.599 20.828H134.845L134.525 21.4565H131.73Z" fill="white"/>
<path d="M69.8027 44.9701V36.8184H74.4126V37.9232H71.0145V40.3072H74.2941V41.4097H71.0145V43.8631H74.5177V44.9701H69.8027Z" fill="white"/>
<path d="M76.9506 39.4974H76.9774C77.4185 38.915 78.1006 38.5652 78.8308 38.5469C80.0045 38.5469 80.9435 39.3587 80.9435 41.074V44.9386H79.7138V41.0584C79.7138 40.1392 79.2444 39.5376 78.4977 39.5376C77.9589 39.5376 77.5296 39.7903 76.9506 40.4456V44.9386H75.7188V38.6766H76.9506V39.4974Z" fill="white"/>
<path d="M81.625 38.6768H82.9641L84.6364 42.5256L86.2684 38.6768H87.5808L84.8443 45.0662H84.4307L81.625 38.6768Z" fill="white"/>
<path d="M89.765 44.9388H88.5331V38.6769H89.765V44.9388ZM89.1569 37.5161C88.857 37.5189 88.5851 37.3402 88.4685 37.0639C88.3518 36.7875 88.4134 36.468 88.6245 36.2549C88.8356 36.0418 89.1544 35.9772 89.4318 36.0914C89.7091 36.2055 89.8902 36.4759 89.8902 36.7759C89.889 37.1816 89.5624 37.5113 89.1569 37.5161Z" fill="white"/>
<path d="M92.8499 38.6769V40.1104H92.8789C93.5004 39.0123 94.0929 38.5449 94.6674 38.5449C95.1682 38.5449 95.6355 38.7865 96.1452 39.2718L95.4946 40.3452C95.1235 39.9852 94.6406 39.7325 94.35 39.7325C93.5072 39.7325 92.8432 40.5823 92.8432 41.658V44.9366H91.6113V38.6746L92.8499 38.6769Z" fill="white"/>
<path d="M97.5447 41.7451C97.5447 43.0691 98.3607 43.948 99.5567 43.948C100.856 43.948 101.669 43.1093 101.669 41.7585C101.687 41.1947 101.469 40.6491 101.068 40.2522C100.668 39.8552 100.12 39.6426 99.5567 39.6652C98.3942 39.6652 97.5447 40.5442 97.5447 41.7451ZM102.924 41.7451C102.924 43.7243 101.553 45.0662 99.5702 45.0662C97.6632 45.0662 96.2949 43.6684 96.2949 41.7451C96.2928 40.8826 96.6398 40.056 97.2568 39.4535C97.8738 38.8511 98.7083 38.5241 99.5702 38.547C101.52 38.547 102.924 39.8889 102.924 41.7451Z" fill="white"/>
<path d="M105.5 39.4974H105.529C105.968 38.915 106.649 38.565 107.378 38.5469C108.554 38.5469 109.493 39.3587 109.493 41.074V44.9386H108.276V41.0584C108.276 40.1392 107.805 39.5376 107.058 39.5376C106.521 39.5376 106.09 39.7903 105.511 40.4456V44.9386H104.281V38.6766H105.511V39.4974H105.5Z" fill="white"/>
<path d="M112.386 38.6767V39.4974C113.019 38.8556 113.615 38.5469 114.194 38.5469C114.977 38.5404 115.695 38.9793 116.046 39.6786C116.582 39.0658 117.235 38.5469 118.12 38.5469C119.379 38.5469 120.179 39.5243 120.179 41.007V44.9409H118.952V41.0584C118.952 40.1102 118.371 39.5936 117.664 39.5936C117.264 39.5802 116.723 39.9313 116.283 40.392V44.9386H115.053V41.0473C115.053 40.0275 114.539 39.5936 113.935 39.5936C113.332 39.5936 112.898 39.7904 112.388 40.392V44.9386H111.156V38.6767H112.386Z" fill="white"/>
<path d="M125.937 41.1724C125.899 40.222 125.358 39.6226 124.491 39.6226C123.549 39.6226 122.984 40.1817 122.814 41.1724H125.937ZM127.055 44.3236C126.333 44.8369 125.463 45.0979 124.578 45.066C122.644 45.066 121.566 43.4581 121.566 41.7315C121.566 39.8328 122.754 38.5469 124.473 38.5469C126.118 38.5469 127.169 39.6785 127.169 41.9932H122.792C122.988 43.2366 123.686 43.8763 124.877 43.8763C125.624 43.8763 126.328 43.5989 127.053 43.1248V44.3236H127.055Z" fill="white"/>
<path d="M129.691 39.4974H129.72C130.16 38.9143 130.843 38.5643 131.573 38.5469C132.747 38.5469 133.683 39.3587 133.683 41.074V44.9386H132.454V41.0584C132.454 40.1392 131.984 39.5376 131.24 39.5376C130.699 39.5376 130.272 39.7903 129.691 40.4456V44.9386H128.461V38.6766H129.691V39.4974Z" fill="white"/>
<path d="M136.838 38.6768H138.799V39.795H136.838V43.0043C136.838 43.7445 137.362 43.9525 137.733 43.9525C138.233 43.9328 138.718 43.7723 139.132 43.4896V44.6503C138.669 44.8951 138.159 45.0385 137.637 45.0707C136.295 45.0707 135.624 44.2321 135.624 43.1004V39.7905H134.547V39.6519L136.856 37.3774V38.6768H136.838Z" fill="white"/>
<path d="M148.052 41.4791L146.806 38.6568L145.65 41.4791H148.052ZM149.639 44.9702L148.543 42.5683L145.161 42.5839L144.177 44.9523L142.93 44.9724L146.39 36.7916L147.229 36.7715L150.86 44.9724L149.639 44.9702Z" fill="white"/>
<path d="M153.702 39.7478C153.052 39.7262 152.505 40.2298 152.472 40.8794C152.472 41.5615 152.969 42.0245 153.717 42.0245C154.034 42.039 154.343 41.9205 154.568 41.6975C154.794 41.4745 154.916 41.1673 154.905 40.8504C154.869 40.2175 154.335 39.7286 153.702 39.7478ZM153.384 45.2427C152.555 45.2427 151.976 45.6363 151.976 46.1932C151.976 46.8216 152.584 47.1571 153.702 47.1571C154.782 47.1571 155.419 46.8216 155.419 46.2513C155.419 45.4551 154.147 45.2427 153.384 45.2427ZM156.633 39.6382H155.363C155.846 40.1258 156.011 40.4724 156.011 41.0047C155.987 41.5278 155.782 42.0264 155.432 42.4158C154.603 43.3104 152.915 42.8631 152.915 43.5989C152.915 43.9478 153.561 44.1558 154.811 44.4063C156.136 44.6746 156.599 45.3567 156.599 46.1529C156.599 47.3941 155.508 48.1478 153.668 48.1478C151.998 48.1478 150.807 47.3516 150.807 46.2513C150.807 45.3299 151.29 44.7842 152.372 44.5203C151.945 44.252 151.752 44.0037 151.752 43.7242C151.752 43.3194 152.139 42.9705 152.734 42.8296V42.8027C152.321 42.639 151.963 42.3633 151.699 42.0066C151.468 41.6594 151.351 41.2491 151.363 40.8325C151.363 39.4906 152.403 38.6743 154.073 38.6743H156.633V39.636V39.6382Z" fill="white"/>
<path d="M161.667 41.1724C161.622 40.222 161.086 39.6226 160.212 39.6226C159.275 39.6226 158.707 40.1817 158.542 41.1724H161.667ZM162.771 44.3236C162.05 44.8365 161.181 45.0974 160.297 45.066C158.361 45.066 157.285 43.4581 157.285 41.7315C157.285 39.8328 158.472 38.5469 160.191 38.5469C161.837 38.5469 162.89 39.6785 162.89 41.9932H158.515C158.707 43.2366 159.409 43.8763 160.601 43.8763C161.383 43.8476 162.139 43.586 162.771 43.1248V44.3236Z" fill="white"/>
<path d="M165.411 39.4974H165.442C165.881 38.9138 166.563 38.5636 167.293 38.5469C168.467 38.5469 169.408 39.3587 169.408 41.074V44.9386H168.178V41.0584C168.178 40.1392 167.707 39.5376 166.964 39.5376C166.423 39.5376 165.992 39.7903 165.4 40.4456V44.9386H164.17V38.6766H165.4V39.4974H165.411Z" fill="white"/>
<path d="M175.683 40.3073C174.979 39.8331 174.509 39.6923 173.968 39.6923C172.851 39.6923 172.077 40.5443 172.077 41.8146C172.077 43.0849 172.906 43.8923 174.174 43.8923C174.747 43.8743 175.31 43.7308 175.822 43.4718V44.7018C175.232 44.9388 174.604 45.0625 173.968 45.0664C172.117 45.0664 170.818 43.767 170.818 41.9354C170.818 39.8689 172.008 38.5562 173.886 38.5562C174.508 38.5595 175.12 38.7089 175.674 38.9923V40.3162L175.683 40.3073Z" fill="white"/>
<path d="M177.961 48.148H176.597L178.71 43.5991L176.307 38.6768H177.702L179.374 42.2014L180.979 38.6768H182.359L177.961 48.148Z" fill="white"/>
<path d="M193.483 42.0624H195.571L194.486 39.6023L193.483 42.0624ZM197.849 44.9384H196.865L195.971 42.9391H193.107L192.257 44.9384H191.271L194.162 38.1084H194.833L197.84 44.9384H197.849Z" fill="white"/>
<path d="M199.558 44.0576H200.77C201.903 44.0576 202.21 43.4896 202.21 42.9841C202.21 42.3669 201.736 41.9286 200.721 41.9286H199.558V44.0576ZM199.558 41.0519H200.2C201.152 41.0519 201.622 40.6941 201.622 39.9672C201.622 39.4595 201.333 39.0234 200.446 39.0234H199.551V41.0519H199.558ZM198.588 38.1445H200.544C201.993 38.1445 202.617 39.0234 202.617 39.8778C202.617 40.5845 202.29 41.0429 201.588 41.3314V41.3493C202.592 41.5394 203.207 42.2059 203.207 43.1228C203.207 43.9592 202.583 44.9343 200.897 44.9343H198.597V38.149L198.588 38.1445Z" fill="white"/>
<path d="M209.79 42.2684C209.79 43.9301 208.806 45.0259 206.805 45.0259C205.384 45.0259 204.002 44.2186 204.002 42.3691V38.1489H204.968V42.1611C204.968 42.9259 205.068 43.2457 205.375 43.5566C205.757 43.9404 206.282 44.1485 206.823 44.1314C207.561 44.1314 208.098 43.8943 208.399 43.5857C208.746 43.2368 208.826 42.7381 208.826 42.1029V38.1489H209.79V42.2684Z" fill="white"/>
<path d="M214.843 44.0576H216.381C218.568 44.0576 219.064 42.3758 219.064 41.5394C219.064 40.1774 218.205 39.0234 216.325 39.0234H214.834V44.0576H214.843ZM213.875 38.1445H216.482C218.968 38.1445 220.059 39.9337 220.059 41.5394C220.059 43.2816 218.717 44.9343 216.482 44.9343H213.875V38.149V38.1445Z" fill="white"/>
<path d="M226.963 44.9387H225.995V41.9822H222.228V44.9387H221.262V38.1489H222.228V41.1077H225.995V38.1489H226.963V44.9387Z" fill="white"/>
<path d="M229.919 42.0624H232.012L230.923 39.6023L229.919 42.0624ZM234.286 44.9384H233.3L232.406 42.9391H229.548L228.701 44.9384H227.713L230.601 38.1084H231.288L234.29 44.9384H234.286Z" fill="white"/>
<path d="M235.993 44.0576H237.203C238.343 44.0576 238.647 43.4896 238.647 42.9841C238.647 42.3669 238.175 41.9286 237.158 41.9286H235.993V44.0576ZM235.993 41.0519H236.633C237.589 41.0519 238.054 40.6941 238.054 39.9672C238.054 39.4595 237.768 39.0234 236.881 39.0234H235.986V41.0519H235.993ZM235.027 38.1445H236.979C238.428 38.1445 239.051 39.0234 239.051 39.8778C239.051 40.5845 238.725 41.0429 238.025 41.3314V41.3493C239.031 41.5394 239.642 42.2059 239.642 43.1228C239.642 43.9592 239.022 44.9343 237.332 44.9343H235.036V38.149L235.027 38.1445Z" fill="white"/>
<path d="M241.554 44.9387H240.586V38.1489H241.554V44.9387Z" fill="white"/>
<path d="M112.217 30.9877C113.664 30.9877 114.368 30.111 114.368 28.304C114.368 26.497 113.664 25.6203 112.28 25.6203C110.896 25.6203 108.113 27.9082 107.109 30.9698L112.217 30.9877ZM99.6975 31.8308C98.8015 31.8335 97.9215 31.5932 97.1511 31.1353C96.7465 31.5826 96.1719 31.8062 95.3939 31.8286H80.6387C79.6036 31.8286 78.5975 31.605 78.2577 30.1155L77.777 27.8947C77.3925 26.1951 77.0572 25.7768 76.0712 25.7768H75.6241L76.9834 31.4305L76.8537 31.4618C75.6808 31.6988 74.4867 31.8157 73.2901 31.8107C71.0544 31.8107 69.959 30.7082 69.959 28.436V25.1171H70.8734V28.313C70.8734 30.1759 71.6156 30.9698 73.3527 30.9698C74.2124 30.9726 75.0707 30.8978 75.917 30.7462C74.9042 26.5551 74.7992 26.2264 74.7388 26.0676C74.7049 25.9603 74.6766 25.8513 74.6538 25.7411L74.4593 24.9695H75.6599C77.3165 24.9695 78.1459 25.6404 78.526 27.3088L79.114 29.903C79.3375 30.9899 80.158 30.9899 80.6029 30.9899H95.2397C96.4223 30.9899 96.9276 30.319 96.9276 28.7535V25.1171H97.8218V29.0018C97.8275 29.4773 97.7449 29.9497 97.5781 30.3951C98.1885 30.7788 98.894 30.9841 99.6148 30.9877H106.322V22.3887H107.203V28.5813C109.063 25.4749 111.479 24.7794 112.282 24.7794C114.193 24.7794 115.331 26.0989 115.331 28.313C115.331 29.5251 115.034 30.442 114.437 31.0392C114.285 31.1911 114.116 31.324 113.932 31.435C113.472 31.7046 112.947 31.8416 112.414 31.8308H99.6975Z" fill="white"/>
<path d="M119.711 26.8594C118.786 26.8594 117.853 27.5012 117.853 28.9392C117.853 30.2386 118.502 30.9878 119.642 30.9878H120.796V27.0606L120.673 27.0226C120.364 26.9145 120.039 26.8608 119.711 26.8638V26.8594ZM118.095 35.0022L117.713 34.1769H117.936C118.055 34.1769 118.173 34.1769 118.289 34.1769C119.924 34.1769 120.691 33.4501 120.784 31.8175H119.577C118.325 31.8175 116.988 31.0638 116.988 28.9392C116.988 26.8146 118.383 26.0475 119.687 26.0475C120.33 26.0419 120.97 26.1354 121.585 26.3249L121.685 26.3539V30.9744H128.477C129.685 30.9744 130.179 30.3258 130.179 28.738V25.1172H131.073V29.0019C131.073 30.8447 130.248 31.7974 128.614 31.8287H121.69C121.614 33.9645 120.53 34.9999 118.374 34.9999L118.095 35.0022Z" fill="white"/>
<path d="M133.023 31.8308V22.3887H133.922V31.8308H133.023Z" fill="white"/>
<path d="M208.451 23.5673L208.717 23.0351H209.272L209.231 22.9613C209.121 22.7195 209.067 22.4555 209.075 22.1897C209.075 21.2325 209.714 20.8926 210.264 20.8926C210.689 20.8963 211.087 21.0992 211.34 21.4405L210.984 21.8475C210.799 21.6241 210.541 21.4742 210.255 21.4248C209.875 21.4248 209.638 21.7178 209.638 22.1897C209.638 22.7578 209.84 23.0351 210.255 23.0351H211.434L211.152 23.5673H208.451Z" fill="white"/>
<path d="M163.201 23.5673L163.465 23.0351H164.019L163.979 22.9613C163.87 22.7192 163.816 22.4554 163.823 22.1897C163.823 21.2325 164.462 20.8926 165.012 20.8926C165.44 20.8935 165.842 21.0966 166.096 21.4405L165.732 21.8475C165.547 21.6241 165.289 21.4742 165.003 21.4248C164.621 21.4248 164.384 21.7178 164.384 22.1897C164.384 22.7578 164.587 23.0351 165.003 23.0351H166.181L165.9 23.5673H163.201Z" fill="white"/>
<path d="M73.8535 34.6601V33.1997H74.5734V34.6601H73.8535Z" fill="white"/>
<path d="M128.297 34.6131V33.1997H129.017V34.6131H128.297Z" fill="white"/>
<path d="M95.0293 34.6131V33.1997H95.7514V34.6131H95.0293Z" fill="white"/>
<path d="M72.6367 34.6601V33.1997H73.3566V34.6601H72.6367Z" fill="white"/>
<path d="M112.766 23.8269V22.3643H113.486V23.8269H112.766Z" fill="white"/>
<path d="M147.975 23.8938V22.4155H148.694V23.8938H147.975Z" fill="white"/>
<path d="M149.322 23.8938V22.4155H150.042V23.8938H149.322Z" fill="white"/>
<path d="M199.531 23.8938V22.4155H200.251V23.8938H199.531Z" fill="white"/>
<path d="M200.879 23.8938V22.4155H201.597V23.8938H200.879Z" fill="white"/>
<path d="M147.951 26.0028C146.992 26.0028 146.699 26.4367 146.699 27.8635C146.699 29.4782 147.16 29.599 147.86 29.599C148.257 29.5951 148.652 29.5403 149.036 29.4357V26.1012C148.68 26.0194 148.316 25.9863 147.951 26.0028ZM180.759 31.8354C179.876 31.838 179.007 31.6107 178.238 31.1756C177.772 31.6136 177.153 31.8492 176.514 31.8309H174.088C173.204 31.8338 172.334 31.6065 171.564 31.1712C171.097 31.6087 170.476 31.8442 169.836 31.8264H167.413C166.528 31.8285 165.657 31.6012 164.886 31.1667C164.473 31.5849 163.907 31.7996 163.165 31.822H149.036V30.6389C148.647 30.7421 148.246 30.7962 147.844 30.7999C146.176 30.7999 145.492 29.9478 145.492 27.8613C145.492 25.7747 146.275 24.7974 147.951 24.7974C148.67 24.794 149.385 24.9011 150.071 25.1149L150.198 25.1485V30.706H162.968C164.068 30.706 164.515 30.1022 164.515 28.6105V25.1574H165.678V28.8632C165.685 29.3192 165.614 29.7731 165.468 30.205C166.033 30.5393 166.678 30.7162 167.334 30.7172H169.639C170.742 30.7172 171.189 30.1133 171.189 28.6216V25.1574H172.351V28.8632C172.359 29.3192 172.288 29.7731 172.141 30.205C172.707 30.539 173.351 30.7158 174.008 30.7172H176.317C177.415 30.7172 177.864 30.1133 177.864 28.6216V25.1574H179.022V28.8632C179.03 29.3189 178.96 29.7725 178.817 30.205C179.382 30.5388 180.027 30.7156 180.683 30.7172H185.629C186.747 30.7172 187.194 30.129 187.194 28.6216V22.4268H188.372V28.8632C188.372 30.7507 187.547 31.7459 185.913 31.8264H185.785L180.759 31.8354Z" fill="white"/>
<path d="M190.043 31.8354V22.4268H191.217V31.8354H190.043Z" fill="white"/>
<path d="M199.533 26.0026C198.449 26.0026 197.921 26.611 197.921 27.8633C197.921 29.3886 198.652 29.5988 199.439 29.5988C199.838 29.595 200.234 29.5401 200.619 29.4356V26.101C200.263 26.0196 199.898 25.9865 199.533 26.0026ZM238.004 30.6991V30.1356C238.004 29.1269 237.742 28.6998 237.134 28.6998C236.372 28.6998 236.222 29.2253 236.222 30.1356V30.6991H238.004ZM222.026 31.8173C221.143 31.8197 220.275 31.5923 219.506 31.1576C219.039 31.595 218.418 31.8304 217.778 31.8129H212.701C211.817 31.8153 210.947 31.588 210.177 31.1531C209.71 31.5904 209.09 31.8258 208.451 31.8084H200.626V30.6387C200.236 30.7417 199.835 30.7958 199.432 30.7998C197.633 30.7998 196.723 29.809 196.723 27.8611C196.723 25.9132 197.751 24.7972 199.54 24.7972C200.258 24.7937 200.973 24.9008 201.659 25.1148L201.784 25.1483V30.7058H208.25C209.367 30.7058 209.815 30.102 209.815 28.6103V25.1573H210.977V28.863C210.984 29.319 210.913 29.7729 210.767 30.2049C211.332 30.5383 211.976 30.7151 212.632 30.717H217.579C218.697 30.717 219.144 30.1132 219.144 28.6215V25.1573H220.282V28.863C220.288 29.3186 220.219 29.7722 220.076 30.2049C220.641 30.5389 221.285 30.7157 221.941 30.717H235.08V30.1534C235.08 27.917 236.363 27.5749 237.125 27.5749C237.888 27.5749 239.155 27.9103 239.155 30.1534V30.717H240.827V28.9279C240.827 27.0717 239.634 25.7231 237.99 25.7231C237.341 25.6956 236.693 25.8188 236.099 26.0832L235.909 26.1681L235.639 25.0723L235.777 25.0164C236.488 24.7315 237.247 24.5843 238.013 24.5825C240.003 24.5825 242.008 25.8931 242.008 28.8183V31.8375L222.026 31.8173Z" fill="white"/>
<path d="M217.176 34.7652V33.2847H217.893V34.7652H217.176Z" fill="white"/>
<path d="M218.525 34.7652V33.2847H219.245V34.7652H218.525Z" fill="white"/>
<path d="M168.67 34.7652V33.2847H169.39V34.7652H168.67Z" fill="white"/>
<path d="M170.018 34.7652V33.2847H170.737V34.7652H170.018Z" fill="white"/>
<path d="M176.135 34.7652V33.2847H176.855V34.7652H176.135Z" fill="white"/>
<path d="M188.81 41.9595H185.164V41.0649H188.81V41.9595Z" fill="white"/>
<path d="M141.735 28.7984H138.086V27.9038H141.735V28.7984Z" fill="white"/>
</g>
<defs>
<radialGradient id="paint0_radial_5990_108878" cx="0" cy="0" r="1" gradientUnits="userSpaceOnUse" gradientTransform="translate(31 31.5) rotate(88.6028) scale(20.5061 21.1092)">
<stop stop-color="white"/>
<stop offset="1" stop-color="#909295"/>
</radialGradient>
<clipPath id="clip0_5990_108878">
<rect width="243" height="70" fill="white"/>
</clipPath>
</defs>
</svg>
