<svg width="20" height="20" viewBox="0 0 20 20" fill="none" xmlns="http://www.w3.org/2000/svg">
<path d="M17.9217 2.07668C17.525 1.6774 17.053 1.36077 16.533 1.14511C16.0131 0.929459 15.4556 0.819066 14.8927 0.820323H5.1057C4.54273 0.819568 3.98513 0.929897 3.46486 1.14499C2.9446 1.36008 2.47188 1.67571 2.07379 2.0738C1.67571 2.47189 1.36008 2.9446 1.14498 3.46487C0.929891 3.98514 0.819561 4.54273 0.820316 5.10571V17.3423C0.820316 17.7276 0.941546 18.1031 1.16683 18.4157C1.39212 18.7283 1.71004 18.962 2.07557 19.0839C2.44109 19.2057 2.83569 19.2095 3.20346 19.0946C3.57123 18.9797 3.89353 18.752 4.12471 18.4438L4.83607 17.457C5.00768 17.2297 5.22954 17.0451 5.48431 16.9177C5.73908 16.7903 6.01986 16.7236 6.30469 16.7227H14.8927C16.0268 16.7212 17.1142 16.2708 17.9172 15.47C18.7202 14.6691 19.1735 13.5829 19.1781 12.4488V5.10571C19.1793 4.54283 19.0689 3.98529 18.8533 3.46536C18.6376 2.94543 18.321 2.47343 17.9217 2.07668ZM17.9504 12.4488C17.9489 13.2593 17.6262 14.0362 17.0531 14.6093C16.48 15.1824 15.7032 15.505 14.8927 15.5065H6.32764C5.8527 15.5072 5.38436 15.6179 4.95936 15.8299C4.53435 16.0419 4.16424 16.3494 3.87803 16.7285L3.14372 17.7095C3.06606 17.811 2.95861 17.8858 2.83639 17.9234C2.71416 17.961 2.58326 17.9594 2.46195 17.919C2.34065 17.8785 2.235 17.8012 2.15975 17.6978C2.08451 17.5945 2.04343 17.4702 2.04225 17.3423V5.10571C2.0415 4.7032 2.12022 4.3045 2.27391 3.93249C2.42759 3.56047 2.65321 3.22246 2.93783 2.93784C3.22245 2.65322 3.56046 2.4276 3.93248 2.27391C4.30449 2.12023 4.70319 2.04151 5.1057 2.04226H14.8927C15.7036 2.04226 16.4814 2.36441 17.0548 2.93784C17.6282 3.51128 17.9504 4.28902 17.9504 5.09997V12.4488Z" fill="#505050"/>
</svg>
