<svg width="106" height="41" viewBox="0 0 106 41" fill="none" xmlns="http://www.w3.org/2000/svg">
<path d="M14.6756 12.9259C16.3607 12.1551 18.4862 12.4655 19.871 13.6968C21.2558 14.9281 21.8131 17.0102 21.2158 18.7621C20.7887 20.0168 19.8577 21.0245 18.91 21.9521C18.2627 22.5861 17.5986 23.2001 16.9179 23.7941C16.8178 23.8808 16.7077 23.9709 16.5776 23.9709C16.4241 23.9709 16.3006 23.8541 16.1972 23.744C15.3563 22.8664 14.512 21.9888 13.6712 21.1079C13.5477 20.9778 13.3975 20.8376 13.2173 20.8476C13.0705 20.8576 12.9504 20.9678 12.847 21.0745C12.0628 21.8587 11.2786 22.6429 10.4945 23.427C12.4098 25.3524 14.3252 27.2778 16.2439 29.2065C16.3673 29.3299 16.5108 29.4634 16.6877 29.4567C16.8478 29.4501 16.978 29.3266 17.0914 29.2098C18.1959 28.0719 19.3004 26.9274 20.4383 25.8229C21.7931 24.5082 23.2212 23.2135 24.1522 21.5717C25.8607 18.5586 25.5504 14.5143 23.3747 11.8181C21.2024 9.12192 17.2916 7.96403 14.0115 9.07187C11.4688 9.93278 9.50009 11.9282 7.63478 13.8603C6.54363 14.9915 5.45248 16.1193 4.36133 17.2505C5.01202 17.9312 5.95301 18.9189 7.03749 20.0535C8.67922 18.3984 10.3176 16.74 11.9594 15.0849C12.7802 14.2573 13.6244 13.4098 14.6856 12.9226L14.6756 12.9259Z" fill="white"/>
<path d="M42.3274 6.3125H40.4609V7.96098H42.3274V6.3125Z" fill="white"/>
<path d="M44.9602 6.3125H43.0938V7.96098H44.9602V6.3125Z" fill="white"/>
<path d="M75.5911 17.9834H73.7246V19.6319H75.5911V17.9834Z" fill="white"/>
<path d="M72.9583 17.9834H71.0918V19.6319H72.9583V17.9834Z" fill="white"/>
<path d="M81.8534 14.8728H74.7962V9.29161H72.8708V14.8728H70.5729H59.7283H50.9773V6.32617H49.0382V14.8728H45.8866V9.29161H42.6169C41.7995 9.29161 41.1228 9.42785 40.5915 9.70487C40.0602 9.97735 39.6696 10.3906 39.4108 10.9356C39.1565 11.4805 39.0293 12.1572 39.0293 12.9655C39.0293 13.7738 39.1565 14.4459 39.4108 14.9773C39.6651 15.5086 40.0602 15.9037 40.5915 16.1625C41.1228 16.4214 41.7949 16.5531 42.6169 16.5531H59.7238H70.5683H83.7879V6.33071H81.8488V14.8774L81.8534 14.8728ZM41.6314 14.7457C41.3907 14.6594 41.2182 14.4777 41.1183 14.2053C41.0184 13.9328 40.9684 13.5195 40.9684 12.97C40.9684 12.3933 41.0229 11.9619 41.1364 11.6758C41.2454 11.3897 41.4225 11.2035 41.6632 11.1127C41.9039 11.0218 42.2218 10.9764 42.6169 10.9764H43.9475V14.8819H42.6169C42.2036 14.8819 41.8767 14.8365 41.6314 14.7502V14.7457Z" fill="white"/>
<path d="M98.777 14.8725H97.1421H92.0105V13.5873C92.0105 12.5655 91.847 11.739 91.5246 11.1078C91.2022 10.4765 90.7299 10.0179 90.1077 9.72723C89.4856 9.43659 88.7317 9.29127 87.8462 9.29127H86.6745V10.967H87.8462C88.4048 10.967 88.8453 11.0442 89.1677 11.1986C89.4901 11.353 89.7217 11.6164 89.8625 11.9933C90.0033 12.3702 90.0714 12.9016 90.0714 13.5828V14.8679H86.1387V16.5437H97.1421H100.716V6.32129H98.777V14.8679V14.8725Z" fill="white"/>
<path d="M105.718 6.32617H103.793V16.5485H105.718V6.32617Z" fill="white"/>
<path d="M42.0694 23.1162L39.0449 31.4358H40.7388L41.2429 29.9644H44.1993L44.6897 31.4358H46.3836L43.3455 23.1162H42.0739H42.0694ZM41.697 28.5975L42.7506 25.573L43.7678 28.5975H41.7016H41.697Z" fill="white"/>
<path d="M49.0379 23.1162H47.4121V31.4358H52.8117V29.9871H49.0379V23.1162Z" fill="white"/>
<path d="M62.5703 24.6466C62.4522 24.3878 62.2796 24.1425 62.0435 23.9109C61.771 23.6385 61.444 23.4386 61.0671 23.3069C60.6902 23.1798 60.2815 23.1162 59.8455 23.1162H56.8438V31.4358H59.8455C60.2815 31.4358 60.6902 31.3722 61.0671 31.2451C61.444 31.1179 61.771 30.9181 62.0435 30.6411C62.2751 30.4095 62.4522 30.1597 62.5703 29.8918C62.6884 29.6284 62.7701 29.3514 62.8155 29.0607C62.8609 28.7746 62.8836 28.4749 62.8836 28.1706V26.3223C62.8836 26.0181 62.8609 25.7274 62.8155 25.4459C62.7701 25.1643 62.6884 24.8964 62.5703 24.6375V24.6466ZM61.1988 28.6929C61.1579 29.0289 61.0626 29.2878 60.9127 29.474C60.7719 29.6465 60.6039 29.7737 60.4086 29.86C60.2134 29.9463 59.9772 29.9871 59.6957 29.9871H58.4695V24.5649H59.6957C59.9772 24.5649 60.2134 24.6057 60.4086 24.692C60.6039 24.7783 60.7719 24.9055 60.9127 25.078C60.9899 25.1734 61.0535 25.2778 61.0989 25.3914C61.1443 25.5095 61.1806 25.6548 61.2034 25.8228C61.2261 25.9954 61.2442 26.1952 61.2488 26.4268C61.2579 26.6584 61.2624 26.9263 61.2624 27.2397C61.2624 27.8709 61.2397 28.3523 61.1988 28.6883V28.6929Z" fill="white"/>
<path d="M66.544 23.1162L63.5195 31.4358H65.2134L65.7175 29.9644H68.6739L69.1643 31.4358H70.8582L67.8201 23.1162H66.5486H66.544ZM66.1671 28.5975L67.2207 25.573L68.2379 28.5975H66.1716H66.1671Z" fill="white"/>
<path d="M73.504 23.1162H71.8828V31.4358H77.2824V29.9871H73.504V23.1162Z" fill="white"/>
<path d="M78.6016 31.4358H84.0829V29.9871H80.2273V27.9663H83.5107V26.5176H80.2273V24.5649H84.0829V23.1162H78.6016V31.4358Z" fill="white"/>
<path d="M85.6719 31.4358H91.1532V29.9871H87.2976V27.9663H90.581V26.5176H87.2976V24.5649H91.1532V23.1162H85.6719V31.4358Z" fill="white"/>
<path d="M94.366 23.1162H92.7402V31.4358H98.1398V29.9871H94.366V23.1162Z" fill="white"/>
<path d="M102.849 23.1162H101.577L98.5527 31.4358H100.247L100.751 29.9644H103.707L104.198 31.4358H105.891L102.853 23.1162H102.849ZM101.2 28.5975L102.254 25.573L103.271 28.5975H101.205H101.2Z" fill="white"/>
<path d="M16.613 40.5283L7.24641 31.2418C4.7738 28.7892 1.69388 25.7393 0.816286 21.8552C0.75956 21.605 0.706169 21.318 0.776243 21.0377C0.863002 20.694 1.11994 20.427 1.32683 20.2135L7.54339 13.78C9.32193 11.9381 11.3407 9.85255 13.9668 8.96495C17.267 7.85044 21.2579 9.02167 23.4569 11.7479C25.6659 14.4874 25.9895 18.5517 24.2444 21.6283C23.4001 23.1166 22.1421 24.3278 20.9275 25.5024L20.5104 25.9062C19.476 26.9139 18.4516 27.9683 17.4639 28.9861L17.1702 29.2897C17.0367 29.4265 16.8899 29.5634 16.6897 29.57C16.4661 29.58 16.3026 29.4265 16.1592 29.2864L10.3297 23.4269L12.7622 20.9943C12.859 20.8975 13.0092 20.7474 13.206 20.734C13.4563 20.7207 13.6498 20.9209 13.7533 21.0277L16.2793 23.6638C16.3727 23.7606 16.4728 23.8473 16.5763 23.854C16.6664 23.854 16.7531 23.7839 16.8432 23.7038C17.5206 23.1132 18.1913 22.4959 18.832 21.8652C19.7062 21.0077 20.6773 19.9866 21.1077 18.7186C21.6917 17.0134 21.1511 14.978 19.7963 13.7767C18.4516 12.5821 16.3694 12.2751 14.7276 13.0259C13.6732 13.5097 12.839 14.3506 12.0348 15.1615L5.55128 21.7084C5.43783 21.8252 5.29435 21.9687 5.26098 22.1355C5.22094 22.3357 5.34106 22.5493 5.45452 22.7362C6.93274 25.1554 8.98491 27.1775 10.9703 29.1329L16.4428 34.5219C16.5162 34.5953 16.603 34.6654 16.673 34.6654C16.7464 34.6654 16.8232 34.5953 16.8966 34.5253L23.1198 28.3788C24.8483 26.6703 26.6402 24.9051 27.7681 22.6994C28.8859 20.5138 29.293 17.9411 28.9126 15.4585C28.2986 11.4376 25.6325 7.86378 21.9519 6.12862C18.2747 4.39345 13.82 4.61035 10.3263 6.69588C8.20742 7.96055 6.50896 9.75912 4.86389 11.4976L4.80717 11.5577C4.18317 12.2184 3.53916 12.8991 2.8818 13.5398C2.11432 14.2906 1.31681 15.028 0.505959 15.7288L0.289062 15.919L0.315758 15.632C0.92974 9.32533 5.57131 3.5559 11.5977 1.60384C17.624 -0.34822 24.7649 1.60384 28.9627 6.35219C33.1604 11.1005 34.2182 18.4249 31.5387 24.1677C29.8069 27.8816 26.6869 30.8714 23.934 33.5075L16.613 40.5216V40.5283ZM16.5796 8.77808C15.7154 8.77808 14.8544 8.91156 14.0402 9.18518C11.4675 10.0561 9.46876 12.1216 7.7069 13.9435L1.49033 20.377C1.29346 20.5805 1.06655 20.8141 0.996477 21.0978C0.93975 21.328 0.986468 21.5749 1.03986 21.8085C1.9041 25.6259 4.95399 28.6524 7.40658 31.0816L16.613 40.2079L23.7705 33.3474C26.5067 30.7246 29.61 27.7514 31.3252 24.0742C33.9646 18.4116 32.9202 11.1873 28.7825 6.50568C24.6448 1.82407 17.604 -0.101293 11.6611 1.82407C5.81156 3.71941 1.28678 9.25859 0.566022 15.365C1.29679 14.7244 2.01755 14.0603 2.71162 13.3796C3.36565 12.7423 4.00632 12.0615 4.63031 11.4042L4.68704 11.3441C6.34212 9.59561 8.05059 7.7837 10.1995 6.50568C13.7566 4.38344 18.2947 4.16321 22.042 5.92841C25.7893 7.6936 28.5055 11.3341 29.1329 15.4318C29.5199 17.9644 29.1062 20.5839 27.965 22.8129C26.8204 25.0486 25.0185 26.8305 23.2767 28.549L17.0534 34.6954C16.9767 34.7722 16.8465 34.9023 16.673 34.9023H16.6664C16.4895 34.9023 16.356 34.7689 16.2759 34.6921L10.8035 29.3031C8.80806 27.3377 6.74588 25.3089 5.25097 22.863C5.11416 22.6394 4.97401 22.3791 5.03074 22.0988C5.07745 21.8652 5.24763 21.6951 5.38444 21.5549L11.868 15.008C12.6488 14.2172 13.5364 13.3229 14.6275 12.8224C16.3494 12.0349 18.5383 12.3585 19.9465 13.6098C21.368 14.8745 21.9353 17.0068 21.3213 18.7987C20.8741 20.1134 19.8831 21.1578 18.9888 22.0354C18.3448 22.6661 17.6741 23.2901 16.99 23.884C16.8732 23.9875 16.7431 24.0876 16.5763 24.0909H16.5729C16.3794 24.0909 16.2326 23.9541 16.1124 23.8273L13.5864 21.1912C13.4797 21.0777 13.3529 20.9576 13.2227 20.9676C13.1193 20.9743 13.0225 21.0644 12.9257 21.1612L10.6533 23.4336L16.3193 29.1296C16.4294 29.243 16.5462 29.3498 16.6764 29.3465C16.7932 29.3431 16.8966 29.243 17.0034 29.1362L17.297 28.8326C18.2881 27.8115 19.3125 26.7571 20.3502 25.746L20.7674 25.3422C21.972 24.181 23.2166 22.9831 24.0441 21.5215C25.7459 18.5217 25.4289 14.5675 23.28 11.898C21.685 9.91929 19.1156 8.78142 16.5829 8.78142L16.5796 8.77808Z" fill="#5DB1E0"/>
<path d="M16.61 40.7624L7.12663 31.3624C4.63733 28.8965 1.54073 25.8232 0.649787 21.8958C0.589724 21.6288 0.532997 21.3152 0.609744 21.0015C0.706513 20.6144 0.980137 20.3308 1.20037 20.1005L7.41693 13.6671C9.20883 11.8118 11.241 9.70957 13.9071 8.80861C17.2707 7.67408 21.3416 8.86534 23.5807 11.6449C25.8297 14.4346 26.1601 18.5756 24.3815 21.7122C23.5239 23.2238 22.2593 24.4418 21.038 25.623L20.6209 26.0268C19.5864 27.0312 18.5654 28.0856 17.5777 29.1034L17.284 29.407C17.1339 29.5639 16.9503 29.7274 16.6867 29.7374C16.3797 29.7541 16.1628 29.5338 16.0327 29.4037L10.0864 23.4274L12.6358 20.8747C12.7426 20.7646 12.9261 20.5844 13.1864 20.5677C13.5167 20.551 13.7503 20.7946 13.8637 20.9114L16.3897 23.5475C16.4765 23.6376 16.5399 23.6843 16.5766 23.6877C16.5866 23.6877 16.64 23.651 16.7234 23.5775C17.3975 22.9903 18.0615 22.3763 18.7022 21.7456C19.5631 20.9014 20.5174 19.897 20.9379 18.6657C21.4985 17.0206 20.9813 15.0619 19.6732 13.9007C18.3785 12.7494 16.3664 12.4525 14.7847 13.1766C13.757 13.6471 12.9361 14.4746 12.1419 15.2788L5.65507 21.829C5.55496 21.9291 5.4315 22.0526 5.40815 22.1694C5.38145 22.3029 5.47488 22.4797 5.57832 22.6499C7.04654 25.0524 9.09204 27.0646 11.0708 29.0133L16.5432 34.4023C16.63 34.4891 16.67 34.4991 16.67 34.4991C16.6667 34.4924 16.7067 34.4624 16.7635 34.4056L22.9867 28.2592C24.7085 26.5607 26.4871 24.8022 27.6016 22.6232C28.7027 20.4676 29.1032 17.9316 28.7294 15.4823C28.1221 11.5181 25.4927 7.99108 21.8622 6.27928C18.235 4.56747 13.8404 4.78103 10.3934 6.83653C8.29453 8.08785 6.60274 9.87641 4.96768 11.6082L4.90762 11.6716C4.28363 12.3323 3.63961 13.0131 2.97891 13.6604C2.2081 14.4145 1.40725 15.152 0.596397 15.8561L0.0625 16.3165L0.129239 15.6158C0.749894 9.24574 5.43818 3.41959 11.5279 1.44751C17.6177 -0.524574 24.8287 1.44751 29.0698 6.24257C33.3076 11.0376 34.3787 18.4388 31.6725 24.2416C29.9274 27.9855 26.7974 30.9854 24.0345 33.6315L16.5966 40.759L16.61 40.7624ZM16.5799 8.94543C15.7124 8.94543 14.8781 9.0789 14.094 9.34585C11.558 10.2034 9.57588 12.2523 7.82737 14.0608L1.6108 20.4943C1.42727 20.6845 1.22039 20.898 1.16033 21.1383C1.11028 21.3318 1.15365 21.5587 1.2037 21.7723C2.0546 25.5429 5.0878 28.5495 7.52705 30.9653L16.62 39.9782L23.6608 33.2311C26.387 30.6183 29.4769 27.6585 31.1787 24.008C33.7914 18.4054 32.757 11.2545 28.6627 6.62297C24.5684 1.99142 17.5977 0.0860714 11.7181 1.99142C6.10221 3.81 1.66753 9.09892 0.79661 14.9518C1.41059 14.4045 2.01456 13.8406 2.59851 13.2667C3.22918 12.6493 3.85317 11.992 4.4538 11.3546L4.56726 11.2345L4.68071 11.1144C6.30576 9.3959 7.99754 7.6307 10.1131 6.36603C13.7169 4.21376 18.3151 3.99019 22.1124 5.78208C25.9098 7.57064 28.6627 11.2612 29.2967 15.4089C29.6905 17.975 29.27 20.6344 28.1121 22.8902C26.9542 25.1492 25.1423 26.9411 23.3905 28.6696L17.1672 34.8161C17.0771 34.9028 16.9103 35.0697 16.67 35.073C16.4164 35.073 16.2463 34.9028 16.1528 34.8127L10.6804 29.4237C8.67827 27.4516 6.60608 25.4128 5.10449 22.9535C4.951 22.7033 4.79416 22.4063 4.8609 22.0693C4.91763 21.789 5.1145 21.5888 5.25799 21.442L11.7448 14.8917C12.539 14.0909 13.4333 13.1866 14.5545 12.6727C16.3364 11.8585 18.5954 12.1922 20.0536 13.4869C21.5252 14.7949 22.1091 17.0006 21.4751 18.8559C21.0146 20.204 20.0069 21.2651 19.0993 22.156C18.4553 22.7867 17.7812 23.4107 17.0938 24.0113C16.957 24.1281 16.7935 24.2549 16.5733 24.2583C16.2863 24.2583 16.0894 24.0547 15.986 23.9446L13.46 21.3085C13.3465 21.1917 13.2731 21.1283 13.2264 21.135C13.1763 21.135 13.0796 21.2384 13.0362 21.2784L10.8839 23.4307L16.4331 29.0099C16.4865 29.0633 16.6 29.1768 16.6667 29.1768C16.7234 29.1768 16.8269 29.0667 16.8769 29.0166L17.1706 28.713C18.1716 27.6819 19.1927 26.6308 20.2271 25.623L20.6476 25.2193C21.8422 24.0681 23.0768 22.8768 23.8943 21.4353C25.5628 18.4955 25.2524 14.6147 23.1435 11.9987C21.6253 10.1133 19.1059 8.94209 16.5766 8.94209L16.5799 8.94543Z" fill="#5DB1E0"/>
</svg>
