<svg width="45" height="44" viewBox="0 0 45 44" fill="none" xmlns="http://www.w3.org/2000/svg">
<rect x="0.357422" width="44" height="44" rx="22" fill="white"/>
<path d="M22.2521 33.6137C21.8654 34.0114 21.2281 34.019 20.8303 33.6325C20.4534 33.2662 20.0892 32.9104 19.7364 32.5432C17.8295 30.5582 16.1116 28.4243 14.7095 26.0487C13.7233 24.3781 12.9407 22.6241 12.5307 20.7133C11.588 16.3249 13.7629 12.0048 17.8466 10.1877C22.3634 8.17785 27.7853 10.2205 29.868 14.707C30.9361 17.0078 30.9537 19.357 30.2805 21.7624C30.1433 22.2525 29.948 22.4625 29.4164 22.5332C26.7977 22.8808 24.5915 24.923 23.9618 27.5109C23.6444 28.8154 23.7045 30.1018 24.1531 31.3681C24.1942 31.4843 24.2366 31.582 24.1229 31.6977C23.5019 32.3286 22.8849 32.963 22.2521 33.6137ZM26.1133 18.6316C26.1133 16.0944 24.0672 14.045 21.535 14.0445C19.0017 14.0445 16.9464 16.093 16.9425 18.6223C16.9386 21.1678 18.9939 23.2236 21.5374 23.2182C24.0799 23.2128 26.1137 21.1746 26.1133 18.6316Z" fill="url(#paint0_linear_2459_21144)"/>
<path d="M20.7987 33.6137C21.1853 34.0114 21.8227 34.019 22.2205 33.6325C22.5974 33.2662 22.9616 32.9104 23.3143 32.5432C25.2212 30.5582 26.9392 28.4243 28.3413 26.0487C29.3275 24.3781 30.11 22.6241 30.5201 20.7133C31.4628 16.3249 29.2879 12.0048 25.2042 10.1877C20.6874 8.17784 15.2655 10.2205 13.1828 14.707C12.1146 17.0078 12.0971 19.357 12.7703 21.7624C12.9075 22.2525 13.1028 22.4625 13.6344 22.5332C16.2531 22.8808 18.4592 24.923 19.089 27.5109C19.4063 28.8154 19.3463 30.1018 18.8976 31.3681C18.8566 31.4843 18.8142 31.582 18.9279 31.6977C19.5488 32.3286 20.1658 32.963 20.7987 33.6137ZM16.9375 18.6316C16.9375 16.0944 18.9836 14.045 21.5158 14.0445C24.0491 14.0445 26.1044 16.093 26.1083 18.6223C26.1122 21.1678 24.0569 23.2236 21.5134 23.2182C18.9709 23.2128 16.937 21.1746 16.9375 18.6316Z" fill="url(#paint1_linear_2459_21144)"/>
<path d="M21.5239 21.7565C19.7932 21.7536 18.4019 20.3583 18.4043 18.6276C18.4063 16.9019 19.8084 15.5051 21.5361 15.5071C23.2648 15.509 24.6547 16.9067 24.6513 18.6398C24.6478 20.3754 23.2594 21.7594 21.5239 21.7565Z" fill="url(#paint2_linear_2459_21144)"/>
<path d="M24.9798 14.6937C24.7026 17.468 26.4099 20.2469 29.0416 21.2612C29.4395 21.4147 29.8931 21.5217 30.2836 21.6138C30.4404 21.6508 30.587 21.6854 30.7157 21.7196L30.8041 21.7431H30.8956H32.0292H32.1043L32.1778 21.7272C32.2583 21.7097 32.3484 21.6915 32.444 21.6722C32.6678 21.6271 32.9218 21.5759 33.1532 21.5132L33.1537 21.513C35.7056 20.8195 37.5528 18.7042 37.9077 16.091L37.9081 16.0899C37.9111 16.0821 37.9149 16.0719 37.9191 16.0605C37.9232 16.0491 37.928 16.0355 37.9329 16.0203L37.9674 15.9145V15.8033V14.6692V14.5579L37.9329 14.4521C37.928 14.437 37.9232 14.4234 37.9191 14.4119C37.9149 14.4006 37.9111 14.3903 37.9081 14.3825L37.9077 14.3815C37.407 10.6802 33.9724 8.18484 30.2802 8.84127M24.9798 14.6937L25.6763 14.7633M24.9798 14.6937L25.6763 14.7633M24.9798 14.6937C25.2751 11.7369 27.4121 9.351 30.2802 8.84127M25.6763 14.7633C25.942 12.1033 27.8574 9.98282 30.4027 9.53047M25.6763 14.7633C25.4306 17.2225 26.9543 19.7067 29.2935 20.6081C29.645 20.7437 30.0153 20.8308 30.3857 20.918L30.4027 9.53047M30.2802 8.84127L30.4027 9.53047M30.2802 8.84127L30.4027 9.53047M30.8834 12.5151C30.8838 12.515 30.8843 12.515 30.8847 12.515L30.8995 12.0729L30.8834 12.5151ZM30.8834 12.5151C30.8815 12.515 30.8806 12.5151 30.8807 12.5151C30.8807 12.5151 30.8816 12.5151 30.8834 12.5151ZM31.3489 12.0658L30.8999 12.0725L30.9081 11.8155M31.3489 12.0658L31.5608 11.8231C31.3402 11.8238 31.124 11.8227 30.9081 11.8155M31.3489 12.0658C31.3491 12.0635 31.3493 12.0618 31.3493 12.0605C31.3494 12.0588 31.3494 12.058 31.3494 12.058L31.3489 12.0658ZM30.9081 11.8155L30.8995 12.0725L30.9081 11.8155ZM37.9143 14.4315L37.9141 14.4304L37.9143 14.4315ZM32.2727 15.3462H31.5727V16.0462L31.5729 16.6145L31.5732 17.1554C31.5732 17.264 31.5736 17.3707 31.5739 17.4759C31.5744 17.6373 31.5749 17.7953 31.5742 17.9521C31.5044 17.9525 31.434 17.9527 31.3629 17.9527V16.0489V15.3489H30.6629H28.7657V15.1365H30.6375H31.3035L31.3366 14.4713C31.3376 14.4512 31.3393 14.4256 31.3411 14.3965C31.346 14.3174 31.3526 14.2131 31.3527 14.1281C31.3529 13.973 31.3534 13.817 31.3539 13.6603C31.3551 13.284 31.3564 12.9037 31.354 12.5231C31.4229 12.5234 31.4918 12.5233 31.5608 12.5231V14.4235V15.1235H32.2608H34.1591V15.3462H32.2727ZM30.8858 12.515L30.8999 12.0729L31.3488 12.0668C31.348 12.0759 31.3458 12.0918 31.341 12.1123C31.3288 12.1636 31.2952 12.2605 31.2063 12.3532C31.1155 12.448 31.0149 12.4884 30.9522 12.5042C30.9197 12.5124 30.8959 12.5145 30.8858 12.515Z" fill="url(#paint3_linear_2459_21144)" stroke="white" stroke-width="1.4"/>
<defs>
<linearGradient id="paint0_linear_2459_21144" x1="11.0769" y1="12.9474" x2="31.2465" y2="31.5871" gradientUnits="userSpaceOnUse">
<stop stop-color="#00C0FF"/>
<stop offset="1" stop-color="#00754A"/>
</linearGradient>
<linearGradient id="paint1_linear_2459_21144" x1="31.9739" y1="12.9474" x2="11.8043" y2="31.5871" gradientUnits="userSpaceOnUse">
<stop stop-color="#00C0FF"/>
<stop offset="1" stop-color="#00754A"/>
</linearGradient>
<linearGradient id="paint2_linear_2459_21144" x1="17.9854" y1="16.3932" x2="22.9356" y2="22.5787" gradientUnits="userSpaceOnUse">
<stop stop-color="#00C0FF"/>
<stop offset="1" stop-color="#00754A"/>
</linearGradient>
<linearGradient id="paint3_linear_2459_21144" x1="24.8713" y1="11.0823" x2="34.0625" y2="22.5816" gradientUnits="userSpaceOnUse">
<stop stop-color="#00C0FF"/>
<stop offset="1" stop-color="#C28123"/>
</linearGradient>
</defs>
</svg>
