<svg width="45" height="45" viewBox="0 0 45 45" fill="none" xmlns="http://www.w3.org/2000/svg">
<rect x="0.121094" y="0.131592" width="44" height="44" rx="22" fill="white"/>
<path d="M29.7041 11.0007H14.5374C14.0348 11.0013 13.553 11.2013 13.1976 11.5567C12.8421 11.9121 12.6422 12.3939 12.6416 12.8966V31.5253C12.6417 31.8638 12.7323 32.196 12.9041 32.4876C13.0759 32.7791 13.3226 33.0194 13.6186 33.1834C13.9146 33.3475 14.2491 33.4293 14.5874 33.4204C14.9257 33.4115 15.2555 33.3122 15.5425 33.1329L21.9769 29.1111C22.0201 29.0843 22.0699 29.0701 22.1207 29.07C22.1715 29.0699 22.2214 29.084 22.2646 29.1106L28.6991 33.1334C28.9861 33.3126 29.3159 33.4118 29.6542 33.4206C29.9925 33.4294 30.327 33.3475 30.6229 33.1834C30.9189 33.0194 31.1656 32.7791 31.3374 32.4875C31.5092 32.196 31.5998 31.8638 31.5999 31.5253V12.8966C31.5993 12.3939 31.3994 11.9121 31.044 11.5567C30.6886 11.2013 30.2067 11.0013 29.7041 11.0007Z" fill="url(#paint0_linear_1_3469)"/>
<path d="M21.656 15.3699L20.5504 17.9497C20.5114 18.0407 20.4465 18.1183 20.3638 18.1728C20.2812 18.2273 20.1843 18.2564 20.0853 18.2564H17.8898C17.7849 18.2564 17.6827 18.289 17.5971 18.3496C17.5116 18.4103 17.447 18.496 17.4123 18.5949C17.3776 18.6939 17.3745 18.8011 17.4034 18.9019C17.4323 19.0027 17.4918 19.092 17.5737 19.1575L19.4903 20.6908C19.5691 20.7539 19.6272 20.839 19.6573 20.9353C19.6873 21.0317 19.6879 21.1348 19.6589 21.2314L18.7804 24.1597C18.7498 24.2617 18.7521 24.3708 18.7872 24.4714C18.8222 24.572 18.8881 24.659 18.9754 24.72C19.0628 24.781 19.1672 24.8128 19.2737 24.811C19.3802 24.8092 19.4834 24.7738 19.5687 24.7099L21.8175 23.0233C21.9051 22.9576 22.0116 22.922 22.1211 22.922C22.2306 22.922 22.3371 22.9576 22.4247 23.0233L24.6736 24.7099C24.7588 24.7738 24.862 24.8092 24.9685 24.811C25.0751 24.8128 25.1794 24.781 25.2668 24.72C25.3542 24.659 25.42 24.572 25.4551 24.4714C25.4901 24.3708 25.4925 24.2617 25.4618 24.1597L24.5834 21.2314C24.5544 21.1348 24.5549 21.0317 24.585 20.9353C24.615 20.839 24.6732 20.7539 24.752 20.6908L26.6685 19.1575C26.7504 19.092 26.8099 19.0027 26.8388 18.9019C26.8677 18.8011 26.8646 18.6939 26.8299 18.5949C26.7952 18.496 26.7306 18.4103 26.6451 18.3496C26.5596 18.289 26.4573 18.2564 26.3524 18.2564H24.157C24.0579 18.2564 23.9611 18.2273 23.8784 18.1728C23.7957 18.1183 23.7309 18.0407 23.6918 17.9497L22.5862 15.3699C22.5472 15.2789 22.4824 15.2013 22.3997 15.1468C22.317 15.0923 22.2202 15.0632 22.1211 15.0632C22.0221 15.0632 21.9252 15.0923 21.8426 15.1468C21.7599 15.2013 21.695 15.2789 21.656 15.3699Z" fill="white"/>
<defs>
<linearGradient id="paint0_linear_1_3469" x1="22.1208" y1="11.0007" x2="22.1208" y2="33.4212" gradientUnits="userSpaceOnUse">
<stop stop-color="#1FA6B8"/>
<stop offset="1" stop-color="#34BC93"/>
</linearGradient>
</defs>
</svg>
