<svg width="45" height="45" viewBox="0 0 45 45" fill="none" xmlns="http://www.w3.org/2000/svg">
<rect x="0.238281" y="0.577637" width="44" height="44" rx="22" fill="white"/>
<rect x="8.76953" y="23.0269" width="26.7246" height="9.16211" fill="url(#paint0_linear_2948_19062)"/>
<path d="M7.97759 22.4019C8.28983 22.2713 8.60104 22.0268 8.91328 22.0268C17.6396 22.006 26.366 22.006 35.0913 22.0268C35.4035 22.0268 35.7158 22.2713 36.028 22.4019V32.142C35.728 32.2591 35.4281 32.4767 35.1271 32.4777C26.3946 32.4964 17.6621 32.4912 8.92966 32.4974C8.556 32.4974 8.22738 32.4477 7.97656 32.142C7.97759 28.8956 7.97759 25.6493 7.97759 22.4019ZM34.864 23.2184H9.14055V31.3048H10.4499V28.963H11.5904V31.3079H12.8925V26.9891H14.034V31.312H15.3352V28.9547H16.4767V31.3162H17.7963V26.9932H18.9203V31.3006H20.2194V28.9609H21.3281V31.3099H22.6283V26.9891H23.7718V31.3017H25.118V28.9568H26.2288V31.313H27.5299V26.9859H28.6735V31.3151H29.9931V28.9526H31.1315V31.3048H32.449V26.9942H33.5884V31.313H34.865V23.2184H34.864Z" fill="#555555"/>
<g clip-path="url(#clip0_2948_19062)">
<g clip-path="url(#clip1_2948_19062)">
<path d="M8.49713 22.48C8.81317 22.3494 9.12817 22.1049 9.4442 22.1049C18.2766 22.0842 27.1091 22.0842 35.9404 22.1049C36.2565 22.1049 36.5725 22.3494 36.8886 22.48V32.2201C36.585 32.3372 36.2814 32.5548 35.9767 32.5558C27.1381 32.5745 18.2994 32.5693 9.46078 32.5755C9.08257 32.5755 8.74996 32.5258 8.49609 32.2201C8.49713 28.9738 8.49713 25.7274 8.49713 22.48ZM35.7104 23.2965H9.67423V31.3829H10.9995V29.0411H12.1538V31.386H13.4718V27.0672H14.6272V31.3901H15.9442V29.0328H17.0995V31.3943H18.4352V27.0713H19.5729V31.3787H20.8878V29.039H22.01V31.3881H23.3259V27.0672H24.4834V31.3798H25.8459V29.0349H26.9702V31.3912H28.2872V27.0641H29.4446V31.3932H30.7803V29.0307H31.9325V31.3829H33.2661V27.0724H34.4193V31.3912H35.7115V23.2965H35.7104Z" fill="white"/>
</g>
</g>
<path d="M13.4202 17.455C13.6803 17.6964 13.8937 17.8705 14.0782 18.0715C14.3693 18.3886 14.3569 18.7388 14.0782 19.0465C13.815 19.3367 13.4585 19.4103 13.1497 19.1564C12.3643 18.5088 11.5903 17.8466 10.8453 17.1524C10.522 16.8519 10.552 16.4405 10.8743 16.1401C11.5924 15.4686 12.3291 14.8158 13.0772 14.1765C13.4202 13.8832 13.7994 13.9382 14.0906 14.2677C14.389 14.6055 14.3393 14.9661 14.0263 15.2811C13.8336 15.4748 13.6243 15.652 13.3528 15.9007H30.9856C30.7545 15.6872 30.568 15.5277 30.3949 15.3526C30.0727 15.0262 30.0375 14.5785 30.3276 14.2925C30.6467 13.9786 31.0239 13.9724 31.3534 14.2511C32.0642 14.8531 32.7605 15.4738 33.4444 16.1079C33.7978 16.4354 33.8092 16.8799 33.4569 17.2011C32.744 17.8529 32.0083 18.4808 31.2695 19.1035C30.9255 19.3937 30.5628 19.3574 30.254 19.0383C29.9473 18.7222 29.9867 18.3461 30.3411 17.9886C30.5058 17.8228 30.682 17.6695 30.913 17.4539H13.4202V17.455Z" fill="#555555"/>
<path d="M8.09852 16.7551C8.09852 15.979 8.08505 15.2019 8.10267 14.4258C8.11718 13.8383 8.41663 13.5336 8.89846 13.5575C9.35023 13.5792 9.58441 13.887 9.57819 14.4724C9.56265 15.9044 9.54089 17.3364 9.52017 18.7684C9.5181 18.9062 9.52431 19.0472 9.49737 19.1808C9.40826 19.6067 9.15958 19.8616 8.70158 19.816C8.27364 19.7735 8.06122 19.5083 8.05811 19.0855C8.0519 18.3094 8.05604 17.5323 8.05604 16.7561C8.07055 16.7561 8.08505 16.7561 8.09956 16.7561L8.09852 16.7551Z" fill="#555555"/>
<path d="M36.2416 16.6153C36.2416 17.3738 36.2561 18.1323 36.2364 18.8898C36.2209 19.4866 35.9204 19.8151 35.4655 19.7933C35.0127 19.7716 34.7712 19.4338 34.7775 18.8266C34.792 17.4308 34.8054 16.0341 34.8231 14.6383C34.8251 14.4839 34.821 14.3233 34.8593 14.1762C34.9557 13.8021 35.193 13.5679 35.5981 13.5949C36.0157 13.6229 36.2737 13.856 36.2799 14.2881C36.2924 15.0631 36.283 15.8392 36.283 16.6143C36.2685 16.6143 36.254 16.6143 36.2395 16.6143L36.2416 16.6153Z" fill="#555555"/>
<rect x="35.5312" y="20.9058" width="2.37039" height="13.4043" fill="white"/>
<rect x="6.125" y="20.9058" width="2.37039" height="13.4043" fill="white"/>
<rect width="2.37039" height="29.8605" transform="matrix(-4.37114e-08 -1 -1 4.37114e-08 37.1719 22.5776)" fill="white"/>
<rect width="2.37039" height="29.8605" transform="matrix(-4.37114e-08 -1 -1 4.37114e-08 37.1719 34.3101)" fill="white"/>
<defs>
<linearGradient id="paint0_linear_2948_19062" x1="22.1318" y1="23.0269" x2="22.1318" y2="32.189" gradientUnits="userSpaceOnUse">
<stop stop-color="#1F78B8"/>
<stop offset="1" stop-color="#C38224"/>
</linearGradient>
<clipPath id="clip0_2948_19062">
<rect width="26" height="7" fill="white" transform="translate(9.17188 24.2183)"/>
</clipPath>
<clipPath id="clip1_2948_19062">
<rect width="27" height="10" fill="white" transform="translate(10.1719 22.1401)"/>
</clipPath>
</defs>
</svg>
