<svg width="45" height="45" viewBox="0 0 45 45" fill="none" xmlns="http://www.w3.org/2000/svg">
<path d="M0.238281 22.5776C0.238281 10.4274 10.088 0.577637 22.2383 0.577637C34.3885 0.577637 44.2383 10.4274 44.2383 22.5776C44.2383 34.7279 34.3885 44.5776 22.2383 44.5776C10.088 44.5776 0.238281 34.7279 0.238281 22.5776Z" fill="white"/>
<path d="M23.0078 24.3418C23.0078 23.7895 23.4555 23.3418 24.0078 23.3418H32.3963C32.9486 23.3418 33.3963 23.7895 33.3963 24.3418V32.725C33.3963 33.2773 32.9486 33.725 32.3963 33.725H24.0078C23.4555 33.725 23.0078 33.2773 23.0078 32.725V24.3418ZM27.1492 32.2584C27.1492 32.2583 27.1492 32.2583 27.1491 32.2582C27.0933 32.1382 27.0586 32.0591 27.0196 31.9823C26.6656 31.2795 26.31 30.5772 25.9565 29.8739C25.7694 29.5014 25.7921 29.3418 26.0692 29.0199C26.5259 28.4889 26.9832 27.9578 27.4395 27.4257C27.723 27.0951 27.6374 26.5881 27.2649 26.3622C26.4203 25.8501 25.5895 25.3465 24.7558 24.8475C24.6304 24.7726 24.4856 24.9378 24.4856 25.0839V31.2588C24.4856 31.8111 24.9333 32.2588 25.4856 32.2588H27.1488C27.149 32.2588 27.1492 32.2586 27.1492 32.2584ZM26.9938 24.8174C26.994 24.8174 26.9942 24.8177 26.9941 24.8179C26.9905 24.8287 26.9869 24.8393 26.9832 24.8499C26.9793 24.8611 26.9836 24.8735 26.9937 24.8796C28.1272 25.5679 29.2608 26.2563 30.41 26.9542C31.0764 27.3589 31.9258 26.8792 31.927 26.0995C31.9275 25.7626 31.9293 25.4296 31.9338 25.0967C31.937 24.8691 31.8774 24.7985 31.6409 24.8006C30.1663 24.8116 28.6917 24.8058 27.2171 24.8064C27.1429 24.8064 27.0686 24.8137 26.9938 24.8174Z" fill="url(#paint0_linear_2948_19049)"/>
<path d="M11.082 12.4292C11.082 11.8769 11.5297 11.4292 12.082 11.4292H20.4689C21.0212 11.4292 21.4689 11.8769 21.4689 12.4292V20.8119C21.4689 21.3641 21.0212 21.8119 20.4689 21.8119H12.082C11.5297 21.8119 11.082 21.3641 11.082 20.8119V12.4292ZM12.535 20.0508C12.535 20.2144 12.6633 20.3568 12.8269 20.3568C13.5202 20.3578 14.2135 20.351 14.9068 20.3615C15.0901 20.3641 15.1828 20.3115 15.2566 20.1366C15.6765 19.1393 16.2138 18.21 16.9113 17.3765C16.9609 17.3175 16.9777 17.18 16.944 17.1115C16.4504 16.1106 16.1037 15.0574 15.804 13.9864C15.7536 13.806 15.6913 13.6289 15.6229 13.4332C15.5841 13.3225 15.4254 13.3044 15.3746 13.4101C14.7972 14.6065 13.9506 15.5216 12.6809 16.0063C12.6098 16.0336 12.5429 16.1748 12.5413 16.2644C12.5292 16.9034 12.535 17.543 12.535 18.182C12.535 18.7973 12.535 19.4125 12.535 20.0508ZM17.0191 19.2475C16.736 19.7288 17.083 20.3357 17.6414 20.3357H18.4169C18.8886 20.3357 19.0546 19.758 18.6978 19.4496C18.5532 19.3247 18.4177 19.1894 18.2838 19.0465C17.9304 18.6693 17.3263 18.7253 17.0643 19.1708C17.0492 19.1963 17.0342 19.2219 17.0191 19.2475Z" fill="url(#paint1_linear_2948_19049)"/>
<path d="M20.4801 23.3584C21.0323 23.3584 21.4801 23.8061 21.4801 24.3584V32.7242C21.4801 33.2765 21.0323 33.7242 20.4801 33.7242H12.0742C11.5219 33.7242 11.0742 33.2765 11.0742 32.7242V24.3584C11.0742 23.8061 11.5219 23.3584 12.0742 23.3584H20.4801ZM13.5493 24.8193C12.997 24.8193 12.5493 25.267 12.5493 25.8193V31.7778C12.5493 32.0425 12.7639 32.257 13.0285 32.257C13.3843 32.257 13.6161 31.8813 13.5051 31.5433C13.2129 30.6537 13.2373 29.7725 13.8253 28.9301C14.583 27.8443 15.6594 27.7029 16.8473 27.9881C16.9243 28.0066 17.0077 27.9695 17.0358 27.8954C17.2971 27.191 17.8081 26.7901 18.542 26.6584C18.611 26.6463 18.6884 26.6432 18.7448 26.6084C19.0087 26.4445 19.2895 26.2976 19.5219 26.0958C19.9631 25.7129 19.224 24.8193 18.6398 24.8193H13.5493Z" fill="url(#paint2_linear_2948_19049)"/>
<path d="M32.4027 11.4458C32.955 11.4458 33.4027 11.8935 33.4027 12.4458V20.8074C33.4027 21.3597 32.955 21.8074 32.4027 21.8074H24C23.4477 21.8074 23 21.3597 23 20.8074V12.4458C23 11.8935 23.4477 11.4458 24 11.4458H32.4027ZM26.5165 20.3414C26.5163 20.3418 26.5166 20.3423 26.5171 20.3423H27.6109C27.8275 20.3423 27.9949 20.177 28.0343 19.964C28.1392 19.3987 28.2066 18.8224 28.3673 18.2735C28.5617 17.6097 29.0285 17.1745 29.7175 17.0033C29.7799 16.9878 29.8414 16.9696 29.904 16.9505C29.9867 16.9253 30.0541 16.8439 30.0336 16.7599C29.8034 15.8105 30.1195 15.2579 31.0688 14.985C31.0786 14.9822 31.0884 14.9794 31.0983 14.9767C31.5586 14.8501 31.9039 14.4729 31.9039 13.9954V13.9025C31.9039 13.3502 31.4562 12.8982 30.904 12.8881C30.3598 12.8782 29.8209 12.8742 29.2871 12.923C28.7308 12.9741 28.3562 13.3065 28.2788 13.8692C28.2319 14.2095 28.1012 14.5467 27.9595 14.8633C27.5792 15.7126 26.9359 16.2436 25.9955 16.3821C25.776 16.4145 25.6972 16.7061 25.8441 16.8724C26.7207 17.8648 26.5734 19.1098 26.5166 20.3411C26.5166 20.3412 26.5165 20.3413 26.5165 20.3414ZM31.9086 16.7724C31.9086 16.357 31.466 15.9845 31.1194 16.2136C31.0525 16.2578 31.1579 16.5607 31.1837 16.7451C31.1884 16.7799 31.1916 16.8147 31.1942 16.8494C31.2406 17.4416 31.0199 17.7751 30.4562 17.9595C30.2649 18.0222 30.0631 18.059 29.8819 18.1423C29.7539 18.2007 29.6143 18.2951 29.5463 18.412C29.3943 18.6737 29.3103 18.9499 29.2578 19.2337C29.1498 19.8179 29.6538 20.3386 30.2479 20.3386H30.9086C31.4609 20.3386 31.9086 19.8909 31.9086 19.3386V16.7724Z" fill="url(#paint3_linear_2948_19049)"/>
<defs>
<linearGradient id="paint0_linear_2948_19049" x1="22.3111" y1="24.8141" x2="30.5342" y2="35.0982" gradientUnits="userSpaceOnUse">
<stop stop-color="#00C0FF"/>
<stop offset="1" stop-color="#00754A"/>
</linearGradient>
<linearGradient id="paint1_linear_2948_19049" x1="10.3855" y1="12.9015" x2="18.6083" y2="23.1842" gradientUnits="userSpaceOnUse">
<stop stop-color="#00C0FF"/>
<stop offset="1" stop-color="#00754A"/>
</linearGradient>
<linearGradient id="paint2_linear_2948_19049" x1="10.3764" y1="24.8283" x2="18.5796" y2="35.1219" gradientUnits="userSpaceOnUse">
<stop stop-color="#00C0FF"/>
<stop offset="1" stop-color="#00754A"/>
</linearGradient>
<linearGradient id="paint3_linear_2948_19049" x1="22.3024" y1="12.9151" x2="30.5021" y2="23.2053" gradientUnits="userSpaceOnUse">
<stop stop-color="#00C0FF"/>
<stop offset="1" stop-color="#00754A"/>
</linearGradient>
</defs>
</svg>
