<svg width="45" height="45" viewBox="0 0 45 45" fill="none" xmlns="http://www.w3.org/2000/svg">
<rect x="0.0507812" y="0.80542" width="44" height="44" rx="22" fill="white"/>
<rect x="8.58105" y="23.2546" width="26.7246" height="9.16211" fill="url(#paint0_linear_1_3529)"/>
<path d="M7.78911 22.6297C8.10135 22.4991 8.41257 22.2546 8.72481 22.2546C17.4511 22.2338 26.1775 22.2338 34.9028 22.2546C35.215 22.2546 35.5273 22.4991 35.8395 22.6297V32.3698C35.5396 32.4869 35.2396 32.7045 34.9386 32.7055C26.2061 32.7242 17.4737 32.719 8.74119 32.7252C8.36752 32.7252 8.0389 32.6755 7.78809 32.3698C7.78911 29.1234 7.78911 25.8771 7.78911 22.6297ZM34.6755 23.4462H8.95208V31.5325H10.2614V29.1908H11.4019V31.5357H12.7041V27.2168H13.8455V31.5398H15.1467V29.1825H16.2882V31.5439H17.6078V27.221H18.7318V31.5284H20.031V29.1887H21.1397V31.5377H22.4398V27.2168H23.5833V31.5294H24.9295V29.1846H26.0403V31.5408H27.3415V27.2137H28.485V31.5429H29.8046V29.1804H30.943V31.5325H32.2605V27.222H33.3999V31.5408H34.6766V23.4462H34.6755Z" fill="#555555"/>
<g clip-path="url(#clip0_1_3529)">
<g clip-path="url(#clip1_1_3529)">
<path d="M8.30963 22.7078C8.62567 22.5772 8.94067 22.3327 9.2567 22.3327C18.0891 22.312 26.9216 22.312 35.7529 22.3327C36.069 22.3327 36.385 22.5772 36.7011 22.7078V32.4479C36.3975 32.565 36.0939 32.7826 35.7892 32.7836C26.9506 32.8023 18.1119 32.7971 9.27328 32.8033C8.89507 32.8033 8.56246 32.7536 8.30859 32.4479C8.30963 29.2015 8.30963 25.9552 8.30963 22.7078ZM35.5229 23.5243H9.48673V31.6107H10.812V29.2689H11.9663V31.6138H13.2843V27.295H14.4397V31.6179H15.7567V29.2606H16.912V31.6221H18.2477V27.2991H19.3854V31.6065H20.7003V29.2668H21.8225V31.6158H23.1384V27.295H24.2959V31.6076H25.6584V29.2627H26.7827V31.619H28.0997V27.2919H29.2571V31.621H30.5928V29.2585H31.745V31.6107H33.0786V27.3001H34.2318V31.619H35.524V23.5243H35.5229Z" fill="white"/>
</g>
</g>
<path d="M13.2298 17.6828C13.4898 17.9242 13.7033 18.0983 13.8877 18.2993C14.1789 18.6164 14.1665 18.9666 13.8877 19.2743C13.6245 19.5645 13.2681 19.638 12.9593 19.3842C12.1739 18.7366 11.3999 18.0744 10.6548 17.3802C10.3315 17.0797 10.3616 16.6683 10.6838 16.3678C11.4019 15.6964 12.1387 15.0436 12.8868 14.4043C13.2298 14.111 13.609 14.1659 13.9002 14.4955C14.1986 14.8333 14.1488 15.1938 13.8359 15.5088C13.6432 15.7026 13.4339 15.8798 13.1624 16.1285H30.7951C30.5641 15.915 30.3776 15.7555 30.2045 15.5803C29.8823 15.2539 29.847 14.8063 30.1372 14.5203C30.4563 14.2064 30.8335 14.2001 31.163 14.4789C31.8738 15.0809 32.5701 15.7016 33.254 16.3357C33.6073 16.6632 33.6187 17.1077 33.2664 17.4289C32.5535 18.0807 31.8178 18.7086 31.079 19.3313C30.735 19.6215 30.3724 19.5852 30.0636 19.266C29.7569 18.95 29.7963 18.5739 30.1506 18.2164C30.3154 18.0506 30.4915 17.8972 30.7226 17.6817H13.2298V17.6828Z" fill="#555555"/>
<path d="M7.91102 16.9829C7.91102 16.2068 7.89755 15.4297 7.91517 14.6536C7.92968 14.066 8.22913 13.7614 8.71096 13.7852C9.16273 13.807 9.39691 14.1147 9.39069 14.7002C9.37515 16.1322 9.35339 17.5642 9.33267 18.9962C9.3306 19.134 9.33681 19.2749 9.30987 19.4086C9.22076 19.8345 8.97208 20.0894 8.51408 20.0438C8.08614 20.0013 7.87372 19.736 7.87061 19.3133C7.8644 18.5372 7.86854 17.76 7.86854 16.9839C7.88305 16.9839 7.89755 16.9839 7.91206 16.9839L7.91102 16.9829Z" fill="#555555"/>
<path d="M36.0541 16.8434C36.0541 17.6019 36.0686 18.3603 36.0489 19.1178C36.0334 19.7146 35.7329 20.0431 35.278 20.0214C34.8252 19.9996 34.5837 19.6618 34.59 19.0546C34.6045 17.6589 34.6179 16.2621 34.6356 14.8663C34.6376 14.7119 34.6335 14.5513 34.6718 14.4042C34.7682 14.0301 35.0055 13.796 35.4106 13.8229C35.8282 13.8509 36.0862 14.084 36.0924 14.5161C36.1049 15.2912 36.0955 16.0673 36.0955 16.8423C36.081 16.8423 36.0665 16.8423 36.052 16.8423L36.0541 16.8434Z" fill="#555555"/>
<rect x="35.3447" y="21.1335" width="2.37039" height="13.4043" fill="white"/>
<rect x="5.93848" y="21.1335" width="2.37039" height="13.4043" fill="white"/>
<rect width="2.37039" height="29.8605" transform="matrix(-4.37114e-08 -1 -1 4.37114e-08 36.9844 22.8054)" fill="white"/>
<rect width="2.37039" height="29.8605" transform="matrix(-4.37114e-08 -1 -1 4.37114e-08 36.9844 34.5378)" fill="white"/>
<defs>
<linearGradient id="paint0_linear_1_3529" x1="21.9433" y1="23.2546" x2="21.9433" y2="32.4167" gradientUnits="userSpaceOnUse">
<stop stop-color="#1FA6B8"/>
<stop offset="1" stop-color="#34BC93"/>
</linearGradient>
<clipPath id="clip0_1_3529">
<rect width="26" height="7" fill="white" transform="translate(8.98438 24.446)"/>
</clipPath>
<clipPath id="clip1_1_3529">
<rect width="27" height="10" fill="white" transform="translate(9.98438 22.3679)"/>
</clipPath>
</defs>
</svg>
