<svg width="45" height="44" viewBox="0 0 45 44" fill="none" xmlns="http://www.w3.org/2000/svg">
<rect x="0.357422" width="44" height="44" rx="22" fill="white"/>
<rect x="8.88867" y="22.4492" width="26.7246" height="9.16211" fill="url(#paint0_linear_2459_21127)"/>
<path d="M8.09673 21.8244C8.40897 21.6938 8.72018 21.4493 9.03242 21.4493C17.7588 21.4285 26.4851 21.4285 35.2104 21.4493C35.5227 21.4493 35.8349 21.6938 36.1471 21.8244V31.5645C35.8472 31.6816 35.5472 31.8992 35.2462 31.9002C26.5138 31.9189 17.7813 31.9137 9.0488 31.9199C8.67514 31.9199 8.34652 31.8702 8.0957 31.5645C8.09673 28.3181 8.09673 25.0718 8.09673 21.8244ZM34.9831 22.6409H9.25969V30.7272H10.5691V28.3855H11.7095V30.7304H13.0117V26.4115H14.1532V30.7345H15.4543V28.3772H16.5958V30.7386H17.9154V26.4157H19.0395V30.7231H20.3386V28.3834H21.4473V30.7324H22.7474V26.4115H23.8909V30.7241H25.2372V28.3793H26.3479V30.7355H27.6491V26.4084H28.7926V30.7376H30.1122V28.3751H31.2506V30.7272H32.5681V26.4167H33.7076V30.7355H34.9842V22.6409H34.9831Z" fill="#555555"/>
<g clip-path="url(#clip0_2459_21127)">
<g clip-path="url(#clip1_2459_21127)">
<path d="M8.61627 21.9025C8.93231 21.7719 9.24731 21.5274 9.56334 21.5274C18.3958 21.5067 27.2282 21.5067 36.0596 21.5274C36.3756 21.5274 36.6917 21.7719 37.0077 21.9025V31.6426C36.7041 31.7597 36.4005 31.9773 36.0959 31.9783C27.2572 31.997 18.4186 31.9918 9.57992 31.998C9.20171 31.998 8.8691 31.9483 8.61523 31.6426C8.61627 28.3962 8.61627 25.1499 8.61627 21.9025ZM35.8296 22.719H9.79337V30.8054H11.1187V28.4636H12.273V30.8085H13.591V26.4897H14.7463V30.8126H16.0633V28.4553H17.2187V30.8168H18.5543V26.4938H19.692V30.8012H21.007V28.4615H22.1291V30.8106H23.4451V26.4897H24.6025V30.8023H25.9651V28.4574H27.0893V30.8137H28.4063V26.4866H29.5638V30.8157H30.8994V28.4532H32.0516V30.8054H33.3852V26.4948H34.5385V30.8137H35.8306V22.719H35.8296Z" fill="white"/>
</g>
</g>
<path d="M13.5374 16.8775C13.7975 17.1189 14.0109 17.293 14.1953 17.494C14.4865 17.8111 14.4741 18.1613 14.1953 18.469C13.9322 18.7592 13.5757 18.8327 13.2669 18.5789C12.4815 17.9313 11.7075 17.2691 10.9625 16.5749C10.6392 16.2744 10.6692 15.863 10.9915 15.5625C11.7095 14.8911 12.4463 14.2383 13.1944 13.599C13.5374 13.3057 13.9166 13.3607 14.2078 13.6902C14.5062 14.028 14.4565 14.3885 14.1435 14.7035C13.9508 14.8973 13.7415 15.0745 13.47 15.3232H31.1027C30.8717 15.1097 30.6852 14.9502 30.5121 14.775C30.1899 14.4486 30.1546 14.001 30.4448 13.715C30.7639 13.4011 31.1411 13.3948 31.4706 13.6736C32.1814 14.2756 32.8777 14.8963 33.5616 15.5304C33.915 15.8579 33.9263 16.3024 33.574 16.6236C32.8612 17.2754 32.1255 17.9033 31.3867 18.526C31.0427 18.8162 30.68 18.7799 30.3712 18.4607C30.0645 18.1447 30.1039 17.7686 30.4582 17.4111C30.623 17.2453 30.7991 17.0919 31.0302 16.8764H13.5374V16.8775Z" fill="#555555"/>
<path d="M8.21962 16.1776C8.21962 15.4015 8.20615 14.6244 8.22376 13.8483C8.23827 13.2607 8.53773 12.9561 9.01955 12.9799C9.47133 13.0017 9.70551 13.3094 9.69929 13.8949C9.68375 15.3269 9.66199 16.7589 9.64126 18.1909C9.63919 18.3287 9.64541 18.4696 9.61847 18.6033C9.52935 19.0292 9.28067 19.2841 8.82268 19.2385C8.39473 19.196 8.18232 18.9307 8.17921 18.508C8.17299 17.7319 8.17713 16.9547 8.17713 16.1786C8.19164 16.1786 8.20615 16.1786 8.22065 16.1786L8.21962 16.1776Z" fill="#555555"/>
<path d="M36.3627 16.0381C36.3627 16.7966 36.3772 17.5551 36.3575 18.3125C36.342 18.9093 36.0415 19.2378 35.5866 19.2161C35.1338 19.1943 34.8923 18.8565 34.8986 18.2493C34.9131 16.8536 34.9265 15.4568 34.9441 14.061C34.9462 13.9066 34.9421 13.746 34.9804 13.5989C35.0768 13.2248 35.3141 12.9907 35.7192 13.0176C36.1368 13.0456 36.3948 13.2787 36.401 13.7108C36.4135 14.4859 36.4041 15.262 36.4041 16.037C36.3896 16.037 36.3751 16.037 36.3606 16.037L36.3627 16.0381Z" fill="#555555"/>
<rect x="35.6504" y="20.3281" width="2.37039" height="13.4043" fill="white"/>
<rect x="6.24609" y="20.3281" width="2.37039" height="13.4043" fill="white"/>
<rect width="2.37039" height="29.8605" transform="matrix(-4.37114e-08 -1 -1 4.37114e-08 37.291 22)" fill="white"/>
<rect width="2.37039" height="29.8605" transform="matrix(-4.37114e-08 -1 -1 4.37114e-08 37.291 33.7324)" fill="white"/>
<defs>
<linearGradient id="paint0_linear_2459_21127" x1="22.251" y1="22.4492" x2="22.251" y2="31.6113" gradientUnits="userSpaceOnUse">
<stop stop-color="#1F78B8"/>
<stop offset="1" stop-color="#C38224"/>
</linearGradient>
<clipPath id="clip0_2459_21127">
<rect width="26" height="7" fill="white" transform="translate(9.29102 23.6407)"/>
</clipPath>
<clipPath id="clip1_2459_21127">
<rect width="27" height="10" fill="white" transform="translate(10.291 21.5626)"/>
</clipPath>
</defs>
</svg>
