<svg width="45" height="45" viewBox="0 0 45 45" fill="none" xmlns="http://www.w3.org/2000/svg">
<rect x="0.238281" y="0.577637" width="44" height="44" rx="22" fill="white"/>
<path d="M29.8203 11.4468H14.6536C14.151 11.4474 13.6692 11.6473 13.3138 12.0027C12.9584 12.3581 12.7584 12.84 12.7578 13.3426V31.9714C12.7579 32.3098 12.8485 32.642 13.0203 32.9336C13.1921 33.2252 13.4388 33.4654 13.7348 33.6295C14.0308 33.7935 14.3653 33.8753 14.7036 33.8664C15.0419 33.8576 15.3717 33.7583 15.6587 33.5789L22.0931 29.5572C22.1363 29.5304 22.1861 29.5161 22.2369 29.516C22.2877 29.5159 22.3376 29.53 22.3809 29.5566L28.8153 33.5795C29.1023 33.7587 29.4321 33.8578 29.7704 33.8666C30.1087 33.8754 30.4432 33.7935 30.7391 33.6295C31.0351 33.4654 31.2818 33.2251 31.4536 32.9336C31.6254 32.642 31.716 32.3098 31.7161 31.9714V13.3426C31.7155 12.84 31.5156 12.3581 31.1602 12.0027C30.8048 11.6473 30.3229 11.4474 29.8203 11.4468Z" fill="url(#paint0_linear_2948_19054)"/>
<path d="M21.7722 15.816L20.6666 18.3958C20.6276 18.4868 20.5627 18.5644 20.4801 18.6189C20.3974 18.6734 20.3005 18.7024 20.2015 18.7024H18.006C17.9012 18.7024 17.7989 18.735 17.7134 18.7957C17.6278 18.8563 17.5632 18.942 17.5285 19.041C17.4938 19.1399 17.4907 19.2472 17.5196 19.348C17.5485 19.4488 17.608 19.5381 17.6899 19.6036L19.6065 21.1369C19.6853 21.1999 19.7434 21.285 19.7735 21.3814C19.8035 21.4777 19.8041 21.5808 19.7751 21.6775L18.8966 24.6057C18.866 24.7077 18.8684 24.8168 18.9034 24.9175C18.9384 25.0181 19.0043 25.1051 19.0917 25.166C19.179 25.227 19.2834 25.2589 19.3899 25.2571C19.4964 25.2552 19.5997 25.2198 19.6849 25.1559L21.9337 23.4693C22.0213 23.4036 22.1278 23.3681 22.2373 23.3681C22.3468 23.3681 22.4534 23.4036 22.5409 23.4693L24.7898 25.1559C24.875 25.2198 24.9782 25.2552 25.0847 25.2571C25.1913 25.2589 25.2956 25.227 25.383 25.166C25.4704 25.1051 25.5363 25.0181 25.5713 24.9175C25.6063 24.8168 25.6087 24.7077 25.5781 24.6057L24.6996 21.6775C24.6706 21.5808 24.6711 21.4777 24.7012 21.3814C24.7312 21.285 24.7894 21.1999 24.8682 21.1369L26.7848 19.6036C26.8666 19.5381 26.9261 19.4488 26.955 19.348C26.984 19.2472 26.9808 19.1399 26.9461 19.041C26.9114 18.942 26.8468 18.8563 26.7613 18.7957C26.6758 18.735 26.5735 18.7024 26.4686 18.7024H24.2732C24.1741 18.7024 24.0773 18.6734 23.9946 18.6189C23.9119 18.5644 23.8471 18.4868 23.8081 18.3958L22.7024 15.816C22.6634 15.725 22.5986 15.6474 22.5159 15.5929C22.4332 15.5383 22.3364 15.5093 22.2373 15.5093C22.1383 15.5093 22.0414 15.5383 21.9588 15.5929C21.8761 15.6474 21.8112 15.725 21.7722 15.816Z" fill="white"/>
<defs>
<linearGradient id="paint0_linear_2948_19054" x1="11.4864" y1="14.626" x2="29.6606" y2="33.8357" gradientUnits="userSpaceOnUse">
<stop stop-color="#00C0FF"/>
<stop offset="1" stop-color="#00754A"/>
</linearGradient>
</defs>
</svg>
