<svg width="45" height="45" viewBox="0 0 45 45" fill="none" xmlns="http://www.w3.org/2000/svg">
<rect x="0.238281" y="0.577637" width="44" height="44" rx="22" fill="white"/>
<path d="M22.1349 34.1914C21.7483 34.589 21.1109 34.5966 20.7131 34.2101C20.3362 33.8439 19.972 33.488 19.6193 33.1209C17.7124 31.1359 15.9944 29.0019 14.5923 26.6264C13.6061 24.9558 12.8236 23.2017 12.4135 21.2909C11.4708 16.9025 13.6457 12.5825 17.7294 10.7654C22.2462 8.75548 27.6681 10.7981 29.7508 15.2846C30.819 17.5855 30.8365 19.9347 30.1633 22.34C30.0261 22.8302 29.8308 23.0401 29.2992 23.1109C26.6805 23.4585 24.4744 25.5006 23.8446 28.0885C23.5273 29.393 23.5873 30.6794 24.036 31.9458C24.077 32.062 24.1194 32.1596 24.0057 32.2753C23.3848 32.9062 22.7677 33.5406 22.1349 34.1914ZM25.9961 19.2092C25.9961 16.6721 23.95 14.6226 21.4178 14.6221C18.8845 14.6221 16.8292 16.6706 16.8253 19.1999C16.8214 21.7454 18.8767 23.8012 21.4202 23.7958C23.9627 23.7905 25.9966 21.7522 25.9961 19.2092Z" fill="url(#paint0_linear_2948_19081)"/>
<path d="M20.6815 34.1914C21.0682 34.589 21.7055 34.5966 22.1033 34.2101C22.4802 33.8439 22.8444 33.488 23.1972 33.1209C25.104 31.1359 26.822 29.0019 28.2241 26.6264C29.2103 24.9558 29.9928 23.2017 30.4029 21.2909C31.3456 16.9025 29.1707 12.5825 25.087 10.7654C20.5702 8.75548 15.1483 10.7981 13.0656 15.2846C11.9975 17.5855 11.9799 19.9347 12.6531 22.34C12.7903 22.8302 12.9856 23.0401 13.5172 23.1109C16.1359 23.4585 18.342 25.5006 18.9718 28.0885C19.2891 29.393 19.2291 30.6794 18.7804 31.9458C18.7394 32.062 18.697 32.1596 18.8107 32.2753C19.4317 32.9062 20.0487 33.5406 20.6815 34.1914ZM16.8203 19.2092C16.8203 16.6721 18.8664 14.6226 21.3986 14.6221C23.9319 14.6221 25.9872 16.6706 25.9911 19.1999C25.995 21.7454 23.9397 23.8012 21.3962 23.7958C18.8537 23.7905 16.8199 21.7522 16.8203 19.2092Z" fill="url(#paint1_linear_2948_19081)"/>
<path d="M21.4086 22.3344C19.678 22.3314 18.2866 20.9362 18.2891 19.2055C18.291 17.4797 19.6931 16.083 21.4208 16.085C23.1495 16.0869 24.5394 17.4846 24.536 19.2177C24.5326 20.9533 23.1442 22.3373 21.4086 22.3344Z" fill="url(#paint2_linear_2948_19081)"/>
<path d="M24.8606 15.2714C24.5835 18.0456 26.2908 20.8246 28.9224 21.8389C29.3203 21.9923 29.774 22.0993 30.1644 22.1914C30.3212 22.2284 30.4679 22.263 30.5966 22.2973L30.685 22.3208H30.7765H31.91H31.9852L32.0586 22.3048C32.1391 22.2873 32.2293 22.2692 32.3249 22.2499C32.5487 22.2047 32.8027 22.1535 33.0341 22.0908L33.0346 22.0907C35.5865 21.3971 37.4337 19.2819 37.7885 16.6686L37.7889 16.6676C37.7919 16.6597 37.7958 16.6495 37.7999 16.6382C37.8041 16.6267 37.8088 16.6131 37.8138 16.5979L37.8483 16.4922V16.3809V15.2468V15.1355L37.8138 15.0298C37.8088 15.0146 37.8041 15.001 37.7999 14.9895C37.7958 14.9782 37.7919 14.968 37.7889 14.9601L37.7886 14.9591C37.2878 11.2578 33.8533 8.76248 30.1611 9.41891M24.8606 15.2714L25.5572 15.3409M24.8606 15.2714L25.5572 15.3409M24.8606 15.2714C25.156 12.3145 27.2929 9.92864 30.1611 9.41891M25.5572 15.3409C25.8228 12.681 27.7383 10.5605 30.2835 10.1081M25.5572 15.3409C25.3115 17.8002 26.8352 20.2843 29.1743 21.1857C29.5259 21.3213 29.8962 21.4085 30.2665 21.4956L30.2835 10.1081M30.1611 9.41891L30.2835 10.1081M30.1611 9.41891L30.2835 10.1081M30.7643 13.0927C30.7647 13.0927 30.7651 13.0927 30.7656 13.0926L30.7803 12.6505L30.7643 13.0927ZM30.7643 13.0927C30.7624 13.0927 30.7615 13.0927 30.7615 13.0927C30.7615 13.0927 30.7625 13.0927 30.7643 13.0927ZM31.2298 12.6434L30.7807 12.6501L30.7889 12.3931M31.2298 12.6434L31.4416 12.4008C31.221 12.4015 31.0048 12.4003 30.7889 12.3931M31.2298 12.6434C31.23 12.6412 31.2301 12.6394 31.2302 12.6381C31.2302 12.6364 31.2303 12.6356 31.2303 12.6356L31.2298 12.6434ZM30.7889 12.3931L30.7803 12.6501L30.7889 12.3931ZM37.7951 15.0092L37.795 15.0081L37.7951 15.0092ZM32.1535 15.9239H31.4535V16.6239L31.4538 17.1922L31.4541 17.7331C31.4541 17.8417 31.4544 17.9483 31.4548 18.0535C31.4553 18.2149 31.4558 18.373 31.455 18.5298C31.3852 18.5302 31.3149 18.5303 31.2438 18.5304V16.6266V15.9266H30.5438H28.6466V15.7141H30.5184H31.1844L31.2175 15.0489C31.2185 15.0289 31.2201 15.0032 31.2219 14.9742C31.2269 14.8951 31.2335 14.7908 31.2335 14.7057C31.2338 14.5507 31.2343 14.3946 31.2348 14.2379C31.236 13.8616 31.2372 13.4814 31.2349 13.1007C31.3037 13.101 31.3727 13.101 31.4416 13.1008V15.0011V15.7011H32.1416H34.0399V15.9239H32.1535ZM30.7667 13.0926L30.7807 12.6505L31.2297 12.6444C31.2288 12.6536 31.2267 12.6695 31.2218 12.6899C31.2097 12.7412 31.176 12.8382 31.0871 12.9309C30.9963 13.0256 30.8958 13.066 30.8331 13.0818C30.8006 13.09 30.7767 13.0921 30.7667 13.0926Z" fill="url(#paint3_linear_2948_19081)" stroke="white" stroke-width="1.4"/>
<defs>
<linearGradient id="paint0_linear_2948_19081" x1="10.9597" y1="13.5251" x2="31.1293" y2="32.1647" gradientUnits="userSpaceOnUse">
<stop stop-color="#00C0FF"/>
<stop offset="1" stop-color="#00754A"/>
</linearGradient>
<linearGradient id="paint1_linear_2948_19081" x1="31.8567" y1="13.5251" x2="11.6871" y2="32.1647" gradientUnits="userSpaceOnUse">
<stop stop-color="#00C0FF"/>
<stop offset="1" stop-color="#00754A"/>
</linearGradient>
<linearGradient id="paint2_linear_2948_19081" x1="17.8701" y1="16.9711" x2="22.8204" y2="23.1565" gradientUnits="userSpaceOnUse">
<stop stop-color="#00C0FF"/>
<stop offset="1" stop-color="#00754A"/>
</linearGradient>
<linearGradient id="paint3_linear_2948_19081" x1="24.7522" y1="11.66" x2="33.9434" y2="23.1593" gradientUnits="userSpaceOnUse">
<stop stop-color="#00C0FF"/>
<stop offset="1" stop-color="#C28123"/>
</linearGradient>
</defs>
</svg>
