<svg width="45" height="45" viewBox="0 0 45 45" fill="none" xmlns="http://www.w3.org/2000/svg">
<rect x="0.357422" y="0.859375" width="44" height="44" rx="22" fill="white"/>
<path d="M22.2521 34.4736C21.8654 34.8713 21.2281 34.8788 20.8303 34.4923C20.4534 34.1261 20.0892 33.7702 19.7364 33.4031C17.8295 31.4181 16.1116 29.2842 14.7095 26.9086C13.7233 25.238 12.9407 23.4839 12.5307 21.5731C11.588 17.1847 13.7629 12.8647 17.8466 11.0476C22.3634 9.03771 27.7853 11.0803 29.868 15.5668C30.9361 17.8677 30.9537 20.2169 30.2805 22.6223C30.1433 23.1124 29.948 23.3223 29.4164 23.3931C26.7977 23.7407 24.5915 25.7828 23.9618 28.3708C23.6444 29.6752 23.7045 30.9616 24.1531 32.228C24.1942 32.3442 24.2366 32.4418 24.1229 32.5575C23.5019 33.1885 22.8849 33.8228 22.2521 34.4736ZM26.1133 19.4914C26.1133 16.9543 24.0672 14.9048 21.535 14.9044C19.0017 14.9044 16.9464 16.9528 16.9425 19.4822C16.9386 22.0276 18.9939 24.0834 21.5374 24.0781C24.0799 24.0727 26.1137 22.0345 26.1133 19.4914Z" fill="url(#paint0_linear_801_11890)"/>
<path d="M20.7987 34.4736C21.1853 34.8713 21.8227 34.8788 22.2205 34.4923C22.5974 34.1261 22.9616 33.7702 23.3143 33.4031C25.2212 31.4181 26.9392 29.2842 28.3413 26.9086C29.3275 25.238 30.11 23.4839 30.5201 21.5731C31.4628 17.1847 29.2879 12.8647 25.2042 11.0476C20.6874 9.03771 15.2655 11.0803 13.1828 15.5668C12.1146 17.8677 12.0971 20.2169 12.7703 22.6223C12.9075 23.1124 13.1028 23.3223 13.6344 23.3931C16.2531 23.7407 18.4592 25.7828 19.089 28.3708C19.4063 29.6752 19.3463 30.9616 18.8976 32.228C18.8566 32.3442 18.8142 32.4418 18.9279 32.5575C19.5488 33.1885 20.1658 33.8228 20.7987 34.4736ZM16.9375 19.4914C16.9375 16.9543 18.9836 14.9048 21.5158 14.9044C24.0491 14.9044 26.1044 16.9528 26.1083 19.4822C26.1122 22.0276 24.0569 24.0834 21.5134 24.0781C18.9709 24.0727 16.937 22.0345 16.9375 19.4914Z" fill="url(#paint1_linear_801_11890)"/>
<path d="M21.5239 22.6166C19.7932 22.6137 18.4019 21.2184 18.4043 19.4877C18.4063 17.762 19.8084 16.3652 21.5361 16.3672C23.2648 16.3691 24.6547 17.7668 24.6513 19.4999C24.6478 21.2355 23.2594 22.6195 21.5239 22.6166Z" fill="url(#paint2_linear_801_11890)"/>
<path d="M24.9798 15.5531C24.7026 18.3274 26.4099 21.1063 29.0416 22.1206C29.4395 22.274 29.8931 22.3811 30.2836 22.4732C30.4404 22.5102 30.587 22.5448 30.7157 22.579L30.8041 22.6025H30.8956H32.0292H32.1043L32.1778 22.5866C32.2583 22.5691 32.3484 22.5509 32.444 22.5316C32.6678 22.4865 32.9218 22.4352 33.1532 22.3725L33.1537 22.3724C35.7056 21.6789 37.5528 19.5636 37.9077 16.9504L37.9081 16.9493C37.9111 16.9415 37.9149 16.9312 37.9191 16.9199C37.9232 16.9084 37.928 16.8948 37.9329 16.8797L37.9674 16.7739V16.6626V15.5285V15.4173L37.9329 15.3115C37.928 15.2963 37.9232 15.2827 37.9191 15.2713C37.9149 15.2599 37.9111 15.2497 37.9081 15.2419L37.9077 15.2409C37.407 11.5396 33.9724 9.04422 30.2802 9.70064M24.9798 15.5531L25.6763 15.6227M24.9798 15.5531L25.6763 15.6227M24.9798 15.5531C25.2751 12.5962 27.4121 10.2104 30.2802 9.70064M25.6763 15.6227C25.942 12.9627 27.8574 10.8422 30.4027 10.3898M25.6763 15.6227C25.4306 18.0819 26.9543 20.566 29.2935 21.4675C29.645 21.6031 30.0153 21.6902 30.3857 21.7773L30.4027 10.3898M30.2802 9.70064L30.4027 10.3898M30.2802 9.70064L30.4027 10.3898M30.8834 13.3744C30.8838 13.3744 30.8843 13.3744 30.8847 13.3744L30.8995 12.9323L30.8834 13.3744ZM30.8834 13.3744C30.8815 13.3744 30.8806 13.3744 30.8807 13.3744C30.8807 13.3745 30.8816 13.3745 30.8834 13.3744ZM31.3489 12.9251L30.8999 12.9319L30.9081 12.6748M31.3489 12.9251L31.5608 12.6825C31.3402 12.6832 31.124 12.682 30.9081 12.6748M31.3489 12.9251C31.3491 12.9229 31.3493 12.9212 31.3493 12.9199C31.3494 12.9182 31.3494 12.9174 31.3494 12.9174L31.3489 12.9251ZM30.9081 12.6748L30.8995 12.9319L30.9081 12.6748ZM37.9143 15.2909L37.9141 15.2898L37.9143 15.2909ZM32.2727 16.2056H31.5727V16.9056L31.5729 17.4739L31.5732 18.0148C31.5732 18.1234 31.5736 18.23 31.5739 18.3353C31.5744 18.4966 31.5749 18.6547 31.5742 18.8115C31.5044 18.8119 31.434 18.8121 31.3629 18.8121V16.9083V16.2083H30.6629H28.7657V15.9959H30.6375H31.3035L31.3366 15.3307C31.3376 15.3106 31.3393 15.285 31.3411 15.2559C31.346 15.1768 31.3526 15.0725 31.3527 14.9875C31.3529 14.8324 31.3534 14.6764 31.3539 14.5197C31.3551 14.1433 31.3564 13.7631 31.354 13.3824C31.4229 13.3827 31.4918 13.3827 31.5608 13.3825V15.2829V15.9829H32.2608H34.1591V16.2056H32.2727ZM30.8858 13.3743L30.8999 12.9322L31.3488 12.9261C31.348 12.9353 31.3458 12.9512 31.341 12.9717C31.3288 13.023 31.2952 13.1199 31.2063 13.2126C31.1155 13.3073 31.0149 13.3478 30.9522 13.3636C30.9197 13.3718 30.8959 13.3739 30.8858 13.3743Z" fill="url(#paint3_linear_801_11890)" stroke="white" stroke-width="1.4"/>
<defs>
<linearGradient id="paint0_linear_801_11890" x1="11.0769" y1="13.8073" x2="31.2465" y2="32.447" gradientUnits="userSpaceOnUse">
<stop stop-color="#00C0FF"/>
<stop offset="1" stop-color="#00754A"/>
</linearGradient>
<linearGradient id="paint1_linear_801_11890" x1="31.9739" y1="13.8073" x2="11.8043" y2="32.447" gradientUnits="userSpaceOnUse">
<stop stop-color="#00C0FF"/>
<stop offset="1" stop-color="#00754A"/>
</linearGradient>
<linearGradient id="paint2_linear_801_11890" x1="17.9854" y1="17.2534" x2="22.9356" y2="23.4388" gradientUnits="userSpaceOnUse">
<stop stop-color="#00C0FF"/>
<stop offset="1" stop-color="#00754A"/>
</linearGradient>
<linearGradient id="paint3_linear_801_11890" x1="24.8713" y1="11.9417" x2="34.0625" y2="23.441" gradientUnits="userSpaceOnUse">
<stop stop-color="#00C0FF"/>
<stop offset="1" stop-color="#C28123"/>
</linearGradient>
</defs>
</svg>
