<svg width="56" height="56" viewBox="0 0 56 56" fill="none" xmlns="http://www.w3.org/2000/svg">
<path d="M31.2765 33.4166C32.1859 32.437 33.485 31.8209 34.9268 31.8209C37.6748 31.8209 39.9099 34.0558 39.9099 36.8038C39.9099 39.5519 37.6749 41.7868 34.9268 41.7868C32.1787 41.7868 29.9437 39.552 29.9437 36.8038C29.9437 36.2927 30.0216 35.7993 30.1656 35.3347L26.6745 33.3191C25.2062 35.1983 22.9181 36.4108 20.3508 36.4108C15.9269 36.4108 12.3286 32.8124 12.3286 28.3885C12.3286 23.9647 15.9269 20.3663 20.3508 20.3664L31.2765 33.4166ZM31.2765 33.4166L27.7857 31.4012M31.2765 33.4166L27.7857 31.4012M27.7857 31.4012C28.1643 30.4703 28.3732 29.453 28.3732 28.3885C28.3732 27.3241 28.1644 26.3067 27.7857 25.3757L31.2765 23.3604C32.1859 24.3401 33.485 24.9562 34.9268 24.9562C37.6749 24.9562 39.9099 22.7213 39.9099 19.9732C39.9099 17.2252 37.6748 14.9902 34.9268 14.9902C32.1786 14.9902 29.9437 17.2252 29.9437 19.9732C29.9437 20.4843 30.0216 20.9777 30.1656 21.4423L26.6745 23.458C25.2061 21.5788 22.9181 20.3664 20.3509 20.3664L27.7857 31.4012ZM34.9268 17.2068C36.4518 17.2068 37.6933 18.4483 37.6933 19.9732C37.6933 21.4981 36.4519 22.7396 34.9268 22.7396C33.4017 22.7396 32.1603 21.4981 32.1603 19.9732C32.1603 18.4483 33.4017 17.2068 34.9268 17.2068ZM20.3508 34.1942C17.15 34.1942 14.5452 31.5894 14.5452 28.3885C14.5452 25.1877 17.15 22.5829 20.3508 22.5829C23.5516 22.5829 26.1565 25.1877 26.1565 28.3885C26.1565 31.5893 23.5516 34.1942 20.3508 34.1942ZM34.9268 39.5703C33.4017 39.5703 32.1603 38.3289 32.1603 36.8039C32.1603 35.279 33.4017 34.0376 34.9268 34.0376C36.4519 34.0376 37.6933 35.279 37.6933 36.8039C37.6933 38.3288 36.4517 39.5703 34.9268 39.5703Z" fill="white" stroke="white"/>
<circle cx="35.0278" cy="36.8994" r="2.57031" fill="url(#paint0_linear_1799_34037)"/>
<rect x="0.828613" y="1.3877" width="54" height="54" rx="27" stroke="white"/>
<g opacity="0.66">
<ellipse cx="20.4185" cy="28.3878" rx="5.35498" ry="5.37316" fill="url(#paint1_linear_1799_34037)"/>
<circle cx="34.9241" cy="19.9941" r="2.28418" fill="url(#paint2_linear_1799_34037)"/>
</g>
<defs>
<linearGradient id="paint0_linear_1799_34037" x1="32.1128" y1="35.058" x2="36.1844" y2="40.1476" gradientUnits="userSpaceOnUse">
<stop stop-color="#00C0FF"/>
<stop offset="1" stop-color="#C28123"/>
</linearGradient>
<linearGradient id="paint1_linear_1799_34037" x1="14.3452" y1="24.5385" x2="22.8631" y2="35.1498" gradientUnits="userSpaceOnUse">
<stop stop-color="#00C0FF"/>
<stop offset="1" stop-color="#00754A"/>
</linearGradient>
<linearGradient id="paint2_linear_1799_34037" x1="32.3335" y1="18.3578" x2="35.9519" y2="22.8807" gradientUnits="userSpaceOnUse">
<stop stop-color="#00C0FF"/>
<stop offset="1" stop-color="#C28123"/>
</linearGradient>
</defs>
</svg>
