<svg width="27" height="27" viewBox="0 0 27 27" fill="none" xmlns="http://www.w3.org/2000/svg">
<path d="M9.93961 26.2002C9.55294 26.5978 8.91561 26.6054 8.51781 26.2189C8.14086 25.8527 7.77666 25.4968 7.42394 25.1296C5.51704 23.1446 3.79908 21.0107 2.39698 18.6352C1.41083 16.9646 0.628249 15.2105 0.218165 13.2997C-0.724542 8.91129 1.45037 4.59124 5.53413 2.77417C10.0509 0.764271 15.4728 2.80688 17.5555 7.2934C18.6236 9.59427 18.6412 11.9435 17.968 14.3488C17.8308 14.839 17.6355 15.0489 17.1039 15.1197C14.4852 15.4673 12.279 17.5094 11.6493 20.0973C11.3319 21.4018 11.392 22.6882 11.8406 23.9546C11.8817 24.0707 11.9241 24.1684 11.8104 24.2841C11.1894 24.915 10.5724 25.5494 9.93961 26.2002ZM13.8008 11.218C13.8008 8.68086 11.7547 6.63141 9.22245 6.63092C6.6892 6.63092 4.6339 8.67939 4.62999 11.2087C4.62609 13.7542 6.68139 15.81 9.22489 15.8046C11.7674 15.7992 13.8012 13.761 13.8008 11.218Z" fill="white"/>
<path d="M8.4852 26.2002C8.87187 26.5978 9.5092 26.6054 9.907 26.2189C10.2839 25.8527 10.6481 25.4968 11.0009 25.1296C12.9078 23.1446 14.6257 21.0107 16.0278 18.6352C17.014 16.9646 17.7966 15.2105 18.2066 13.2997C19.1493 8.91129 16.9744 4.59124 12.8907 2.77417C8.37389 0.764271 2.95198 2.80688 0.869338 7.2934C-0.198835 9.59427 -0.216411 11.9435 0.456811 14.3488C0.593994 14.839 0.789273 15.0489 1.32092 15.1197C3.9396 15.4673 6.14576 17.5094 6.77553 20.0973C7.09286 21.4018 7.03281 22.6882 6.58416 23.9546C6.54315 24.0707 6.50068 24.1684 6.61443 24.2841C7.23536 24.915 7.85237 25.5494 8.4852 26.2002ZM4.62405 11.218C4.62405 8.68086 6.67008 6.63141 9.20235 6.63092C11.7356 6.63092 13.7909 8.67939 13.7948 11.2087C13.7987 13.7542 11.7434 15.81 9.19991 15.8046C6.65739 15.7992 4.62356 13.761 4.62405 11.218Z" fill="white"/>
<path d="M9.21235 14.3431C7.48169 14.3402 6.09034 12.945 6.09278 11.2143C6.09473 9.48853 7.49683 8.0918 9.22455 8.09375C10.9533 8.0957 12.3432 9.49341 12.3397 11.2265C12.3363 12.962 10.9479 14.3461 9.21235 14.3431Z" fill="white"/>
<path d="M18.4926 14.33L18.4042 14.3065C18.2755 14.2723 18.1289 14.2377 17.972 14.2007C17.5816 14.1086 17.1279 14.0016 16.73 13.8481C14.0984 12.8338 12.3911 10.0549 12.6682 7.28064M18.4926 14.33L17.9687 1.42818M18.4926 14.33H18.5841H19.7177H19.7928L19.8663 14.3141C19.9468 14.2966 20.0369 14.2784 20.1325 14.2591C20.3563 14.214 20.6103 14.1628 20.8417 14.1001L20.8422 14.0999C23.3941 13.4064 25.2413 11.2911 25.5962 8.67792L25.5966 8.67683C25.5996 8.66899 25.6034 8.65878 25.6075 8.64743C25.6117 8.63598 25.6165 8.62237 25.6214 8.6072L25.6559 8.50143V8.39018V7.25607V7.14482L25.6214 7.03905C25.6165 7.02388 25.6117 7.01027 25.6075 6.99882C25.6034 6.98747 25.5996 6.97726 25.5966 6.96942L25.5962 6.96842C25.0955 3.26711 21.6609 0.771766 17.9687 1.42818M18.4926 14.33L18.0912 2.11738M12.6682 7.28064L13.3648 7.35022M12.6682 7.28064L13.3648 7.35022M12.6682 7.28064C12.9636 4.32377 15.1005 1.93791 17.9687 1.42818M13.3648 7.35022C13.6304 4.69024 15.5459 2.56973 18.0912 2.11738M13.3648 7.35022C13.1191 9.80945 14.6428 12.2936 16.9819 13.195C17.3335 13.3306 17.7038 13.4177 18.0741 13.5049L18.0912 2.11738M17.9687 1.42818L18.0912 2.11738M18.5719 5.10197C18.5723 5.10196 18.5727 5.10194 18.5732 5.10193L18.5879 4.65979L18.338 4.66319L18.5719 5.10197ZM18.5719 5.10197C18.57 5.10194 18.5691 5.10197 18.5691 5.10199C18.5692 5.10201 18.5701 5.10203 18.5719 5.10197ZM19.0374 4.65266L18.5884 4.65942L19.0374 4.65266ZM19.0374 4.65266C19.0376 4.65046 19.0377 4.6487 19.0378 4.64742C19.0378 4.6457 19.0379 4.64489 19.0379 4.64492L19.0374 4.65266ZM25.6028 7.01846L25.6026 7.01736L25.6028 7.01846ZM19.9611 7.93313H19.2611V8.63313L19.2614 9.20145L19.2617 9.74235C19.2617 9.85094 19.262 9.95757 19.2624 10.0628C19.2629 10.2242 19.2634 10.3823 19.2627 10.539C19.1929 10.5394 19.1225 10.5396 19.0514 10.5396V8.63583V7.93583H18.3514H16.4542V7.7234H18.326H18.992L19.0251 7.0582C19.0261 7.03814 19.0277 7.01248 19.0296 6.98343C19.0345 6.90433 19.0411 6.80004 19.0411 6.71501C19.0414 6.55993 19.0419 6.40392 19.0424 6.24722C19.0436 5.87089 19.0448 5.49063 19.0425 5.10999C19.1114 5.11027 19.1803 5.11025 19.2492 5.11006V7.01042V7.71041H19.9492H21.8475V7.93313H19.9611ZM18.5743 5.10188L18.5884 4.65979L19.0373 4.65369C19.0364 4.66285 19.0343 4.67875 19.0295 4.69922C19.0173 4.7505 18.9837 4.84744 18.8947 4.94016C18.8039 5.03487 18.7034 5.07531 18.6407 5.09113C18.6082 5.09932 18.5843 5.1014 18.5743 5.10188Z" fill="white" stroke="url(#paint0_linear_3213_13722)" stroke-width="1.4"/>
<defs>
<linearGradient id="paint0_linear_3213_13722" x1="26.619" y1="13.63" x2="7.79094" y2="13.5722" gradientUnits="userSpaceOnUse">
<stop stop-color="#036068"/>
<stop offset="0.382639" stop-color="#596451"/>
<stop offset="0.561006" stop-color="#1E7C87"/>
<stop offset="0.75484" stop-color="#4C7950"/>
<stop offset="1" stop-color="#1199A8"/>
</linearGradient>
</defs>
</svg>
