 <svg width="15" height="19" viewBox="0 0 15 19" fill="none" xmlns="http://www.w3.org/2000/svg">
<path opacity="0.8" d="M7.04179 18.9965C6.55504 18.5168 6.09546 18.0851 5.65895 17.6307C4.20541 16.1177 2.89588 14.4911 1.82712 12.6803C1.07541 11.4069 0.478888 10.0698 0.166298 8.61327C-0.552287 5.26818 1.10556 1.97519 4.21843 0.59012C7.66139 -0.941944 11.7943 0.615052 13.3818 4.03494C14.196 5.78879 14.2094 7.57949 13.6962 9.41298C13.5917 9.78659 13.4428 9.94661 13.0376 10.0006C11.0415 10.2655 9.3598 11.8222 8.87975 13.7948C8.63786 14.7892 8.68363 15.7697 9.02562 16.735C9.05688 16.8236 9.08926 16.898 9.00255 16.9862C8.35616 17.643 7.71535 18.3047 7.04179 18.9965ZM10.5197 7.0265C10.5197 5.09253 8.96013 3.53033 7.02988 3.52996C5.09889 3.52996 3.53222 5.09142 3.52925 7.01943C3.52627 8.95972 5.09294 10.5268 7.03174 10.5227C8.9698 10.5186 10.5201 8.96493 10.5197 7.0265Z" fill="white" fill-opacity="0.9"/>
<path d="M7.00313 18.9965C7.48988 18.5168 7.94946 18.0851 8.38597 17.6307C9.83951 16.1177 11.149 14.4911 12.2178 12.6803C12.9695 11.4069 13.566 10.0698 13.8786 8.61327C14.5972 5.26818 12.9394 1.97519 9.82649 0.59012C6.38353 -0.941944 2.25065 0.615052 0.663136 4.03494C-0.151087 5.78879 -0.164485 7.57949 0.348683 9.41298C0.453252 9.78659 0.602106 9.94661 1.00736 10.0006C3.00347 10.2655 4.68513 11.8222 5.16518 13.7948C5.40706 14.7892 5.36129 15.7697 5.0193 16.735C4.98804 16.8236 4.95567 16.898 5.04237 16.9862C5.68876 17.643 6.32957 18.3047 7.00313 18.9965ZM3.5252 7.0265C3.5252 5.09253 5.0848 3.53033 7.01504 3.52996C8.94603 3.52996 10.5127 5.09142 10.5157 7.01943C10.5187 8.95972 8.95198 10.5268 7.01318 10.5227C5.07512 10.5186 3.52482 8.96493 3.5252 7.0265Z" fill="white" fill-opacity="0.9"/>
<path d="M7.02245 9.40818C5.70325 9.40595 4.64267 8.3424 4.64453 7.02319C4.64602 5.70771 5.71478 4.64304 7.03175 4.64453C8.34947 4.64602 9.40893 5.71143 9.40632 7.0325C9.40372 8.35542 8.34538 9.41042 7.02245 9.40818Z" fill="white" fill-opacity="0.9"/>
</svg>
