<svg width="43" height="43" viewBox="0 0 43 43" fill="none" xmlns="http://www.w3.org/2000/svg">
<g clip-path="url(#clip0_1422_54201)">
<path d="M36.123 3.00244H7.62305C5.00342 3.00244 2.87305 5.13282 2.87305 7.75244V36.2524C2.87305 38.8721 5.00342 41.0024 7.62305 41.0024H36.123C38.7427 41.0024 40.873 38.8721 40.873 36.2524V7.75244C40.873 5.13282 38.7427 3.00244 36.123 3.00244Z" fill="#1976D2"/>
<path d="M34.9375 22.0005H29V17.2505C29 15.9395 30.064 16.063 31.375 16.063H33.75V10.1255H29C25.0646 10.1255 21.875 13.3151 21.875 17.2505V22.0005H17.125V27.938H21.875V41.0005H29V27.938H32.5625L34.9375 22.0005Z" fill="#FAFAFA"/>
</g>
<defs>
<clipPath id="clip0_1422_54201">
<rect width="38" height="38" fill="white" transform="translate(2.87305 3)"/>
</clipPath>
</defs>
</svg>
