<svg width="43" height="43" viewBox="0 0 43 43" fill="none" xmlns="http://www.w3.org/2000/svg">
<g clip-path="url(#clip0_1422_54280)">
<path d="M37.5944 17.4257V37.2174C37.6 37.9963 37.368 38.7586 36.9294 39.4023C36.7885 39.6252 36.6239 39.8323 36.4386 40.0198L20.7319 24.3132L20.1777 23.759L30.9919 12.9448L31.6727 13.3723L37.2144 16.7448C37.4502 16.891 37.5939 17.1483 37.5944 17.4257Z" fill="#CFD8DC"/>
<path d="M30.9945 12.945L19.6262 24.3132L3.91958 40.0199C3.73418 39.8324 3.56964 39.6253 3.42877 39.4024C2.99014 38.7586 2.75813 37.9964 2.76377 37.2174V11.8841C2.76377 9.69797 4.53596 7.92578 6.72207 7.92578H22.5554C22.6993 7.93068 22.8401 7.96861 22.967 8.03659L30.3137 12.5174L30.9945 12.945Z" fill="#4CAF50"/>
<path d="M36.4396 40.0201C36.2521 40.2056 36.0451 40.3702 35.8221 40.5109C35.1783 40.9496 34.4161 41.1817 33.6371 41.1759H6.72046C5.94147 41.1817 5.17924 40.9496 4.53547 40.5109C4.31244 40.3701 4.10544 40.2056 3.91797 40.0201L19.6246 24.3135L20.1788 23.7593L20.733 24.3135L36.4396 40.0201Z" fill="#2196F3"/>
<path d="M36.9321 39.4024C36.6519 39.8514 36.2728 40.2306 35.8238 40.5107L19.6263 24.3133C19.3234 24.0041 19.3284 23.5079 19.6375 23.2049C19.9423 22.9063 20.4299 22.9063 20.7346 23.2049L36.9321 39.4024Z" fill="#FAFAFA"/>
<path d="M31.6744 13.3726L20.7335 24.3134L4.53604 40.5108C4.08702 40.2307 3.70791 39.8515 3.42773 39.4025L30.3127 12.5176L31.6744 13.3726Z" fill="#FFC107"/>
<path d="M9.88739 17.4257C8.1385 17.4257 6.7207 16.0079 6.7207 14.259C6.7207 12.5101 8.1385 11.0923 9.88739 11.0923C11.6363 11.0923 13.0541 12.5101 13.0541 14.259C13.0541 16.0079 11.6363 17.4257 9.88739 17.4257ZM9.88739 12.6757C9.01295 12.6757 8.30408 13.3845 8.30408 14.259C8.30408 15.1334 9.01295 15.8423 9.88739 15.8423C10.7618 15.8423 11.4707 15.1334 11.4707 14.259C11.4707 13.3845 10.7618 12.6757 9.88739 12.6757Z" fill="#FAFAFA"/>
<path d="M13.0541 12.6757H9.88739C9.45017 12.6757 9.0957 12.3212 9.0957 11.884C9.0957 11.4468 9.45017 11.0923 9.88739 11.0923H13.0541C13.4913 11.0923 13.8458 11.4468 13.8458 11.884C13.8458 12.3212 13.4913 12.6757 13.0541 12.6757Z" fill="#FAFAFA"/>
<path d="M9.88611 23.7589C7.93104 23.9875 6.16086 22.5879 5.93226 20.6328C5.9307 20.6193 5.92914 20.6058 5.92773 20.5923C5.92773 19.1118 7.33373 18.1128 10.1109 17.6125C9.96255 17.3077 9.88566 16.973 9.88611 16.634C9.88611 16.1968 10.2406 15.8423 10.6778 15.8423C11.115 15.8423 11.4695 16.1968 11.4695 16.634C11.4695 16.9934 11.7972 17.3338 12.3355 17.8547C13.2079 18.5085 13.7575 19.5056 13.8445 20.5923C13.8444 23.3758 11.9444 23.7589 9.88611 23.7589ZM11.2794 19.0374C8.50542 19.3873 7.51111 20.0871 7.51111 20.5922C7.51111 20.9089 7.93386 22.1755 9.88611 22.1755C12.155 22.1755 12.2611 21.6324 12.2611 20.5922C12.2611 20.0381 11.8922 19.6311 11.2794 19.0374Z" fill="#FAFAFA"/>
<path d="M30.472 3.17578C25.665 3.18187 21.7698 7.07716 21.7637 11.8841C21.7663 12.3624 21.8135 12.8395 21.9046 13.3091C22.0954 14.5366 22.5532 15.7072 23.2457 16.7386C23.613 17.3719 24.0374 18.0306 24.4854 18.7336C27.0598 22.4293 28.8345 26.6216 29.6962 31.0423C29.7831 31.4708 30.2011 31.7476 30.6295 31.6607C30.9411 31.5974 31.1845 31.3539 31.2478 31.0423C32.1088 26.6211 33.8831 22.4283 36.457 18.7319C36.9083 18.0305 37.3295 17.3766 37.6651 16.7892C38.3705 15.7483 38.8386 14.5651 39.0363 13.3232C39.1287 12.849 39.177 12.3672 39.1803 11.884C39.1742 7.07716 35.279 3.18187 30.472 3.17578Z" fill="#F44336"/>
<path d="M30.472 15.8424C32.6581 15.8424 34.4303 14.0702 34.4303 11.8841C34.4303 9.69797 32.6581 7.92578 30.472 7.92578C28.2859 7.92578 26.5137 9.69797 26.5137 11.8841C26.5137 14.0702 28.2859 15.8424 30.472 15.8424Z" fill="#C62828"/>
</g>
<defs>
<clipPath id="clip0_1422_54280">
<rect width="38" height="38" fill="white" transform="translate(1.9707 3.17578)"/>
</clipPath>
</defs>
</svg>
