<svg width="43" height="43" viewBox="0 0 43 43" fill="none" xmlns="http://www.w3.org/2000/svg">
<path d="M30.8689 2.56689H12.3987C6.95446 2.56689 2.54102 6.98033 2.54102 12.4246V30.8947C2.54102 36.339 6.95446 40.7524 12.3987 40.7524H30.8689C36.3131 40.7524 40.7266 36.339 40.7266 30.8947V12.4246C40.7266 6.98033 36.3131 2.56689 30.8689 2.56689Z" fill="url(#paint0_linear_1422_54193)"/>
<path d="M21.6321 7.78662C19.2472 7.78702 16.9044 8.41553 14.8395 9.60891C12.7746 10.8023 11.0604 12.5185 9.86944 14.5847C8.67844 16.651 8.05263 18.9945 8.05498 21.3794C8.05733 23.7644 8.68775 26.1066 9.88281 28.1706L8.03711 35.2359L15.2189 33.3336C17.0387 34.3082 19.0567 34.8551 21.1195 34.9327C23.1823 35.0102 25.2357 34.6164 27.1234 33.7811C29.0112 32.9459 30.6836 31.6912 32.0136 30.1125C33.3436 28.5337 34.2961 26.6725 34.7987 24.6704C35.3014 22.6682 35.3408 20.5778 34.9142 18.5581C34.4875 16.5384 33.606 14.6425 32.3365 13.0147C31.0671 11.3869 29.4432 10.07 27.5883 9.16403C25.7334 8.25809 23.6964 7.78702 21.6321 7.78662ZM29.6171 29.3502C27.7939 31.1723 25.4026 32.3164 22.8398 32.5926C20.2771 32.8687 17.6969 32.2604 15.5274 30.8686L11.3553 31.9752L12.4217 27.8999C11.1759 26.1442 10.4578 24.0691 10.3521 21.9189C10.2464 19.7688 10.7575 17.6332 11.8251 15.7638C12.8927 13.8944 14.4724 12.3692 16.378 11.3677C18.2836 10.3662 20.4358 9.93022 22.5809 10.1111C24.726 10.2921 26.7748 11.0824 28.4857 12.3889C30.1967 13.6954 31.4985 15.4637 32.2379 17.4855C32.9774 19.5073 33.1235 21.6983 32.6592 23.8004C32.1948 25.9024 31.1393 27.828 29.6171 29.3502Z" fill="white"/>
<path d="M28.4368 24.9223C28.4375 25.1456 28.4185 25.3685 28.3802 25.5884C28.3441 25.8114 28.2892 26.031 28.2161 26.2447C28.0479 26.7196 27.1292 27.3012 27.1292 27.3012C26.4763 27.7358 25.6962 27.9381 24.9143 27.8755C24.731 27.8567 24.5489 27.8277 24.3688 27.7885C24.0637 27.7204 23.9152 27.6769 23.9152 27.6769C23.7676 27.6335 23.3845 27.5129 23.3845 27.5129C23.0014 27.3931 22.9152 27.3701 22.9152 27.3701C22.3334 27.1952 21.7695 26.9653 21.2311 26.6835C19.99 26.0093 18.6381 24.8009 18.6381 24.8009C17.8377 24.0894 17.1141 23.2959 16.4791 22.4335C16.1413 21.9287 15.8502 21.3941 15.6095 20.8364C15.5767 20.7543 15.4151 20.386 15.4151 20.386C15.2511 20.0185 15.1936 19.8766 15.1936 19.8766C15.1346 19.7339 15.0296 19.4385 15.0296 19.4385C14.9697 19.2643 14.9206 19.0865 14.8827 18.9062C14.8526 18.7435 14.8323 18.5791 14.822 18.414C14.7745 17.551 15.2035 16.6429 15.2035 16.6429C15.6752 15.6668 16.1329 15.4436 16.1329 15.4436C16.3376 15.3512 16.5487 15.2736 16.7645 15.2115C16.9782 15.1452 17.1981 15.1012 17.4208 15.0802C17.4875 15.0737 17.5548 15.0795 17.6193 15.0975C17.7916 15.1442 18.1566 15.7824 18.1566 15.7824C18.2698 15.9547 18.4659 16.2746 18.4659 16.2746C18.6627 16.5929 18.8276 16.8488 18.8276 16.8488C18.9917 17.1072 19.1459 17.3336 19.1459 17.3336C19.1763 17.3697 19.3231 17.5592 19.3231 17.5592C19.4038 17.6612 19.4772 17.7686 19.5429 17.8808C19.588 17.962 19.6159 18.0516 19.625 18.1441C19.6348 18.3319 19.3838 18.6281 19.3838 18.6281C19.2133 18.8241 19.0285 19.0073 18.8309 19.176C18.6359 19.3414 18.451 19.5184 18.2772 19.706C18.0245 19.9832 18.0311 20.1522 18.0311 20.1522C18.041 20.224 18.0606 20.2941 18.0893 20.3606C18.1435 20.4844 18.1804 20.5484 18.1804 20.5484C18.2165 20.6116 18.324 20.7658 18.324 20.7658C18.4314 20.92 18.4413 20.9381 18.4413 20.9381C18.9365 21.7121 19.5259 22.4216 20.1959 23.0504C21.1663 23.9183 22.4928 24.5589 22.4928 24.5589C22.5125 24.5671 22.6774 24.6566 22.6774 24.6566C22.8414 24.7468 22.9095 24.7755 22.9095 24.7755C22.9768 24.805 23.1064 24.8444 23.1064 24.8444C23.1751 24.8678 23.2471 24.8797 23.3197 24.8797C23.4886 24.8707 23.7364 24.5885 23.7364 24.5885C23.903 24.3946 24.058 24.1911 24.2007 23.979C24.3467 23.7643 24.5082 23.5606 24.6838 23.3695C24.9504 23.0865 25.1383 23.0758 25.1383 23.0758C25.231 23.075 25.3229 23.0923 25.409 23.1267C25.5271 23.1808 25.6419 23.2419 25.7527 23.3096C25.9578 23.4343 25.9988 23.4605 25.9988 23.4605C26.2449 23.5885 26.5172 23.723 26.5172 23.723C26.7929 23.8584 27.1308 24.0184 27.1308 24.0184C27.4688 24.1783 27.6526 24.271 27.6526 24.271C28.3277 24.563 28.3908 24.7287 28.3908 24.7287C28.4155 24.7907 28.431 24.8559 28.4368 24.9223Z" fill="white"/>
<defs>
<linearGradient id="paint0_linear_1422_54193" x1="40.7266" y1="40.7524" x2="2.54102" y2="2.56689" gradientUnits="userSpaceOnUse">
<stop stop-color="#39BB3F"/>
<stop offset="1" stop-color="#55EA6E"/>
</linearGradient>
</defs>
</svg>
