<svg width="24" height="23" viewBox="0 0 24 23" fill="none" xmlns="http://www.w3.org/2000/svg">
<path d="M12.6484 13.2705C12.6484 12.7182 13.0962 12.2705 13.6484 12.2705H22.0369C22.5892 12.2705 23.0369 12.7182 23.0369 13.2705V21.6537C23.0369 22.206 22.5892 22.6537 22.0369 22.6537H13.6484C13.0962 22.6537 12.6484 22.206 12.6484 21.6537V13.2705ZM16.7898 21.1871C16.7898 21.1871 16.7898 21.187 16.7898 21.1869C16.7339 21.0669 16.6992 20.9879 16.6602 20.911C16.3062 20.2082 15.9506 19.5059 15.5971 18.8026C15.4101 18.4301 15.4327 18.2705 15.7098 17.9486C16.1666 17.4176 16.6239 16.8865 17.0801 16.3545C17.3637 16.0238 17.278 15.5168 16.9055 15.291C16.061 14.7788 15.2301 14.2752 14.3964 13.7762C14.271 13.7013 14.1262 13.8666 14.1262 14.0127V20.1875C14.1262 20.7398 14.5739 21.1875 15.1262 21.1875H16.7894C16.7896 21.1875 16.7898 21.1874 16.7898 21.1871ZM16.6344 13.7461C16.6347 13.7461 16.6348 13.7464 16.6348 13.7466C16.6312 13.7574 16.6276 13.768 16.6238 13.7787C16.6199 13.7898 16.6243 13.8022 16.6344 13.8083C17.7678 14.4966 18.9014 15.185 20.0506 15.8829C20.717 16.2876 21.5664 15.8079 21.5676 15.0282C21.5681 14.6913 21.57 14.3583 21.5744 14.0254C21.5776 13.7978 21.5181 13.7272 21.2815 13.7293C19.8069 13.7403 18.3324 13.7346 16.8578 13.7351C16.7835 13.7351 16.7092 13.7425 16.6344 13.7461Z" fill="white"/>
<path d="M0.720703 1.3584C0.720703 0.806114 1.16842 0.358398 1.7207 0.358398H10.1076C10.6599 0.358398 11.1076 0.806114 11.1076 1.3584V9.74106C11.1076 10.2933 10.6599 10.7411 10.1076 10.7411H1.7207C1.16842 10.7411 0.720703 10.2933 0.720703 9.74106V1.3584ZM2.17369 8.98004C2.17369 9.14365 2.30194 9.28597 2.46555 9.28597C3.15885 9.28703 3.85215 9.28018 4.54545 9.29071C4.72879 9.29335 4.82151 9.24066 4.89526 9.06576C5.31514 8.06848 5.8525 7.13916 6.55002 6.30572C6.59954 6.24672 6.6164 6.10922 6.58268 6.04073C6.08905 5.03976 5.7424 3.98664 5.44264 2.91561C5.39223 2.73524 5.33002 2.55806 5.26155 2.3624C5.22281 2.2517 5.0641 2.23357 5.01327 2.33926C4.43587 3.53568 3.58926 4.45077 2.31962 4.93545C2.2485 4.96285 2.18159 5.10404 2.18001 5.1936C2.16789 5.83263 2.17369 6.4722 2.17369 7.11124C2.17369 7.72647 2.17369 8.3417 2.17369 8.98004ZM6.65781 8.17666C6.37463 8.65799 6.72163 9.2649 7.28008 9.2649H8.05562C8.52729 9.2649 8.69332 8.68722 8.33648 8.37878C8.19192 8.25391 8.05641 8.11858 7.92249 7.97566C7.56912 7.59851 6.96499 7.65452 6.70292 8.09998C6.6879 8.12551 6.67287 8.15107 6.65781 8.17666Z" fill="white"/>
<path d="M10.1187 12.2881C10.671 12.2881 11.1187 12.7358 11.1187 13.2881V21.6539C11.1187 22.2062 10.671 22.6539 10.1187 22.6539H1.71289C1.1606 22.6539 0.712891 22.2062 0.712891 21.6539V13.2881C0.712891 12.7358 1.16061 12.2881 1.71289 12.2881H10.1187ZM3.188 13.749C2.63571 13.749 2.188 14.1967 2.188 14.749V20.7075C2.188 20.9721 2.40255 21.1867 2.6672 21.1867C3.023 21.1867 3.2548 20.811 3.14376 20.473C2.85156 19.5834 2.876 18.7022 3.46397 17.8598C4.22166 16.774 5.29804 16.6326 6.48595 16.9178C6.56295 16.9363 6.64642 16.8992 6.67444 16.8251C6.93575 16.1207 7.44677 15.7198 8.18063 15.5881C8.24965 15.576 8.32709 15.5728 8.38346 15.5381C8.6474 15.3742 8.9282 15.2272 9.16053 15.0255C9.60179 14.6426 8.86267 13.749 8.27845 13.749H3.188Z" fill="white"/>
<path d="M22.0414 0.375C22.5936 0.375 23.0414 0.822715 23.0414 1.375V9.73659C23.0414 10.2889 22.5936 10.7366 22.0414 10.7366H13.6387C13.0864 10.7366 12.6387 10.2889 12.6387 9.73659V1.375C12.6387 0.822714 13.0864 0.375 13.6387 0.375H22.0414ZM16.1552 9.27056C16.155 9.27099 16.1553 9.27149 16.1557 9.27149H17.2496C17.4662 9.27149 17.6336 9.10623 17.673 8.89323C17.7778 8.32795 17.8453 7.7516 18.006 7.20265C18.2004 6.53885 18.6671 6.10369 19.3562 5.93248C19.4186 5.91704 19.48 5.89883 19.5426 5.87973C19.6253 5.85449 19.6928 5.7731 19.6723 5.68908C19.4421 4.73974 19.7582 4.1871 20.7075 3.91421C20.7173 3.9114 20.7271 3.90864 20.7369 3.90594C21.1973 3.77926 21.5425 3.40206 21.5425 2.92458V2.83167C21.5425 2.27939 21.0948 1.82742 20.5427 1.81731C19.9984 1.80735 19.4596 1.80342 18.9258 1.85222C18.3695 1.90332 17.9949 2.23575 17.9175 2.79839C17.8706 3.13872 17.7399 3.47589 17.5982 3.79251C17.2178 4.64175 16.5746 5.17279 15.6342 5.31135C15.4147 5.3437 15.3359 5.63531 15.4828 5.80161C16.3593 6.79399 16.2121 8.03903 16.1552 9.2703C16.1552 9.27039 16.1552 9.27048 16.1552 9.27056ZM21.5473 5.70163C21.5473 5.28624 21.1046 4.91374 20.7581 5.14277C20.6912 5.18702 20.7966 5.48994 20.8224 5.67433C20.8271 5.7091 20.8303 5.74387 20.8329 5.77864C20.8793 6.37079 20.6585 6.70427 20.0948 6.88866C19.9036 6.95135 19.7018 6.98823 19.5206 7.07147C19.3926 7.12995 19.253 7.22425 19.185 7.34121C19.033 7.60295 18.949 7.8791 18.8965 8.16292C18.7885 8.74714 19.2925 9.2678 19.8866 9.2678H20.5473C21.0996 9.2678 21.5473 8.82009 21.5473 8.2678V5.70163Z" fill="white"/>
</svg>
